<?xml version="1.0" encoding="utf-8"?>
<!-- Generator: Adobe Illustrator 22.1.0, SVG Export Plug-In . SVG Version: 6.00 Build 0)  -->
<svg version="1.1" id="Capa_1" xmlns="http://www.w3.org/2000/svg" xmlns:xlink="http://www.w3.org/1999/xlink" x="0px" y="0px"
	 viewBox="0 0 520.8 453.7" style="enable-background:new 0 0 520.8 453.7;" xml:space="preserve">
<style type="text/css">
	.st0{fill:#D4F7FF;}
	.st1{fill:#434343;}
</style>
<g>
	<g>
		<g>
			<path class="st0" d="M520.7,328.8l-6.6-31.3c-0.9-4.2-4.9-6.9-9.1-6.2l-39.1,8l-13-62.6l8-1.6c2.1-0.5,3.9-1.7,5.1-3.4
				c1.1-1.8,1.5-4,1.1-6.1l-6.6-31.3c-0.4-2.1-1.7-3.9-3.4-5c-1.8-1.2-3.9-1.6-6-1.2l-8,1.7l-13-62.7l8-1.6c2.1-0.4,3.9-1.7,5-3.4
				c1.2-1.8,1.6-3.9,1.2-6l-6.6-31.4c-0.9-4.3-5.1-7-9.4-6.2L138,138.8c-4.3,0.9-7,5.1-6.2,9.4l6.5,31.4c0.5,2.1,1.7,3.9,3.5,5
				c1.3,0.8,2.8,1.3,4.3,1.3c0.6,0.1,1.1,0.1,1.7,0l8-1.6l13.2,62.5l-8,1.6c-2.1,0.4-3.9,1.7-5,3.4c-1.2,1.8-1.6,4-1.2,6.1l6.2,31.3
				c0.8,3.8,4.1,6.5,8,6.4h1.6l8-1.7l13,62.6l-31.4,6.6L97,58.8c-0.4-2.1-1.7-3.9-3.4-5L54.4,28.3c-3.7-2.4-8.6-1.4-11,2.3
				c-2.4,3.7-1.4,8.6,2.3,11l36.2,24l62.6,301l-7.5,1c-4.3,0.9-7.1,5.1-6.2,9.4c0,0,0,0,0,0l6.2,31.6c0.8,3.8,4.1,6.5,8,6.4h1.6
				l50.3-10.5c0,0.6-1,1-1.4,1.7c-4.6,7.1-6.3,15.7-4.6,24c0.7,3.3,1.9,6.4,3.6,9.4c0,0,8.7,14.7,28.1,14c19.3-0.7,27.1-14,27.1-14
				c8.5-14.7,4.1-33.5-10.1-42.8c-0.6-0.4-1.3-0.7-1.9-1l186.1-38.7c0,0.6-1,1-1.4,1.7c-4.6,7.1-6.3,15.7-4.6,24
				c1.7,8.3,6.7,15.6,13.8,20.2c7.1,4.7,15.7,6.4,24,4.6c8.3-1.7,15.6-6.7,20.2-13.8c9.7-14.8,5.5-34.6-9.2-44.3c0,0,0,0,0,0
				c-0.6-0.4-1.3-0.7-1.9-1l49.6-10.3c2.1-0.5,3.9-1.7,5.1-3.4C520.7,333,521.1,330.9,520.7,328.8z M396.4,280.8L201,321.9
				l-6.5-31.3L437.3,240l13,62.6l-243.2,50.6l-3.3-15.7l195.8-40.8L396.4,280.8z M160,167.1l-8,1.6l-3-15.8l274.2-57.2l3.2,16
				L336,130.4L160,167.1z M414,130.4l6.6,31.4L225,202.4l3.3,16l195.8-40.7l3.2,16l-243,49.8l-13-62.6L414,130.4z M183,276.5l-8,1.7
				l-3.1-15.7l8-1.6l258.5-53.8l8-1.7l3.3,16l-8,1.7L183,276.5z M235.6,432.1l-0.2,0.3c-2.3,3.5-5.9,6-10.1,6.9
				c-1,0.1-2.1,0.1-3.1,0c-3.2,0-6.2-0.9-8.9-2.6c-3.5-2.3-6-5.9-6.9-10.1c-0.7-4.1,0.2-8.3,2.6-11.8c2.2-3.6,5.8-6.2,9.9-7.2
				c4.2-0.9,8.5,0,12.1,2.3C238.4,414.8,240.4,424.8,235.6,432.1z M465,373.1c0.9,4.2,0,8.5-2.3,12.1h-0.2
				c-4.9,7.4-14.8,9.4-22.2,4.5s-9.4-14.8-4.5-22.2c2.3-3.5,5.9-6,10.1-6.8c4.2-0.9,8.5,0,12.1,2.3
				C461.6,365.3,464.1,368.9,465,373.1z M151,397.6l-3.3-16l8-1.7l46.9-9.8L461,316.4l39.1-8l3.2,15.8L151,397.6z"/>
		</g>
	</g>
	<g>
		<g>
			
				<rect x="413.6" y="276.1" transform="matrix(0.979 -0.2038 0.2038 0.979 -49.0486 91.8785)" class="st0" width="16" height="16"/>
		</g>
	</g>
	<g>
		<g>
			
				<rect x="194.9" y="207.2" transform="matrix(0.979 -0.2038 0.2038 0.979 -39.6008 45.8724)" class="st0" width="16" height="16"/>
		</g>
	</g>
	<path class="st0" d="M140,149.6l6,27l15-2l17,78l-15,6l6,28l14-1l22,76l-64,15l6,28l56-6c0,0-9,33,3,39s44.3,4.8,39-18
		s-27-30-27-30l211-44l5,11c0,0-13,18-10,28s29,18,36,12s15-22,7-35s-20-16-20-16l64-13l-6-32l-46,6l-20-74l18-7l-6-30l-19,2l-12-74
		l17-7l-11-32L140,149.6z"/>
</g>
<g>
	<path class="st1" d="M495.7,301.8l-6.6-31.3c-0.9-4.2-4.9-6.9-9.1-6.2l-39.1,8l-13-62.6l8-1.6c2.1-0.5,3.9-1.7,5.1-3.4
		c1.1-1.8,1.5-4,1.1-6.1l-6.6-31.3c-0.4-2.1-1.7-3.9-3.4-5c-1.8-1.2-3.9-1.6-6-1.2l-8,1.7l-13-62.7l8-1.6c2.1-0.4,3.9-1.7,5-3.4
		c1.2-1.8,1.6-3.9,1.2-6l-6.6-31.4c-0.9-4.3-5.1-7-9.4-6.2L113,111.8c-4.3,0.9-7,5.1-6.2,9.4l6.5,31.4c0.5,2.1,1.7,3.9,3.5,5
		c1.3,0.8,2.8,1.3,4.3,1.3c0.6,0.1,1.1,0.1,1.7,0l8-1.6l13.2,62.5l-8,1.6c-2.1,0.4-3.9,1.7-5,3.4c-1.2,1.8-1.6,4-1.2,6.1l6.2,31.3
		c0.8,3.8,4.1,6.5,8,6.4h1.6l8-1.7l13,62.6l-31.4,6.6L72,31.8c-0.4-2.1-1.7-3.9-3.4-5L29.4,1.3c-3.7-2.4-8.6-1.4-11,2.3
		c-2.4,3.7-1.4,8.6,2.3,11l36.2,24l62.6,301l-7.5,1c-4.3,0.9-7.1,5.1-6.2,9.4c0,0,0,0,0,0l6.2,31.6c0.8,3.8,4.1,6.5,8,6.4h1.6
		l50.3-10.5c0,0.6-1,1-1.4,1.7c-4.6,7.1-6.3,15.7-4.6,24c0.7,3.3,1.9,6.4,3.6,9.4H56c-4.4,0-8,3.6-8,8s3.6,8,8,8h400
		c4.4,0,8-3.6,8-8s-3.6-8-8-8H224.8c8.5-14.7,4.1-33.5-10.1-42.8c-0.6-0.4-1.3-0.7-1.9-1l186.1-38.7c0,0.6-1,1-1.4,1.7
		c-4.6,7.1-6.3,15.7-4.6,24c1.7,8.3,6.7,15.6,13.8,20.2c7.1,4.7,15.7,6.4,24,4.6c8.3-1.7,15.6-6.7,20.2-13.8
		c9.7-14.8,5.5-34.6-9.2-44.3c0,0,0,0,0,0c-0.6-0.4-1.3-0.7-1.9-1l49.6-10.3c2.1-0.5,3.9-1.7,5.1-3.4
		C495.7,306,496.1,303.9,495.7,301.8z M371.4,253.8L176,294.9l-6.5-31.3L412.3,213l13,62.6l-243.2,50.6l-3.3-15.7l195.8-40.8
		L371.4,253.8z M135,140.1l-8,1.6l-3-15.8l274.2-57.2l3.2,16L311,103.4L135,140.1z M389,103.4l6.6,31.4L200,175.4l3.3,16l195.8-40.7
		l3.2,16l-243,49.8l-13-62.6L389,103.4z M158,249.5l-8,1.7l-3.1-15.7l8-1.6l258.5-53.8l8-1.7l3.3,16l-8,1.7L158,249.5z M210.6,405.1
		l-0.2,0.3c-2.3,3.5-5.9,6-10.1,6.9c-1,0.1-2.1,0.1-3.1,0c-3.2,0-6.2-0.9-8.9-2.6c-3.5-2.3-6-5.9-6.9-10.1
		c-0.7-4.1,0.2-8.3,2.6-11.8c2.2-3.6,5.8-6.2,9.9-7.2c4.2-0.9,8.5,0,12.1,2.3C213.4,387.8,215.4,397.8,210.6,405.1z M440,346.1
		c0.9,4.2,0,8.5-2.3,12.1h-0.2c-4.9,7.4-14.8,9.4-22.2,4.5s-9.4-14.8-4.5-22.2c2.3-3.5,5.9-6,10.1-6.8c4.2-0.9,8.5,0,12.1,2.3
		C436.6,338.3,439.1,341.9,440,346.1z M126,370.6l-3.3-16l8-1.7l46.9-9.8L436,289.4l39.1-8l3.2,15.8L126,370.6z"/>
</g>
<g>
	<rect x="388.6" y="249.1" transform="matrix(0.979 -0.2038 0.2038 0.979 -44.0706 86.2167)" class="st1" width="16" height="16"/>
</g>
<g>
	<rect x="169.9" y="180.2" transform="matrix(0.979 -0.2038 0.2038 0.979 -34.6228 40.2106)" class="st1" width="16" height="16"/>
</g>
<g>
	<path class="st1" d="M24,412.6H8c-4.4,0-8,3.6-8,8s3.6,8,8,8h16c4.4,0,8-3.6,8-8S28.4,412.6,24,412.6z"/>
</g>
<g>
	<path class="st1" d="M504,412.6h-16c-4.4,0-8,3.6-8,8s3.6,8,8,8h16c4.4,0,8-3.6,8-8S508.4,412.6,504,412.6z"/>
</g>
</svg>
