<?xml version="1.0" encoding="utf-8"?>
<!-- Generator: Adobe Illustrator 22.1.0, SVG Export Plug-In . SVG Version: 6.00 Build 0)  -->
<svg version="1.1" id="Layer_1" xmlns="http://www.w3.org/2000/svg" xmlns:xlink="http://www.w3.org/1999/xlink" x="0px" y="0px"
	 viewBox="0 0 505.5 588.4" style="enable-background:new 0 0 505.5 588.4;" xml:space="preserve">
<style type="text/css">
	.st0{fill:#D4F7FF;}
	.st1{fill:#434343;}
	.st2{fill:#434343;stroke:#434343;stroke-width:6;stroke-miterlimit:10;}
</style>
<circle class="st0" cx="270.5" cy="353.4" r="235"/>
<g>
	<g>
		<path class="st1" d="M440.3,210.9c-2.5-4.3-8.1-5.7-12.4-3.2c-4.3,2.5-5.7,8.1-3.2,12.4C443,251,453.2,286,454.7,321.9h-69.6
			c-0.4-16.5-1.8-32.9-4.3-48.8c-0.8-4.9-5.4-8.3-10.3-7.5c-4.9,0.8-8.3,5.4-7.5,10.3c2.4,15,3.7,30.4,4.1,46H245.5v-81.8
			c10.7-0.4,21.4-1.5,31.9-3.3c4.9-0.9,8.2-5.5,7.3-10.4c-0.9-4.9-5.5-8.2-10.4-7.3c-9.5,1.7-19.1,2.7-28.8,3.1V112.7
			c3.9,0.2,7.9,0.4,11.8,0.8c5,0.5,9.4-3.2,9.8-8.1c0.5-5-3.2-9.4-8.1-9.8c-7.4-0.7-15-1.1-22.5-1.1c-70.9,0-137.5,31.4-182.6,86.2
			c-3.2,3.8-2.6,9.5,1.2,12.7c1.7,1.4,3.7,2.1,5.7,2.1c2.6,0,5.2-1.1,7-3.3c3.5-4.2,7.1-8.3,10.8-12.2c10.1,9,20.8,17.1,32,24.2
			c-14,35-21.9,75.4-22.9,117.8H18.3c1.2-31.2,9-61.2,23-89.1c2.2-4.5,0.5-9.9-4-12.1c-4.5-2.2-9.9-0.5-12.1,4
			C8.5,257.8,0,293.5,0,330.9c0,130.4,106.1,236.5,236.5,236.5c130.4,0,236.5-106.1,236.5-236.5C473,288.6,461.7,247.1,440.3,210.9z
			 M91.7,167.3c20.8-18.5,44.8-32.7,70.8-42c-11.8,10.7-22.7,24.1-32.5,40c-4.3,7-8.3,14.4-12,22C108.8,181.4,100,174.7,91.7,167.3z
			 M18.3,339.9h69.6c1,42.3,8.9,82.7,22.9,117.8c-11.2,7.1-21.9,15.1-32,24.1C43.1,444.6,20.5,394.9,18.3,339.9z M91.8,494.4
			c8.3-7.3,17.1-14,26.2-19.9c3.7,7.7,7.7,15,12,22c9.7,15.8,20.6,29.2,32.4,39.9C136.2,526.9,112.3,512.5,91.8,494.4z M227.5,548.8
			c-30.7-3.6-59.6-25.2-82.1-61.8c-4.2-6.9-8.1-14.2-11.7-21.8c28.7-15.4,60.7-24.1,93.8-25.5V548.8z M227.5,321.9h-54.6
			c-5,0-9,4-9,9s4,9,9,9h54.6v81.8c-35.7,1.3-70,10.6-101,26.9c-12.5-32.3-19.6-69.6-20.6-108.6h36.8c5,0,9-4,9-9s-4-9-9-9h-36.8
			c1-39.1,8.1-76.3,20.6-108.6c31,16.3,65.3,25.5,101,26.9L227.5,321.9L227.5,321.9z M227.5,222c-33.2-1.3-65.1-10.1-93.8-25.5
			c3.6-7.6,7.5-14.9,11.7-21.8c22.5-36.6,51.4-58.2,82.1-61.8L227.5,222L227.5,222z M310.6,536.4c11.8-10.7,22.7-24.1,32.4-40
			c2.6-4.2,1.3-9.8-3-12.4c-4.3-2.6-9.8-1.3-12.4,3c-22.5,36.7-51.4,58.3-82.1,61.9v-109c50.4,2,98,21.2,135.7,54.6
			C360.7,512.5,336.8,526.9,310.6,536.4z M394.3,481.8c-41.2-37-93.4-58.1-148.7-60.1v-81.8h121.6c-0.8,31.1-5.4,61-13.8,88.9
			c-1.4,4.8,1.3,9.8,6,11.3c0.9,0.3,1.8,0.4,2.6,0.4c3.9,0,7.5-2.5,8.6-6.4c9-29.6,13.9-61.2,14.6-94.1h69.6
			C452.5,394.9,429.9,444.6,394.3,481.8z"/>
	</g>
</g>
<g>
	<g>
		<g>
			<path class="st2" d="M472.3,106.4c-2.1,0-3.8,1.7-3.8,3.8v58.4L379.1,219V118.4l89.3-50.4v26.8c0,2.1,1.7,3.8,3.8,3.8
				c2.1,0,3.8-1.7,3.8-3.8V61.5c0,0,0-0.1,0-0.1c0-1.3-0.8-2.5-1.9-3.2l-97-54.7c-0.6-0.3-1.3-0.5-2-0.5l-44.6,0.9
				c-1.7,0-3.2,1.2-3.6,2.9c-0.4,1.7,0.3,3.4,1.8,4.3l15.5,8.8l-15.6,8.8L308.1,17c-1.7-1-3.9-0.5-5.1,1.2l-27.9,41.2
				c-0.4,0.6-0.6,1.3-0.7,2.1c0,0,0,0,0,0.1v109.4c0,1.4,0.7,2.7,2,3.3l97,54.7c0.6,0.3,1.2,0.5,1.9,0.5s1.3-0.2,1.9-0.5l97-54.7
				c1.2-0.7,2-2,2-3.3v-60.7C476.1,108.1,474.4,106.4,472.3,106.4z M387.6,104.9l18.8-27.7c0.6-0.9,0.8-2,0.6-3
				c-0.2-1-0.9-1.9-1.8-2.5L379.1,57V39.4l46.7,26.3c0.6,0.3,1.2,0.5,1.9,0.5c0,0,0.1,0,0.1,0l29.3-0.6L387.6,104.9z M374.3,10.7
				L458.2,58l-29.5,0.6l-83.9-47.3L374.3,10.7z M352.2,24.2l19.3,10.9v17.6L336.6,33L352.2,24.2z M374.1,111.1l-58.3-32.9
				c-1.8-1-4.2-0.4-5.2,1.5c-1,1.8-0.4,4.2,1.5,5.2l59.4,33.5V219l-89.3-50.4V68.1l16.8,9.5c1.8,1,4.2,0.4,5.2-1.5
				c1-1.8,0.4-4.2-1.5-5.2l-18.9-10.6l23.6-34.8l90.3,50.9L374.1,111.1z"/>
		</g>
	</g>
	<g>
		<g>
			<path class="st2" d="M436.2,116.5l-10.4-7.3c-0.9-0.6-2-0.8-3-0.6c-1.1,0.2-2,0.9-2.5,1.9l-10.8,19.2c-1,1.8-0.4,4.2,1.5,5.2
				c0.6,0.3,1.2,0.5,1.9,0.5c1.3,0,2.6-0.7,3.3-2l3.6-6.4v47.8c0,2.1,1.7,3.8,3.8,3.8c2.1,0,3.8-1.7,3.8-3.8v-55.1l4.4,3.1
				c1.7,1.2,4.1,0.8,5.3-1S438,117.7,436.2,116.5z"/>
		</g>
	</g>
</g>
</svg>
