<?xml version="1.0" encoding="utf-8"?>
<!-- Generator: Adobe Illustrator 22.1.0, SVG Export Plug-In . SVG Version: 6.00 Build 0)  -->
<svg version="1.1" id="Capa_1" xmlns="http://www.w3.org/2000/svg" xmlns:xlink="http://www.w3.org/1999/xlink" x="0px" y="0px"
	 viewBox="0 0 549.2 496.9" style="enable-background:new 0 0 549.2 496.9;" xml:space="preserve">
<style type="text/css">
	.st0{fill:#D4F7FF;}
	.st1{fill:#434343;}
</style>
<g>
	<g>
		<g>
			<path class="st0" d="M541.7,135.8c4.1,0,7.5-3.4,7.5-7.5v-20.8c0-29.6-24-53.6-53.6-53.6h-10.1l-1.2-2.8
				c-6.1-14.1-19.9-23.2-35.3-23.2h-49.8c-52.9,0-96,43.1-96,96V277c0,22.2,18.1,40.3,40.3,40.3h42.9v10.6H224.5h-15.6v-14.3
				c9-4.2,17.4-9.9,24.7-16.9c15.7-14.9,25.6-34.5,28.3-55.8c15.2,0,27.6-12.4,27.6-27.6v-9.5c0-6.7-2.4-12.9-6.4-17.7l17.3-68.3
				c1-4-1.4-8.1-5.4-9.1c-4-1-8.1,1.4-9.1,5.4l-16,63.2c-2.3-0.7-4.6-1.1-7.1-1.1v-25.3c0-2.4-1.1-4.6-3-6c-1.9-1.4-4.4-1.8-6.7-1.1
				c-41.1,12.6-77.1,11.9-104.2-1.9c-20.3-10.4-28.7-24.7-28.7-24.8c-1.7-3-5.1-4.4-8.4-3.6c-3.3,0.9-5.6,3.8-5.6,7.3
				c0,18.6-4,22.6-23.6,23.9c-3.9,0.3-7,3.5-7,7.5v24.2c-2.7,0.1-5.4,0.6-7.9,1.4c-3.2-12.3-5.3-21.4-5.9-26.1
				c-1.2-9.4-0.4-37.4,0.1-47.4c0-0.1,0-0.2,0-0.3c0-12.3,10-22.3,22.3-22.3h11.4c2,0,3.9-0.8,5.3-2.2l26.8-26.8
				c5.4-5.4,13.4-7.7,20.9-5.9l94.3,22.4c5,1.2,10.1,1.8,15.2,1.8c14.8,0,29.3-5.1,40.9-14.3c0.2-0.1,0.4-0.3,0.9,0
				c0.5,0.3,0.4,0.6,0.3,0.8l-5.7,22.5c-1,4,1.4,8.1,5.4,9.1c4,1,8.1-1.4,9.1-5.4l5.7-22.5c1.7-6.7-1-13.4-6.7-17.1
				c-5.8-3.7-13-3.4-18.3,0.9c-8.9,7.1-20.1,11-31.6,11c-3.9,0-7.9-0.5-11.7-1.4l-94.3-22.4c-12.5-3-25.9,0.8-35,9.9L92.3,66.4h-8.3
				c-20.5,0-37.2,16.6-37.3,37.1c-0.1,2.9-1.5,37.4,0.1,49.7c0.8,6.2,3.4,17.5,7.7,33.5c-3.7,4.7-5.9,10.6-5.9,17v9.5
				c0,15.2,12.4,27.6,27.6,27.6c4.1,32.4,24.8,59.4,53,72.7v14.3h-15.6c-4.6,0-9.1,0.5-13.5,1.5c-3.7-6.4-10.5-10.7-18.4-10.7H63.4
				c-14.4,0-26.2,11.8-26.2,26.2v40.8c0,10.5,6.3,19.6,15.3,23.8v80c0,4.1,3.4,7.5,7.5,7.5h218.1c4.1,0,7.5-3.4,7.5-7.5V389
				c0-18.4-8.2-34.9-21.1-46.1h121.9v3.7c0,21.6,32.5,40.3,36.2,42.4c1.1,0.6,2.4,0.9,3.6,0.9c1.3,0,2.5-0.3,3.7-0.9
				c3.7-2.1,36.2-20.8,36.2-42.4v-3.7h15.6c25.4,0,46.1,20.7,46.1,46.1v92.9h-21v-50.2c0-4.1-3.4-7.5-7.5-7.5s-7.5,3.4-7.5,7.5v50.2
				H360.7v-86.3c0-4.1-3.4-7.5-7.5-7.5h-45c-4.1,0-7.5,3.4-7.5,7.5s3.4,7.5,7.5,7.5h37.5v86.3c0,4.1,3.4,7.5,7.5,7.5h182.1
				c4.1,0,7.5-3.4,7.5-7.5V389c0-33.7-27.4-61.1-61.1-61.1h-15.6v-10.6H509c22.2,0,40.2-18.1,40.2-40.3V163.7c0-4.1-3.4-7.5-7.5-7.5
				s-7.5,3.4-7.5,7.5v17c-4.1-2.7-9.1-4.4-14.4-4.6v-36.2c0-17.2-5.2-33.8-15-47.9c-1.2-1.7-3.1-2.9-5.1-3.1
				c-2.1-0.3-4.2,0.3-5.8,1.6c-32.9,27-74.6,41.9-117.3,41.9c-11.8,0-23.6-1.1-35-3.3c-2.1-0.4-4.3,0.1-6,1.5
				c-1.7,1.3-2.8,3.4-2.9,5.5c-0.1,1.2-0.1,2.5-0.1,3.9v36.2c-5.3,0.2-10.2,1.8-14.4,4.6v-56.8c0-44.7,36.3-81,81-81h49.8
				c9.3,0,17.8,5.5,21.5,14.1l3.2,7.3c1.2,2.7,3.9,4.5,6.9,4.5h15c21.3,0,38.6,17.3,38.6,38.6v20.8
				C534.2,132.4,537.6,135.8,541.7,135.8z M90.6,232.9c-0.2-4-3.5-7.1-7.5-7.1h-6.8c-6.9,0-12.6-5.7-12.6-12.6v-9.5
				c0-7,5.7-12.6,12.6-12.6H83c4.1,0,7.5-3.4,7.5-7.5v-24.9c15.6-2.2,24.4-8.3,28.2-20.2c5.3,5.2,12.7,11,22.3,16
				c35,18.4,75.8,14.3,106.7,6.2v22.9c0,4.1,3.4,7.5,7.5,7.5h6.7c7,0,12.6,5.7,12.6,12.6v9.5c0,7-5.7,12.6-12.6,12.6H255
				c-4,0-7.3,3.1-7.5,7.1c-1,20.1-9.7,38.9-24.3,52.8c-7.3,6.9-15.7,12.3-24.7,16c0,0-0.1,0-0.1,0.1c-9.2,3.7-19.1,5.6-29.3,5.6
				c-10.3,0-20.2-2-29.3-5.6c-0.1-0.1-0.3-0.1-0.4-0.2C111.9,290.4,92.2,264.2,90.6,232.9z M193.9,319.1v16.3v11.2
				c0,6.6-2.6,12.9-7.3,17.5c-4.7,4.7-10.9,7.3-17.5,7.3c-13.7,0-24.8-11.1-24.8-24.8v-11.2v-16.3c7.9,2.2,16.2,3.3,24.8,3.3
				C177.5,322.4,185.9,321.3,193.9,319.1z M52.2,385.6v-40.8c0-6.2,5-11.2,11.2-11.2h18.3c3.4,0,6.2,2.8,6.2,6.2v50.7
				c0,3.4-2.8,6.2-6.2,6.2H63.4C57.3,396.8,52.2,391.8,52.2,385.6z M270.6,389v92.9h-21v-50.2c0-4.1-3.4-7.5-7.5-7.5
				s-7.5,3.4-7.5,7.5v50.2H103.5v-50.2c0-4.1-3.4-7.5-7.5-7.5s-7.5,3.4-7.5,7.5v50.2h-21v-70h14.2c11.7,0,21.2-9.5,21.2-21.2v-46.5
				c3.5-0.8,7.1-1.3,10.7-1.3h15.6v3.7c0,22,17.9,39.8,39.8,39.8c10.6,0,20.6-4.1,28.2-11.7c7.5-7.5,11.7-17.5,11.7-28.2v-3.7h15.6
				C249.9,342.9,270.6,363.6,270.6,389z M451.1,346.6c0,8.3-13.5,20.1-24.8,27.1c-11.3-7.1-24.8-18.8-24.8-27.1v-27.5
				c7.9,2.2,16.2,3.3,24.8,3.3c8.5,0,16.8-1.2,24.8-3.3V346.6z M534.2,236.3V277l0,0c0,13.9-11.3,25.3-25.2,25.3h-24.7
				c2.3-1.8,4.4-3.7,6.5-5.7c15.7-14.9,25.6-34.5,28.3-55.8C524.7,240.8,529.9,239.1,534.2,236.3z M333.5,191.1h6.7
				c4.1,0,7.5-3.4,7.5-7.5v-38.3c9.6,1.4,19.3,2.1,29,2.1c43.3,0,85.6-14.2,120-40c5.3,10,8.1,21.1,8.1,32.5v43.6
				c0,4.1,3.4,7.5,7.5,7.5h6.7c6.9,0,12.6,5.7,12.6,12.6v9.5c0,7-5.7,12.6-12.6,12.6h-6.8c-4,0-7.3,3.1-7.5,7.1
				c-1,20.1-9.7,38.9-24.3,52.8c-7.2,6.9-15.6,12.2-24.6,15.9c-0.1,0.1-0.3,0.1-0.4,0.2c-9.2,3.7-19.1,5.6-29.2,5.6
				c-10.3,0-20.2-2-29.3-5.6c-0.1-0.1-0.3-0.1-0.4-0.2c-27.4-11.2-47.1-37.4-48.8-68.7c-0.2-4-3.5-7.1-7.5-7.1h-6.8
				c-7,0-12.6-5.7-12.6-12.6v-9.5h0C320.8,196.7,326.5,191.1,333.5,191.1z M333.4,240.8c3.2,24.9,16.1,46.7,34.8,61.4h-24.7
				c-13.9,0-25.3-11.3-25.3-25.3v-40.7C322.6,239.1,327.8,240.8,333.4,240.8z"/>
		</g>
	</g>
	<path class="st0" d="M304.2,79.4l-14,52l-14,54c0,0,6.7,15.3,5.3,28c-1.3,12.7-22.7,26-28.7,27.3c0,0-7.2,53.9-45.3,69.3l-4,26
		l189.3,2.7l-0.7-28.7c0,0-52,10-65.3-1.3c-13.3-11.3-15.3-44-15.3-50c0-6,1.3-146,4.7-159.3c3.3-13.3,37.3-64,88-62.7
		C454.9,38,476.9,42,480.9,64c0,0,39.3-2.7,52,18.7c12.7,21.3,8.7,47.3,8.7,47.3l0.7,46l-1.3,105.3c0,0-9.3,31.3-28.7,32
		c-19.3,0.7-56,1.3-56,1.3l2.7,25.3c0,0,49.3-9.3,66.7,20c17.3,29.3,9.3,131.3,9.3,131.3l-182-1.3v-91.3h-76.7l2,92l-219.3,2l2-84
		c0,0-18.7-10-17.3-43.3c1.3-33.3,22-36,37.3-34.7c15.3,1.3,16,11.3,16,11.3l35.3-3.3l8.7-27.3c0,0-50.7-14-56.7-70.7
		c0,0-30-8.7-30-28s10-24,10-24s-14.7-42-12-66s10-47.3,39.3-47.3c0,0,29.3-36,59.3-32s84,22,95.3,22.7
		c11.3,0.7,56.7-16.7,59.3-11.3C308.2,60,304.2,79.4,304.2,79.4z"/>
</g>
<g>
	<g>
		<g>
			<path class="st1" d="M424.2,201c-3.8-1.6-8.2,0.3-9.8,4.1c-4.2,10.4-14.2,17.1-25.4,17.1c-7.3,0-14.2-2.8-19.4-8
				c-2.6-2.6-4.6-5.7-6-9c-1.6-3.8-5.9-5.7-9.8-4.1c-3.8,1.6-5.7,5.9-4.1,9.8c2.1,5.3,5.3,10,9.3,14c8,8,18.7,12.4,30,12.4
				c17.3,0,32.8-10.4,39.3-26.4C429.8,207,428,202.6,424.2,201z"/>
		</g>
	</g>
	<g>
		<g>
			<path class="st1" d="M345.9,149.7c-4.1,0-7.5,3.4-7.5,7.5v4.2c0,4.1,3.4,7.5,7.5,7.5s7.5-3.4,7.5-7.5v-4.2
				C353.4,153,350.1,149.7,345.9,149.7z"/>
		</g>
	</g>
	<g>
		<g>
			<path class="st1" d="M432.1,149.7c-4.1,0-7.5,3.4-7.5,7.5v4.2c0,4.1,3.4,7.5,7.5,7.5s7.5-3.4,7.5-7.5v-4.2
				C439.6,153,436.3,149.7,432.1,149.7z"/>
		</g>
	</g>
	<g>
		<g>
			<path class="st1" d="M167,201c-3.8-1.6-8.2,0.3-9.8,4.1c-4.2,10.4-14.2,17.1-25.4,17.1c-7.3,0-14.2-2.8-19.4-8
				c-2.6-2.6-4.6-5.7-6-9c-1.6-3.8-5.9-5.7-9.8-4.1c-3.8,1.6-5.7,5.9-4.1,9.8c2.1,5.3,5.3,10,9.3,14c8,8,18.7,12.4,30,12.4
				c17.3,0,32.8-10.4,39.3-26.4C172.6,207,170.8,202.6,167,201z"/>
		</g>
	</g>
	<g>
		<g>
			<path class="st1" d="M88.7,149.7c-4.1,0-7.5,3.4-7.5,7.5v4.2c0,4.1,3.4,7.5,7.5,7.5s7.5-3.4,7.5-7.5v-4.2
				C96.2,153,92.9,149.7,88.7,149.7z"/>
		</g>
	</g>
	<g>
		<g>
			<path class="st1" d="M174.9,149.7c-4.1,0-7.5,3.4-7.5,7.5v4.2c0,4.1,3.4,7.5,7.5,7.5s7.5-3.4,7.5-7.5v-4.2
				C182.4,153,179.1,149.7,174.9,149.7z"/>
		</g>
	</g>
	<g>
		<g>
			<path class="st1" d="M504.5,107.9c4.1,0,7.5-3.4,7.5-7.5V79.6C512,50,488,26,458.4,26h-10.1l-1.2-2.8C441,9.1,427.2,0,411.8,0
				h-49.8c-52.9,0-96,43.1-96,96v153.1c0,22.2,18.1,40.3,40.3,40.3h42.9V300H187.3h-15.6v-14.3c9-4.2,17.4-9.9,24.7-16.9
				c15.7-14.9,25.6-34.5,28.3-55.8c15.2,0,27.6-12.4,27.6-27.6v-9.5c0-6.7-2.4-12.9-6.4-17.7l17.3-68.3c1-4-1.4-8.1-5.4-9.1
				c-4-1-8.1,1.4-9.1,5.4l-16,63.2c-2.3-0.7-4.6-1.1-7.1-1.1v-25.3c0-2.4-1.1-4.6-3-6c-1.9-1.4-4.4-1.8-6.7-1.1
				c-41.1,12.6-77.1,11.9-104.2-1.9C91.3,103.4,82.9,89.1,82.8,89c-1.7-3-5.1-4.4-8.4-3.6c-3.3,0.9-5.6,3.8-5.6,7.3
				c0,18.6-4,22.6-23.6,23.9c-3.9,0.3-7,3.5-7,7.5v24.2c-2.7,0.1-5.4,0.6-7.9,1.4c-3.2-12.3-5.3-21.4-5.9-26.1
				c-1.2-9.4-0.4-37.4,0.1-47.4c0-0.1,0-0.2,0-0.3c0-12.3,10-22.3,22.3-22.3h11.4c2,0,3.9-0.8,5.3-2.2l26.8-26.8
				c5.4-5.4,13.4-7.7,20.9-5.9l94.3,22.4c5,1.2,10.1,1.8,15.2,1.8c14.8,0,29.3-5.1,40.9-14.3c0.2-0.1,0.4-0.3,0.9,0
				c0.5,0.3,0.4,0.6,0.3,0.8l-5.7,22.5c-1,4,1.4,8.1,5.4,9.1c4,1,8.1-1.4,9.1-5.4l5.7-22.5c1.7-6.7-1-13.4-6.7-17.1
				c-5.8-3.7-13-3.4-18.3,0.9c-8.9,7.1-20.1,11-31.6,11c-3.9,0-7.9-0.5-11.7-1.4L114.7,4.1c-12.5-3-25.9,0.8-35,9.9L55.1,38.6h-8.3
				c-20.5,0-37.2,16.6-37.3,37.1c-0.1,2.9-1.5,37.4,0.1,49.7c0.8,6.2,3.4,17.5,7.7,33.5c-3.7,4.7-5.9,10.6-5.9,17v9.5
				c0,15.2,12.4,27.6,27.6,27.6c4.1,32.4,24.8,59.4,53,72.7V300H76.4c-4.6,0-9.1,0.5-13.5,1.5c-3.7-6.4-10.5-10.7-18.4-10.7H26.2
				C11.8,290.8,0,302.5,0,317v40.8c0,10.5,6.3,19.6,15.3,23.8v80c0,4.1,3.4,7.5,7.5,7.5h218.1c4.1,0,7.5-3.4,7.5-7.5V361.1
				c0-18.4-8.2-34.9-21.1-46.1h121.9v3.7c0,21.6,32.5,40.3,36.2,42.4c1.1,0.6,2.4,0.9,3.6,0.9c1.3,0,2.5-0.3,3.7-0.9
				c3.7-2.1,36.2-20.8,36.2-42.4V315h15.6c25.4,0,46.1,20.7,46.1,46.1V454h-21v-50.2c0-4.1-3.4-7.5-7.5-7.5s-7.5,3.4-7.5,7.5V454
				H323.5v-86.3c0-4.1-3.4-7.5-7.5-7.5h-45c-4.1,0-7.5,3.4-7.5,7.5s3.4,7.5,7.5,7.5h37.5v86.3c0,4.1,3.4,7.5,7.5,7.5h182.1
				c4.1,0,7.5-3.4,7.5-7.5V361.1c0-33.7-27.4-61.1-61.1-61.1h-15.6v-10.6h42.9c22.2,0,40.2-18.1,40.2-40.3V135.8
				c0-4.1-3.4-7.5-7.5-7.5s-7.5,3.4-7.5,7.5v17c-4.1-2.7-9.1-4.4-14.4-4.6v-36.2c0-17.2-5.2-33.8-15-47.9c-1.2-1.7-3.1-2.9-5.1-3.1
				c-2.1-0.3-4.2,0.3-5.8,1.6c-32.9,27-74.6,41.9-117.3,41.9c-11.8,0-23.6-1.1-35-3.3c-2.1-0.4-4.3,0.1-6,1.5
				c-1.7,1.3-2.8,3.4-2.9,5.5c-0.1,1.2-0.1,2.5-0.1,3.9v36.2c-5.3,0.2-10.2,1.8-14.4,4.6V96c0-44.7,36.3-81,81-81h49.8
				c9.3,0,17.8,5.5,21.5,14.1l3.2,7.3c1.2,2.7,3.9,4.5,6.9,4.5h15c21.3,0,38.6,17.3,38.6,38.6v20.8
				C497,104.6,500.4,107.9,504.5,107.9z M53.3,205.1c-0.2-4-3.5-7.1-7.5-7.1H39c-6.9,0-12.6-5.7-12.6-12.6v-9.5
				c0-7,5.7-12.6,12.6-12.6h6.7c4.1,0,7.5-3.4,7.5-7.5v-24.9c15.6-2.2,24.4-8.3,28.2-20.2c5.3,5.2,12.7,11,22.3,16
				c35,18.4,75.8,14.3,106.7,6.2v22.9c0,4.1,3.4,7.5,7.5,7.5h6.7c7,0,12.6,5.7,12.6,12.6v9.5c0,7-5.7,12.6-12.6,12.6h-6.8
				c-4,0-7.3,3.1-7.5,7.1c-1,20.1-9.7,38.9-24.3,52.8c-7.3,6.9-15.7,12.3-24.7,16c0,0-0.1,0-0.1,0.1c-9.2,3.7-19.1,5.6-29.3,5.6
				c-10.3,0-20.2-2-29.3-5.6c-0.1-0.1-0.3-0.1-0.4-0.2C74.7,262.6,54.9,236.4,53.3,205.1z M156.6,291.2v16.3v11.2
				c0,6.6-2.6,12.9-7.3,17.5c-4.7,4.7-10.9,7.3-17.5,7.3c-13.7,0-24.8-11.1-24.8-24.8v-11.2v-16.3c7.9,2.2,16.2,3.3,24.8,3.3
				C140.3,294.6,148.6,293.4,156.6,291.2z M15,357.8V317c0-6.2,5-11.2,11.2-11.2h18.3c3.4,0,6.2,2.8,6.2,6.2v50.7
				c0,3.4-2.8,6.2-6.2,6.2H26.2C20,369,15,363.9,15,357.8z M233.4,361.1V454h-21v-50.2c0-4.1-3.4-7.5-7.5-7.5s-7.5,3.4-7.5,7.5V454
				H66.3v-50.2c0-4.1-3.4-7.5-7.5-7.5s-7.5,3.4-7.5,7.5V454h-21v-70h14.2c11.7,0,21.2-9.5,21.2-21.2v-46.5c3.5-0.8,7.1-1.3,10.7-1.3
				H92v3.7c0,22,17.9,39.8,39.8,39.8c10.6,0,20.6-4.1,28.2-11.7c7.5-7.5,11.7-17.5,11.7-28.2V315h15.6
				C212.7,315,233.4,335.7,233.4,361.1z M413.8,318.8c0,8.3-13.5,20.1-24.8,27.1c-11.3-7.1-24.8-18.8-24.8-27.1v-27.5
				c7.9,2.2,16.2,3.3,24.8,3.3c8.5,0,16.8-1.2,24.8-3.3V318.8z M497,208.4v40.7l0,0c0,13.9-11.3,25.3-25.2,25.3H447
				c2.3-1.8,4.4-3.7,6.5-5.7c15.7-14.9,25.6-34.5,28.3-55.8C487.4,213,492.7,211.3,497,208.4z M296.2,163.2h6.7
				c4.1,0,7.5-3.4,7.5-7.5v-38.3c9.6,1.4,19.3,2.1,29,2.1c43.3,0,85.6-14.2,120-40c5.3,10,8.1,21.1,8.1,32.5v43.6
				c0,4.1,3.4,7.5,7.5,7.5h6.7c6.9,0,12.6,5.7,12.6,12.6v9.5c0,7-5.7,12.6-12.6,12.6H475c-4,0-7.3,3.1-7.5,7.1
				c-1,20.1-9.7,38.9-24.3,52.8c-7.2,6.9-15.6,12.2-24.6,15.9c-0.1,0.1-0.3,0.1-0.4,0.2c-9.2,3.7-19.1,5.6-29.2,5.6
				c-10.3,0-20.2-2-29.3-5.6c-0.1-0.1-0.3-0.1-0.4-0.2c-27.4-11.2-47.1-37.4-48.8-68.7c-0.2-4-3.5-7.1-7.5-7.1h-6.8
				c-7,0-12.6-5.7-12.6-12.6v-9.5h0C283.6,168.9,289.3,163.2,296.2,163.2z M296.2,213c3.2,24.9,16.1,46.7,34.8,61.4h-24.7
				c-13.9,0-25.3-11.3-25.3-25.3v-40.7C285.4,211.3,290.6,213,296.2,213z"/>
		</g>
	</g>
</g>
</svg>
