<?xml version="1.0" encoding="utf-8"?>
<!-- Generator: Adobe Illustrator 22.0.1, SVG Export Plug-In . SVG Version: 6.00 Build 0)  -->
<svg version="1.1" id="Слой_1" xmlns="http://www.w3.org/2000/svg" xmlns:xlink="http://www.w3.org/1999/xlink" x="0px" y="0px"
	 viewBox="0 0 16.2 16.1" style="enable-background:new 0 0 16.2 16.1;" xml:space="preserve">
<style type="text/css">
	.st0{display:none;clip-path:url(#SVGID_2_);fill:#FFFFFF;}
	.st1{clip-path:url(#SVGID_2_);fill:#FFFFFF;}
</style>
<g>
	<g>
		<defs>
			<rect id="SVGID_1_" x="-5.6" y="0" transform="matrix(0.7087 -0.7055 0.7055 0.7087 -4.2183 7.8141)" width="25.9" height="18"/>
		</defs>
		<use xlink:href="#SVGID_1_"  style="display:none;overflow:visible;fill:#FFFFFF;"/>
		<clipPath id="SVGID_2_">
			<use xlink:href="#SVGID_1_"  style="display:none;overflow:visible;"/>
		</clipPath>
		<path class="st0" d="M4,0C3.5,0,3.1,0.4,3.1,0.9c0,0.5,0.4,0.9,0.9,0.9l9.1,0L0.3,14.6c-0.4,0.3-0.4,0.9,0,1.3
			c0.3,0.3,0.9,0.4,1.3,0L14.4,3.1l0,9.1c0,0.5,0.4,0.9,0.9,0.9c0.5,0,0.9-0.4,0.9-0.9l0-11.3c0-0.5-0.4-0.9-0.9-0.9L4,0z M4,0"/>
		<path class="st1" d="M15.7,12.6c-0.1,0.1-0.3,0.2-0.4,0.2c-0.3,0-0.6-0.3-0.6-0.6l0-9.8L1.3,15.7c-0.2,0.2-0.6,0.2-0.8,0
			c-0.2-0.2-0.2-0.6,0-0.8L13.8,1.5L4,1.5c-0.2,0-0.3-0.1-0.4-0.2C3.5,1.2,3.4,1.1,3.4,0.9c0-0.2,0.1-0.3,0.2-0.4
			C3.7,0.4,3.9,0.3,4,0.3l11.3,0c0.2,0,0.3,0.1,0.4,0.2c0.1,0.1,0.2,0.3,0.2,0.4l0,11.3C15.9,12.3,15.8,12.5,15.7,12.6z"/>
	</g>
</g>
</svg>
