<?xml version="1.0" encoding="utf-8"?>
<!-- Generator: Adobe Illustrator 22.0.1, SVG Export Plug-In . SVG Version: 6.00 Build 0)  -->
<svg version="1.1" id="Слой_1" xmlns="http://www.w3.org/2000/svg" xmlns:xlink="http://www.w3.org/1999/xlink" x="0px" y="0px"
	 viewBox="0 0 92.7 83.1" style="enable-background:new 0 0 92.7 83.1;" xml:space="preserve">
<style type="text/css">
	.st0{fill:#FF8D2E;}
</style>
<g>
	<g>
		<path class="st0" d="M92,22C89.4,8.7,80,0.2,67.8,0.2c-6.8,0-14.2,2.8-21.4,8C39.2,2.8,31.8,0,24.9,0C12.8,0,3.2,8.6,0.7,22.1
			C-3.2,42,9.2,68.5,45.2,82.9c0.4,0.2,0.8,0.2,1.2,0.2s0.8-0.1,1.2-0.2C83.6,68.2,95.9,41.8,92,22L92,22z M46.4,76.3
			C14.7,63.2,3.8,40.3,7,23.3C9,13.1,16,6.5,24.9,6.5c6,0,12.7,2.9,19.4,8.4c1.2,1,2.9,1,4.1,0c6.7-5.4,13.4-8.2,19.4-8.2
			c8.9,0,15.8,6.5,17.8,16.6C88.9,40.2,78,63,46.4,76.3L46.4,76.3z"/>
	</g>
</g>
</svg>
