<?xml version="1.0" encoding="utf-8"?>
<!-- Generator: Adobe Illustrator 22.0.1, SVG Export Plug-In . SVG Version: 6.00 Build 0)  -->
<svg version="1.1" id="Capa_1" xmlns="http://www.w3.org/2000/svg" xmlns:xlink="http://www.w3.org/1999/xlink" x="0px" y="0px"
	 viewBox="-49 141 544 576.1" style="enable-background:new -49 141 544 576.1;" xml:space="preserve">
<style type="text/css">
	.st0{fill:#D4F7FF;}
	.st1{fill:#434343;}
</style>
<path class="st0" d="M317.3,283h-12.6c-17.3-0.5-47.6-2.4-84.1-1.3c-2.9-3-6.9-5-11.4-5h-18.2c2.7-20.3,13.9-21.3,19.1-21.8
	c5.2-0.5,9.1-4.8,9.1-10v-29.9c0-2.7-1.1-5.4-3.1-7.3s-4.7-2.9-7.4-2.7c-23.9,1.3-51.2,10.8-63.2,43.8l0,0v0
	c-3.9,10.7-6.1,23.8-6.1,39.9v0.6c-5.5,0.9-11.1,2-16.6,3.1c0-8.7-7.1-15.8-15.8-15.8H88.7c2.7-20.3,13.9-21.3,19.1-21.8
	c5.2-0.5,9.1-4.8,9.1-10v-29.9c0-2.7-1.1-5.4-3.1-7.3s-4.7-2.9-7.4-2.7C74.7,207,37,222.9,37,288.9v48.9
	c-18.1,16.5-28.5,31.9-31.1,35.8c-0.2,0.2-0.3,0.5-0.5,0.8c-0.1,0.1-0.1,0.2-0.1,0.2C-9.3,400.7-17,430.6-17,460.8
	c0,98,79.7,177.7,177.7,177.7h108.3l75.7,75.7c1.9,1.9,4.5,2.9,7.1,2.9c1.3,0,2.6-0.2,3.8-0.8c3.7-1.5,6.2-5.2,6.2-9.2v-74.3
	c36.2-9.4,68.9-30.2,92.8-59.3c26-31.7,40.3-71.7,40.3-112.7C495,362.8,415.3,283,317.3,283z"/>
<path class="st1" d="M74.9,292.5H20.8c-8.7,0-15.8-7.1-15.8-15.8v-52c0-65.9,37.7-81.9,69.3-83.7c2.7-0.2,5.4,0.8,7.4,2.7
	c2,1.9,3.1,4.5,3.1,7.3v29.9c0,5.2-3.9,9.5-9.1,10c-5.2,0.5-16.4,1.5-19.1,21.8h18.2c8.7,0,15.8,7.1,15.8,15.8v48.3
	C90.6,285.4,83.5,292.5,74.9,292.5z M25,272.5h45.6v-39.9H46c-5.5,0-10-4.5-10-10c0-33.8,15.4-45.8,28.8-49.9v-10.5
	C45.5,165.8,25,178.7,25,224.7V272.5z"/>
<path class="st1" d="M177.1,292.5H123c-8.7,0-15.8-7.1-15.8-15.8v-52c0-65.9,37.7-81.9,69.3-83.7c2.7-0.2,5.4,0.8,7.4,2.7
	c2,1.9,3.1,4.5,3.1,7.3v29.9c0,5.2-3.9,9.5-9.1,10c-5.2,0.5-16.4,1.5-19.1,21.7h18.2c8.7,0,15.8,7.1,15.8,15.8v48.3
	C192.8,285.4,185.8,292.5,177.1,292.5z M127.2,272.5h45.6v-39.9h-24.6c-5.5,0-10-4.5-10-10c0-33.8,15.4-45.8,28.8-49.9v-10.5
	c-19.4,3.6-39.9,16.5-39.9,62.5V272.5z"/>
<path class="st1" d="M229,238.9c-2.6,0-5.2-1.1-7.1-2.9c-1.9-1.9-2.9-4.4-2.9-7.1c0-2.6,1.1-5.2,2.9-7.1s4.4-2.9,7.1-2.9
	s5.2,1.1,7.1,2.9s2.9,4.4,2.9,7.1c0,2.6-1.1,5.2-2.9,7.1C234.2,237.8,231.6,238.9,229,238.9z"/>
<path class="st1" d="M319.9,653c-2.6,0-5.2-1-7.1-2.9l-75.7-75.7H128.7c-98,0-177.7-79.7-177.7-177.7c0-30.2,7.7-60,22.3-86.3
	c2.7-4.8,8.8-6.6,13.6-3.9c4.8,2.7,6.6,8.8,3.9,13.6C-22.2,343.3-29,369.8-29,396.6c0,87,70.8,157.7,157.7,157.7h112.5
	c2.7,0,5.2,1.1,7.1,2.9l61.6,61.6v-58.1c0-4.7,3.3-8.8,7.9-9.8C390.4,535.7,443,470.8,443,396.6c0-87-70.8-157.7-157.7-157.7h-12.6
	c-5.5,0-10-4.5-10-10c0-5.5,4.5-10,10-10h12.6c98,0,177.7,79.7,177.7,177.7c0,41-14.3,81.1-40.3,112.7c-23.9,29.1-56.6,50-92.8,59.3
	V643c0,4-2.4,7.7-6.2,9.2C322.5,652.7,321.2,653,319.9,653z"/>
<path class="st1" d="M330.1,338.5H83.9c-5.5,0-10-4.5-10-10c0-5.5,4.5-10,10-10h246.1c5.5,0,10,4.5,10,10
	C340.1,334,335.6,338.5,330.1,338.5z"/>
<path class="st1" d="M330.1,391.8H83.9c-5.5,0-10-4.5-10-10c0-5.5,4.5-10,10-10h246.1c5.5,0,10,4.5,10,10
	C340.1,387.3,335.6,391.8,330.1,391.8z"/>
<path class="st1" d="M330.1,445.2H83.9c-5.5,0-10-4.5-10-10s4.5-10,10-10h246.1c5.5,0,10,4.5,10,10S335.6,445.2,330.1,445.2z"/>
<path class="st1" d="M330.1,498.5H198.9c-5.5,0-10-4.5-10-10s4.5-10,10-10h131.2c5.5,0,10,4.5,10,10S335.6,498.5,330.1,498.5z"/>
<path class="st1" d="M142.6,498.5h-0.2c-5.5,0-10-4.5-10-10s4.5-10,10-10h0.2c5.5,0,10,4.5,10,10S148.1,498.5,142.6,498.5z"/>
</svg>
