<?xml version="1.0" encoding="utf-8"?>
<!-- Generator: Adobe Illustrator 22.0.1, SVG Export Plug-In . SVG Version: 6.00 Build 0)  -->
<svg version="1.1" id="Слой_1" xmlns="http://www.w3.org/2000/svg" xmlns:xlink="http://www.w3.org/1999/xlink" x="0px" y="0px"
	 viewBox="0 0 65.5 57.6" style="enable-background:new 0 0 65.5 57.6;" xml:space="preserve">
<style type="text/css">
	.st0{fill:#D2EAF3;}
	.st1{fill:none;stroke:#424242;stroke-width:3;stroke-miterlimit:10;}
</style>
<path class="st0" d="M53.9,57.6c6.4,0,11.7-5.4,11.7-12s-5.2-12-11.7-12c-11.7,0-3.9-23.2,11.7-23.2V4.8
	C37.8,4.8,26.9,57.6,53.9,57.6L53.9,57.6z M20.3,57.6c6.4,0,11.7-5.4,11.7-12s-5.2-12-11.7-12c-11.7,0-3.9-23.2,11.7-23.2V4.8
	C4.2,4.8-6.7,57.6,20.3,57.6L20.3,57.6z M20.3,57.6"/>
<path class="st1" d="M50.6,54.3c6.4,0,11.7-5.4,11.7-12s-5.2-12-11.7-12C39,30.3,46.7,7.1,62.3,7.1V1.5
	C34.5,1.5,23.7,54.3,50.6,54.3L50.6,54.3z M17,54.3c6.4,0,11.7-5.4,11.7-12s-5.2-12-11.7-12c-11.7,0-3.9-23.2,11.7-23.2V1.5
	C0.9,1.5-9.9,54.3,17,54.3L17,54.3z M17,54.3"/>
</svg>
