<?xml version="1.0" encoding="utf-8"?>
<!-- Generator: Adobe Illustrator 22.1.0, SVG Export Plug-In . SVG Version: 6.00 Build 0)  -->
<svg version="1.1" id="LOGO_white_bg__x28_the_text_below_x29_"
	 xmlns="http://www.w3.org/2000/svg" xmlns:xlink="http://www.w3.org/1999/xlink" x="0px" y="0px" viewBox="0 0 835.2 842.3"
	 style="enable-background:new 0 0 835.2 842.3;" xml:space="preserve">
<style type="text/css">
	.st0{fill:#0C68CC;}
	.st1{fill:#6CC0F4;}
	.st2{fill:#161616;}
	.st3{fill:#8CAF30;}
	.st4{fill:#CCE74A;}
	.st5{fill:#EE6F03;}
	.st6{fill:#F89854;}
	.st7{fill:#FFFFFF;}
</style>
<path id="контур_синий" class="st0" d="M535.6,627.9c-25.3,7.3-55.5,12-92.9,12c-25.2,0-43.9-2.4-57.9-5.1h-0.1
	c-2.6-0.4-5-1-7.3-1.6c-0.1,0-0.2,0-0.3-0.1c-6.7-1.6-12-3.1-16.3-4.3c-24.1-7-53.8-19.6-82.9-37.7c-0.1,0-0.1-0.1-0.2-0.1l-4.7,2.4
	l-0.4,0.2c15.2,9.8,31.1,18.2,47.9,25.3c38.9,16.5,80.3,24.8,122.9,24.8c1.2,0,2.3,0,3.5,0c0.5,0,1,0,1.5,0c0.9,0,1.8,0,2.7-0.1
	c0.2,0,0.4,0,0.7,0c1.2,0,2.4-0.1,3.6-0.1h0.1c1.3,0,2.5-0.1,3.8-0.2c0.1,0,0.2,0,0.3,0c1.2-0.1,2.4-0.1,3.7-0.2c0.1,0,0.2,0,0.3,0
	c1-0.1,2-0.1,3-0.2c0.7,0,1.3-0.1,2-0.2c3.2-0.2,6.5-0.5,9.7-0.9c1-0.1,2-0.2,2.9-0.3c1-0.1,1.9-0.2,2.9-0.3c0.4,0,0.7-0.1,1.1-0.1
	c0.8-0.1,1.5-0.2,2.3-0.3c2.1-0.3,4.1-0.6,6.2-0.9c1-0.2,2-0.3,3.1-0.5c1-0.2,2-0.3,3.1-0.5c0,0,0,0,0.1,0c1.9-0.3,3.9-0.7,5.8-1.1
	c0.1,0,0.3-0.1,0.4-0.1c0.8-0.2,1.6-0.3,2.4-0.5c0.3,0,0.5-0.1,0.8-0.2c0.7-0.1,1.3-0.3,2-0.4c0.5-0.1,1.1-0.2,1.6-0.4
	c0.7-0.2,1.5-0.3,2.2-0.5c2-0.5,4-1,6.1-1.5c1-0.3,2-0.5,3-0.8s2-0.5,3-0.8c1.3-0.3,2.6-0.7,3.9-1.1c1.3-0.4,2.6-0.7,3.9-1.1
	c0.7-0.2,1.3-0.4,2-0.6c0.8-0.2,1.6-0.5,2.5-0.8c0.8-0.3,1.6-0.5,2.5-0.8c0.1,0,0.2-0.1,0.3-0.1
	C539.7,628.2,537.6,628.2,535.6,627.9z M597,59.9c-0.2,0-0.4,0.1-0.6,0.1c-0.4,0-0.8,0.1-1.2,0.1l0.1,0.1c0.6-0.1,1.2-0.2,1.8-0.2
	C597.1,60,597.1,60,597,59.9z M566.3,36.9C527.4,20.4,486,12.1,443.4,12.1c-1.5,0-2.9,0-4.4,0c-0.1,0-0.2,0-0.3,0
	c-1.3,0-2.5,0-3.8,0.1c-0.6,0-1.1,0-1.7,0.1c-0.7,0-1.4,0-2.1,0.1c-1.1,0-2.1,0.1-3.2,0.1c-0.2,0-0.4,0-0.7,0c-1,0-2,0.1-2.9,0.2
	c-0.6,0-1.3,0.1-1.9,0.1c-0.5,0-1,0.1-1.6,0.1c-0.9,0.1-1.9,0.1-2.8,0.2c-0.5,0-1,0.1-1.5,0.1c-1.3,0.1-2.5,0.2-3.8,0.3
	c-1.5,0.1-2.9,0.3-4.3,0.4c-2.9,0.3-5.8,0.7-8.7,1.1c-1.4,0.2-2.7,0.4-4.1,0.6c-0.3,0-0.6,0.1-0.9,0.1c-1.2,0.2-2.4,0.4-3.7,0.6
	s-2.7,0.5-4,0.7c-0.2,0-0.5,0.1-0.7,0.1c-1.1,0.2-2.2,0.4-3.3,0.6c-0.4,0.1-0.9,0.2-1.3,0.3c-0.8,0.2-1.7,0.3-2.5,0.5
	c-0.6,0.1-1.1,0.2-1.7,0.3c-1,0.2-2.1,0.4-3.1,0.7c-0.2,0-0.3,0.1-0.4,0.1c7.9-0.6,20.7-0.6,19.4,7c3.9-0.8,8-1.4,12.2-1.9
	c0.2,0,0.4-0.1,0.6-0.1c17-2.2,33.8-2.6,53.2-1.9c17.2,0.7,35.5,2.6,54.9,6.3c27.9,5.3,56,15.9,82.7,30.9c4.5-0.5,8.7-1.1,12-1
	C595.5,50.5,581.2,43.2,566.3,36.9z M174.2,483c-8.2-13.2-19.4-36.5-28-68.5c0-0.1-0.1-0.2-0.1-0.3c-0.1-0.2-0.1-0.4-0.2-0.5
	c0-0.1-0.1-0.3-0.1-0.4c0-0.1-0.1-0.2-0.1-0.3c-1.1-4.2-2.2-8.5-3.2-12.9c-0.5-2-0.9-4.2-1.3-6.5c0-0.1,0-0.1,0-0.2
	c-2.6-12.8-5.1-25.1-6.1-36.3c-1.5-18.1,0.1-37.4,2.3-57.9c0.3-2.8,0.7-5.7,1-8.6l0,0c0.1-0.6,0.2-1.2,0.2-1.8
	c0.5-3.6,1.1-7.2,1.7-10.8c0-0.1,0-0.2,0.1-0.3c6.6-33.9,17.7-61.4,22.6-72.7c0.2-0.3,2.5-5.5,2.5-5.6c-2.3-3.7-5.3-6.5-7.1-8.1
	c-2.2,4.5-4.3,9.1-6.2,13.8c-2.2,5.2-4.3,10.5-6.2,15.8c-0.3,0.7-0.5,1.4-0.8,2.1c-0.2,0.5-0.3,0.9-0.5,1.4
	c-0.3,0.9-0.6,1.8-0.9,2.6c-0.3,0.9-0.6,1.9-0.9,2.8s-0.6,1.7-0.8,2.6c-0.3,1-0.6,2-0.9,3c-0.2,0.6-0.4,1.2-0.6,1.8
	c-0.3,1-0.6,1.9-0.9,2.9c-0.3,1.1-0.6,2.2-0.9,3.2c-0.1,0.3-0.2,0.6-0.2,0.8c-0.3,0.9-0.5,1.9-0.8,2.8c-0.1,0.3-0.1,0.5-0.2,0.8
	c-0.3,1-0.5,2-0.8,3c0,0.1,0,0.1,0,0.2c-0.3,1.1-0.5,2.2-0.8,3.2c-0.1,0.3-0.2,0.7-0.2,1c-0.2,0.9-0.4,1.8-0.6,2.7
	c-0.1,0.3-0.2,0.7-0.2,1c-0.2,0.9-0.4,1.9-0.6,2.8c-0.3,1.3-0.6,2.7-0.8,4c-0.5,2.3-0.9,4.6-1.3,6.9v0.1c-0.4,2.4-0.8,4.7-1.2,7.1
	c0,0.1,0,0.1,0,0.2c-0.1,0.9-0.3,1.7-0.4,2.6c-0.1,0.4-0.1,0.9-0.2,1.3c-0.2,1.1-0.3,2.3-0.5,3.4c-0.1,1-0.3,2.1-0.4,3.1
	c0,0.3-0.1,0.6-0.1,1c-0.1,0.7-0.2,1.5-0.2,2.3c-0.1,0.5-0.1,1.1-0.2,1.6c-0.1,0.7-0.2,1.5-0.2,2.2c-0.1,0.6-0.1,1.1-0.2,1.7
	c-0.1,0.7-0.1,1.5-0.2,2.2c0,0.5-0.1,1-0.1,1.5c-0.1,0.7-0.1,1.3-0.1,2c-0.1,0.8-0.1,1.6-0.2,2.4c0,0.5-0.1,1-0.1,1.5
	c0,0.6-0.1,1.2-0.1,1.8c-0.1,0.8-0.1,1.6-0.1,2.4c0,0.4,0,0.9-0.1,1.3c0,0.7-0.1,1.5-0.1,2.2s-0.1,1.5-0.1,2.2c0,0.6,0,1.2-0.1,1.8
	c0,0.2,0,0.4,0,0.6c-0.1,5-0.1,10.2,0.1,15.6c0,0.1,0,0.2,0,0.2c0,1.2,0.1,2.4,0.1,3.6c0,0.1,0,0.3,0,0.4c0.1,2.4,0.2,4.7,0.4,7
	c0.1,1.8,0.2,3.7,0.4,5.5c0.1,1.8,0.3,3.7,0.5,5.5c0.1,1.2,0.2,2.4,0.4,3.6c0.1,1.2,0.3,2.4,0.4,3.5v0.1c0.1,1.1,0.3,2.2,0.4,3.3
	c0,0.1,0,0.3,0.1,0.4c0.1,1.2,0.3,2.3,0.5,3.5c0.1,1,0.3,2.1,0.5,3.1c0,0.3,0.1,0.6,0.1,0.9c0.2,1.1,0.3,2.1,0.5,3.2
	c0.2,1.2,0.4,2.4,0.6,3.6c0.2,1.1,0.4,2.3,0.6,3.4c0,0.2,0.1,0.5,0.1,0.7c0.2,1,0.4,1.9,0.6,2.9c1.2,6,2.6,12,4.2,17.9
	c0.2,0.7,0.4,1.4,0.6,2.2c0.2,0.6,0.3,1.2,0.5,1.9c0.3,1,0.6,2,0.9,3c0.3,0.9,0.5,1.9,0.8,2.8c0.5,1.6,1,3.2,1.5,4.8
	c0.2,0.6,0.4,1.2,0.6,1.8c0.3,0.9,0.6,1.8,0.9,2.6c0.1,0.2,0.2,0.5,0.2,0.7c0.2,0.7,0.5,1.4,0.7,2.2c0.2,0.6,0.4,1.1,0.6,1.6
	c0.4,1.1,0.8,2.1,1.1,3.2c0.4,1.1,0.8,2.1,1.2,3.2c0.3,0.8,0.6,1.7,1,2.5c0.3,0.7,0.6,1.4,0.8,2.2c0.9,2.3,1.8,4.6,2.8,6.9
	c5.2,12.2,11,24,17.6,35.3l0.7-0.2l4.1-2C174.6,483.7,174.4,483.4,174.2,483z"/>
<g id="Вода">
	<path class="st1" d="M368.8,187.6c-10.2,1.6-33.6,15.3-43.1,26.2c-17.8,20.3-29.8-4.5-41.4-8.5c-12.8-4.4-26.6-1.9-37.4,3.7
		c-0.5,0.6-1.1,1.2-1.8,1.7c-12,9.4-14.4,21.6-13.7,31.4c0.3,3.9,1,7.5,1.9,10.4l0,0c0.1,0.3,0.2,0.6,0.3,0.9c0.2,0.5,0.3,1,0.5,1.5
		c1.5,1.5,2.8,2.9,3.2,4.3c2.1,6-1,12.3-3.6,18.1c-0.8,1.9-1.6,3.7-2.3,5.6c-0.7,3.5-1.2,7.1-1.5,10.5c0,0.1,0,0.2,0,0.3
		c-0.3,3.5-0.4,6.9,0,9.9c0.2,1.6,0.5,3.1,1,4.5c2.7,6.9,12.8,12.1,21.8,14.2c1.8-0.8,3.8-1.8,5.9-2.8c0.6-0.3,1.2-0.6,1.9-0.9
		c3-1.5,6.2-3.1,9.8-4.6c1.1-0.5,2.3-1,3.4-1.4c1.4-0.6,2.9-1.1,4.4-1.6c0.2-0.1,0.5-0.2,0.7-0.2c1.3-0.4,2.6-0.8,3.9-1.2
		c0.5-0.1,0.9-0.2,1.4-0.4c1.3-0.3,2.7-0.7,4.1-0.9v-62.9l0,0c0-0.5,0-1.2,0.3-1.9c0.1-0.2,0.1-0.4,0.2-0.5c0-0.1,0.1-0.2,0.1-0.2
		c0-0.1,0.1-0.2,0.1-0.2c0.7-1.4,4-2.9,4-2.9L401.6,187C390.4,186,379.4,185.9,368.8,187.6z M272.2,276.3c-1.3,1.4-3,2.6-5,3.5
		c0.2-0.7,0.3-1.3,0.4-1.9c0-0.3,0.1-0.5,0.1-0.8c0.1-0.6,0.1-1.1,0.1-1.7c0.4-4.6-0.6-6.8-1.2-9c-0.6-2.4-3.7-7.4-5.8-9.2l-0.1-0.1
		c-0.6-0.6-3.4-3.8-7.9-6.1c0,0-0.1,0-0.1-0.1c0,0-0.1,0-0.1-0.1c4.3-3.1,14.6-3.7,18.5,1.5c2.1,2.8,3.8,7.7,3.9,12.1c0,0,0,0,0,0.1
		C275.6,268.9,274.8,273.6,272.2,276.3z M568,150.7c-4-2.8-8-0.9-10.6,2.5l-2.5,2.3l1.1-0.1l11.7-0.7l4.5-0.3
		C570.4,152.7,568.9,151.3,568,150.7z M580.2,208.9L555.6,197l-3.1-1.5c0.2,0.5,0.3,1,0.5,1.5c2.7,7,6.6,14.1,14.7,16
		c5.1,1.2,9.7-0.7,13.6-3.5L580.2,208.9z M759.2,324.9c0-0.8,0-1.6,0-2.4c0-0.3,0-0.6,0-1c0-0.7,0-1.4,0-2.1c0-1.4-0.1-2.8-0.1-4.2
		c0-0.9-0.1-1.8-0.1-2.7c0-0.3,0-0.6,0-0.9c-0.1-1.2-0.1-2.3-0.2-3.5c-0.1-0.9-0.1-1.9-0.2-2.8l0,0c-2.7,2.3-7.6,3.3-15.8,3.3
		c-44.6,0-42.2-10-71.6-23.3c-20.2-9.1-16.8-32.9-33.5-40.8c-6.6-3.1-12.1-3.9-16.6-3.9c-4.8,0-8.4,1-10.9,1.1c-0.2,0-0.4,0-0.7,0
		c-6.2-0.3-16.3-8.7-9.7-22.9c4.1-8.8,14.9-17.9,21.2-38c3.1-9.7-1.7-16.2-2.3-22c0-0.2,0-1.5-0.8-3c-0.6-1.2-1.5-2.3-3-3
		s-3.7-0.8-3.8-0.8s-0.2,0-0.4,0c-1.3,0.1-3,0.1-5,0.1c-4.9,0-11.4-0.3-17.3-1.6c-11.7-2.6-24.2-3.3-30.4-8.4
		c-14.8-12.2-22.3-39.3-11.9-57.8c1.2-2.1,2.6-4.2,4.3-6c9-10,29.1-15.9,45.1-18c0.6-0.1,1.2-0.2,1.8-0.2c0,0-0.1,0-0.1-0.1
		c-26.7-15-54.8-25.6-82.7-30.9c-19.3-3.6-37.7-5.6-54.9-6.3c-19.4-0.7-36.2-0.4-53.2,1.9c-0.2,0-0.4,0.1-0.6,0.1
		c-4,0.5-8.1,1.2-12.2,2l-4.7,8.5l0,0l-0.3,0.6l0,0c0,0-0.1,0.1-0.2,0.2l-0.1,0.1l-0.1,0.1c-0.1,0.2-0.3,0.4-0.5,0.6
		c-0.6,0.7-1.3,1.5-1.8,1.9c-0.1,0.1-0.1,0.1-0.2,0.2l-0.1,0.1c-2.2,1.7-5.4,3.6-9.1,5.3c-0.3,0.1-0.5,0.2-0.8,0.3
		c-0.3,0.1-0.6,0.2-0.8,0.4c-0.6,0.3-1.3,0.5-2,0.8c-0.1,0-0.1,0-0.1,0c-4.7,1.9-10.1,3.4-15.3,4.1c-4.6,0.6-41.1,11.7-18,32.5
		c8.7,7.8,36.9,20.4,57.3,20.4c20.3,0,38.7-8.4,53.2-4.5c20.9,5.6,14.2,45.6,9.4,58.3c-0.9,2.5-3.3,6.3-9.2,10.3l150,72.9
		c1.8,0.8,3,2.6,3.1,4.6v84.6c1,0.4,1.8,0.8,2.4,0.9c1.6,0.5,3.7-0.2,4.7-1.4c4.8-5.2,15.1-21.6,23.5-14.5c1.9,1.6,3.7,3.3,5.4,4.9
		c4.9,4.7,9.6,9.4,16,12.3c2.4,1.1,5.3,0.4,8.1-1l0,0c0.9-0.4,1.7-0.9,2.5-1.4c3.5-2.2,6.4-5,7.1-5.7c0.3-0.3,0.6-0.6,0.9-0.9
		c0.3-0.3,0.6-0.5,0.9-0.8c0.3-0.2,0.6-0.4,0.9-0.6c2-1.2,4.2-1.5,6.5-1.2c0.2,0,0.5,0.1,0.7,0.1c1.8,0.3,3.6,0.9,5.4,1.6
		c0.2,0.1,0.5,0.2,0.7,0.3c2.3,1,4.6,2.3,6.8,3.5c0.4,0.2,0.9,0.5,1.3,0.7c0.1,0,0.2,0.1,0.2,0.1c1.9,1,3.8,2,5.4,2.6
		c2.4,0.8,5.3-0.5,7.3,0.8c0,0,0.1,0,0.2,0.1c18.4-2.6,30.2-2.6,37.7-1.6c0.4,0.1,6.9,1.5,8.9,2.7c0.6,0.3,1.4,1,2.2,1.7
		c0-0.8,0-1.6,0-2.4v-0.4c0-0.5,0-1,0-1.5C759.2,326.9,759.2,325.9,759.2,324.9z M609.1,455.3c-0.2-3.9-2.8-9.9-5.5-15.2V440
		c-1.3-2-2.5-3.8-3.7-5.3l-0.9,0.4l-145.9,70.7c0,0-3.9,1.6-7.1,1.6c-3.2,0-5.5-0.8-5.5-0.8l-0.4-0.2l-0.2-0.1L415.5,518
		c0.3,0.6,0.4,1.2,0.5,1.8c0,0.1,0,0.2,0,0.3s0,0.1,0,0.2c0,0.4,0,0.8-0.1,1.2c0,0.1,0,0.1,0,0.2c0,0,0,0,0,0.1s-0.1,0.3-0.1,0.4
		v0.1c0,0.1-0.1,0.3-0.2,0.4c-0.1,0.1-0.1,0.3-0.2,0.4c0,0.1-0.1,0.2-0.2,0.3c-0.1,0.1-0.1,0.2-0.2,0.3c0,0,0,0.1-0.1,0.1
		c-0.2,0.3-0.5,0.6-0.7,0.9c-0.1,0.1-0.1,0.1-0.2,0.2c-0.4,0.4-0.9,0.8-1.5,1l-14.1,6.8l-18.2,8.8l0,0c-1.3,1.6-2.5,3.2-3.7,4.6
		c-4.8,6.2-16.1,16.9-20.3,38c-3.8,19.1,10.2,27.1,1.7,32.1c0,0-0.1,0-0.1,0.1c-5.3,2.8-42.1-6.4-60.8-27.1
		c-1.6-1.8-3.2-3.5-4.9-5.1l-13.7,6.6l-0.4,0.2c29.1,18.1,58.8,30.8,82.9,37.7c4.3,1.2,9.6,2.8,16.3,4.3c0.1,0,0.2,0,0.3,0.1
		c2.3,0.5,4.7,1.1,7.3,1.6h0.1c13.9,2.7,32.6,5.1,57.9,5.1c37.4,0,67.6-4.7,92.9-12c-0.1,0-0.2,0-0.3,0c-0.6-0.1-1.1-0.3-1.5-0.6
		l0,0c-2.9-2.1-2.3-8.5-2.3-8.5s0,0,0.1,0.1c0.2-0.9,0.7-1.9,1.5-3.1l0,0c0.6-0.8,1.4-1.7,2.4-2.7c1.1-1.2,2.2-2.3,3.4-3.5
		c3.5-3.4,7.7-6.8,12-10.2l0,0l0,0l0,0l0,0l3.8-3c0.4-0.3,0.8-0.7,1.3-1l0,0c2-1.9,4.1-3.8,6.3-5.9c13.7-12.6,36.4-49.9,24.5-80.3
		c-6.6-17,4.8-30,15.2-40.6C605.4,465.2,609.3,459.6,609.1,455.3z M224.5,338.4c-2.8-3-6.8-7.7-8.1-9.7
		c-7.2-11.4-10.7-20.4-13.1-33.6c-0.6-3.3-1.1-6.8-1.7-10.6c-0.1-0.5-0.1-1-0.2-1.5c-0.6-4.3-1.1-8.9-1.7-14.2
		c-0.8-7.5-3.2-17.2-7.4-26c-0.2-0.3-0.3-0.7-0.5-1c-2.9-5.8-6.7-11.2-11.5-15.3c-5.9-5.1-9.8-19.4-13.3-25.3
		c-0.1-0.1-0.2-0.3-0.3-0.5c-0.1-0.1-0.2-0.3-0.2-0.4c-0.2-0.3-0.3-0.6-0.5-0.8c-0.1-0.1-0.1-0.2-0.1-0.2c0,0.1-2.4,5.2-2.5,5.6
		c-5,11.3-16.1,38.9-22.6,72.7c0,0.1,0,0.2-0.1,0.3c-0.7,3.6-1.2,7.2-1.7,10.8c-0.1,0.6-0.2,1.2-0.2,1.8l0,0c-0.4,2.9-0.7,5.8-1,8.6
		c-2.2,20.5-3.9,39.8-2.3,57.9c1.1,11.3,3.5,23.6,6.1,36.3c0,0.1,0,0.1,0,0.2c0.5,2.2,0.9,4.4,1.4,6.6c1,4.4,2,8.7,3.1,12.8
		c0,0.1,0,0.2,0.1,0.3c0,0.1,0.1,0.3,0.1,0.4c0,0.2,0.1,0.4,0.2,0.5c0,0.1,0.1,0.2,0.1,0.3c8.6,32,19.8,55.3,28,68.5
		c0.2,0.3,0.4,0.6,0.5,0.9l0,0l0.1,0.1l37.2-17.8c-5.7-12.2-12.6-18.6-13-29.1c-0.5-14.1,21.2-19.7,18.9-35.7
		c-2.9-20.7-35.3-26.7-34-43.1c1.1-13.8,25.9-9.5,36.8-12.8C222.8,344.6,225.7,342.4,224.5,338.4z"/>
</g>
<path class="st2" d="M173.5,569.9c-2.2,0-4.3-1.2-5.3-3.3c-1.4-2.9-0.2-6.5,2.7-7.9l163.1-79c2.9-1.4,6.5-0.2,7.9,2.7
	s0.2,6.5-2.7,7.9l-163.1,79C175.2,569.7,174.3,569.9,173.5,569.9z"/>
<g id="Земля">
	<path class="st3" d="M275.1,264.5c0.1,2.7-0.4,5.3-1.8,7.1c-1.2,1.6-3.1,2.9-5.4,3.8c0,0.6-0.1,1.1-0.1,1.7c0,0.3-0.1,0.5-0.1,0.8
		c-0.1,0.6-0.2,1.3-0.4,1.9c1.9-0.9,3.6-2.1,5-3.5C274.8,273.6,275.6,268.9,275.1,264.5z M267.9,272.7c0-0.2,0-0.4,0-0.6
		c0-0.2,0-0.4,0-0.6c0-0.2,0-0.3-0.1-0.5c0-0.3-0.1-0.6-0.1-1c0-0.1,0-0.2-0.1-0.4c-0.1-0.3-0.1-0.5-0.2-0.8
		c0.3,1.3,0.5,2.8,0.5,4.3C267.9,273,267.9,272.8,267.9,272.7z"/>
	<path class="st3" d="M730.1,460.5c-0.5,1.1-1,2.2-1.6,3.3c-0.3,0.5-0.5,1.1-0.8,1.6c-0.9,1.9-1.8,3.8-2.8,5.7
		c-0.2,0.5-0.5,1-0.7,1.5c0,0.1-0.1,0.1-0.1,0.2c-0.7,1.3-1.3,2.6-2,3.8c-3.1,5.9-6.5,11.6-9.9,17.3c-0.3,0.6-0.7,1.1-1.1,1.7
		c-1.9,3-3.8,6-5.8,8.9c-0.7,1-1.3,2-2,3s-1.4,2.1-2.2,3.1c-0.7,1-1.5,2.1-2.2,3.1c-1.5,2-3,4.1-4.5,6.1c-0.8,1-1.5,2-2.3,3
		c-0.3,0.4-0.7,0.9-1,1.3c0,0,0,0,0,0.1c0,0,0,0.1-0.1,0.1l-0.1,0.1c-0.2,0.2-0.4,0.5-0.6,0.7c-0.1,0.1-0.2,0.2-0.2,0.3
		c0,0,0,0.1-0.1,0.1c-0.1,0.1-0.1,0.1-0.2,0.2c-0.2,0.2-0.4,0.5-0.6,0.7c-0.2,0.2-0.4,0.5-0.6,0.7c-0.2,0.3-0.5,0.6-0.7,0.9
		c-1,1.2-2,2.4-3,3.6c-0.7,0.9-1.5,1.7-2.2,2.6c-0.7,0.9-1.5,1.7-2.2,2.5c0,0,0,0,0,0.1l0,0c-0.3,0.3-0.6,0.7-0.9,1
		c-0.7,0.8-1.5,1.6-2.2,2.4c-1.7,1.9-3.4,3.8-5.2,5.6c-0.4,0.4-0.8,0.9-1.3,1.3c-0.4,0.4-0.8,0.9-1.3,1.3c-0.1,0.1-0.2,0.2-0.2,0.3
		c-0.4,0.4-0.9,0.9-1.3,1.3c-0.4,0.4-0.9,0.9-1.3,1.3c-0.9,0.9-1.9,1.9-2.8,2.8c-0.9,0.9-1.9,1.8-2.8,2.7c-0.4,0.4-0.8,0.7-1.2,1.1
		c-0.8,0.8-1.7,1.6-2.6,2.4c-1.1,1-2.1,1.9-3.2,2.9c-1.7,1.6-3.5,3.1-5.2,4.6c-0.7,0.6-1.5,1.2-2.2,1.9c-1.7,1.4-3.4,2.8-5,4.2
		c-0.8,0.7-1.7,1.4-2.5,2c-0.6,0.5-1.2,1-1.8,1.4c-0.1,0.1-0.2,0.2-0.3,0.2c-0.6,0.4-1.1,0.9-1.7,1.3c-0.1,0.1-0.3,0.2-0.4,0.3
		c-0.4,0.3-0.9,0.7-1.3,1c-0.5,0.4-1,0.7-1.5,1.1c-0.4,0.3-0.9,0.7-1.3,1c-0.8,0.6-1.7,1.2-2.5,1.8c-0.6,0.4-1.2,0.8-1.7,1.3
		c-2.4,1.7-4.9,3.4-7.3,5.1c-0.6,0.4-1.2,0.8-1.8,1.2c-1.4,0.9-2.7,1.8-4.1,2.7c-0.4,0.2-0.8,0.5-1.1,0.7c-0.4,0.2-0.8,0.5-1.1,0.7
		c-0.9,0.6-1.8,1.1-2.7,1.7c-6.9,4.3-14,8.2-21.3,11.9c-0.8,0.4-1.5,0.8-2.3,1.1c-2.3,1.1-4.6,2.3-7,3.4c-0.7,0.3-1.5,0.7-2.2,1
		c-3.1,1.4-6.1,2.8-9.3,4.1c-0.9,0.4-1.8,0.8-2.8,1.2c-0.6,0.3-1.3,0.5-1.9,0.8c-0.7,0.3-1.5,0.6-2.2,0.9c-0.3,0.1-0.6,0.2-0.9,0.4
		c-1,0.4-1.9,0.7-2.9,1.1c-0.5,0.2-1,0.4-1.6,0.6c-0.4,0.2-0.9,0.3-1.3,0.5c-0.1,0.1-0.2,0.1-0.4,0.1c-0.8,0.3-1.6,0.6-2.5,0.9
		c-0.1,0.1-0.3,0.1-0.4,0.2c-0.8,0.3-1.6,0.6-2.4,0.9c-1.8,0.6-3.6,1.2-5.3,1.8l0,0l0,0c-2.1,0.1-4.2,0.1-6.1-0.2
		c-0.1,0-0.2,0-0.3,0c-0.6-0.1-1.1-0.3-1.5-0.6l0,0c-2.9-2.1-2.3-8.5-2.3-8.5s0,0,0.1,0.1l0,0c0.2,0.2,0.6,0.7,1.5,1.1
		c2.7,1.2,9.9,1.9,27.9-5.8c26.5-11.3,64.7-30.9,83.2-46c18.9-15.3,33-25.6,74.9-89.4C723.1,472.7,726.8,466.8,730.1,460.5z"/>
	<path class="st3" d="M714.9,438.3c-29.9,19.2-26.9,71.8-64.6,88.1c-11.7,5.1-33.3-5.2-39.3-22.7c-6.8-19.9,31.8-58.2,17.4-71.9
		c-9.7-9.2-19.3-19.9-25-29.5v-1.8l0,0l-0.1-15.9v-55.5c1,0.4,1.8,0.8,2.4,0.9c1.6,0.5,3.7-0.2,4.7-1.4c4.8-5.2,15.1-21.6,23.5-14.5
		c1.9,1.6,3.7,3.3,5.4,4.9c4.9,4.7,9.6,9.4,16,12.3c2.4,1.1,5.3,0.4,8.1-1l0,0c0.9-0.4,1.7-0.9,2.5-1.4c3.5-2.2,6.4-5,7.1-5.7
		c0.3-0.3,0.6-0.6,0.9-0.9c0.3-0.3,0.6-0.5,0.9-0.8c0.3-0.2,0.6-0.4,0.9-0.6c2-1.2,4.2-1.5,6.5-1.2c0.2,0,0.5,0.1,0.7,0.1
		c1.8,0.3,3.6,0.9,5.4,1.6c0.2,0.1,0.5,0.2,0.7,0.3c2.3,1,4.6,2.3,6.8,3.5c0.4,0.2,0.9,0.5,1.3,0.7c0.1,0,0.2,0.1,0.2,0.1
		c1.9,1,3.8,2,5.4,2.6c2.4,0.8,5.3-0.5,7.3,0.8c0,0,0.1,0,0.2,0.1c-1.7,0.2-3.4,0.5-5.1,0.7c-7.5,1.2-21.4-11.1-29.8-1.6
		c-0.3,0.4-0.9,1-1.7,1.8c-0.4,0.4-0.9,0.9-1.5,1.4c-3.7,3.3-9.8,7.4-15.9,5.3c-3.6-1.2-6.7-2.9-9.5-4.8l-0.1-0.1
		c-4.8-3.2-8.9-7.2-13.3-10.9c-1.4-1.2-3.5-2.6-4.6-1.6c-1.6,1.5,2.1,4.8,2.9,12.9c2.1,21.4,21.9,29.4,54.3,22.9
		C715.5,349.6,746.4,418.1,714.9,438.3z"/>
	<path class="st3" d="M610.7,458.6c-3.4,11.8-24,20.6-17.3,46.4c9.7,37.3-10.6,68.6-29.2,83.8c-2.5,2.1-5.3,4.2-8.1,6.4
		c2-1.9,4.1-3.8,6.3-5.9c13.7-12.6,36.4-49.9,24.5-80.3c-6.6-17,4.8-30,15.2-40.6c3.2-3.2,7.1-8.8,6.9-13.1
		c-0.2-3.9-2.8-9.9-5.5-15.2V440c-1.3-2-2.5-3.8-3.7-5.3l0.1-0.1l0.2-0.1c0.1,0,0.1-0.1,0.2-0.1c0,0,0.1,0,0.1-0.1
		c0.2,0.2,0.6,0.6,1.2,1.1c0.3,0.5,0.7,1,1.1,1.6c0,0,0,0,0,0.1C607.5,444.3,612.3,453.4,610.7,458.6z"/>
	<path class="st3" d="M266.5,444.3c0.1,0.1,0.2,0.2,0.3,0.4c0.4,0.4,0.7,0.8,0.9,1.4c0.1,0.1,0.1,0.2,0.2,0.4l0.5-0.3l0.4-0.2
		C268.1,445.4,267.3,444.9,266.5,444.3z M242.6,398.5c5.6-14,7.2-10.8,13.5-18.8c7.3-9.1,4.8-28.7-12.7-31.9
		c-5.8-1.1-12.9-3.5-17.3-7.7c-0.5-0.5-1.1-1-1.7-1.7c1.3,4-1.6,6.1-3.7,7c-10.9,3.3-35.7-1-36.8,12.8c-1.3,16.4,31.1,22.4,34,43.1
		c2.2,16-19.4,21.7-18.9,35.7c0.3,10.5,7.2,16.9,13,29.1l47.8-22.9c1.7-0.8,3.6-0.8,5.2,0C250.5,433.3,233.3,422,242.6,398.5z
		 M230.7,308c-0.5-1.4-0.8-2.9-1-4.5c-0.4-3-0.3-6.4,0-9.9c0-0.1,0-0.2,0-0.3c0.3-3.4,0.9-7,1.5-10.5c-1.2,3.4-2.3,6.8-3.2,10.4
		c0,0.1-0.1,0.2-0.1,0.3l0,0c-0.1,0.5-0.3,1-0.4,1.5c-0.5,2.9-0.5,5.7-0.3,8.3c1.2,12,9.5,20.1,18.2,20.8c1.7,0.1,4-0.6,7-1.9
		C243.5,320.1,233.4,314.9,230.7,308z M229.1,225.1c-3.2,6.3-4.1,11.4-3.6,15.4c0.5,4.8,2.8,8.3,5.2,11.1l0,0
		c0.4,0.5,0.8,0.9,1.3,1.4c0.7,0.7,1.3,1.3,1.9,2c-0.1-0.5-0.3-1-0.5-1.5c-0.1-0.3-0.2-0.6-0.3-0.9l0,0c-0.8-2.9-1.6-6.5-1.9-10.4
		c-0.7-9.8,1.7-21.9,13.7-31.4c0.7-0.5,1.3-1.1,1.8-1.7C238.5,213.3,232,219.3,229.1,225.1z M369.8,546.5L369.8,546.5
		c-8.4,11.1-16,24.9-17.9,36.9c-2.5,15.2,9.9,30.5,5.9,33c8.5-5.1-5.5-13-1.7-32.1c4.2-21.1,15.5-31.8,20.3-38
		c1.1-1.5,2.4-3,3.7-4.6l0,0l0,0L369.8,546.5z M374.1,19.7c-0.1,0-0.2,0-0.3,0.1c-0.5,0.1-1,0.2-1.5,0.3c-1,0.2-2.1,0.5-3.1,0.7
		h-0.1c-1,0.2-1.9,0.5-2.9,0.7c-0.6,0.2-1.2,0.3-1.8,0.5c-1.8,0.5-3.6,1-5.5,1.5c-0.1,0-0.1,0-0.2,0c-0.9,0.2-1.7,0.5-2.6,0.7
		c-0.1,0-0.1,0-0.2,0c-1.6,0.5-3.1,0.9-4.7,1.4c-1.2,0.3-2.3,0.7-3.5,1.1c-0.8,0.3-1.6,0.5-2.5,0.8c-2.2,0.7-4.4,1.5-6.6,2.2
		c-1.1,0.4-2.3,0.8-3.4,1.2c-1.2,0.4-2.5,0.9-3.7,1.4c-0.1,0-0.2,0.1-0.2,0.1c-1.1,0.4-2.1,0.8-3.2,1.2c-0.9,0.4-1.9,0.7-2.8,1.1
		c-0.6,0.2-1.2,0.5-1.8,0.7c-1,0.4-1.9,0.8-2.9,1.2c-37.6,15.9-71.4,38.7-100.4,67.7c-0.7,0.7-1.4,1.4-2.1,2.1
		c-0.4,0.4-0.9,0.9-1.3,1.3c-0.7,0.7-1.3,1.4-2,2.1s-1.3,1.4-2,2.1c-1.1,1.2-2.2,2.3-3.3,3.5c-0.7,0.7-1.3,1.5-2,2.2
		c-0.3,0.4-0.7,0.8-1,1.2c-0.7,0.8-1.4,1.6-2,2.3c-0.7,0.8-1.4,1.6-2.1,2.5c-1.1,1.2-2.1,2.5-3.1,3.8c-0.7,0.8-1.4,1.7-2.1,2.5
		c-1,1.2-2,2.5-3,3.8c-0.6,0.7-1.1,1.5-1.7,2.2c-0.8,1-1.5,2-2.3,3s-1.5,2-2.3,3.1c-0.7,1-1.4,1.9-2.1,2.9c-0.1,0.2-0.2,0.3-0.3,0.5
		c-0.7,0.9-1.3,1.9-2,2.8c-0.7,1-1.4,2.1-2.1,3.1c-0.5,0.8-1.1,1.6-1.6,2.4c-0.4,0.6-0.8,1.2-1.2,1.8c-0.5,0.8-1,1.5-1.5,2.3
		c-0.4,0.7-0.9,1.4-1.3,2c-1,1.6-2,3.2-3,4.8c-0.4,0.7-0.8,1.4-1.3,2.1c-1.3,2.2-2.6,4.4-3.9,6.7c-0.5,0.8-0.9,1.6-1.4,2.5
		c-0.5,0.8-0.9,1.7-1.4,2.5c1.1,0.8,4.6,3.4,7.7,4.9c0.2,0.1,0.5,0.2,0.7,0.3c6.6,2.8,15.9,5.6,21.8,2.6
		c14.7-7.6,14.7-9.2,43.3-11.1c29-1.9,30.3-22.1,43.1-36.4c23.8-26.8,15.9-41.4,6.5-45.9c-0.4-0.2-0.9-0.4-1.3-0.6
		c-0.6-0.3-1.1-0.6-1.7-0.9c-0.2-0.1-0.4-0.2-0.6-0.3c-0.4-0.2-0.7-0.4-1.1-0.7c-0.2-0.1-0.3-0.2-0.5-0.3c-0.2-0.1-0.3-0.2-0.4-0.3
		c-0.1-0.1-0.3-0.2-0.4-0.3c-8.5-6.4-6.8-13.8-1.1-20.9c0.2-0.2,0.4-0.5,0.6-0.7c0.1-0.1,0.2-0.2,0.3-0.4c0.1-0.1,0.2-0.2,0.3-0.4
		c3.2-3.4,8-6.7,14.8-10.6C319,43.7,342,35.1,360.9,32.9c12.1-1.5,14.4-1.5,25.5,0.6c0.1,0,0.3,0.1,0.4,0.1h0.1h0.1
		c0.9,0.3,1.5,0.7,1.3,1.3l4.7-8.5l0,0C394.8,19.1,381.9,19.1,374.1,19.7z"/>
	<path class="st3" d="M758.2,302.8c0-0.2,0-0.4-0.1-0.6l0,0c-0.1-0.9-0.2-1.9-0.2-2.8c-0.1-0.6-0.1-1.2-0.2-1.8c0-0.1,0-0.2,0-0.3
		c0-0.4-0.1-0.8-0.1-1.2c-0.1-0.8-0.2-1.5-0.2-2.3c-0.1-0.9-0.2-1.9-0.3-2.8c-0.1-0.9-0.2-1.8-0.3-2.8c-0.1-0.9-0.2-1.8-0.4-2.8
		c-0.1-0.9-0.2-1.8-0.4-2.8c-0.1-0.9-0.3-1.8-0.4-2.8c-0.1-0.6-0.2-1.2-0.3-1.8c-0.1-0.5-0.2-1.1-0.3-1.6c-0.1-0.8-0.3-1.7-0.4-2.5
		s-0.3-1.5-0.4-2.3c-0.2-0.9-0.3-1.7-0.5-2.6c-0.2-0.8-0.3-1.6-0.5-2.4c-0.2-0.8-0.3-1.7-0.5-2.5c0-0.2-0.1-0.4-0.1-0.7
		c-0.2-1.2-0.5-2.4-0.8-3.6c-0.2-0.9-0.4-1.8-0.6-2.7s-0.4-1.8-0.6-2.7c0-0.1,0-0.2-0.1-0.3c0-0.1-0.1-0.3-0.1-0.4
		c-0.2-0.9-0.4-1.8-0.7-2.7c-0.2-0.7-0.3-1.4-0.5-2.1c-0.2-0.6-0.3-1.2-0.5-1.7c-0.2-0.9-0.5-1.8-0.7-2.7c-0.3-1-0.6-2-0.8-3
		c-0.3-1-0.6-2.1-0.9-3.1s-0.6-2.1-0.9-3.1c-0.3-0.9-0.6-1.8-0.8-2.7c-0.1-0.2-0.1-0.4-0.2-0.6c-0.3-0.9-0.6-1.9-0.9-2.8
		c-0.2-0.6-0.4-1.2-0.6-1.8c-0.3-0.9-0.6-1.8-0.9-2.7c0-0.1-0.1-0.3-0.1-0.4c-0.1-0.4-0.3-0.8-0.4-1.2c-0.3-0.9-0.6-1.8-1-2.7
		c0-0.1-0.1-0.2-0.1-0.3c-0.2-0.5-0.4-1-0.5-1.5c0-0.1-0.1-0.2-0.1-0.3c-0.2-0.6-0.5-1.3-0.7-1.9c-0.1-0.3-0.3-0.7-0.4-1v-0.1l0,0
		l0,0c-0.2-0.5-0.3-0.9-0.5-1.4c-0.4-1-0.8-2-1.2-3c-0.3-0.7-0.5-1.3-0.8-2c-0.5-1.3-1.1-2.7-1.7-4c-15.9-37.6-38.7-71.4-67.7-100.4
		c-1-1-2-2-3.1-3c-0.3-0.3-0.7-0.7-1-1c-0.7-0.7-1.4-1.4-2.1-2c-0.2-0.2-0.4-0.4-0.6-0.6c-0.8-0.8-1.6-1.5-2.5-2.3
		c-0.5-0.4-0.9-0.9-1.4-1.3c-0.9-0.8-1.8-1.6-2.7-2.4c-0.8-0.7-1.6-1.4-2.4-2.1c-1.6-1.4-3.1-2.7-4.7-4c-1-0.8-2-1.7-3-2.5
		c-0.1-0.1-0.3-0.2-0.4-0.3c-0.8-0.7-1.7-1.4-2.5-2c-0.5-0.4-0.9-0.7-1.4-1.1c-0.6-0.4-1.1-0.9-1.7-1.3c-0.7-0.6-1.4-1.1-2.1-1.7
		c-1-0.8-2-1.5-3-2.3c-2.1-1.6-4.2-3.1-6.4-4.6c-0.8-0.6-1.6-1.1-2.4-1.7c-0.2-0.1-0.4-0.3-0.6-0.4c-0.8-0.6-1.7-1.2-2.5-1.7
		c-0.9-0.6-1.8-1.2-2.7-1.8c-0.9-0.6-1.8-1.2-2.8-1.8c-1.5-1-3-1.9-4.4-2.8c-0.4-0.2-0.8-0.5-1.2-0.7c-3.4-0.1-7.5,0.5-12,1
		c-0.2,0-0.4,0.1-0.6,0.1c-0.4,0-0.8,0.1-1.2,0.1l0.1,0.1c-16,2.1-36,7.9-45.1,18c-1.7,1.9-3.1,3.9-4.3,6
		c-10.4,18.5-2.9,45.6,11.9,57.8c6.2,5.2,18.7,5.9,30.4,8.4c5.9,1.3,12.5,1.6,17.3,1.6c1.9,0,3.4-0.1,4.6-0.1c0,0,0.2,0,0.4,0
		c0.1,0,0.3,0,0.4,0c0.1,0,2.3,0,3.8,0.8s2.4,1.9,3,3c0.8,1.5,0.7,2.9,0.8,3c0.6,5.8,5.4,12.3,2.3,22c-6.4,20.1-17.1,29.2-21.2,38
		c-6.6,14.2,3.5,22.6,9.7,22.9c2.6-0.1,6.5-1.2,11.6-1.1c4.5,0,10,0.8,16.6,3.9c16.8,7.9,13.3,31.6,33.5,40.8
		c29.4,13.3,26.9,23.3,71.6,23.3c8.3,0,13.1-1,15.8-3.3C758.4,304.5,758.3,303.6,758.2,302.8z M616.6,154.7L616.6,154.7L616.6,154.7
		c-0.5-0.8-1.3-1.3-2-1.7l0,0c-1.2-0.6-2.4-0.8-3.2-0.8c0.9,0.2,2.1,0.5,3.4,1.4c1.8,1.2,2.6,3.6,2.9,4.7
		C617.7,157.3,617.5,156,616.6,154.7z"/>
	<path class="st4" d="M351.9,583.4c2-12,9.6-25.8,17.9-36.9L292,584.2c1.7,1.6,3.3,3.3,4.9,5.1c18.7,20.7,55.5,29.9,60.8,27.1
		c0,0,0.1,0,0.1-0.1C361.8,613.9,349.4,598.6,351.9,583.4z M449.9,98.6c-14.5-3.9-32.9,4.5-53.2,4.5c-20.4,0-48.7-12.6-57.3-20.4
		c-23.1-20.9,13.4-32,18-32.5c5.2-0.7,10.6-2.2,15.3-4.1h0.1c0.7-0.3,1.3-0.5,2-0.8c0.3-0.1,0.6-0.2,0.8-0.4
		c0.3-0.1,0.5-0.2,0.8-0.3c3.8-1.7,7-3.6,9.1-5.3l0.1-0.1l0.2-0.1l0.1-0.1l0.7-0.6l1-1.3c0.2-0.2,0.4-0.4,0.5-0.6l0.1-0.1l0.1-0.1
		c0.1-0.1,0.2-0.2,0.2-0.2l0,0c0.2-0.2,0.3-0.4,0.3-0.6l0,0c0.1-0.6-0.4-1-1.3-1.3h-0.1h-0.1c-0.1,0-0.3-0.1-0.4-0.1
		c-11.1-2.1-13.4-2-25.5-0.6c-18.9,2.3-41.9,10.8-64.1,23.5c-6.8,3.9-11.6,7.2-14.8,10.6c-0.1,0.1-0.2,0.2-0.3,0.4
		c-0.1,0.1-0.2,0.2-0.3,0.4c-0.2,0.2-0.4,0.5-0.6,0.7c-5.7,7-7.4,14.5,1.1,20.9c0.1,0.1,0.3,0.2,0.4,0.3c0.1,0.1,0.3,0.2,0.4,0.3
		c0.2,0.1,0.3,0.2,0.5,0.3c0.3,0.2,0.7,0.4,1.1,0.7c0.2,0.1,0.4,0.2,0.6,0.3c0.5,0.3,1.1,0.6,1.7,0.9c0.4,0.2,0.8,0.4,1.3,0.6
		c9.5,4.5,17.3,19.1-6.5,45.9c-12.8,14.3-14,34.6-43.1,36.4c-28.6,1.8-28.6,3.4-43.3,11.1c-5.9,3-15.2,0.2-21.8-2.6
		c-0.2-0.1-0.5-0.2-0.7-0.3c-3.2-1.5-6.6-4.1-7.7-4.9c-0.1,0.1-0.1,0.3-0.2,0.4c-0.4,0.7-0.7,1.4-1.1,2.1c-0.5,1-1.1,2-1.6,3
		c-0.6,1.1-1.1,2.3-1.7,3.4c-0.5,1.1-1,2.1-1.6,3.2c-0.1,0.1-0.1,0.3-0.2,0.4c1.8,1.6,4.8,4.4,7.1,8.1c0,0,0.1,0.1,0.1,0.2
		c0.1,0.2,0.3,0.5,0.5,0.8c0.1,0.1,0.2,0.3,0.2,0.4c0.1,0.2,0.2,0.4,0.3,0.5c3.6,6,7.4,20.3,13.3,25.3c4.8,4.1,8.6,9.5,11.5,15.3
		c0.2,0.3,0.3,0.7,0.5,1c4.3,8.9,6.6,18.5,7.4,26c0.6,5.2,1.1,9.9,1.7,14.2c0.1,0.5,0.1,1,0.2,1.5c0.5,3.9,1.1,7.4,1.7,10.6
		c2.4,13.2,5.9,22.2,13.1,33.6c1.3,2.1,5.3,6.7,8.1,9.7c0.6,0.7,1.2,1.2,1.7,1.7c4.3,4.2,11.5,6.6,17.3,7.7
		c17.5,3.2,20,22.8,12.7,31.9c-6.4,8-8,4.8-13.5,18.8c-9.4,23.5,7.9,34.8,22.5,44.8c0.5,0.3,1,0.7,1.4,1l0,0
		c0.8,0.5,1.6,1.1,2.3,1.6l0,0l23.1-11.2l-1-0.5c-1.8-0.9-3.1-2.8-3.1-4.8V308.2c-1.4,0.3-2.7,0.6-4.1,0.9c-0.5,0.1-0.9,0.2-1.4,0.4
		c-1.3,0.4-2.7,0.8-3.9,1.2c-0.2,0.1-0.5,0.2-0.7,0.2c-1.5,0.5-2.9,1-4.4,1.6c-1.2,0.5-2.3,0.9-3.4,1.4c-3.5,1.5-6.8,3.1-9.8,4.6
		c-0.6,0.3-1.3,0.6-1.9,0.9c-2.2,1.1-4.2,2-5.9,2.8c-2.9,1.3-5.3,2.1-7,1.9c-8.7-0.7-17-8.8-18.2-20.8c-0.2-2.6-0.2-5.4,0.3-8.3
		c0.1-0.5,0.3-1,0.4-1.5l0,0c0-0.1,0-0.2,0.1-0.3c0.9-3.6,2-7,3.2-10.4c0.7-1.9,1.4-3.7,2.3-5.6c2.6-5.8,5.7-12,3.6-18.1
		c-0.5-1.4-1.7-2.7-3.2-4.3c-0.6-0.6-1.3-1.3-1.9-2c-0.4-0.4-0.8-0.9-1.3-1.4l0,0c-2.5-2.8-4.8-6.3-5.2-11.1
		c-0.4-4,0.5-9.1,3.6-15.4c2.9-5.8,9.4-11.8,17.7-16.1c10.8-5.5,24.6-8.1,37.4-3.7c11.6,4,23.7,28.8,41.4,8.5
		c9.6-11,33-24.6,43.1-26.2c10.5-1.7,21.6-1.7,32.5-0.9l42.2-20.5c0.7-0.3,1.5-0.5,2.4-0.5c0.8,0,1.6,0.2,2.4,0.5l1.9,0.9
		c5.9-4,8.3-7.8,9.2-10.3C464.1,144.2,470.8,104.2,449.9,98.6z"/>
	<path class="st4" d="M759.2,329.4v0.4c0,0.8,0,1.6,0,2.4c0,1.4,0,2.9-0.1,4.3c0,0.2,0,0.4,0,0.6c0,1.3-0.1,2.5-0.1,3.8
		c0,0.3,0,0.7,0,1c0,0.8-0.1,1.6-0.1,2.4c0,1-0.1,2-0.2,2.9c0,0.4,0,0.8-0.1,1.2c0,0.8-0.1,1.6-0.2,2.3c-0.1,0.8-0.1,1.7-0.2,2.5
		c0,0.5-0.1,1-0.1,1.5c-0.1,1.2-0.2,2.4-0.3,3.5c0,0.1,0,0.3,0,0.4c-0.1,0.9-0.2,1.9-0.3,2.8c-0.1,0.6-0.1,1.3-0.2,1.9
		c-0.6,5-1.2,10-2,14.9c-0.2,1.1-0.4,2.2-0.6,3.3c-0.1,0.8-0.3,1.6-0.4,2.4c-0.1,0.6-0.2,1.3-0.3,1.9c-0.1,0.8-0.3,1.6-0.5,2.4
		c0,0.2-0.1,0.4-0.1,0.6c-0.2,0.9-0.3,1.7-0.5,2.6c-0.1,0.5-0.2,1-0.3,1.5c-0.2,0.8-0.3,1.6-0.5,2.4c0,0.2-0.1,0.4-0.1,0.6
		c-0.2,1.1-0.5,2.1-0.7,3.2c-0.3,1.2-0.5,2.3-0.8,3.5s-0.6,2.3-0.9,3.5c-0.7,2.6-1.4,5.1-2.1,7.7c-0.3,1.1-0.6,2.2-0.9,3.3v0.1
		c-0.4,1.2-0.7,2.5-1.1,3.7c-0.3,1-0.6,2-1,3.1c-0.2,0.5-0.3,1.1-0.5,1.6c-0.3,0.9-0.6,1.8-0.9,2.8c0,0.1,0,0.1-0.1,0.2
		c-0.3,0.9-0.6,1.9-1,2.8c-0.2,0.5-0.4,1-0.5,1.5c-0.3,0.8-0.6,1.6-0.9,2.5c-0.1,0.3-0.2,0.6-0.3,0.8c-0.3,0.8-0.6,1.7-0.9,2.5
		c-0.6,1.6-1.2,3.1-1.8,4.7c-0.3,0.7-0.6,1.4-0.9,2.1c-0.2,0.6-0.5,1.1-0.7,1.7c-0.5,1.1-0.9,2.2-1.4,3.4s-1,2.3-1.5,3.5
		s-1,2.3-1.5,3.5c-0.4,0.9-0.8,1.8-1.2,2.7c-3.4,6.3-7,12.3-11,18.3c-41.9,63.8-56,74.1-74.9,89.4c-18.5,15-56.7,34.6-83.2,46
		c-18.1,7.7-25.2,7-27.9,5.8l-1.5-1.1l0,0c0.2-0.9,0.7-1.9,1.5-3.1l0,0c0.6-0.8,1.4-1.7,2.4-2.7c1.1-1.2,2.2-2.3,3.4-3.5
		c3.5-3.4,7.7-6.8,12-10.2l0,0l0,0l0,0l0,0l3.8-3c0.4-0.3,0.8-0.7,1.3-1l0,0c2.8-2.2,5.6-4.3,8.1-6.4c18.6-15.2,38.9-46.5,29.2-83.8
		c-6.7-25.8,13.9-34.6,17.3-46.4c1.5-5.2-3.2-14.3-7.9-21.5V437c-0.4-0.5-0.7-1.1-1.1-1.6c-0.3-0.4-0.6-0.9-0.9-1.3
		c1.5-1,2.4-2.6,2.4-4.4v-29.3c0,0.1,0.1,0.1,0.1,0.2l0,0v1.8c5.7,9.7,15.3,20.4,25,29.5c14.4,13.6-24.2,52-17.4,71.9
		c6,17.5,27.7,27.7,39.3,22.7c37.7-16.4,34.7-68.9,64.6-88.1c31.5-20.2,0.6-88.7-29-82.8c-32.4,6.5-52.2-1.5-54.3-22.9
		c-0.8-8.1-4.4-11.4-2.9-12.9c1-1,3.2,0.4,4.6,1.6c4.4,3.7,8.5,7.6,13.3,10.9l0.1,0.1c2.9,2,6,3.6,9.5,4.8c6.1,2.1,12.2-2,15.9-5.3
		c0.6-0.5,1.1-1,1.5-1.4c0.8-0.8,1.4-1.5,1.7-1.8c8.4-9.4,22.3,2.8,29.8,1.6c1.8-0.3,3.5-0.5,5.1-0.7c-0.1,0-0.2-0.1-0.2-0.1
		c-2-1.3-4.8,0-7.3-0.8c-1.6-0.6-3.5-1.5-5.4-2.6c2.6,0.9,5,1.5,7,1.2c1.8-0.3,3.5-0.5,5.1-0.7c18.4-2.6,30.2-2.6,37.7-1.6
		c0.4,0.1,0.8,0.1,1.3,0.2l0,0c5.5,0.9,8.6,2.5,10.4,4C759,329.2,759.1,329.3,759.2,329.4z"/>
	<path class="st4" d="M758.2,302.2L758.2,302.2c-0.5,0.4-1,0.8-1.6,1c-11.2,4.8-42.8-7.8-48-16c-5.3-8.3-29.5-12.4-32.9-31.9
		c-2-11.8-5.2-25.9-18.6-33c-4.3-2.3-28.1-5.3-17.2-22.6c8.3-13.1,13-34.9,5.2-50.4c-10.4-20.6-20.5-6-35.3-30.2
		c-7.9-13-9.3-30.4-7.2-40.9c1.6-7.8,0.9-13.8,9-9.3c1.3,0.7,2.6,1.4,3.8,2.2c0,0,0,0,0.1,0c37.8,22,91.2,76.4,123.1,144.3l0,0l0,0
		v0.1c0.1,0.3,0.3,0.7,0.4,1c0.2,0.6,0.5,1.2,0.7,1.9c0,0.1,0.1,0.2,0.1,0.3c0.2,0.5,0.4,1,0.5,1.5c0,0.1,0.1,0.2,0.1,0.3
		c0.3,0.9,0.6,1.8,1,2.7c0.1,0.4,0.3,0.8,0.4,1.2c0,0.1,0.1,0.3,0.1,0.4c0.3,0.9,0.6,1.8,0.9,2.7c0.2,0.6,0.4,1.2,0.6,1.8
		c0.3,0.9,0.6,1.9,0.9,2.8c0.1,0.2,0.1,0.4,0.2,0.6c0.3,0.9,0.6,1.8,0.8,2.7c0.3,1,0.6,2.1,0.9,3.1s0.6,2.1,0.9,3.1s0.6,2,0.8,3
		c0.2,0.9,0.5,1.8,0.7,2.7c0.2,0.6,0.3,1.2,0.5,1.7c0.2,0.7,0.4,1.4,0.5,2.1c0.2,0.9,0.5,1.8,0.7,2.7c0,0.1,0.1,0.3,0.1,0.4
		c0,0.1,0,0.2,0.1,0.3c0.2,0.9,0.4,1.8,0.6,2.7s0.4,1.8,0.6,2.7c0.3,1.2,0.5,2.4,0.8,3.6c0,0.2,0.1,0.4,0.1,0.7
		c0.2,0.8,0.3,1.7,0.5,2.5s0.3,1.6,0.5,2.4c0.2,0.9,0.3,1.7,0.5,2.6c0.1,0.8,0.3,1.5,0.4,2.3s0.3,1.7,0.4,2.5
		c0.1,0.5,0.2,1.1,0.3,1.6c0.1,0.6,0.2,1.2,0.3,1.8c0.1,0.9,0.3,1.8,0.4,2.8c0.1,0.9,0.3,1.8,0.4,2.8c0.1,0.9,0.2,1.8,0.4,2.8
		c0.1,0.9,0.2,1.8,0.3,2.8c0.1,0.9,0.2,1.9,0.3,2.8c0.1,0.8,0.2,1.5,0.2,2.3c0,0.4,0.1,0.8,0.1,1.2c0,0.1,0,0.2,0,0.3
		c0.1,0.6,0.1,1.2,0.2,1.8C758,300.4,758.1,301.3,758.2,302.2z"/>
	<path class="st4" d="M275.1,264.4c-0.1-4.4-1.8-9.2-3.9-12.1c-3.9-5.2-14.2-4.6-18.5-1.5c0,0,0.1,0,0.1,0.1c0,0,0.1,0,0.1,0.1
		c1.2,0.7,5.5,3.6,7.8,6l0.1,0.1l0.1,0.1c3,3.2,5.2,6.9,6.5,11.8c0.1,0.3,0.1,0.5,0.2,0.8c0,0.1,0,0.2,0.1,0.4
		c0.1,0.3,0.1,0.6,0.1,1c0,0.2,0,0.3,0.1,0.5c0,0.2,0,0.4,0,0.6c0,0.2,0,0.4,0,0.6c0,0.2,0,0.4,0,0.6c0,0.7,0,1.4,0,2.2
		c2.2-0.9,4.1-2.2,5.4-3.8C274.7,269.7,275.2,267.2,275.1,264.4C275.1,264.5,275.1,264.5,275.1,264.4z"/>
	<path class="st3" d="M565.9,153.2c-2.9-2-5.9-1.6-8.4,0c-0.9,0.6-1.8,1.4-2.5,2.3l1.1-0.1l11.7-0.7
		C567.1,154.2,566.5,153.7,565.9,153.2z M580.2,208.9L555.6,197l-3.1-1.5c0.2,0.5,0.3,1,0.5,1.5c2.7,7,6.6,14.1,14.7,16
		c5.1,1.2,9.7-0.7,13.6-3.5L580.2,208.9z"/>
	<path class="st4" d="M568,150.7c-4-2.8-8-0.9-10.6,2.5c-0.5,0.7-1,1.4-1.4,2.2l11.7-0.7l4.5-0.3C570.4,152.7,568.9,151.3,568,150.7
		z M555.6,197c0.5,1.4,1.1,2.8,1.9,4.2c3.2,6.4,10.4,9.6,14.3,9.6c3,0,5.8-0.7,8.4-1.9L555.6,197z"/>
</g>
<g id="Стрела_2_">
	<polygon class="st5" points="593.8,203.7 520.2,168.2 605.6,163.1 	"/>
	<g>
		<path class="st2" d="M616.6,154.7L616.6,154.7L616.6,154.7c-0.5-0.8-1.3-1.3-2-1.7l0,0c-1.2-0.6-2.4-0.8-3.2-0.8l0,0
			c-0.4,0-0.7,0-0.7,0l-21.7,1.3h-0.1l-16.6,1l-4.5,0.3l-11.7,0.7l-1.1,0.1l-56.5,3.3c-2.5,0-4.5,1.5-5,3.6
			c-0.4,1.9,0.3,4.5,3.8,6.2l55.1,26.7l3.1,1.5l24.6,11.9l1.1,0.5l10.9,5.3c0.7,0.4,4.2,1.7,6.8,0.8c2.5-0.8,3.4-2.5,4.2-5.1
			l14-49.3l0.4-1.4c0,0,0.2-0.6,0.2-1.5l0,0C617.7,157.3,617.5,156,616.6,154.7z M593.8,203.7l-4-1.9l-0.3-0.1l-37-18l-1.4-0.7
			l-29.9-14.5l31-2l1.1-0.1l23.5-1.5l5.7-0.4l23.1-1.5l0,0L593.8,203.7z"/>
	</g>
</g>
<g id="Коробка">
	<polygon class="st5" points="592.5,253.5 592.5,426.3 451.3,494.8 451.3,322 592.3,253.6 	"/>
	<polygon class="st6" points="490.5,210.3 362.6,272.3 306.1,244.8 424.1,187.6 445.9,177 502.4,204.5 502.2,204.6 	"/>
	<polygon class="st6" points="585.7,244.8 445.9,312.6 374.9,278.2 514.8,210.4 	"/>
	<path d="M600.2,239.9l-150.1-72.8l-1.9-0.9c-0.7-0.3-1.5-0.5-2.4-0.5c-0.8,0-1.6,0.2-2.4,0.5l-42.2,20.5l-108.7,52.7
		c0,0-3.3,1.5-4,2.9c0,0.1-0.1,0.2-0.1,0.2c0,0.1-0.1,0.2-0.1,0.2c-0.1,0.2-0.1,0.3-0.2,0.5c-0.1,0.5-0.3,1.1-0.3,1.9l0,0
		c0,0.2,0,0.4,0,0.6v183.7c0,2,1.2,3.9,3.1,4.8l1,0.5h0.1l0.2,0.1l0,0h0.1l147.4,71.3l0.2,0.1l0.4,0.2c0,0,2.3,0.8,5.5,0.8
		s7.1-1.6,7.1-1.6l145.9-70.7l0.9-0.4l0.1-0.1l0.2-0.1c0.1,0,0.1-0.1,0.2-0.1c0,0,0.1,0,0.1-0.1l0,0c0.1-0.1,0.2-0.1,0.3-0.2
		c1.5-1,2.4-2.6,2.4-4.4V244.6C603.2,242.5,602,240.8,600.2,239.9z M424.1,187.6l21.8-10.6l56.5,27.5l-0.2,0.1l-11.6,5.7l-127.9,62
		l-56.5-27.4L424.1,187.6z M440.5,494.8l-20.6-10l-1.3-0.6l-119.8-58.1V253.2l61,29.7l-0.1,53.8c0,3,2.4,5.4,5.4,5.4
		s5.4-2.4,5.4-5.4V288l66,32l4,1.9L440.5,494.8L440.5,494.8z M445.9,312.6l-71-34.4l139.8-67.8l70.9,34.4L445.9,312.6z M592.5,426.3
		l-141.2,68.5V322l141-68.4l0.3-0.1L592.5,426.3L592.5,426.3z"/>
</g>
<path id="контур_x3E_" d="M745.6,200.3c-16.5-39-40.2-74.1-70.3-104.2C645.2,66,610.1,42.3,571.1,25.8
	C530.7,8.7,487.7,0,443.5,0c-44.3,0-87.2,8.7-127.6,25.8c-39,16.5-74.1,40.2-104.2,70.3c-30.1,30.1-53.8,65.2-70.3,104.2
	c-17.2,40.4-25.9,83.3-25.9,127.6s8.7,87.2,25.8,127.6c4.4,10.4,9.3,20.5,14.7,30.3c2.9,5.3,5.6,12.1,10.2,13.4
	c5.3,1.5,18.2-6.2,18.2-6.2l80.6-39c2.8-1.4,4.1-4.7,2.9-7.5c-0.1-0.1-0.1-0.2-0.2-0.4c-0.2-0.5-0.6-1-0.9-1.4
	c-0.1-0.1-0.2-0.2-0.3-0.4l0,0c-0.3-0.3-0.7-0.6-1.1-0.8c-0.1-0.1-0.2-0.1-0.3-0.2c-1.6-0.8-3.5-0.8-5.2,0l-47.8,22.9L174.9,484
	h-0.1l-4.1,2l-0.6,0.3c0,0,0-0.1-0.1-0.1c-6.6-11.4-12.5-23.1-17.6-35.3c-1-2.3-1.9-4.6-2.8-6.9c-0.3-0.7-0.6-1.4-0.8-2.2
	c-0.3-0.8-0.7-1.7-1-2.5c-0.4-1.1-0.8-2.1-1.2-3.2c-0.4-1.1-0.8-2.1-1.1-3.2c-0.2-0.6-0.4-1.1-0.6-1.6c-0.3-0.7-0.5-1.4-0.7-2.2
	c-0.1-0.2-0.2-0.5-0.2-0.7c-0.3-0.9-0.6-1.7-0.9-2.6c-0.2-0.6-0.4-1.2-0.6-1.8c-0.5-1.6-1-3.2-1.5-4.8c-0.3-0.9-0.6-1.9-0.8-2.8
	c-0.3-1-0.6-2-0.9-3c-0.2-0.6-0.3-1.2-0.5-1.9s-0.4-1.4-0.6-2.2c-1.6-5.9-3-11.9-4.2-17.9c-0.2-1-0.4-1.9-0.6-2.9
	c0-0.2-0.1-0.4-0.1-0.7c-0.2-1.1-0.4-2.3-0.6-3.4c-0.2-1.2-0.4-2.4-0.6-3.6c-0.2-1.1-0.4-2.1-0.5-3.2c-0.1-0.3-0.1-0.6-0.1-0.9
	c-0.2-1-0.3-2.1-0.5-3.1c-0.2-1.2-0.3-2.3-0.5-3.5c0-0.1,0-0.2-0.1-0.4c-0.2-1.1-0.3-2.2-0.4-3.3v-0.1c-0.1-1.2-0.3-2.4-0.4-3.5
	c-0.1-1.2-0.3-2.4-0.4-3.6c-0.2-1.8-0.3-3.7-0.5-5.5s-0.3-3.7-0.4-5.5c-0.2-2.3-0.3-4.7-0.4-7c0-0.1,0-0.3,0-0.4
	c-0.1-1.2-0.1-2.4-0.1-3.6c0-0.1,0-0.2,0-0.2c-0.1-3-0.1-5.9-0.1-8.9c0-2.2,0-4.5,0.1-6.7c0-0.2,0-0.4,0-0.6c0-0.6,0-1.2,0.1-1.8
	c0-0.7,0-1.5,0.1-2.2c0-0.7,0.1-1.5,0.1-2.2c0-0.4,0-0.9,0.1-1.3c0-0.8,0.1-1.6,0.1-2.4c0-0.6,0.1-1.2,0.1-1.8c0-0.5,0.1-1,0.1-1.5
	c0-0.8,0.1-1.6,0.2-2.4c0-0.7,0.1-1.3,0.1-2c0-0.5,0.1-1,0.1-1.5c0.1-0.7,0.1-1.5,0.2-2.2c0-0.6,0.1-1.1,0.2-1.7
	c0.1-0.7,0.1-1.5,0.2-2.2c0.1-0.5,0.1-1.1,0.2-1.6c0.1-0.8,0.2-1.5,0.2-2.3c0-0.3,0.1-0.7,0.1-1c0.1-1,0.2-2.1,0.4-3.1
	c0.1-1.1,0.3-2.3,0.5-3.4c0.1-0.4,0.1-0.9,0.2-1.3c0.1-0.9,0.2-1.7,0.4-2.6c0-0.1,0-0.1,0-0.2c0.4-2.4,0.7-4.7,1.2-7.1v-0.1
	c0.4-2.3,0.8-4.6,1.3-6.9c0.3-1.3,0.5-2.7,0.8-4c0.2-0.9,0.4-1.9,0.6-2.8c0.1-0.3,0.1-0.7,0.2-1c0.2-0.9,0.4-1.8,0.6-2.7
	c0.1-0.3,0.2-0.7,0.2-1c0.3-1.1,0.5-2.2,0.8-3.2c0-0.1,0-0.1,0-0.2c0.2-1,0.5-2,0.8-3c0.1-0.3,0.1-0.5,0.2-0.8
	c0.2-0.9,0.5-1.9,0.8-2.8c0.1-0.3,0.2-0.5,0.2-0.8c0.3-1.1,0.6-2.2,0.9-3.2s0.6-1.9,0.9-2.9c0.2-0.6,0.4-1.2,0.6-1.8
	c0.3-1,0.6-2,0.9-3c0.3-0.9,0.6-1.7,0.8-2.6c0.3-0.9,0.6-1.9,0.9-2.8s0.6-1.8,0.9-2.6c0.2-0.5,0.3-0.9,0.5-1.4
	c0.2-0.7,0.5-1.4,0.8-2.1c1.9-5.3,4-10.6,6.2-15.8c2-4.7,4-9.3,6.2-13.8c0.1-0.1,0.1-0.3,0.2-0.4c0.5-1.1,1-2.1,1.6-3.2
	s1.1-2.3,1.7-3.4c0.5-1,1-2,1.6-3c0.4-0.7,0.7-1.4,1.1-2.1c0.1-0.1,0.1-0.3,0.2-0.4c0.4-0.8,0.9-1.7,1.4-2.5
	c0.4-0.8,0.9-1.6,1.4-2.5c1.3-2.3,2.5-4.5,3.9-6.7c0.4-0.7,0.8-1.4,1.3-2.1c1-1.6,2-3.2,3-4.8c0.4-0.7,0.8-1.4,1.3-2
	c0.5-0.8,1-1.5,1.5-2.3c0.4-0.6,0.8-1.2,1.2-1.8c0.5-0.8,1.1-1.6,1.6-2.4c0.7-1,1.4-2.1,2.1-3.1c0.7-0.9,1.3-1.9,2-2.8
	c0.1-0.2,0.2-0.3,0.3-0.5c0.7-1,1.4-1.9,2.1-2.9s1.5-2,2.3-3.1c0.8-1,1.5-2,2.3-3c0.6-0.7,1.1-1.5,1.7-2.2c1-1.3,2-2.5,3-3.8
	c0.7-0.9,1.4-1.7,2.1-2.5c1-1.3,2.1-2.5,3.1-3.8c0.7-0.8,1.4-1.6,2.1-2.5c0.7-0.8,1.4-1.6,2-2.3c0.3-0.4,0.7-0.8,1-1.2
	c0.7-0.7,1.3-1.5,2-2.2c1.1-1.2,2.2-2.4,3.3-3.5c0.7-0.7,1.3-1.4,2-2.1s1.3-1.4,2-2.1c0.4-0.4,0.8-0.9,1.3-1.3
	c0.7-0.7,1.4-1.4,2.1-2.1c29-29,62.8-51.8,100.4-67.7c1-0.4,1.9-0.8,2.9-1.2c0.6-0.3,1.2-0.5,1.8-0.7c0.9-0.4,1.9-0.8,2.8-1.1
	c1.1-0.4,2.1-0.8,3.2-1.2c0.1,0,0.2-0.1,0.2-0.1c1.2-0.5,2.5-0.9,3.7-1.4c1.1-0.4,2.3-0.8,3.4-1.2c2.2-0.8,4.4-1.5,6.6-2.2
	c0.8-0.3,1.6-0.5,2.5-0.8c1.2-0.4,2.3-0.7,3.5-1.1c1.6-0.5,3.1-1,4.7-1.4c0.1,0,0.1,0,0.2,0c0.9-0.3,1.7-0.5,2.6-0.7
	c0.1,0,0.1,0,0.2,0c1.8-0.5,3.6-1,5.5-1.5c0.6-0.2,1.2-0.3,1.8-0.5c1-0.2,1.9-0.5,2.9-0.7h0.1c1-0.2,2.1-0.5,3.1-0.7
	c0.5-0.1,1-0.2,1.5-0.3c0.1,0,0.2,0,0.3-0.1c0.1,0,0.3-0.1,0.4-0.1c1-0.2,2.1-0.5,3.1-0.7c0.6-0.1,1.1-0.2,1.7-0.3
	c0.8-0.2,1.7-0.4,2.5-0.5c0.4-0.1,0.9-0.2,1.3-0.3c1.1-0.2,2.2-0.4,3.3-0.6c0.2,0,0.4-0.1,0.7-0.1c1.3-0.2,2.7-0.5,4-0.7
	c1.2-0.2,2.4-0.4,3.7-0.6c0.3-0.1,0.6-0.1,0.9-0.1c1.4-0.2,2.7-0.4,4.1-0.6c2.9-0.4,5.8-0.8,8.7-1.1c1.4-0.2,2.9-0.3,4.3-0.4
	c1.2-0.1,2.5-0.2,3.8-0.3c0.5,0,1-0.1,1.5-0.1c0.9-0.1,1.9-0.2,2.8-0.2c0.5,0,1-0.1,1.6-0.1s1.3-0.1,1.9-0.1c1-0.1,1.9-0.1,2.9-0.2
	c0.2,0,0.4,0,0.7,0c1.1-0.1,2.1-0.1,3.2-0.1c0.7,0,1.4-0.1,2.1-0.1c0.6,0,1.1,0,1.7-0.1c1.3,0,2.5-0.1,3.8-0.1c0.1,0,0.2,0,0.3,0
	c1.5,0,2.9,0,4.4,0c42.6,0,84,8.4,122.9,24.8c14.9,6.3,29.1,13.6,42.7,22c0.4,0.2,0.8,0.5,1.2,0.7c1.5,0.9,3,1.9,4.4,2.8
	c0.9,0.6,1.8,1.2,2.8,1.8c0.9,0.6,1.8,1.2,2.7,1.8c0.9,0.6,1.7,1.1,2.5,1.7c0.2,0.1,0.4,0.3,0.6,0.4c0.8,0.6,1.6,1.1,2.4,1.7
	c2.1,1.5,4.3,3.1,6.4,4.6c1,0.8,2,1.5,3,2.3c0.7,0.5,1.4,1.1,2.1,1.7c0.6,0.4,1.1,0.9,1.7,1.3c0.5,0.4,0.9,0.7,1.4,1.1
	c0.8,0.7,1.7,1.3,2.5,2c0.1,0.1,0.3,0.2,0.4,0.3c1,0.8,2,1.6,3,2.5c1.6,1.3,3.1,2.7,4.7,4c0.8,0.7,1.6,1.4,2.4,2.1
	c0.9,0.8,1.8,1.6,2.7,2.4c0.5,0.4,0.9,0.9,1.4,1.3c0.8,0.8,1.6,1.5,2.5,2.3c0.2,0.2,0.4,0.4,0.6,0.6c0.7,0.7,1.4,1.4,2.1,2
	c0.3,0.3,0.7,0.7,1,1c1,1,2,2,3.1,3c29,29,51.8,62.8,67.7,100.4c0.6,1.3,1.1,2.7,1.7,4c0.3,0.7,0.6,1.3,0.8,2c0.4,1,0.8,2,1.2,3
	c0.2,0.5,0.4,0.9,0.5,1.4l0,0l0,0v0.1c0.1,0.3,0.3,0.7,0.4,1c0.2,0.6,0.5,1.2,0.7,1.9c0,0.1,0.1,0.2,0.1,0.3c0.2,0.5,0.4,1,0.5,1.5
	c0,0.1,0.1,0.2,0.1,0.3c0.3,0.9,0.6,1.8,1,2.7c0.1,0.4,0.3,0.8,0.4,1.2c0,0.1,0.1,0.3,0.1,0.4c0.3,0.9,0.6,1.8,0.9,2.7
	c0.2,0.6,0.4,1.2,0.6,1.8c0.3,0.9,0.6,1.9,0.9,2.8c0.1,0.2,0.1,0.4,0.2,0.6c0.3,0.9,0.6,1.8,0.8,2.7c0.3,1,0.6,2.1,0.9,3.1
	s0.6,2.1,0.9,3.1s0.6,2,0.8,3c0.2,0.9,0.5,1.8,0.7,2.7c0.2,0.6,0.3,1.2,0.5,1.7c0.2,0.7,0.4,1.4,0.5,2.1c0.2,0.9,0.5,1.8,0.7,2.7
	c0,0.1,0.1,0.3,0.1,0.4c0,0.1,0,0.2,0.1,0.3c0.2,0.9,0.4,1.8,0.6,2.7s0.4,1.8,0.6,2.7c0.3,1.2,0.5,2.4,0.8,3.6
	c0,0.2,0.1,0.4,0.1,0.7c0.2,0.8,0.3,1.7,0.5,2.5s0.3,1.6,0.5,2.4c0.2,0.9,0.3,1.7,0.5,2.6c0.1,0.8,0.3,1.5,0.4,2.3s0.3,1.7,0.4,2.5
	c0.1,0.5,0.2,1.1,0.3,1.6c0.1,0.6,0.2,1.2,0.3,1.8c0.1,0.9,0.3,1.8,0.4,2.8c0.1,0.9,0.3,1.8,0.4,2.8c0.1,0.9,0.2,1.8,0.4,2.8
	c0.1,0.9,0.2,1.8,0.3,2.8c0.1,0.9,0.2,1.9,0.3,2.8c0.1,0.8,0.2,1.5,0.2,2.3c0,0.4,0.1,0.8,0.1,1.2c0,0.1,0,0.2,0,0.3
	c0.1,0.6,0.1,1.2,0.2,1.8c0.1,1.1,0.2,2.3,0.3,3.4c0.1,0.8,0.1,1.7,0.2,2.5l0,0c0.1,0.9,0.1,1.9,0.2,2.8c0.1,1.2,0.1,2.3,0.2,3.5
	c0,0.3,0,0.6,0,0.9c0.1,0.9,0.1,1.8,0.1,2.7c0.1,1.4,0.1,2.8,0.1,4.2c0,0.7,0,1.4,0,2.1c0,0.3,0,0.6,0,1c0,0.8,0,1.6,0,2.4
	c0,1,0,2,0,3c0,0.5,0,1,0,1.5v0.4c0,0.8,0,1.6,0,2.4c0,1.4,0,2.9-0.1,4.3c0,0.2,0,0.4,0,0.6c0,1.3-0.1,2.5-0.1,3.8c0,0.3,0,0.7,0,1
	c0,0.8-0.1,1.6-0.1,2.4c0,1-0.1,2-0.2,2.9c0,0.4,0,0.8-0.1,1.2c0,0.8-0.1,1.6-0.2,2.3c-0.1,0.8-0.1,1.7-0.2,2.5c0,0.5-0.1,1-0.1,1.5
	c-0.1,1.2-0.2,2.4-0.3,3.5c0,0.1,0,0.3,0,0.4c-0.1,0.9-0.2,1.9-0.3,2.8c-0.1,0.6-0.1,1.3-0.2,1.9c-0.6,5-1.2,10-2,14.9
	c-0.2,1.1-0.4,2.2-0.6,3.3c-0.1,0.8-0.3,1.6-0.4,2.4c-0.1,0.6-0.2,1.3-0.3,1.9c-0.1,0.8-0.3,1.6-0.5,2.4c0,0.2-0.1,0.4-0.1,0.6
	c-0.2,0.9-0.3,1.7-0.5,2.6c-0.1,0.5-0.2,1-0.3,1.5c-0.2,0.8-0.3,1.6-0.5,2.4c0,0.2-0.1,0.4-0.1,0.6c-0.2,1.1-0.5,2.1-0.7,3.2
	c-0.3,1.2-0.5,2.3-0.8,3.5s-0.6,2.3-0.9,3.5c-0.7,2.6-1.4,5.1-2.1,7.7c-0.3,1.1-0.6,2.2-0.9,3.3v0.1c-0.4,1.2-0.7,2.5-1.1,3.7
	c-0.3,1-0.6,2-1,3.1c-0.2,0.5-0.3,1.1-0.5,1.6c-0.3,0.9-0.6,1.8-0.9,2.8c0,0.1,0,0.1-0.1,0.2c-0.3,0.9-0.6,1.9-1,2.8
	c-0.2,0.5-0.4,1-0.5,1.5c-0.3,0.8-0.6,1.6-0.9,2.5c-0.1,0.3-0.2,0.6-0.3,0.8c-0.3,0.8-0.6,1.7-0.9,2.5c-0.6,1.6-1.2,3.1-1.8,4.7
	c-0.3,0.7-0.6,1.4-0.9,2.1c-0.2,0.6-0.5,1.1-0.7,1.7c-0.5,1.1-0.9,2.2-1.4,3.4s-1,2.3-1.5,3.5s-1,2.3-1.5,3.5
	c-0.4,0.9-0.8,1.8-1.2,2.7c-0.5,1.1-1,2.2-1.6,3.3c-0.3,0.5-0.5,1.1-0.8,1.6c-0.9,1.9-1.8,3.8-2.8,5.7c-0.2,0.5-0.5,1-0.7,1.5
	c0,0.1-0.1,0.1-0.1,0.2c-0.7,1.3-1.3,2.6-2,3.8c-3.1,5.9-6.5,11.6-9.9,17.3c-0.3,0.6-0.7,1.1-1.1,1.7c-1.9,3-3.8,6-5.8,8.9
	c-0.7,1-1.3,2-2,3s-1.4,2.1-2.2,3.1c-0.7,1-1.5,2.1-2.2,3.1c-1.5,2-3,4.1-4.5,6.1c-0.8,1-1.5,2-2.3,3c-0.3,0.4-0.7,0.9-1,1.3
	c0,0,0,0,0,0.1l0,0l0,0l-0.1,0.1l0,0l0,0l0,0l0,0l0,0c-0.1,0.1-0.1,0.2-0.2,0.2c-0.1,0.2-0.2,0.3-0.4,0.5c-0.1,0.1-0.2,0.2-0.2,0.3
	c0,0,0,0.1-0.1,0.1c-0.1,0.2-0.2,0.3-0.4,0.4l-0.1,0.1c-0.1,0.1-0.2,0.2-0.3,0.3c-0.2,0.2-0.4,0.5-0.6,0.7c-0.2,0.3-0.5,0.6-0.7,0.9
	c-1,1.2-2,2.4-3,3.6c-0.7,0.9-1.5,1.7-2.2,2.6c-0.7,0.9-1.5,1.7-2.2,2.5c0,0,0,0,0,0.1l0,0c-0.3,0.3-0.6,0.7-0.9,1
	c-0.7,0.8-1.5,1.6-2.2,2.4c-1.7,1.9-3.4,3.8-5.2,5.6c-0.4,0.4-0.8,0.9-1.3,1.3c-0.4,0.4-0.8,0.9-1.3,1.3c-0.1,0.1-0.2,0.2-0.2,0.3
	c-0.4,0.4-0.9,0.9-1.3,1.3c-0.4,0.4-0.9,0.9-1.3,1.3c-0.9,0.9-1.9,1.9-2.8,2.8c-0.9,0.9-1.9,1.8-2.8,2.7c-0.4,0.4-0.8,0.7-1.2,1.1
	c-0.8,0.8-1.7,1.6-2.6,2.4c-1.1,1-2.1,1.9-3.2,2.9c-1.7,1.6-3.5,3.1-5.2,4.6c-0.7,0.6-1.4,1.2-2.2,1.9c-1.7,1.4-3.4,2.8-5,4.2
	c-0.8,0.7-1.7,1.4-2.5,2c-0.6,0.5-1.2,1-1.8,1.4c-0.1,0.1-0.2,0.2-0.3,0.2c-0.6,0.4-1.1,0.9-1.7,1.3c-0.1,0.1-0.3,0.2-0.4,0.3
	c-0.4,0.3-0.9,0.7-1.3,1c-0.5,0.4-1,0.7-1.5,1.1c-0.4,0.3-0.9,0.7-1.3,1c-0.8,0.6-1.7,1.2-2.5,1.8c-0.6,0.4-1.2,0.8-1.7,1.3
	c-2.4,1.7-4.9,3.4-7.3,5.1c-0.6,0.4-1.2,0.8-1.8,1.2c-1.4,0.9-2.7,1.8-4.1,2.7c-0.4,0.2-0.8,0.5-1.1,0.7c-0.4,0.2-0.8,0.5-1.1,0.7
	c-0.9,0.6-1.8,1.1-2.7,1.7c-6.9,4.3-14,8.2-21.3,11.9c-0.8,0.4-1.5,0.8-2.3,1.1c-2.3,1.1-4.6,2.3-7,3.4c-0.7,0.3-1.5,0.7-2.2,1
	c-3.1,1.4-6.1,2.8-9.3,4.1c-0.9,0.4-1.8,0.8-2.8,1.2c-0.6,0.3-1.3,0.5-1.9,0.8c-0.7,0.3-1.5,0.6-2.2,0.9c-0.3,0.1-0.6,0.2-0.9,0.4
	c-1,0.4-1.9,0.7-2.9,1.1c-0.5,0.2-1,0.4-1.6,0.6c-0.4,0.2-0.9,0.3-1.3,0.5c-0.1,0.1-0.2,0.1-0.4,0.1c-0.8,0.3-1.6,0.6-2.5,0.9
	c-0.1,0.1-0.3,0.1-0.4,0.2c-0.8,0.3-1.6,0.6-2.4,0.9c-1.8,0.6-3.6,1.2-5.3,1.8l0,0l0,0c-0.1,0-0.2,0.1-0.3,0.1
	c-0.8,0.3-1.6,0.5-2.5,0.8c-0.8,0.3-1.6,0.5-2.5,0.8c-0.7,0.2-1.3,0.4-2,0.6c-1.3,0.4-2.6,0.8-3.9,1.1c-1.3,0.4-2.6,0.7-3.9,1.1
	c-1,0.3-2,0.5-3,0.8s-2,0.5-3,0.8c-2,0.5-4,1-6.1,1.5c-0.7,0.2-1.5,0.3-2.2,0.5c-0.5,0.1-1.1,0.2-1.6,0.4c-0.7,0.2-1.3,0.3-2,0.4
	c-0.3,0.1-0.5,0.1-0.8,0.2c-0.8,0.2-1.6,0.3-2.4,0.5c-0.1,0-0.3,0.1-0.4,0.1c-1.9,0.4-3.8,0.7-5.8,1.1c0,0,0,0-0.1,0
	c-1,0.2-2,0.4-3.1,0.5c-1,0.2-2,0.3-3.1,0.5c-2,0.3-4.1,0.6-6.2,0.9c-0.8,0.1-1.5,0.2-2.3,0.3c-0.3,0.1-0.7,0.1-1.1,0.1
	c-1,0.1-1.9,0.2-2.9,0.3s-1.9,0.2-2.9,0.3c-3.2,0.4-6.4,0.7-9.7,0.9c-0.7,0.1-1.3,0.1-2,0.2c-1,0.1-2,0.1-3,0.2c-0.1,0-0.2,0-0.3,0
	c-1.2,0.1-2.4,0.1-3.7,0.2c-0.1,0-0.2,0-0.3,0c-1.3,0.1-2.5,0.1-3.8,0.2h-0.1c-1.2,0-2.4,0.1-3.6,0.1c-0.2,0-0.4,0-0.7,0
	c-0.9,0-1.8,0-2.7,0.1c-0.5,0-1,0-1.5,0c-1.2,0-2.3,0-3.5,0c-42.6,0-84-8.4-122.9-24.8c-16.7-7.1-32.7-15.5-47.9-25.3l0.4-0.2
	l4.8-2.3l0.4-0.2l13.7-6.6l77.8-37.7l0,0l10.2-4.9l0,0l18.2-8.8l14.2-6.9c0.5-0.2,1-0.6,1.4-0.9c0.1-0.1,0.1-0.1,0.2-0.2
	c0.3-0.3,0.5-0.6,0.7-0.9c0,0,0-0.1,0.1-0.1c0.1-0.1,0.1-0.2,0.2-0.3c0.1-0.1,0.1-0.2,0.2-0.3c0.1-0.1,0.1-0.3,0.2-0.4
	c0.1-0.1,0.1-0.3,0.2-0.4v-0.1c0-0.1,0.1-0.3,0.1-0.4c0,0,0,0,0-0.1s0-0.1,0-0.2c0.1-0.4,0.1-0.8,0.1-1.2c0-0.1,0-0.1,0-0.2
	c0-0.1,0-0.2,0-0.3c-0.1-0.6-0.2-1.2-0.5-1.8v-0.1c-1.4-2.9-5-4.2-7.9-2.7L266.7,584c0,0-8.1,3.7-9,8.2c-0.8,3.8,0.8,6.8,3.8,9.1
	c4,3,6.5,4.5,10.8,7.1c13.9,8.5,28.4,15.9,43.5,22.3c40.4,17.1,83.4,25.8,127.6,25.8c44.3,0,87.2-8.7,127.6-25.8
	c39-16.5,74.1-40.2,104.2-70.3s53.8-65.2,70.3-104.2c17.1-40.4,25.8-83.4,25.8-127.6S762.7,240.7,745.6,200.3z"/>
<g id="Тучи">
	<path class="st7" d="M257.7,277.1c0,0.1,0,0.3-0.1,0.4c-0.1,1-0.6,2.2-1.3,3.6c-1.8,3.4-5.5,7.7-11.4,10.5
		c-3.8,1.8-8.8,3.2-15.2,2.8c-0.5,0-1.1-0.1-1.6-0.1c-6-0.6-13-2.9-21.1-7.8c-1.3-0.8-2.6-1.4-3.9-1.9c-0.5-0.2-1.1-0.4-1.6-0.6
		c-11-3.4-23.1,0.9-33.1,4.5c-6,2.2-9.1,5.5-15.4,3.7c-5.4-1.6-10.1-2.3-14.1-2.5c-2.5-0.2-4.8-0.1-6.9,0.1c-0.2,0-0.5,0-0.7,0.1
		c-0.9,0.1-1.7,0.2-2.5,0.4c-3.9,0.8-7.1,2.1-9.9,3.3c-0.6,0.3-1.3,0.6-1.9,0.9c-13.8,6.5-41.6,2.7-52.1-5.6
		c-6.9-5.5-10.5-12.3-10.9-21.8c0-0.8-0.1-1.5-0.3-2.3l0,0l0,0v-0.1l0,0l0,0l0,0l0,0v-0.2c0-0.7-0.3-1.9-0.8-3.2l0,0v-0.1v-0.1
		c-4.5-14.5-21-28.6-19.2-41.9c2.5-18.4,16.7-19,16.9-19c5.6,0,11,3.2,16.7,6.6c10.2,6,22.8,13.5,38.7,2.5c11.5-8,28-15.6,39.4-13.3
		c1.5,0.3,2.8,0.7,4.1,1.3c2.1,1,3.9,2.3,5.4,3.7c0.3,0.3,0.6,0.6,0.9,0.9c0.1,0.1,0.2,0.2,0.3,0.4c2.2,2.5,3.6,5.6,4.9,8.8
		c0.6,1.4,1.1,2.9,1.6,4.5c1.2,3.5,2.6,7.3,4.5,10.9s4.5,7.1,8.3,10.2s9.7,5.3,16.8,7.3c0.5,0.1,1,0.3,1.5,0.4
		c4.5,1.2,9.5,2.4,14.7,3.6c8.6,2,16.6,4,23.5,6.2c0.5,0.2,1,0.3,1.5,0.5c6.2,2.1,11.6,4.3,15.7,7c0.3,0.2,0.6,0.4,0.9,0.6
		C255.5,266,258.4,270.8,257.7,277.1z"/>
	<path class="st2" d="M228.5,251.9c-0.4-0.1-3.5-0.1,3.4,2.1C231.5,253.6,228.6,251.9,228.5,251.9z M267.4,269.9
		c-0.1-0.6-0.3-1.1-0.4-1.6c-0.1-0.3-0.2-0.6-0.3-0.9c-0.1-0.4-0.3-0.7-0.4-1.1c-0.1-0.2-0.2-0.5-0.3-0.7c0-0.1-0.1-0.1-0.1-0.2
		c-0.2-0.4-0.4-0.9-0.6-1.3c-0.3-0.5-0.6-1.1-0.9-1.6s-0.7-1-1.1-1.5c-0.2-0.3-0.4-0.5-0.6-0.8c0-0.1-0.1-0.1-0.1-0.2
		c-0.2-0.3-0.5-0.6-0.7-0.9c-0.3-0.4-0.6-0.7-1-1c-0.1-0.1-0.1-0.1-0.2-0.2c-0.4-0.4-0.8-0.7-1.2-1.1c-1.2-1.1-2.6-2.2-4.1-3.2
		c-0.1,0-0.1-0.1-0.2-0.1c0,0-0.1,0-0.1-0.1c-0.1,0-0.1-0.1-0.1-0.1c-0.7-0.5-1.5-1-2.3-1.5c-1.1-0.7-2.2-1.3-3.5-1.9
		c-5.3-2.7-11.5-4.9-17.9-6.8c-1.9-0.6-3.9-1.1-5.9-1.6c-5-1.3-9.9-2.5-14.7-3.6c-7.9-1.9-16.1-3.7-22-5.9c-3-1.1-5.4-2.2-7-3.5
		c-5.2-4.2-7.4-10.2-9.6-16.5c-1.5-4.3-3.1-8.8-5.8-13c-1.6-2.5-3.5-4.9-6.1-7c-0.1,0-0.1-0.1-0.2-0.2c0,0,0,0-0.1,0
		c-0.2-0.2-0.5-0.4-0.8-0.6c-1.5-1.2-3.3-2.3-5.3-3.2c-1.3-0.6-2.7-1.2-4.1-1.6c-6.8-2-15-1.5-24.3,1.5c-11,3.5-20.6,9.5-25.3,12.8
		c-10.1,7-17.1,3.5-27.8-2.9c-6.9-4.1-14.1-8.4-22.8-8c-15.6,0.6-24.2,14.4-26,27.9c-2.4,17.5,20.8,39.4,20.2,49.8
		c-0.6,13.4,5.5,22.1,14.7,29.4c9.6,7.7,23.7,11.9,38.3,11.9c3.8,0,14.3-0.9,20.9-3.3c1.4-0.5,2.5-1.1,3.5-1.7
		c1.9-1.3,3.9-2.3,6.3-3c0.8-0.2,1.7-0.4,2.6-0.5c0.1,0,0.2,0,0.3-0.1c2-0.2,4.3-0.3,7.1-0.1c3.5,0.2,7.8,0.9,13.1,2
		c10,2.1,13-1.1,21.2-4c10.2-3.7,21.8-7.9,29.9-2.9c0.5,0.3,1,0.6,1.6,0.9c0.7,0.4,1.4,0.8,2.1,1.2c5.7,3,13.4,6.2,21.9,7.1
		c0.8,0.1,1.6,0.1,2.4,0.2c6.3,0.3,12.9-0.6,19.6-3.8c10.4-4.9,16.3-13.2,18-20c0.2-0.7,0.3-1.3,0.4-1.9c0.1-0.9,0.2-1.7,0.2-2.5
		C268,274.1,267.9,272,267.4,269.9z M53.7,264.8L53.7,264.8C53.7,264.7,53.7,264.7,53.7,264.8L53.7,264.8L53.7,264.8L53.7,264.8
		v-0.2c-0.2-1.1-0.4-2.2-0.8-3.3l0,0v-0.1v-0.1c-4.5-14.5-21-28.6-19.2-41.9c2.5-18.4,16.7-19,16.9-19c5.6,0,11,3.2,16.7,6.6
		c10.2,6,22.8,13.5,38.7,2.5c11.5-8,28-15.6,39.4-13.3c1.5,0.3,2.8,0.7,4.1,1.3c2.1,1,3.9,2.3,5.4,3.7c0.3,0.3,0.6,0.6,0.9,0.9
		c0.1,0.1,0.2,0.2,0.3,0.4c2.2,2.5,3.6,5.6,4.9,8.8c0.6,1.4,1.1,2.9,1.6,4.5c1.2,3.5,2.6,7.3,4.5,10.9s4.5,7.1,8.3,10.2
		s9.7,5.3,16.8,7.3c0.5,0.1,1,0.3,1.5,0.4c4.5,1.2,9.5,2.4,14.7,3.6c8.6,2,16.6,4,23.5,6.2c0.5,0.2,1,0.3,1.5,0.5
		c6.2,2.1,11.6,4.3,15.7,7c0.3,0.2,0.6,0.4,0.9,0.6c5.5,3.9,8.4,8.7,7.7,14.9c0,0.1,0,0.3-0.1,0.4c-0.1,1-0.6,2.2-1.3,3.6
		c-1.8,3.4-5.5,7.7-11.4,10.5c-3.8,1.8-8.8,3.2-15.2,2.8c-0.5,0-1.1-0.1-1.6-0.1c-6-0.6-13-2.9-21.1-7.8c-1.3-0.8-2.6-1.4-3.9-1.9
		c-0.5-0.2-1.1-0.4-1.6-0.6c-11-3.4-23.1,0.9-33.1,4.5c-6,2.2-9.1,5.5-15.4,3.7c-5.4-1.6-10.1-2.3-14.1-2.5
		c-2.5-0.2-4.8-0.1-6.9,0.1c-0.2,0-0.5,0-0.7,0.1c-0.9,0.1-1.7,0.2-2.5,0.4c-3.9,0.8-7.1,2.1-9.9,3.3c-0.6,0.3-1.3,0.6-1.9,0.9
		c-13.8,6.5-41.6,2.7-52.1-5.6c-6.9-5.5-10.5-12.3-10.9-21.8C54,266.3,53.9,265.6,53.7,264.8L53.7,264.8
		C53.8,264.8,53.8,264.8,53.7,264.8L53.7,264.8z"/>
	<g>
		<path class="st7" d="M799.3,293.8c-6,11.6-14.8,18-26.2,22.7c-2.2,0.9-4.5,1.8-6.9,2.6c-1,0.3-2,0.7-3.1,1
			c-0.1,0.1-0.2,0.1-0.4,0.1c-0.2,0.1-0.4,0.1-0.5,0.2c-0.3,0.1-0.5,0.2-0.8,0.3c-5.6,1.9-9.7,4.9-13.4,8.2
			c-1.7,1.6-3.3,3.2-4.9,4.8c-3.9,4-7.7,7.8-12.9,10.2c-1.5,0.7-3,1.3-4.5,1.7c-10.7,3.3-22.1,0.9-34.1-7.2c-5.8-3.9-12.1-5.8-18-7
			c-1.8-0.4-3.6-0.7-5.4-1c-0.8-0.2-1.7-0.3-2.4-0.4c-8.9-1.7-13.7-3.3-15.8-9.9c-1.3-4-0.2-11.5,4.4-17.9c3.1-4.4,9-9.7,18.8-10
			c2.9-0.1,5.6-0.3,8.2-0.6c9.4-1.1,17.3-3.6,24.2-6.5l0,0c5.1-2.1,9.7-4.5,13.8-6.7c7.5-3.9,13.1-6.8,18.1-6.6
			c0.3,0,4.3,0.6,9.5,1.2c0,0,0.1,0,0.2,0s0.2,0,0.2,0c0.1,0,0.1,0,0.2,0c1.6,0.2,3.7,0.5,6.4,0.7c0.1,0,0.1,0,0.2,0l0,0h0.1l0,0
			c0.2,0,0.4,0,0.6,0h0.1l0,0h0.2c0.1,0,0.2,0,0.3,0c0.4,0,0.7,0.1,1.1,0.1c0.2,0,0.4,0,0.6,0.1c0.1,0,0.3,0,0.4,0
			c0.2,0,0.5,0,0.7,0c0.5,0,1,0.1,1.4,0.1c0.1,0,0.2,0,0.2,0l0,0c2.7,0.2,5.2,0.2,7.1,0.1c0.5,0,1,0,1.6-0.1c4.3-0.2,9.6-0.4,17-0.3
			C795.6,274,803.4,285.9,799.3,293.8z"/>
	</g>
	<g>
		<path class="st2" d="M742.7,336.1L742.7,336.1 M742.7,336.1L742.7,336.1 M808.9,276.3c-2.3-4.7-8.4-12.6-23.1-12.9
			c-8.6-0.1-14.4,0.1-19.1,0.4h-0.1c-3.3,0.2-6.1,0.3-8.9,0.2l0,0c-0.1,0-0.2,0-0.4,0c-0.4,0-0.7,0-1.1,0l0,0c-0.3,0-0.6,0-0.9-0.1
			c-0.1,0-0.2,0-0.4,0c-0.1,0-0.2,0-0.3,0c-3.4-0.3-7.3-0.9-12.6-2.1c-9.3-2.1-17.7,2.2-27.4,7.3c-6.1,3.2-12.6,6.6-20.3,9.1l0,0
			c-6.2,2-13.2,3.4-21.3,3.5c-2.9,0-5.6,0.4-8,1l0,0c-20.1,4.7-27.9,24.9-25.7,37.5c0.2,1.1,0.5,2.2,0.8,3.2
			c1.6,4.4,3.8,7.5,6.5,9.9l0.1,0.1c5.5,4.8,12.8,6.2,19.7,7.5c6.6,1.2,13.5,2.4,19.3,6.3c9.6,6.5,19.3,10,28.7,10.4
			c4.7,0.2,9.4-0.3,13.9-1.7c2.2-0.6,4.3-1.4,6.3-2.4c6.9-3.2,11.7-8.1,16-12.4c3-3,5.8-5.8,9-7.9c0.6-0.4,1.2-0.8,1.9-1.1
			c0.4-0.2,0.8-0.4,1.2-0.6c0,0,0.1,0,0.2-0.1c0.8-0.3,1.6-0.6,2.4-0.9c0.4-0.1,0.9-0.3,1.3-0.4c2.3-0.7,4.6-1.5,6.7-2.3
			c15-5.6,26.6-13.1,34.4-27.6C810.7,294.5,813,284.7,808.9,276.3z M747.7,273c2,0.2,4.2,0.5,6.4,0.7c0.1,0,0.1,0,0.2,0l0,0h0.1l0,0
			c0.1,0,0.3,0,0.4,0s0.1,0,0.2,0h0.1l0,0h0.2c0.1,0,0.2,0,0.3,0c0.4,0,0.7,0.1,1.1,0.1c0.2,0,0.4,0,0.6,0.1c0.1,0,0.3,0,0.4,0
			c0.2,0,0.5,0,0.7,0c0.5,0,1,0.1,1.4,0.1c0.1,0,0.2,0,0.2,0l0,0c2.7,0.2,5.2,0.2,7.1,0.1c0.5,0,1,0,1.6-0.1c4.3-0.2,9.6-0.4,17-0.3
			c10,0.1,17.8,12,13.7,19.9c-6,11.6-14.8,18-26.2,22.7c-2.2,0.9-4.5,1.8-6.9,2.6c-1,0.3-2,0.7-3.1,1c-0.1,0.1-0.2,0.1-0.4,0.1
			c-0.2,0.1-0.4,0.1-0.5,0.2c-0.3,0.1-0.5,0.2-0.8,0.3c-5.6,1.9-9.7,4.9-13.4,8.2c-1.7,1.6-3.3,3.2-4.9,4.8
			c-3.9,4-7.7,7.8-12.9,10.2c-1.5,0.7-3,1.3-4.5,1.7c-10.7,3.3-22.1,0.9-34.1-7.2c-5.8-3.9-12.1-5.8-18-7c-1.8-0.4-3.6-0.7-5.4-1
			c-0.8-0.2-1.7-0.3-2.4-0.4c-8.9-1.7-13.7-3.3-15.8-9.9c-1.3-4-0.2-11.5,4.4-17.9c3.1-4.4,9-9.7,18.8-10c2.9-0.1,5.6-0.3,8.2-0.6
			c9.4-1.1,17.3-3.6,24.2-6.5l0,0c5.1-2.1,9.7-4.5,13.8-6.7c7.5-3.9,13.1-6.8,18.1-6.6c0.3,0,4.3,0.6,9.5,1.2c0,0,0.1,0,0.2,0
			s0.2,0,0.2,0C747.5,273,747.6,273,747.7,273z"/>
	</g>
</g>
<g id="Название">
	<path d="M72.9,803.5c2.7,3.7,4.1,8.2,4.1,13.6c0,7.6-2.9,13.5-8.6,17.6s-14,6.1-25,6.1H0v-86.9h41c10.2,0,18.1,2,23.6,6.1
		s8.2,9.6,8.2,16.5c0,4.2-1,8-2.9,11.3c-2,3.3-4.7,5.9-8.2,7.8C66.4,797.2,70.2,799.8,72.9,803.5z M19.3,769v20.5h19.3
		c4.8,0,8.4-0.9,10.9-2.6s3.7-4.3,3.7-7.7c0-3.4-1.2-5.9-3.7-7.6s-6.1-2.5-10.9-2.5H19.3V769z M53.5,823c2.6-1.7,3.9-4.4,3.9-8.1
		c0-7.2-5.2-10.8-15.5-10.8H19.2v21.5h22.7C47.1,825.7,50.9,824.8,53.5,823z"/>
	<path d="M101,832c-6.7-6.9-10-16.7-10-29.4v-48.7h19.4v47.9c0,15.6,6.2,23.4,18.7,23.4c6.1,0,10.7-1.9,13.9-5.7
		c3.2-3.8,4.8-9.7,4.8-17.7v-47.9H167v48.7c0,12.8-3.3,22.6-10,29.4c-6.7,6.9-16,10.3-28,10.3S107.7,838.9,101,832z"/>
	<path d="M263.1,753.9v86.9h-15.9L205.4,788v52.8h-19.2v-86.9h16.1l41.7,52.8v-52.8H263.1z"/>
	<path d="M283,753.9h38.1c9.1,0,17.2,1.8,24.2,5.4s12.4,8.7,16.3,15.2c3.9,6.5,5.8,14.2,5.8,22.9c0,8.7-1.9,16.3-5.8,22.9
		c-3.9,6.5-9.3,11.6-16.3,15.2s-15,5.4-24.2,5.4H283V753.9z M320.2,824.3c8.4,0,15.1-2.4,20.1-7.3c5-4.8,7.5-11.4,7.5-19.7
		c0-8.3-2.5-14.8-7.5-19.7c-5-4.8-11.7-7.3-20.1-7.3h-17.7v53.9L320.2,824.3L320.2,824.3z"/>
	<path d="M382.1,753.9h19.4v70.6h42.1v16.4h-61.5V753.9z"/>
	<path d="M519.5,824.7v16.1h-65v-86.9h63.4V770h-44.1v18.9h39v15.7h-39v20.1L519.5,824.7L519.5,824.7z"/>
	<path class="st5" d="M642.9,803.5c2.7,3.7,4.1,8.2,4.1,13.6c0,7.6-2.9,13.5-8.6,17.6c-5.7,4.1-14,6.1-25,6.1H570v-86.9h41
		c10.2,0,18.1,2,23.6,6.1s8.2,9.6,8.2,16.5c0,4.2-1,8-2.9,11.3c-2,3.3-4.7,5.9-8.2,7.8C636.5,797.1,640.2,799.8,642.9,803.5z
		 M589.4,769v20.5h19.3c4.8,0,8.4-0.9,10.9-2.6s3.7-4.3,3.7-7.7c0-3.4-1.2-5.9-3.7-7.6s-6.1-2.5-10.9-2.5h-19.3V769z M623.6,823
		c2.6-1.7,3.9-4.4,3.9-8.1c0-7.2-5.2-10.8-15.5-10.8h-22.7v21.5H612C617.1,825.6,621,824.8,623.6,823z"/>
	<path class="st5" d="M678.8,836.4c-7-3.9-12.5-9.3-16.4-16.1c-4-6.8-5.9-14.5-5.9-23s2-16.2,5.9-23c4-6.8,9.4-12.2,16.4-16.1
		s14.8-5.8,23.6-5.8c8.7,0,16.5,1.9,23.5,5.8s12.4,9.3,16.4,16.1c4,6.8,6,14.5,6,23s-2,16.2-6,23s-9.5,12.2-16.4,16.1
		c-7,3.9-14.8,5.8-23.5,5.8C693.7,842.3,685.8,840.3,678.8,836.4z M715.8,821.6c4-2.4,7.1-5.7,9.4-9.9c2.3-4.2,3.4-9,3.4-14.4
		s-1.1-10.2-3.4-14.4c-2.3-4.2-5.4-7.5-9.4-9.9s-8.5-3.5-13.4-3.5c-5,0-9.4,1.2-13.4,3.5c-4,2.4-7.1,5.7-9.4,9.9
		c-2.3,4.2-3.4,9-3.4,14.4s1.1,10.2,3.4,14.4c2.3,4.2,5.4,7.5,9.4,9.9s8.5,3.5,13.4,3.5C707.4,825.1,711.8,824,715.8,821.6z"/>
	<path class="st5" d="M812.8,840.8l-20.3-30.2l-19.9,30.2h-22.3l31.1-44.2l-29.5-42.7H774l19.3,28.2l18.9-28.2h21l-29.3,42l31.3,45
		h-22.4V840.8z"/>
</g>
</svg>
