<?xml version="1.0" encoding="utf-8"?>
<!-- Generator: Adobe Illustrator 22.0.1, SVG Export Plug-In . SVG Version: 6.00 Build 0)  -->
<svg version="1.1" id="Capa_1" xmlns="http://www.w3.org/2000/svg" xmlns:xlink="http://www.w3.org/1999/xlink" x="0px" y="0px"
	 viewBox="0 0 441.8 511" style="enable-background:new 0 0 441.8 511;" xml:space="preserve">
<style type="text/css">
	.st0{fill:#FF8D2E;}
	.st1{fill:#434343;}
</style>
<path class="st0" d="M436.1,93.3c-3.7-5.3-8.7-9.2-15-11.7c-4-1.7-8.2-2.6-12.6-2.6l0,0H109.4c-4.4,0-8.6,0.9-12.6,2.6
	c-6.3,2.5-11.3,6.4-15,11.7s-5.6,11.2-5.6,17.7v368c0,6.5,1.9,12.4,5.6,17.7c3.7,5.3,8.7,9.2,15,11.7c4,1.7,8.2,2.6,12.6,2.6
	c8.9,0,16.8-3.1,23.7-9.4L259,380.5l125.9,121.1c6.7,6.1,14.6,9.1,23.7,9.1c4.8,0,8.9-0.8,12.6-2.3c6.3-2.5,11.3-6.4,15-11.7
	c3.7-5.3,5.6-11.2,5.6-17.7V111C441.7,104.5,439.9,98.6,436.1,93.3z"/>
<g>
	<path class="st1" d="M359.9,14.3c-3.7-5.3-8.7-9.2-15-11.7c-4-1.7-8.2-2.6-12.6-2.6l0,0H33.1c-4.4,0-8.6,0.9-12.6,2.6
		C14.3,5,9.3,8.9,5.6,14.3C1.9,19.6,0,25.5,0,32v368c0,6.5,1.9,12.4,5.6,17.7c3.7,5.3,8.7,9.2,15,11.7c4,1.7,8.2,2.6,12.6,2.6
		c8.9,0,16.8-3.1,23.7-9.4l125.9-121.1l125.9,121.1c6.7,6.1,14.6,9.1,23.7,9.1c4.8,0,8.9-0.8,12.6-2.3c6.3-2.5,11.3-6.4,15-11.7
		c3.7-5.3,5.6-11.2,5.6-17.7V32C365.4,25.5,363.6,19.6,359.9,14.3z M328.9,391.1L208.1,275.2L182.7,251l-25.4,24.3L36.5,391.1V36.5
		h292.4V391.1L328.9,391.1z"/>
</g>
</svg>
