<?xml version="1.0" encoding="utf-8"?>
<!-- Generator: Adobe Illustrator 22.0.1, SVG Export Plug-In . SVG Version: 6.00 Build 0)  -->
<svg version="1.1" id="Capa_1" xmlns="http://www.w3.org/2000/svg" xmlns:xlink="http://www.w3.org/1999/xlink" x="0px" y="0px"
	 viewBox="0 0 271.4 215.7" style="enable-background:new 0 0 271.4 215.7;" xml:space="preserve">
<style type="text/css">
	.st0{fill:#D4F7FF;}
	.st1{fill:#434343;}
</style>
<path class="st0" d="M270.3,81.5l-46.7-46.7c-1.5-1.5-3.9-1.5-5.4,0l-23.3,23.3c-0.7,0.7-1.1,1.7-1.1,2.7s0.4,2,1.1,2.7l2.3,2.3
	l-5.3,5.3c-3.5,3.5-8.9,4.4-13.4,2.4c-4.3-1.9-9-3-13.7-3c-5.6,0-11,1.4-15.9,4.1c-2-0.5-4.1-0.8-6.2-0.8c-3,0-6,0.5-8.8,1.6
	c-4.5,1.6-9.4,0.6-12.7-2.7l-9.6-9.6l1.1-1.1c0.7-0.7,1.1-1.7,1.1-2.7s-0.4-2-1.1-2.7L89.3,33.3c-1.5-1.5-3.9-1.5-5.4,0L32,85.3
	c-1.5,1.5-1.5,3.9,0,5.4L55.3,114c0.7,0.7,1.7,1.1,2.7,1.1s2-0.4,2.7-1.1l1.4-1.4l6.8,6.8c1.7,1.7,2.8,3.8,3.3,6.2
	c2.2,12.1,8,23,16.7,31.7l1.3,1.3c-2.4,2.6-3.8,5.9-3.8,9.5c0,3.7,1.4,7.2,4.1,9.8c2.7,2.7,6.2,4,9.8,4c0.2,0,0.5,0,0.7,0
	c-0.2,3.8,1.2,7.6,4,10.5c2.6,2.6,6.1,4.1,9.8,4.1c0.1,0,0.2,0,0.3,0c-0.1,3.6,1.3,7.3,4,10.1c2.6,2.6,6.1,4.1,9.8,4.1
	s7.2-1.4,9.8-4.1c0.2-0.2,0.4-0.4,0.6-0.7c1.4,0.5,2.8,0.7,4.3,0.7c3.5,0,6.7-1.3,9.1-3.8c1.3-1.3,2.3-2.8,2.9-4.5l0.4,0.4
	c2.5,2.5,5.8,3.8,9.1,3.8s6.6-1.3,9.1-3.8c1.3-1.3,2.3-2.9,3-4.6c2.3,1.6,4.9,2.5,7.6,2.5c3.3,0,6.6-1.3,9.1-3.8
	c2.4-2.4,3.8-5.7,3.8-9.1c0-1-0.1-2.1-0.4-3.1c2.5-0.5,4.7-1.7,6.5-3.5c2.4-2.4,3.8-5.7,3.8-9.1c0-2.7-0.8-5.3-2.4-7.5l3.1-3.1
	c8.8-8.8,14.6-19.9,16.8-32.1c0.4-2,1.4-3.9,2.9-5.5l11.5-11.5l2,2c0.8,0.8,1.7,1.1,2.7,1.1s2-0.4,2.7-1.1L270.2,87
	c0.7-0.7,1.1-1.7,1.1-2.7C271.4,83.2,271,82.2,270.3,81.5z"/>
<g>
	<g>
		<path class="st1" d="M254.8,66l-46.7-46.7c-1.5-1.5-3.9-1.5-5.4,0l-23.3,23.3c-0.7,0.7-1.1,1.7-1.1,2.7s0.4,2,1.1,2.7l2.3,2.3
			l-5.3,5.3c-3.5,3.5-8.9,4.4-13.4,2.4c-4.3-1.9-9-3-13.7-3c-5.6,0-11,1.4-15.9,4.1c-2-0.5-4.1-0.8-6.2-0.8c-3,0-6,0.5-8.8,1.6
			c-4.5,1.6-9.4,0.6-12.7-2.7L96,47.7l1.1-1.1c0.7-0.7,1.1-1.7,1.1-2.7s-0.4-2-1.1-2.7L73.8,17.8c-1.5-1.5-3.9-1.5-5.4,0l-51.9,52
			c-1.5,1.5-1.5,3.9,0,5.4l23.3,23.3c0.7,0.7,1.7,1.1,2.7,1.1s2-0.4,2.7-1.1l1.4-1.4l6.8,6.8c1.7,1.7,2.8,3.8,3.3,6.2
			c2.2,12.1,8,23,16.7,31.7l1.3,1.3c-2.4,2.6-3.8,5.9-3.8,9.5c0,3.7,1.4,7.2,4.1,9.8c2.7,2.7,6.2,4,9.8,4c0.2,0,0.5,0,0.7,0
			c-0.2,3.8,1.2,7.6,4,10.5c2.6,2.6,6.1,4.1,9.8,4.1c0.1,0,0.2,0,0.3,0c-0.1,3.6,1.3,7.3,4,10.1c2.6,2.6,6.1,4.1,9.8,4.1
			c3.7,0,7.2-1.4,9.8-4.1c0.2-0.2,0.4-0.4,0.6-0.7c1.4,0.5,2.8,0.7,4.3,0.7c3.5,0,6.7-1.3,9.1-3.8c1.3-1.3,2.3-2.8,2.9-4.5l0.4,0.4
			c2.5,2.5,5.8,3.8,9.1,3.8s6.6-1.3,9.1-3.8c1.3-1.3,2.3-2.9,3-4.6c2.3,1.6,4.9,2.5,7.6,2.5c3.3,0,6.6-1.3,9.1-3.8
			c2.4-2.4,3.8-5.7,3.8-9.1c0-1-0.1-2.1-0.4-3.1c2.5-0.5,4.7-1.7,6.5-3.5c2.4-2.4,3.8-5.7,3.8-9.1c0-2.7-0.8-5.3-2.4-7.5l3.1-3.1
			c8.8-8.8,14.6-19.9,16.8-32.1c0.4-2,1.4-3.9,2.9-5.5L224,92.7l2,2c0.8,0.8,1.7,1.1,2.7,1.1s2-0.4,2.7-1.1l23.3-23.3
			c0.7-0.7,1.1-1.7,1.1-2.7S255.5,66.7,254.8,66z M42.5,90.4L24.6,72.5L71.1,26L89,43.9L42.5,90.4z M89,156.9
			c-2.4,2.4-6.3,2.4-8.7,0c-1.2-1.2-1.8-2.7-1.8-4.3s0.6-3.2,1.8-4.3c1.2-1.2,2.8-1.8,4.3-1.8c1.6,0,3.1,0.6,4.3,1.8
			C91.4,150.6,91.4,154.5,89,156.9z M103.5,171.4c-1.2,1.2-2.7,1.8-4.3,1.8c-1.6,0-3.2-0.6-4.3-1.8c-2.4-2.4-2.4-6.3,0-8.7
			c1.2-1.2,2.8-1.8,4.3-1.8c1.6,0,3.1,0.6,4.3,1.8C105.9,165.1,105.9,169,103.5,171.4z M117.6,185.5c-1.2,1.2-2.7,1.8-4.3,1.8
			c-1.6,0-3.2-0.6-4.3-1.8c-2.4-2.4-2.4-6.3,0-8.7c1.2-1.2,2.8-1.8,4.3-1.8c1.6,0,3.1,0.6,4.3,1.8C120,179.2,120,183.1,117.6,185.5z
			 M182.9,156c-1,1-2.3,1.5-3.7,1.5s-2.7-0.5-3.7-1.5l-37.3-37.3c-1.5-1.5-3.9-1.5-5.4,0s-1.5,3.9,0,5.4l40.1,40.1
			c1,1,1.5,2.3,1.5,3.7s-0.5,2.7-1.5,3.7c-2,2-5.4,2-7.4,0l-6.8-6.8l-0.1-0.1l0,0l-31.1-31.1c-1.5-1.5-3.9-1.5-5.4,0s-1.5,3.9,0,5.4
			l31.2,31.2c1,1,1.5,2.3,1.5,3.6c0,1.4-0.5,2.7-1.5,3.7c-2,2-5.4,2-7.4,0L112,143.8c-1.5-1.5-3.9-1.5-5.4,0s-1.5,3.9,0,5.4
			l25.1,25.1l0,0c1,1,1.5,2.3,1.5,3.7s-0.5,2.7-1.5,3.7s-2.3,1.5-3.7,1.5c-0.3,0-0.7,0-1-0.1c0.6-4.2-0.7-8.6-3.9-11.8
			c-2.6-2.6-6.1-4.1-9.8-4.1c-0.1,0-0.2,0-0.3,0c0.1-3.6-1.3-7.3-4-10.1c-2.6-2.6-6.1-4.1-9.8-4.1c-0.2,0-0.5,0-0.7,0
			c0.2-3.8-1.2-7.6-4-10.5c-3.5-3.5-8.4-4.7-12.9-3.7l-2.8-2.8c-7.6-7.6-12.6-17.2-14.6-27.7c-0.7-3.9-2.6-7.4-5.4-10.2L52,91.7
			l38.5-38.5l9.6,9.6c3.7,3.7,8.7,5.7,13.9,5.7c2.3,0,4.6-0.4,6.9-1.2c1.1-0.4,2.2-0.7,3.4-0.9l-23.8,23.8C97.6,93,96,96.9,96,101
			s1.6,8,4.5,10.9c3,3,6.9,4.5,10.9,4.5c3.9,0,7.9-1.5,10.9-4.5l11.9-11.9l3.2,3.2l0,0l0.1,0.1l0.1,0.1l0,0l0,0l0.1,0.1l45,45
			c1,1,1.5,2.3,1.5,3.7C184.4,153.7,183.9,155.1,182.9,156z M207.1,98.7c-2.7,2.7-4.4,6-5.1,9.6c-1.9,10.7-7,20.4-14.7,28l-3,3
			L160.1,115c0.5,0,1.1,0.1,1.6,0.1c2.5,0,5-0.4,7.5-1.5c2-0.8,2.9-3,2.1-5c-0.8-2-3-2.9-5-2.1c-9.9,4-21.7-7.1-23.1-8.4
			c0,0,0,0-0.1-0.1l-0.1-0.1l0,0l-0.1-0.1l0,0l-3.2-3.2l3.7-3.7c1.5-1.5,1.5-3.9,0-5.4s-3.9-1.5-5.4,0l-6.4,6.4l0,0l0,0l-14.7,14.7
			c-3,3-7.9,3-10.9,0c-1.5-1.5-2.3-3.4-2.3-5.5s0.8-4,2.3-5.5l25.3-25.3c1.4-1.4,3-2.6,4.7-3.7c4-2.5,8.6-3.8,13.3-3.8
			c3.6,0,7.3,0.8,10.5,2.3c7.4,3.4,16.3,1.8,22-3.9l5.3-5.3l31.4,31.4L207.1,98.7z M228.7,86.6l-41.2-41.2l17.9-17.9l41.2,41.2
			L228.7,86.6z"/>
	</g>
</g>
<g>
	<g>
		<circle class="st1" cx="232.6" cy="71.6" r="3.8"/>
	</g>
</g>
<g>
	<g>
		<circle class="st1" cx="40.5" cy="75.4" r="3.8"/>
	</g>
</g>
</svg>
