<?xml version="1.0" encoding="utf-8"?>
<!-- Generator: Adobe Illustrator 22.0.1, SVG Export Plug-In . SVG Version: 6.00 Build 0)  -->
<svg version="1.1" id="Capa_1" xmlns="http://www.w3.org/2000/svg" xmlns:xlink="http://www.w3.org/1999/xlink" x="0px" y="0px"
	 viewBox="0 0 271.4 215.7" style="enable-background:new 0 0 271.4 215.7;" xml:space="preserve">
<style type="text/css">
	.st0{fill:#D4F7FF;}
	.st1{fill:#434343;}
</style>
<path class="st0" d="M254.6,56.8l-91-43.9c-0.8-0.4-1.7-0.4-2.6,0L70,56.8c-1,0.5-1.7,1.5-1.7,2.6v106.7c0,1.1,0.6,2.2,1.7,2.6
	l91,43.9c0.4,0.2,0.8,0.3,1.3,0.3s0.9-0.1,1.3-0.3l91-43.9c1-0.5,1.7-1.5,1.7-2.6V59.5C256.2,58.3,255.6,57.3,254.6,56.8z"/>
<g>
	<g>
		<path class="st1" d="M228,44.2L137,0.3c-0.8-0.4-1.7-0.4-2.6,0l-91,43.9c-1,0.5-1.7,1.5-1.7,2.6v106.7c0,1.1,0.6,2.2,1.7,2.6
			l91,43.9c0.4,0.2,0.8,0.3,1.3,0.3c0.4,0,0.9-0.1,1.3-0.3l91-43.9c1-0.5,1.7-1.5,1.7-2.6V46.9C229.7,45.8,229,44.7,228,44.2z
			 M135.7,6.2L220,46.9l-24.4,11.8c-0.2-0.1-0.3-0.2-0.5-0.3L111.3,18L135.7,6.2z M104.7,21.3l84.2,40.6l-17.2,8.3L87.5,29.6
			L104.7,21.3z M190.8,67.5v30.8l-16.1,7.8V75.2L190.8,67.5z M223.8,151.8l-85.2,41.1V92.7l20.3-9.8c1.5-0.7,2.1-2.5,1.4-3.9
			c-0.7-1.5-2.5-2.1-3.9-1.4l-20.7,10l-8.1-3.9c-1.5-0.7-3.2-0.1-3.9,1.4s-0.1,3.2,1.4,3.9l7.8,3.7v100.2l-85.2-41.1V51.6l64.8,31.3
			c0.4,0.2,0.8,0.3,1.3,0.3c1.1,0,2.1-0.6,2.6-1.7c0.7-1.5,0.1-3.2-1.4-3.9L51.4,46.9l29.2-14.1l88.2,42.6c0,0,0,0,0,0.1v35.2
			c0,1,0.5,2,1.4,2.5c0.5,0.3,1,0.4,1.6,0.4c0.4,0,0.9-0.1,1.3-0.3l22-10.6c1-0.5,1.7-1.5,1.7-2.6V64.6l27.1-13.1L223.8,151.8
			L223.8,151.8z"/>
	</g>
</g>
<g>
	<g>
		<path class="st1" d="M78.9,140.4L65.5,134c-1.5-0.7-3.2-0.1-3.9,1.4s-0.1,3.2,1.4,3.9l13.4,6.4c0.4,0.2,0.8,0.3,1.3,0.3
			c1.1,0,2.1-0.6,2.6-1.7C81,142.8,80.4,141.1,78.9,140.4z"/>
	</g>
</g>
<g>
	<g>
		<path class="st1" d="M91.2,132.4L65.6,120c-1.5-0.7-3.2-0.1-3.9,1.4s-0.1,3.2,1.4,3.9l25.6,12.4c0.4,0.2,0.8,0.3,1.3,0.3
			c1.1,0,2.1-0.6,2.6-1.7C93.3,134.8,92.7,133.1,91.2,132.4z"/>
	</g>
</g>
</svg>
