<?xml version="1.0" encoding="utf-8"?>
<!-- Generator: Adobe Illustrator 22.0.1, SVG Export Plug-In . SVG Version: 6.00 Build 0)  -->
<svg version="1.1" id="Capa_1" xmlns="http://www.w3.org/2000/svg" xmlns:xlink="http://www.w3.org/1999/xlink" x="0px" y="0px"
	 viewBox="0 0 271.4 215.7" style="enable-background:new 0 0 271.4 215.7;" xml:space="preserve">
<style type="text/css">
	.st0{fill:#D4F7FF;}
	.st1{fill:#434343;}
</style>
<path class="st0" d="M244.9,87.4L185.5,28c-3.2-3.2-7.5-5-12-5c-4.6,0-8.8,1.8-12,5l-94.1,94.1c-3.2,3.2-5,7.5-5,12
	c0,4.6,1.8,8.8,5,12l7.3,7.3c0,0,0,0,0,0c0,0,0,0,0,0l49.2,49.2H117c-2.2,0-3.9,1.7-3.9,3.9c0,2.2,1.7,3.9,3.9,3.9h21.7c0,0,0,0,0,0
	c0,0,0,0,0,0l56.4,0c2.2,0,3.9-1.7,3.9-3.9c0-2.2-1.7-3.9-3.9-3.9l-41.6,0l91.3-91.3C251.5,104.8,251.5,94,244.9,87.4z"/>
<g>
	<g>
		<g>
			<path class="st1" d="M225.2,69.5l-59.4-59.4c-3.2-3.2-7.5-5-12-5c-4.6,0-8.8,1.8-12,5l-94.1,94.1c-3.2,3.2-5,7.5-5,12
				c0,4.6,1.8,8.8,5,12l7.3,7.3c0,0,0,0,0,0s0,0,0,0l49.2,49.2h-6.8c-2.2,0-3.9,1.7-3.9,3.9c0,2.2,1.7,3.9,3.9,3.9H119c0,0,0,0,0,0
				c0,0,0,0,0,0l56.4,0c2.2,0,3.9-1.7,3.9-3.9c0-2.2-1.7-3.9-3.9-3.9l-41.6,0l91.3-91.3C231.8,86.9,231.8,76.1,225.2,69.5z
				 M219.7,88l-94.1,94.1c-1.7,1.7-4,2.7-6.5,2.7h0c-2.5,0-4.8-1-6.5-2.7l-49.3-49.3l90.4-90.4c1.5-1.5,1.5-4,0-5.5
				c-1.5-1.5-4-1.5-5.5,0l-90.4,90.4l-4.6-4.6c-1.7-1.7-2.7-4-2.7-6.5s1-4.8,2.7-6.5l94.1-94.1c1.7-1.7,4-2.7,6.5-2.7
				c2.5,0,4.8,1,6.5,2.7l21.1,21.1l-90.4,90.4c-1.5,1.5-1.5,4,0,5.5c0.8,0.8,1.8,1.1,2.8,1.1c1,0,2-0.4,2.8-1.1L187,42.3L219.7,75
				C223.3,78.6,223.3,84.4,219.7,88z"/>
			<path class="st1" d="M138.9,118c-1.5-1.5-4-1.5-5.5,0l-30.7,30.7c-1.5,1.5-1.5,4,0,5.5c0.8,0.8,1.8,1.1,2.8,1.1
				c1,0,2-0.4,2.8-1.1l30.7-30.7C140.4,122,140.4,119.5,138.9,118z"/>
			<path class="st1" d="M126.3,147.1l-12.6,12.6c-1.5,1.5-1.5,4,0,5.5c0.8,0.8,1.8,1.1,2.8,1.1c1,0,2-0.4,2.8-1.1l12.6-12.6
				c1.5-1.5,1.5-4,0-5.5C130.3,145.6,127.8,145.6,126.3,147.1z"/>
			<path class="st1" d="M137.9,135.5l-1.7,1.7c-1.5,1.5-1.5,4,0,5.5c0.8,0.8,1.8,1.1,2.8,1.1s2-0.4,2.8-1.1l1.7-1.7
				c1.5-1.5,1.5-4,0-5.5C141.9,134,139.4,134,137.9,135.5z"/>
			<path class="st1" d="M191.8,65.1C191,64.4,190,64,189,64c-1,0-2,0.4-2.8,1.1l-16.6,16.6c-0.7,0.7-1.1,1.7-1.1,2.8s0.4,2,1.1,2.8
				l11,11c0.8,0.8,1.8,1.1,2.8,1.1c1,0,2-0.4,2.8-1.1l16.6-16.6c1.5-1.5,1.5-4,0-5.5L191.8,65.1z M183.5,90l-5.5-5.5l11-11l5.5,5.5
				L183.5,90z"/>
			<path class="st1" d="M160,34.5c1,0,2-0.4,2.8-1.1l1.7-1.7c1.5-1.5,1.5-4,0-5.5c-1.5-1.5-4-1.5-5.5,0l-1.7,1.7
				c-1.5,1.5-1.5,4,0,5.5C158,34.1,159,34.5,160,34.5z"/>
			<path class="st1" d="M81.9,136.3l-1.7,1.7c-1.5,1.5-1.5,4,0,5.5c0.8,0.8,1.8,1.1,2.8,1.1c1,0,2-0.4,2.8-1.1l1.7-1.7
				c1.5-1.5,1.5-4,0-5.5C85.9,134.7,83.5,134.7,81.9,136.3z"/>
		</g>
	</g>
</g>
</svg>
