<?xml version="1.0" encoding="utf-8"?>
<!-- Generator: Adobe Illustrator 22.0.1, SVG Export Plug-In . SVG Version: 6.00 Build 0)  -->
<svg version="1.1" id="Capa_1" xmlns="http://www.w3.org/2000/svg" xmlns:xlink="http://www.w3.org/1999/xlink" x="0px" y="0px"
	 viewBox="0 0 271.4 215.7" style="enable-background:new 0 0 271.4 215.7;" xml:space="preserve">
<style type="text/css">
	.st0{fill:#D4F7FF;}
	.st1{fill:#434343;}
</style>
<path class="st0" d="M211.7,164.8c-7.6-5.2-16.2-7.6-25-9.5c-2.3-0.5-4.6-0.9-7.2-1.4c0.7-0.9,1.2-1.6,1.7-2.2
	c8.3-11,16.9-21.9,24.9-33.1c7.5-10.5,12.7-22,14.3-34.9c1.4-11.7,0.1-23.1-4.7-33.8c-9.6-21.4-26-34.5-49.2-38.7
	c-10.3-1.9-20.4-1-30.3,2.2c-15.7,5.2-27.8,14.9-36.2,29.1c-8,13.7-10.4,28.5-8,44.1c1.8,11.7,6.8,22.2,13.7,31.8
	c8.2,11.4,16.9,22.5,25.4,33.7c0.4,0.6,0.9,1.2,1.4,1.9c-0.5,0.1-0.7,0.2-1,0.3c-6.3,1.5-12.7,2.8-18.8,4.7
	c-6.2,1.9-12,4.9-16.7,9.6c-6.2,6.2-6.6,14-0.5,20.3c2.4,2.5,5.3,4.7,8.3,6.3c10.3,5.7,21.6,8,33.1,9.5c3.8,0.5,7.7,0.8,11.5,1.2
	c5.1,0,10.2,0,15.3,0c0.7-0.1,1.4-0.3,2-0.3c9.8-0.5,19.5-1.9,28.9-4.7c7.4-2.2,14.6-4.9,20.4-10.3c4.3-3.9,6.9-8.5,5.4-14.6
	C219.2,170.8,215.7,167.5,211.7,164.8z"/>
<path class="st1" d="M129.3,195.6c-3.8-0.4-7.7-0.7-11.5-1.2c-11.5-1.4-22.9-3.8-33.1-9.5c-3-1.7-5.9-3.8-8.3-6.3
	c-6-6.3-5.7-14.1,0.5-20.3c4.7-4.7,10.5-7.7,16.7-9.6c6.2-1.9,12.6-3.1,18.8-4.7c0.2-0.1,0.5-0.1,1-0.3c-0.5-0.7-0.9-1.3-1.4-1.9
	c-8.5-11.2-17.2-22.2-25.4-33.7c-6.8-9.5-11.8-20-13.7-31.8c-2.5-15.6-0.1-30.4,8-44.1c8.4-14.2,20.5-24,36.2-29.1
	c9.9-3.3,20.1-4.1,30.3-2.2c23.2,4.2,39.6,17.3,49.2,38.7c4.8,10.7,6.1,22.1,4.7,33.8c-1.5,13-6.8,24.5-14.3,34.9
	c-8,11.2-16.6,22.1-24.9,33.1c-0.5,0.7-1,1.3-1.7,2.2c2.6,0.5,4.9,0.9,7.2,1.4c8.8,1.9,17.4,4.3,25,9.5c4.1,2.8,7.6,6.1,8.8,11.1
	c1.5,6-1.1,10.7-5.4,14.6c-5.8,5.3-13,8.1-20.4,10.3c-9.4,2.8-19.1,4.2-28.9,4.7c-0.7,0-1.4,0.2-2,0.3
	C139.5,195.6,134.4,195.6,129.3,195.6z M136.9,162.1c0.4-0.5,0.8-0.9,1.1-1.4c9.4-12.2,18.7-24.5,28.1-36.7
	c7.4-9.7,15.1-19.2,20.7-30.2c8.2-15.8,10.1-32.3,3.5-49C182,23.5,166,11.1,143.3,8.2c-15-2-28.8,2.1-40.9,11.2
	C82,34.7,74.8,61.1,82.9,84.7c3.4,10,9.2,18.7,15.5,27c12.5,16.5,25.2,33,37.7,49.5C136.3,161.5,136.6,161.8,136.9,162.1z
	 M140.9,188c2.6-0.2,7-0.4,11.3-0.8c10-1,19.7-2.8,29-6.7c4.1-1.7,8-3.7,10.9-7.1c2.7-3.1,2.6-5.9-0.1-9c-2.5-2.8-5.7-4.6-9.1-6.2
	c-8.5-4-17.6-5.8-26.8-7.2c-1.2-0.2-1.7,0.4-2.3,1.2c-4.4,5.9-8.8,11.9-13.1,17.8c-2.7,3.6-5.2,3.7-7.8,0c-4.4-6-8.8-12-13.3-18
	c-0.4-0.6-1.5-1.1-2.1-1c-7.2,1.5-14.4,2.9-21.5,4.9c-4.9,1.4-9.6,3.7-13.5,7.3c-4.1,3.8-4,7.4,0.1,11.2c4.1,3.8,9.2,5.9,14.4,7.6
	C110.8,186.7,124.9,188,140.9,188z"/>
<path class="st1" d="M163.6,65.1c0,14.6-12.1,26.6-26.8,26.6c-14.7,0-26.7-12.2-26.6-27c0.1-14.7,12.2-26.5,26.9-26.5
	C151.7,38.3,163.7,50.4,163.6,65.1z M136.9,84.1c10.4,0,19.1-8.8,19-19.1c0-10.4-8.7-19.1-19.1-19.1c-10.4,0-19.1,8.8-19.1,19.1
	C117.8,75.4,126.6,84.1,136.9,84.1z"/>
<path class="st1" d="M186.5,63.5c0,0.4,0,0.8,0,1.1c0,2.6-1.5,4.4-3.7,4.5c-2.2,0.1-3.8-1.7-4-4.2c-0.2-2.5-0.3-5.1-0.8-7.6
	c-3-14.9-11.6-25.3-25.5-31.3c-0.6-0.3-1.3-0.5-1.9-0.8c-1.9-1-2.6-3-1.9-4.8c0.7-1.8,2.7-2.8,4.7-2.1c4.9,1.6,9.3,4,13.4,7.2
	C179.3,35.1,185.7,47.9,186.5,63.5z"/>
<path class="st1" d="M141,19.1c0,2-1.7,3.8-3.8,3.8c-2,0-3.8-1.7-3.8-3.7c0-2,1.7-3.8,3.7-3.8C139.2,15.3,141,17.1,141,19.1z"/>
</svg>
