<?xml version="1.0" encoding="utf-8"?>
<!-- Generator: Adobe Illustrator 22.0.1, SVG Export Plug-In . SVG Version: 6.00 Build 0)  -->
<svg version="1.1" id="Слой_1" xmlns="http://www.w3.org/2000/svg" xmlns:xlink="http://www.w3.org/1999/xlink" x="0px" y="0px"
	 viewBox="0 0 51.2 50.8" style="enable-background:new 0 0 51.2 50.8;" xml:space="preserve">
<style type="text/css">
	.st0{fill:#434343;}
</style>
<path class="st0" d="M23.2,25.4L0.5,48.1c-0.6,0.6-0.6,1.7,0,2.3c0.3,0.3,0.7,0.5,1.1,0.5c0.4,0,0.8-0.2,1.1-0.5l22.8-22.8
	l22.8,22.8c0.3,0.3,0.7,0.5,1.1,0.5c0.4,0,0.8-0.2,1.1-0.5c0.6-0.6,0.6-1.6,0-2.3L28,25.4L50.7,2.7c0.6-0.6,0.6-1.6,0-2.3
	c-0.6-0.6-1.6-0.6-2.3,0L25.6,23.3L2.7,0.5c-0.6-0.6-1.6-0.6-2.3,0s-0.6,1.6,0,2.3L23.2,25.4z M23.2,25.4"/>
</svg>
