<?xml version="1.0" encoding="utf-8"?>
<!-- Generator: Adobe Illustrator 22.0.1, SVG Export Plug-In . SVG Version: 6.00 Build 0)  -->
<svg version="1.1" id="Capa_1" xmlns="http://www.w3.org/2000/svg" xmlns:xlink="http://www.w3.org/1999/xlink" x="0px" y="0px"
	 viewBox="0 0 373.9 274" style="enable-background:new 0 0 373.9 274;" xml:space="preserve">
<style type="text/css">
	.st0{fill:#434343;}
</style>
<g>
	<g>
		<path class="st0" d="M373.8,244.7c-0.2-15.4-8.5-29.5-21.9-37l-57.5-31.8V164c7.3-9,13-19.3,16.6-30.4c0.4-2,1.4-3.8,2.9-5.2
			c5.3-5,8.3-12,8.3-19.3V91.7c0-4.3-1-8.5-3-12.2l-1.1-2c-0.7-1.3-1.1-2.8-1.1-4.3V47.9C316.6,21,294.3-0.5,267.3,0h-30.9
			c-27-0.5-49.2,21-49.8,47.9v25.2c0,1.5-0.4,3-1.1,4.3l-1.1,2c-2,3.8-3,8-3,12.2v17.5c0,7.3,3.1,14.3,8.3,19.3
			c1.5,1.4,2.5,3.2,2.9,5.2c3.6,11.1,9.3,21.3,16.6,30.4v11.8l-57.6,31.9c-13.3,7.5-21.7,21.6-21.8,36.9c0,0-1.7,29.3,12.3,29.3h221
			C375.2,274,373.8,244.7,373.8,244.7z M343.5,222.5c8.1,4.4,13.2,12.9,13.3,22.1V256h-96.4v-38.5l26.1-26.5L343.5,222.5z
			 M201.6,116.1c-1.9-1.8-3-4.3-3-6.9V91.7c0-1.5,0.4-3,1.1-4.3l1.1-2c2-3.8,3-8,3-12.2V47.9c0.5-17.5,15.2-31.3,32.7-30.9h30.9
			c17.5-0.5,32.2,13.3,32.7,30.9v25.2c0,4.3,1,8.5,3,12.2l1.1,2c0.7,1.3,1.1,2.8,1.1,4.3v17.5c0,2.6-1.1,5.1-3,6.9
			c-4,3.8-6.7,8.7-7.8,14c-3.3,9-8.1,17.4-14.4,24.7c-1.7,2.3-2.6,5.1-2.6,7.9v13.2l-25.5,25.9l-25.5-25.9v-13.2c0-2.9-1-5.7-2.7-8
			c-6.2-7.3-11-15.6-14.3-24.6C208.2,124.8,205.5,119.9,201.6,116.1z M147,244.7c0.1-9.2,5.1-17.6,13.1-22.1l57.1-31.6l26.1,26.5
			V256H147V244.7z"/>
	</g>
</g>
<g>
	<path class="st0" d="M92.9,159.9c0,0.3,0,0.9-0.1,2c-0.1,1.1-0.1,1.9-0.1,2.7c0,0.7,0.1,1.5,0.3,2.4c0.2,0.9,0.5,1.5,1,2
		c0.5,0.4,1.2,0.7,2.1,0.7h32.1c7.9,0,14.7-2.8,20.4-8.5c5.6-5.6,8.5-12.4,8.5-20.4V70.2c0-7.9-2.8-14.7-8.5-20.4
		c-5.6-5.6-12.4-8.5-20.4-8.5H96.1c-0.9,0-1.6,0.3-2.3,0.9c-0.6,0.6-1,1.4-1,2.3c0,0.3,0,0.9-0.1,2c-0.1,1.1-0.1,1.9-0.1,2.7
		c0,0.7,0.1,1.5,0.3,2.4c0.2,0.9,0.5,1.5,1,2c0.5,0.4,1.2,0.6,2.1,0.6h32.1c4.4,0,8.2,1.6,11.3,4.7c3.1,3.1,4.7,6.9,4.7,11.3v70.5
		c0,4.4-1.6,8.2-4.7,11.3c-3.1,3.1-6.9,4.7-11.3,4.7H96.9c0,0-0.4,0-1.2,0.1c-0.8,0.1-1.2,0.2-1.2,0.3s-0.3,0.3-0.8,0.6
		c-0.5,0.2-0.8,0.5-0.7,0.9C93.2,159,93.1,159.4,92.9,159.9L92.9,159.9z M92.9,159.9"/>
	<path class="st0" d="M1.9,101c-1.3,1.3-1.9,2.8-1.9,4.5c0,1.7,0.6,3.2,1.9,4.5l54.5,54.5c1.3,1.3,2.8,1.9,4.5,1.9
		c1.7,0,3.2-0.6,4.5-1.9c1.3-1.3,1.9-2.8,1.9-4.5v-28.8h44.9c1.7,0,3.2-0.6,4.5-1.9c1.3-1.3,1.9-2.8,1.9-4.5V86.2
		c0-1.7-0.6-3.2-1.9-4.5c-1.3-1.3-2.8-1.9-4.5-1.9H67.3V51c0-1.7-0.6-3.2-1.9-4.5c-1.3-1.3-2.8-1.9-4.5-1.9c-1.7,0-3.2,0.6-4.5,1.9
		L1.9,101L1.9,101z M1.9,101"/>
</g>
</svg>
