<?xml version="1.0" encoding="utf-8"?>
<!-- Generator: Adobe Illustrator 22.0.1, SVG Export Plug-In . SVG Version: 6.00 Build 0)  -->
<svg version="1.1" id="Capa_1" xmlns="http://www.w3.org/2000/svg" xmlns:xlink="http://www.w3.org/1999/xlink" x="0px" y="0px"
	 viewBox="0 0 244 274" style="enable-background:new 0 0 244 274;" xml:space="preserve">
<style type="text/css">
	.st0{fill:#FF8D2E;}
</style>
<path class="st0" d="M244,244.7c-0.2-15.4-8.5-29.5-21.9-37l-57.5-31.8V164c7.3-9,13-19.3,16.6-30.4c0.4-2,1.4-3.8,2.9-5.2
	c5.3-5,8.3-12,8.3-19.3V91.7c0-4.3-1-8.5-3-12.2l-1.1-2c-0.7-1.3-1.1-2.8-1.1-4.3V47.9C186.7,21,164.5-0.5,137.5,0h-30.9
	c-27-0.5-49.2,21-49.8,47.9v25.2c0,1.5-0.4,3-1.1,4.3l-1,2c-2,3.8-3,8-3,12.2v17.5c0,7.3,3.1,14.3,8.3,19.3c1.5,1.4,2.5,3.2,2.9,5.2
	c3.6,11.1,9.3,21.3,16.6,30.4v11.8l-57.6,31.9c-13.3,7.5-21.7,21.6-21.8,36.9c0,0-1.7,29.3,12.3,29.3h221
	C245.4,274,244,244.7,244,244.7z"/>
</svg>
