<?xml version="1.0" encoding="utf-8"?>
<!-- Generator: Adobe Illustrator 22.0.1, SVG Export Plug-In . SVG Version: 6.00 Build 0)  -->
<svg version="1.1" id="Layer_1" xmlns="http://www.w3.org/2000/svg" xmlns:xlink="http://www.w3.org/1999/xlink" x="0px" y="0px"
	 viewBox="0 0 288 288" style="enable-background:new 0 0 288 288;" xml:space="preserve">
<style type="text/css">
	.st0{display:none;}
	.st1{display:none;fill:#FFFFFF;}
</style>
<g>
	<g>
		<polygon class="st0" points="277,288 288,277.1 288,280.9 280.9,288 		"/>
		<polygon points="277.8,287.7 287.7,277.8 287.7,280.8 280.7,287.7 		"/>
	</g>
	<g>
		<polygon class="st0" points="255.7,288 288,255.8 288,259.6 259.5,288 		"/>
		<polygon points="256.5,287.7 287.7,256.5 287.7,259.4 259.4,287.7 		"/>
	</g>
	<g>
		<polygon class="st0" points="234.4,288 288,234.4 288,238.3 238.2,288 		"/>
		<polygon points="235.1,287.7 287.7,235.2 287.7,238.1 238.1,287.7 		"/>
	</g>
	<g>
		<polygon class="st0" points="288,213.1 288,216.9 216.9,288 213.1,288 		"/>
		<polygon points="213.8,287.7 287.7,213.9 287.7,216.8 216.8,287.7 		"/>
	</g>
	<g>
		<polygon class="st0" points="288,191.8 288,195.6 195.6,288 191.8,288 		"/>
		<polygon points="192.5,287.7 287.7,192.5 287.7,195.5 195.5,287.7 		"/>
	</g>
	<g>
		<polygon class="st0" points="288,170.5 288,174.3 174.3,288 170.5,288 		"/>
		<polygon points="171.2,287.7 287.7,171.2 287.7,174.2 174.2,287.7 		"/>
	</g>
	<g>
		<polygon class="st0" points="288,149.2 288,153 152.7,288.2 148.9,288.2 		"/>
		<polygon points="149.7,287.9 287.7,149.9 287.7,152.9 152.6,287.9 		"/>
	</g>
	<g>
		<polygon class="st0" points="288,127.9 288,131.7 131.7,288 127.9,288 		"/>
		<polygon points="128.6,287.7 287.7,128.6 287.7,131.6 131.5,287.7 		"/>
	</g>
	<g>
		<polygon class="st0" points="110.3,288 288,110.4 288,106.6 106.5,288 		"/>
		<polygon points="107.3,287.7 287.7,107.3 287.7,110.2 110.2,287.7 		"/>
	</g>
	<g>
		<polygon class="st0" points="288,85.3 288,89.1 89,288 85.2,288 		"/>
		<polygon points="85.9,287.7 287.7,86 287.7,88.9 88.9,287.7 		"/>
	</g>
	<g>
		<polygon class="st0" points="288,63.9 288,67.8 67.7,288 63.9,288 		"/>
		<polygon points="64.6,287.7 287.7,64.7 287.7,67.6 67.6,287.7 		"/>
	</g>
	<g>
		<polygon class="st0" points="288,42.6 288,46.4 46.4,288 42.6,288 		"/>
		<polygon points="43.3,287.7 287.7,43.4 287.7,46.3 46.3,287.7 		"/>
	</g>
	<g>
		<polygon class="st0" points="288,21.3 288,25.1 25.1,288 21.3,288 		"/>
		<polygon points="22,287.7 287.7,22 287.7,25 25,287.7 		"/>
	</g>
	<g>
		<polygon class="st0" points="288,0 288,3.8 3.8,288 0,288 0,288 288,0 		"/>
		<polygon points="0.7,287.7 287.7,0.7 287.7,3.7 3.6,287.7 		"/>
	</g>
	<g>
		<polygon class="st0" points="270.5,0 0,270.5 0,266.6 266.6,0 		"/>
		<polygon points="0.3,266.8 266.8,0.3 269.7,0.3 0.3,269.7 		"/>
	</g>
	<g>
		<polygon class="st0" points="249.1,0 0,249.1 0,245.3 245.3,0 		"/>
		<polygon points="0.3,245.5 245.5,0.3 248.4,0.3 0.3,248.4 		"/>
	</g>
	<g>
		<polygon class="st0" points="227.8,0 0,227.8 0,224 224,0 		"/>
		<polygon points="0.3,224.1 224.2,0.3 227.1,0.3 0.3,227.1 		"/>
	</g>
	<g>
		<polygon class="st0" points="206.5,0 0,206.5 0,202.7 202.7,0 		"/>
		<polygon points="0.3,202.8 202.8,0.3 205.8,0.3 0.3,205.8 		"/>
	</g>
	<g>
		<polygon class="st0" points="185.2,0 0,185.2 0,181.4 181.4,0 		"/>
		<polygon points="0.3,181.5 181.5,0.3 184.5,0.3 0.3,184.5 		"/>
	</g>
	<g>
		<polygon class="st0" points="163.9,0 0,163.9 0,160.1 160.1,0 		"/>
		<polygon points="0.3,160.2 160.2,0.3 163.2,0.3 0.3,163.2 		"/>
	</g>
	<g>
		<polygon class="st0" points="142.6,0 0,142.6 0,138.8 138.8,0 		"/>
		<polygon points="0.3,138.9 138.9,0.3 141.9,0.3 0.3,141.9 		"/>
	</g>
	<g>
		<polygon class="st0" points="121.3,0 0,121.3 0,117.4 117.4,0 		"/>
		<polygon points="0.3,117.6 117.6,0.3 120.5,0.3 0.3,120.5 		"/>
	</g>
	<g>
		<polygon class="st0" points="99.9,0 0,99.9 0,96.1 96.1,0 		"/>
		<polygon points="0.3,96.3 96.3,0.3 99.2,0.3 0.3,99.2 		"/>
	</g>
	<g>
		<polygon class="st0" points="78.6,0 0,78.6 0,74.8 74.8,0 		"/>
		<polygon points="0.3,74.9 75,0.3 77.9,0.3 0.3,77.9 		"/>
	</g>
	<g>
		<polygon class="st0" points="57.3,0 0,57.3 0,53.5 53.5,0 		"/>
		<polygon points="0.3,53.6 53.6,0.3 56.6,0.3 0.3,56.6 		"/>
	</g>
	<g>
		<polygon class="st0" points="36,0 0,36 0,32.2 32.2,0 		"/>
		<polygon points="0.3,32.3 32.3,0.3 35.3,0.3 0.3,35.3 		"/>
	</g>
	<g>
		<polygon class="st0" points="14.7,0 0,14.7 0,10.9 10.9,0 		"/>
		<polygon points="0.3,11 11,0.3 14,0.3 0.3,14 		"/>
	</g>
</g>
<rect x="0" y="0" class="st1" width="288" height="288"/>
</svg>
