<?xml version="1.0" encoding="utf-8"?>
<!-- Generator: Adobe Illustrator 22.1.0, SVG Export Plug-In . SVG Version: 6.00 Build 0)  -->
<svg version="1.1" id="Capa_1" xmlns="http://www.w3.org/2000/svg" xmlns:xlink="http://www.w3.org/1999/xlink" x="0px" y="0px"
	 viewBox="0 0 372.2 378" style="enable-background:new 0 0 372.2 378;" xml:space="preserve">
<style type="text/css">
	.st0{fill:#FF8D2E;}
	.st1{fill:#434343;}
</style>
<circle class="st0" cx="198.2" cy="204" r="174"/>
<g>
	<g>
		<path class="st1" d="M181.7,44c-77.2,0-140,62.8-140,140c0,4.5,0.2,9,0.6,13.4c3.4,42.6,33,77.4,33,77.4
			c25.7,30,63.9,49.1,106.4,49.1c77.2,0,140-62.8,140-140S258.9,44,181.7,44z M181.7,304c-66.2,0-120-53.8-120-120s53.8-120,120-120
			s120,53.8,120,120S247.8,304,181.7,304z"/>
	</g>
</g>
<g>
	<g>
		<path class="st1" d="M181.7,0C137.8,0,95.3,15.7,62.1,44.2C29.2,72.3,7.2,111.2,0.1,153.7c-0.9,5.4,2.8,10.6,8.2,11.5
			c5.4,0.9,10.6-2.8,11.5-8.2C33,77.6,101.1,20,181.7,20c90.4,0,164,73.6,164,164s-73.6,164-164,164c-5.5,0-10,4.5-10,10
			s4.5,10,10,10c101.5,0,184-82.5,184-184S283.1,0,181.7,0z"/>
	</g>
</g>
<g>
	<g>
		<path class="st1" d="M150.8,345.1c0,0-0.1,0-0.1,0c-5.4-1-10.6,2.5-11.7,7.9c-1.1,5.4,2.5,10.7,7.9,11.7c0.7,0.1,1.3,0.2,2,0.2
			c4.7,0,8.8-3.3,9.8-8C159.7,351.5,156.2,346.2,150.8,345.1z"/>
	</g>
</g>
<g>
	<g>
		<path class="st1" d="M235.6,130.3c-3.9-3.9-10.2-3.9-14.1,0l-39.6,39.6L161,149c-3.9-3.9-10.2-3.9-14.1,0s-3.9,10.2,0,14.1
			l27.9,27.9c2,2,4.5,2.9,7.1,2.9s5.1-1,7.1-2.9l46.7-46.7C239.5,140.5,239.5,134.2,235.6,130.3z"/>
	</g>
</g>
<g>
	<g>
		<path class="st1" d="M181.7,76.1c-5.5,0-10,4.5-10,10v7.1c0,5.5,4.5,10,10,10s10-4.5,10-10v-7.1C191.7,80.6,187.2,76.1,181.7,76.1
			z"/>
	</g>
</g>
<g>
	<g>
		<path class="st1" d="M181.7,264.8c-5.5,0-10,4.5-10,10v7.1c0,5.5,4.5,10,10,10s10-4.5,10-10v-7.1
			C191.7,269.3,187.2,264.8,181.7,264.8z"/>
	</g>
</g>
<g>
	<g>
		<path class="st1" d="M279.6,174h-7.1c-5.5,0-10,4.5-10,10s4.5,10,10,10h7.1c5.5,0,10-4.5,10-10S285.1,174,279.6,174z"/>
	</g>
</g>
<g>
	<g>
		<path class="st1" d="M90.8,174h-7.1c-5.5,0-10,4.5-10,10s4.5,10,10,10h7.1c5.5,0,10-4.5,10-10S96.3,174,90.8,174z"/>
	</g>
</g>
</svg>
