<?xml version="1.0" encoding="utf-8"?>
<!-- Generator: Adobe Illustrator 22.1.0, SVG Export Plug-In . SVG Version: 6.00 Build 0)  -->
<svg version="1.1" id="Capa_1" xmlns="http://www.w3.org/2000/svg" xmlns:xlink="http://www.w3.org/1999/xlink" x="0px" y="0px"
	 viewBox="0 0 425.1 516" style="enable-background:new 0 0 425.1 516;" xml:space="preserve">
<style type="text/css">
	.st0{fill:#FF8D2E;}
	.st1{fill:#FFFFFF;}
	.st2{fill:#434343;stroke:#434343;stroke-width:4;stroke-miterlimit:10;}
</style>
<path class="st0" d="M238.4,515l-156-197c0,0-45-68-23-158s96-133,180-134s139,51,162,93s44,130-12,203S238.4,515,238.4,515z"/>
<circle class="st1" cx="200.4" cy="199" r="125"/>
<g>
	<g>
		<path class="st2" d="M199.4,2C90.6,2,2,90.6,2,199.4c0,45.1,15.6,89.3,44,124.3c0,0.1,0.1,0.1,0.1,0.2l44.2,56.7
			c3.4,4.4,9.7,5.1,14,1.7c4.4-3.4,5.1-9.7,1.7-14l-44-56.3c-0.1-0.2-0.3-0.4-0.4-0.5C36.1,279.9,22,240.1,22,199.4
			C22,101.6,101.6,22,199.4,22s177.4,79.6,177.4,177.4c0,41.1-14.4,81.2-40.6,112.9c-0.3,0.4-0.6,0.9-0.9,1.3L199.4,487.7L156.7,433
			c-3.4-4.4-9.7-5.1-14-1.7c-4.4,3.4-5.1,9.7-1.7,14l50.6,64.8c1.9,2.4,4.8,3.8,7.9,3.8c3.1,0,6-1.4,7.9-3.8l144.7-185.3
			c0.2-0.3,0.4-0.6,0.6-0.9c28.6-35.1,44.3-79.2,44.3-124.6C396.8,90.6,308.2,2,199.4,2z"/>
	</g>
</g>
<g>
	<g>
		<path class="st2" d="M130.9,400c-1.9-1.9-4.4-2.9-7.1-2.9c-2.6,0-5.2,1.1-7.1,2.9c-1.9,1.9-2.9,4.4-2.9,7.1c0,2.6,1.1,5.2,2.9,7.1
			c1.9,1.9,4.4,2.9,7.1,2.9c2.6,0,5.2-1.1,7.1-2.9c1.9-1.9,2.9-4.5,2.9-7.1C133.8,404.5,132.7,401.9,130.9,400z"/>
	</g>
</g>
<g>
	<g>
		<path class="st2" d="M295.3,105.8c-0.4-0.4-0.8-0.8-1.1-1.1c-3.9-3.9-10.2-3.9-14.1,0c-3.9,3.9-3.9,10.2,0,14.1
			c0.3,0.3,0.7,0.7,1,1c2,2,4.6,3,7.1,3c2.5,0,5-0.9,7-2.9C299.1,116.1,299.2,109.7,295.3,105.8z"/>
	</g>
</g>
<g>
	<g>
		<path class="st2" d="M316.4,134.1c-2.7-4.8-8.8-6.5-13.6-3.9c-4.8,2.7-6.5,8.8-3.9,13.6c24.7,44.3,16.9,100.3-19,136.2
			c-44.4,44.4-116.8,44.4-161.2,0c-44.4-44.4-44.4-116.8,0-161.2c35.6-35.6,89.4-43.7,133.9-20.2c4.9,2.6,10.9,0.7,13.5-4.2
			c2.6-4.9,0.7-10.9-4.2-13.5c-24.8-13.1-53.8-18.1-81.7-14.1c-28.8,4.1-55,17.2-75.7,37.9c-25.3,25.3-39.2,59-39.2,94.8
			c0,35.8,13.9,69.4,39.2,94.8c26.1,26.1,60.4,39.2,94.8,39.2s68.6-13.1,94.8-39.2c21-21,34.2-47.7,38.1-77.2
			C336,188.5,330.4,159,316.4,134.1z"/>
	</g>
</g>
</svg>
