<?xml version="1.0" encoding="utf-8"?>
<!-- Generator: Adobe Illustrator 22.1.0, SVG Export Plug-In . SVG Version: 6.00 Build 0)  -->
<svg version="1.1" id="Capa_1" xmlns="http://www.w3.org/2000/svg" xmlns:xlink="http://www.w3.org/1999/xlink" x="0px" y="0px"
	 viewBox="0 0 522.6 527.4" style="enable-background:new 0 0 522.6 527.4;" xml:space="preserve">
<style type="text/css">
	.st0{fill:#A4C2F7;}
	.st1{fill:#FF8D2E;}
	.st2{fill:#434343;stroke:#434343;stroke-width:4;stroke-miterlimit:10;}
</style>
<path class="st0" d="M502.1,498.4c-3.2,4.4-8.3,7-13.7,7h-25.6c9.4,0,17-7.7,17.1-17.1v-7.3L502.1,498.4z"/>
<g>
	<path class="st1" d="M522.5,220.2v290.1c0,9.4-7.6,17-16.9,17.1H47.9c-9.3,0-16.9-7.7-16.9-17.1V220.2l3.6-2.7l2.1,2.7h480.1
		l2.1-2.7L522.5,220.2z"/>
	<path class="st1" d="M438.7,82.7v197.7l-25.4,19.7l-127.1,98.3h-16.9l-152.5-118V82.7c0-9.4,7.6-17,16.9-17.1h288.1
		C431.1,65.7,438.7,73.3,438.7,82.7z"/>
	<path class="st1" d="M501,197.1c0,0,58.3,41.5-16.9,24.3H51.9c-0.6,0-1.1,0-1.7-0.1c-0.4,0-0.8-0.1-1.2-0.2
		c-4.3-0.8-8.2-3.2-10.8-6.7L232.4,62.6l38-29.8c6-4.8,14.5-4.8,20.5,0l38,29.8L501,197.1z"/>
</g>
<g>
	<path class="st2" d="M10.5,275c2.3,0,4.4-0.9,6.1-2.5c3.3-3.4,3.3-8.8,0-12.1l-1.3-1c-0.5-0.3-1-0.6-1.5-0.8
		c-0.5-0.2-1-0.4-1.5-0.5c-0.6-0.1-1.1-0.2-1.7-0.2c-2.3,0-4.4,0.9-6.1,2.5c-0.8,0.8-1.4,1.8-1.8,2.8c-1.3,3.2-0.6,6.8,1.8,9.3
		c0.8,0.8,1.8,1.4,2.8,1.8C8.3,274.8,9.4,275,10.5,275z"/>
	<path class="st2" d="M513.5,196c-0.1-0.5-0.3-1-0.5-1.5c-0.2-0.5-0.5-0.9-0.9-1.3c-0.3-0.5-0.7-0.9-1.1-1.3
		c-0.1-0.1-0.2-0.3-0.3-0.4l-82.1-63.7V61.7c0-14.1-11.5-25.6-25.6-25.6h-92.5l-37-28.7c-9.1-7.1-22-7.1-31.1,0l-37,28.7h-92.5
		c-14.1,0-25.6,11.5-25.6,25.6v66.1l-82,63.7c-2,1.6-3.2,4.1-3.2,6.7H2v34.1c0,4.7,3.8,8.5,8.5,8.5s8.5-3.8,8.5-8.5v-21.1
		l139.8,108.6c3.7,2.9,9.1,2.2,12-1.5c2.9-3.7,2.2-9.1-1.5-12L27.3,196l60-46.7v65.9c0,4.7,3.8,8.5,8.5,8.5c4.7,0,8.5-3.8,8.5-8.5
		V61.7c0-4.7,3.8-8.5,8.5-8.5h290.1c4.7,0,8.5,3.8,8.5,8.5v153.6c0,4.7,3.8,8.5,8.5,8.5s8.5-3.8,8.5-8.5v-65.9l60,46.7L346.4,306.5
		c-2.4,1.9-3.7,4.9-3.3,7.9s2.4,5.6,5.3,6.8c2.8,1.1,6.1,0.7,8.5-1.2l140.1-108.8v272.4L273.6,310.1c-9.1-7.1-22-7.1-31.1,0
		L19.1,483.6v-183c0-4.7-3.8-8.5-8.5-8.5S2,295.9,2,300.6v187.7c0,5.4,1.8,10.7,5,15.1c0.1,0.1,0.1,0.2,0.1,0.2
		c0.1,0.1,0.2,0.1,0.3,0.2c4.8,6.3,12.3,10,20.2,10.1h460.8c8,0,15.4-3.8,20.2-10.1c0.1-0.1,0.2-0.1,0.2-0.2
		c0.1-0.1,0.1-0.2,0.1-0.2c3.2-4.4,5-9.6,5-15.1V198.2c0-0.2-0.1-0.3-0.1-0.5C513.8,197.1,513.7,196.6,513.5,196z M252.9,20.8
		c3-2.4,7.2-2.4,10.2,0l19.7,15.3h-49.5L252.9,20.8z M252.9,323.6c3-2.4,7.2-2.4,10.2,0l223.2,173.3H29.8L252.9,323.6z"/>
	<path class="st2" d="M258,138.5c4.7,0,8.5-3.8,8.5-8.5c0-4.7-3.8-8.5-8.5-8.5c-22.9-0.1-43.1,15.1-49.4,37.2s2.8,45.6,22.3,57.6
		s44.6,9.6,61.5-5.8c1.9,18,17.5,31.5,35.7,30.5s32.3-16,32.2-34.1v-34.1c0-56.6-45.8-102.4-102.4-102.4s-102.4,45.8-102.4,102.4
		S201.4,275,258,275c4.7,0,8.5-3.8,8.5-8.5c0-4.7-3.8-8.5-8.5-8.5c-47.1,0-85.3-38.2-85.3-85.3s38.2-85.3,85.3-85.3
		s85.3,38.2,85.3,85.3v34.1c0,9.4-7.6,17.1-17.1,17.1s-17.1-7.6-17.1-17.1v-34.1c0-4.7-3.8-8.5-8.5-8.5s-8.5,3.8-8.5,8.5
		c0,18.9-15.3,34.1-34.1,34.1s-34.1-15.3-34.1-34.1S239.1,138.5,258,138.5z"/>
</g>
</svg>
