<?xml version="1.0" encoding="utf-8"?>
<!-- Generator: Adobe Illustrator 22.1.0, SVG Export Plug-In . SVG Version: 6.00 Build 0)  -->
<svg version="1.1" id="Capa_1" xmlns="http://www.w3.org/2000/svg" xmlns:xlink="http://www.w3.org/1999/xlink" x="0px" y="0px"
	 viewBox="0 0 522.9 529" style="enable-background:new 0 0 522.9 529;" xml:space="preserve">
<style type="text/css">
	.st0{fill:#FF8D2E;}
	.st1{fill:#434343;}
</style>
<path class="st0" d="M72,106c0,0,31-32,59-9s71,71,71,71s29.2,33,1,60c-23,22-29,36-18,49c7.4,8.7,91,93,91,93s23,21,46-1
	s37-35,61-17s71,69,71,69s25,26,3,54s-64,53-96,54s-70-21-98-48S98,313,98,313s-74-60-68-119S72,106,72,106z"/>
<path class="st0" d="M384,33c0,0,125-13,138,104S396,251,379,252h-10l-38,30l-4-33c0,0-85-26-82-110S347,28,384,33z"/>
<g>
	<g>
		<path class="st1" d="M154.4,351.6c-1.9-1.9-4.4-2.9-7.1-2.9c-2.6,0-5.2,1.1-7.1,2.9s-2.9,4.4-2.9,7.1s1.1,5.2,2.9,7.1
			s4.4,2.9,7.1,2.9c2.6,0,5.2-1.1,7.1-2.9s2.9-4.4,2.9-7.1S156.3,353.5,154.4,351.6z"/>
	</g>
</g>
<g>
	<g>
		<path class="st1" d="M444,390.9l-69.4-69.4c-18.7-18.7-49.1-18.7-67.7,0L291,337.3c-7.5,7.5-19.7,7.5-27.3,0l-89.1-89.1
			c-7.5-7.5-7.5-19.7,0-27.3l15.8-15.8c18.7-18.7,18.7-49.1,0-67.7L121.1,68c-9-9-21.1-14-33.9-14c-12.8,0-24.8,5-33.9,14L36.8,84.6
			C13.1,108.4,0,139.9,0,173.5s13.1,65.1,36.8,88.8l75.6,75.6c3.9,3.9,10.2,3.9,14.1,0c3.9-3.9,3.9-10.2,0-14.1l-75.6-75.6
			C31,228.2,20,201.7,20,173.5s11-54.7,30.9-74.7l16.6-16.6c5.3-5.3,12.3-8.2,19.7-8.2s14.5,2.9,19.7,8.2l69.4,69.4
			c10.9,10.9,10.9,28.6,0,39.5l-9,9l-63.7-63.7c-3.9-3.9-10.2-3.9-14.1,0c-3.9,3.9-3.9,10.2,0,14.1l64.7,64.7
			c-3.4,5.9-5.2,12.5-5.2,19.5c0,10.5,4.1,20.4,11.5,27.8l89.1,89.1c7.4,7.4,17.3,11.5,27.8,11.5c6.9,0,13.6-1.8,19.5-5.2l73.4,73.4
			c2,2,4.5,2.9,7.1,2.9c2.6,0,5.1-1,7.1-2.9c3.9-3.9,3.9-10.2,0-14.1L312,344.6l9-9c10.9-10.9,28.6-10.9,39.5,0l69.4,69.4
			c5.3,5.3,8.2,12.3,8.2,19.7s-2.9,14.5-8.2,19.7l-16.6,16.6C393.3,481,366.8,492,338.5,492s-54.7-11-74.7-30.9l-83.8-83.8
			c-3.9-3.9-10.2-3.9-14.1,0c-3.9,3.9-3.9,10.2,0,14.1l83.8,83.8c23.7,23.7,55.3,36.8,88.8,36.8s65.1-13.1,88.8-36.8l16.6-16.6
			c9-9,14-21.1,14-33.9C458,411.9,453,399.9,444,390.9z"/>
	</g>
</g>
<g>
	<g>
		<path class="st1" d="M79.2,111.8c-1.9-1.9-4.4-2.9-7.1-2.9s-5.2,1.1-7.1,2.9s-2.9,4.4-2.9,7.1c0,2.6,1.1,5.2,2.9,7.1
			s4.4,2.9,7.1,2.9s5.2-1.1,7.1-2.9s2.9-4.4,2.9-7.1C82.1,116.2,81,113.7,79.2,111.8z"/>
	</g>
</g>
<g>
	<g>
		<path class="st1" d="M394.2,0h-60.6c-65,0-117.8,52.8-117.8,117.8c0,51.5,33.2,96.5,81.6,112.1V256c0,3.8,2.1,7.2,5.5,8.9
			c1.4,0.7,3,1.1,4.5,1.1c2.1,0,4.1-0.6,5.9-1.9l39.4-28.5h41.6c65,0,117.8-52.8,117.8-117.8S459.2,0,394.2,0z M394.2,215.6h-44.8
			c-2.1,0-4.2,0.7-5.9,1.9l-26.2,18.9v-14.1c0-4.6-3.1-8.6-7.6-9.7c-43.6-10.9-74-49.9-74-94.9c0-53.9,43.9-97.8,97.8-97.8h60.6
			c53.9,0,97.8,43.9,97.8,97.8S448.1,215.6,394.2,215.6z"/>
	</g>
</g>
<g>
	<g>
		<path class="st1" d="M315.5,110.7c-1.9-1.9-4.4-2.9-7.1-2.9s-5.2,1.1-7.1,2.9c-1.9,1.9-2.9,4.4-2.9,7.1c0,2.6,1.1,5.2,2.9,7.1
			s4.4,2.9,7.1,2.9s5.2-1.1,7.1-2.9c1.9-1.9,2.9-4.4,2.9-7.1C318.5,115.2,317.4,112.6,315.5,110.7z"/>
	</g>
</g>
<g>
	<g>
		<path class="st1" d="M370.7,110.7c-1.9-1.9-4.4-2.9-7.1-2.9c-2.6,0-5.2,1.1-7.1,2.9c-1.9,1.9-2.9,4.4-2.9,7.1
			c0,2.6,1.1,5.2,2.9,7.1c1.9,1.9,4.4,2.9,7.1,2.9c2.6,0,5.2-1.1,7.1-2.9c1.9-1.9,2.9-4.4,2.9-7.1
			C373.7,115.2,372.6,112.6,370.7,110.7z"/>
	</g>
</g>
<g>
	<g>
		<path class="st1" d="M425.9,110.7c-1.9-1.9-4.4-2.9-7.1-2.9c-2.6,0-5.2,1.1-7.1,2.9c-1.9,1.9-2.9,4.4-2.9,7.1
			c0,2.6,1.1,5.2,2.9,7.1s4.4,2.9,7.1,2.9c2.6,0,5.2-1.1,7.1-2.9c1.9-1.9,2.9-4.4,2.9-7.1C428.8,115.2,427.8,112.6,425.9,110.7z"/>
	</g>
</g>
</svg>
