<?xml version="1.0" encoding="utf-8"?>
<!-- Generator: Adobe Illustrator 22.0.1, SVG Export Plug-In . SVG Version: 6.00 Build 0)  -->
<svg version="1.1" id="Слой_1" xmlns="http://www.w3.org/2000/svg" xmlns:xlink="http://www.w3.org/1999/xlink" x="0px" y="0px"
	 viewBox="0 0 15.6 15.5" style="enable-background:new 0 0 15.6 15.5;" xml:space="preserve">
<style type="text/css">
	.st0{fill:#434343;}
</style>
<g>
	<g>
		<path class="st0" d="M15.4,12.3c-0.1,0.1-0.3,0.2-0.4,0.2c-0.3,0-0.6-0.3-0.6-0.6l0-9.8L1,15.4c-0.2,0.2-0.6,0.2-0.8,0
			c-0.2-0.2-0.2-0.6,0-0.8L13.5,1.2l-9.8,0C3.6,1.2,3.4,1.1,3.3,1C3.2,0.9,3.1,0.8,3.1,0.6c0-0.2,0.1-0.3,0.2-0.4
			C3.4,0.1,3.6,0,3.7,0L15,0c0.2,0,0.3,0.1,0.4,0.2c0.1,0.1,0.2,0.3,0.2,0.4l0,11.3C15.6,12,15.5,12.2,15.4,12.3z"/>
	</g>
</g>
</svg>
