<?xml version="1.0" encoding="utf-8"?>
<!-- Generator: Adobe Illustrator 22.0.1, SVG Export Plug-In . SVG Version: 6.00 Build 0)  -->
<svg version="1.1" id="Слой_1" xmlns="http://www.w3.org/2000/svg" xmlns:xlink="http://www.w3.org/1999/xlink" x="0px" y="0px"
	 viewBox="0 0 17.7 69.6" style="enable-background:new 0 0 17.7 69.6;" xml:space="preserve">
<style type="text/css">
	.st0{fill:#434343;}
</style>
<path class="st0" d="M0.3,60.7c0-0.2,0.1-0.3,0.2-0.4c0.2-0.2,0.6-0.2,0.8,0l6.9,7L8.1,0.6C8.1,0.3,8.4,0,8.7,0s0.6,0.3,0.6,0.6
	l0.1,66.7l7-6.9c0.1-0.1,0.3-0.2,0.4-0.2c0.2,0,0.3,0.1,0.4,0.2c0.1,0.1,0.2,0.3,0.2,0.4c0,0.2-0.1,0.3-0.2,0.4l-8,7.9
	c-0.1,0.1-0.3,0.2-0.4,0.2c-0.2,0-0.3-0.1-0.4-0.2l-7.9-8C0.4,61,0.3,60.9,0.3,60.7z"/>
</svg>
