<?xml version="1.0" encoding="utf-8"?>
<!-- Generator: Adobe Illustrator 22.1.0, SVG Export Plug-In . SVG Version: 6.00 Build 0)  -->
<svg version="1.1" id="Capa_1" xmlns="http://www.w3.org/2000/svg" xmlns:xlink="http://www.w3.org/1999/xlink" x="0px" y="0px"
	 viewBox="0 0 35.5 35.2" style="enable-background:new 0 0 35.5 35.2;" xml:space="preserve">
<style type="text/css">
	.st0{fill:#FF8D2E;stroke:#FF8D2E;stroke-width:4;stroke-miterlimit:10;}
</style>
<path class="st0" d="M32.4,16.6c0.6,0,1.1,0.5,1.1,1.1s-0.5,1.1-1.1,1.1l-13.5-0.1v13.4c0,0.6-0.5,1.1-1.1,1.1
	c-0.6,0-1.1-0.6-1.1-1.1V18.8H3.1c-0.6,0-1.1-0.5-1.1-1.1c0-0.6,0.5-1.1,1.1-1.1h13.4V3.1C16.5,2.5,17,2,17.6,2
	c0.6,0,1.1,0.6,1.1,1.1v13.4L32.4,16.6z"/>
</svg>
