<?xml version="1.0" encoding="utf-8"?>
<!-- Generator: Adobe Illustrator 22.1.0, SVG Export Plug-In . SVG Version: 6.00 Build 0)  -->
<svg version="1.1" id="_x3C_Слой_x3E_" xmlns="http://www.w3.org/2000/svg" xmlns:xlink="http://www.w3.org/1999/xlink" x="0px"
	 y="0px" viewBox="0 0 22.8 5.4" style="enable-background:new 0 0 22.8 5.4;" xml:space="preserve">
<style type="text/css">
	.st0{fill:#7BAB54;}
</style>
<path class="st0" d="M17.5,3.2c0.2,1.3,1.3,2.2,2.7,2.2c1.5,0,2.7-1.2,2.7-2.7c0-1.5-1.2-2.7-2.7-2.7c-1.3,0-2.4,1-2.7,2.2H5.4
	C5.1,1,4,0,2.7,0C1.2,0,0,1.2,0,2.7c0,1.5,1.2,2.7,2.7,2.7c1.3,0,2.4-1,2.7-2.2H17.5z M2.7,4.4C1.8,4.4,1,3.7,1,2.7
	C1,1.8,1.8,1,2.7,1s1.7,0.8,1.7,1.7C4.4,3.7,3.7,4.4,2.7,4.4z M20.1,4.4c-0.9,0-1.7-0.8-1.7-1.7c0-0.9,0.8-1.7,1.7-1.7
	c0.9,0,1.7,0.8,1.7,1.7C21.8,3.7,21.1,4.4,20.1,4.4z"/>
</svg>
