<?xml version="1.0" encoding="utf-8"?>
<!-- Generator: Adobe Illustrator 22.0.1, SVG Export Plug-In . SVG Version: 6.00 Build 0)  -->
<svg version="1.1" id="Capa_1" xmlns="http://www.w3.org/2000/svg" xmlns:xlink="http://www.w3.org/1999/xlink" x="0px" y="0px"
	 viewBox="-18.7 173.2 451.7 411" style="enable-background:new -18.7 173.2 451.7 411;" xml:space="preserve">
<style type="text/css">
	.st0{fill:#E24C4B;}
	.st1{fill:#FFFFFF;}
	.st2{fill:#3F4448;}
</style>
<path class="st0" d="M427.6,520.2L244.1,194.5c-15.6-28.4-58.3-28.4-74,0L-13.3,520.2c-15.6,28.4,4.3,64,37,64h365.5
	C423.3,582.8,443.2,548.7,427.6,520.2z"/>
<path class="st1" d="M207.1,215.9l183.5,325.7H23.7L207.1,215.9L207.1,215.9z"/>
<g>
	<path class="st2" d="M177.3,365.2l11.4,75.4c1.4,8.5,8.5,15.6,18.5,15.6l0,0c8.5,0,17.1-7.1,18.5-15.6l11.4-75.4
		c2.8-18.5-11.4-34.1-29.9-34.1l0,0C188.6,331.1,175.8,346.7,177.3,365.2z"/>
	<circle class="st2" cx="207.1" cy="488.9" r="17.1"/>
</g>
</svg>
