<?xml version="1.0" encoding="utf-8"?>
<!-- Generator: Adobe Illustrator 22.1.0, SVG Export Plug-In . SVG Version: 6.00 Build 0)  -->
<svg version="1.1" id="Capa_1" xmlns="http://www.w3.org/2000/svg" xmlns:xlink="http://www.w3.org/1999/xlink" x="0px" y="0px"
	 viewBox="0 0 512 512" style="enable-background:new 0 0 512 512;" xml:space="preserve">
<style type="text/css">
	.st0{fill:#D4F7FF;}
	.st1{fill:#F68D3D;}
	.st2{fill:#434343;}
</style>
<path class="st0" d="M243,205l-145-1c0,0-56,7-56,58s0,159,0,159s7,50,61,55h63l45,44v-43h110c0,0,53-7,58-52V298
	C379,298,293,312,243,205z"/>
<path class="st1" d="M336,34c0,0,155-37,187,99c0,0,28,71-46,139l-1,63l-41-40c0,0-126,32-178-57S249,60,336,34z"/>
<g>
	<path class="st2" d="M178,512c-2.6,0-5.2-1-7.1-2.9L129.9,468H70c-38.6,0-70-31.4-70-70V244c0-38.6,31.4-70,70-70h101
		c5.5,0,10,4.5,10,10s-4.5,10-10,10H70c-27.6,0-50,22.4-50,50v154c0,27.6,22.4,50,50,50h65c4.1,0,7.6,2.5,9.2,6l23.9,23.9l0-19.9
		c0-5.5,4.5-10,10-10h108c27.6,0,50-22.4,50-50v-69c0-5.5,4.5-10,10-10s10,4.5,10,10v69c0,38.6-31.4,70-70,70h-98l0,34
		c0,4-2.4,7.7-6.2,9.2C180.6,511.8,179.3,512,178,512z"/>
	<path class="st2" d="M448,326.3c-2.6,0-5.2-1-7.1-2.9L403.5,286c-12,3.1-24.4,4.7-36.9,4.7h-25.3c-80.1,0-145.3-65.2-145.3-145.3
		S261.2,0,341.3,0h25.3C446.8,0,512,65.2,512,145.3c0,23.2-5.3,45.4-15.8,66c-9.2,18.1-22.4,34.3-38.2,47.1v57.9
		c0,4-2.4,7.7-6.2,9.2C450.6,326,449.3,326.3,448,326.3z M406.5,264.7c2.6,0,5.2,1,7.1,2.9l24.5,24.5v-38.6c0-3.1,1.5-6.1,4-8
		c31.8-23.9,50-60.5,50-100.2C492,76.2,435.8,20,366.7,20h-25.3C272.2,20,216,76.2,216,145.3s56.2,125.3,125.3,125.3h25.3
		c12.6,0,25-1.9,36.9-5.5C404.5,264.9,405.5,264.7,406.5,264.7z"/>
	<path class="st2" d="M275,330H64c-5.5,0-10-4.5-10-10s4.5-10,10-10h211c5.5,0,10,4.5,10,10S280.5,330,275,330z"/>
	<path class="st2" d="M275,386c-2.6,0-5.2-1.1-7.1-2.9s-2.9-4.4-2.9-7.1s1.1-5.2,2.9-7.1c1.9-1.9,4.4-2.9,7.1-2.9s5.2,1.1,7.1,2.9
		c1.9,1.9,2.9,4.4,2.9,7.1c0,2.6-1.1,5.2-2.9,7.1C280.2,384.9,277.6,386,275,386z"/>
	<path class="st2" d="M235.7,386H64c-5.5,0-10-4.5-10-10s4.5-10,10-10h171.7c5.5,0,10,4.5,10,10S241.2,386,235.7,386z"/>
	<path class="st2" d="M210,274H64c-5.5,0-10-4.5-10-10s4.5-10,10-10h146c5.5,0,10,4.5,10,10S215.5,274,210,274z"/>
	<path class="st2" d="M391.7,107.1l-46,46l-18.3-18.3c-5.4-5.4-14.2-5.4-19.6,0c-5.4,5.4-5.4,14.2,0,19.6l28.1,28.1
		c2.7,2.7,6.3,4.1,9.8,4.1s7.1-1.4,9.8-4.1l55.8-55.8c5.4-5.4,5.4-14.2,0-19.6C405.9,101.6,397.1,101.6,391.7,107.1z"/>
</g>
<g id="_x39_ZGUkX_1_">
	
		<image style="overflow:visible;" width="43" height="41" id="_x39_ZGUkX" xlink:href="BC4FA80CA669DDBA.png"  transform="matrix(13.6977 0 0 13.6977 -625 -45.6047)">
	</image>
</g>
</svg>
