<?xml version="1.0" encoding="utf-8"?>
<!-- Generator: Adobe Illustrator 22.0.1, SVG Export Plug-In . SVG Version: 6.00 Build 0)  -->
<svg version="1.1" id="Слой_1" xmlns="http://www.w3.org/2000/svg" xmlns:xlink="http://www.w3.org/1999/xlink" x="0px" y="0px"
	 viewBox="0 0 17.7 69.6" style="enable-background:new 0 0 17.7 69.6;" xml:space="preserve">
<style type="text/css">
	.st0{display:none;clip-path:url(#SVGID_2_);fill:#1E201D;}
	.st1{clip-path:url(#SVGID_2_);fill:#434343;}
</style>
<g>
	<g>
		<defs>
			
				<rect id="SVGID_1_" x="-4.2" y="48.4" transform="matrix(2.303980e-03 -1 1 2.303980e-03 -48.6844 65.9723)" width="25.9" height="18"/>
		</defs>
		<clipPath id="SVGID_2_">
			<use xlink:href="#SVGID_1_"  style="display:none;overflow:visible;"/>
		</clipPath>
		<path class="st0" d="M17.4,61.4c0.4-0.3,0.4-0.9,0-1.3c-0.3-0.3-0.9-0.3-1.3,0l-6.5,6.4l0-18.1c0-0.5-0.4-0.9-0.9-0.9
			c-0.5,0-0.9,0.4-0.9,0.9l0,18.1l-6.4-6.5c-0.4-0.3-0.9-0.3-1.3,0c-0.4,0.4-0.4,0.9,0,1.3l7.9,8c0.3,0.4,0.9,0.4,1.3,0L17.4,61.4z
			 M17.4,61.4"/>
		<path class="st1" d="M0.3,60.7c0-0.2,0.1-0.3,0.2-0.4c0.2-0.2,0.6-0.2,0.8,0l6.9,7L8.1,0.6C8.1,0.3,8.4,0,8.7,0
			c0.3,0,0.6,0.3,0.6,0.6l0.1,66.7l7-6.9c0.1-0.1,0.3-0.2,0.4-0.2c0.2,0,0.3,0.1,0.4,0.2c0.1,0.1,0.2,0.3,0.2,0.4
			c0,0.2-0.1,0.3-0.2,0.4l-8,7.9c-0.1,0.1-0.3,0.2-0.4,0.2c-0.2,0-0.3-0.1-0.4-0.2l-7.9-8C0.4,61,0.3,60.9,0.3,60.7z"/>
	</g>
</g>
</svg>
