<?xml version="1.0" encoding="utf-8"?>
<!-- Generator: Adobe Illustrator 22.1.0, SVG Export Plug-In . SVG Version: 6.00 Build 0)  -->
<svg version="1.1" id="_x3C_Слой_x3E_" xmlns="http://www.w3.org/2000/svg" xmlns:xlink="http://www.w3.org/1999/xlink" x="0px"
	 y="0px" viewBox="0 0 184.6 64.3" style="enable-background:new 0 0 184.6 64.3;" xml:space="preserve">
<style type="text/css">
	.st0{fill:#8AA95A;}
	.st1{display:none;}
	.st2{display:inline;}
	.st3{display:inline;fill-rule:evenodd;clip-rule:evenodd;fill:#8AA95A;}
</style>
<g>
	<path class="st0" d="M32.2,64.3C14.4,64.3,0,49.9,0,32.2C0,14.4,14.4,0,32.2,0s32.2,14.4,32.2,32.2C64.3,49.9,49.9,64.3,32.2,64.3z
		"/>
	<g class="st1">
		<g class="st2">
			<path class="st0" d="M95.1,36c0,1.6-0.2,3.1-0.7,4.5c-0.5,1.4-1.1,2.6-2,3.6c-0.8,1-1.8,1.8-3,2.3c-1.1,0.6-2.4,0.8-3.7,0.8
				S83.2,47,82,46.4c-1.1-0.6-2.1-1.3-3-2.3c-0.8-1-1.5-2.2-2-3.6c-0.5-1.4-0.7-2.9-0.7-4.5c0-1.6,0.2-3.1,0.7-4.5
				c0.5-1.4,1.1-2.6,2-3.6c0.8-1,1.8-1.8,3-2.4c1.1-0.6,2.4-0.9,3.7-0.9s2.6,0.3,3.7,0.9c1.1,0.6,2.1,1.4,3,2.4c0.8,1,1.5,2.2,2,3.6
				C94.8,32.9,95.1,34.4,95.1,36z M92.5,36c0-1.3-0.2-2.6-0.5-3.6c-0.3-1.1-0.8-2-1.4-2.8c-0.6-0.8-1.3-1.4-2.1-1.8
				c-0.8-0.4-1.7-0.7-2.7-0.7c-1,0-1.9,0.2-2.8,0.7c-0.8,0.4-1.5,1-2.1,1.8c-0.6,0.8-1.1,1.7-1.4,2.8c-0.3,1.1-0.5,2.3-0.5,3.6
				c0,1.3,0.2,2.6,0.5,3.6c0.3,1.1,0.8,2,1.4,2.8c0.6,0.8,1.3,1.4,2.1,1.8c0.8,0.4,1.8,0.6,2.8,0.6c1,0,1.9-0.2,2.7-0.6
				c0.8-0.4,1.5-1,2.1-1.8c0.6-0.8,1.1-1.7,1.4-2.8C92.3,38.5,92.5,37.3,92.5,36z"/>
			<path class="st0" d="M97.6,46.9c0-0.8,0.1-1.7,0.2-2.5c0.1-0.9,0.4-1.7,0.9-2.5c0.4-0.8,1.1-1.7,1.9-2.4c0.8-0.8,1.9-1.5,3.2-2.2
				c0.7-0.4,1.5-0.7,2.2-1.1c0.8-0.4,1.5-0.8,2.2-1.2c0.7-0.4,1.2-0.9,1.6-1.5c0.4-0.6,0.6-1.2,0.6-2c0-0.5-0.1-0.9-0.3-1.4
				c-0.2-0.5-0.5-0.9-0.9-1.2c-0.4-0.4-0.9-0.7-1.5-0.9c-0.6-0.2-1.3-0.3-2.1-0.3c-0.8,0-1.5,0.1-2.2,0.4c-0.6,0.2-1.2,0.5-1.7,0.8
				s-0.9,0.7-1.2,1c-0.3,0.4-0.6,0.7-0.8,0.9l-1.7-1.8c0.1-0.1,0.4-0.4,0.9-0.8c0.4-0.4,1-0.8,1.7-1.2c0.7-0.4,1.5-0.8,2.4-1.1
				c0.9-0.3,1.9-0.5,3.1-0.5c1.1,0,2.2,0.2,3,0.5c0.9,0.3,1.6,0.7,2.3,1.3c0.6,0.5,1.1,1.2,1.4,1.9c0.3,0.7,0.5,1.4,0.5,2.2
				c0,1-0.2,1.9-0.7,2.6c-0.4,0.7-1,1.4-1.7,1.9c-0.7,0.5-1.4,1-2.1,1.4c-0.7,0.4-1.4,0.7-2,1c-0.8,0.3-1.6,0.7-2.3,1.2
				c-0.8,0.4-1.4,0.9-2,1.4c-0.6,0.5-1.1,1.1-1.5,1.7c-0.4,0.6-0.6,1.4-0.6,2.2h13.2v2.3H97.6z"/>
		</g>
		<path class="st3" d="M178.4,25.4c0.1,0,0.1,0,0.1,0l3.5-3c0.1-0.1,0.3,0,0.2,0.2l-1.1,4.4c0,0.1,0,0.1,0,0.1
			c2.5,2.4,2.8,6.3,0.8,9.1c-2-1.6-4.6-2-7-1.1c-1-2.3-3.2-3.9-5.7-4.1C170,26.7,174.4,24.1,178.4,25.4L178.4,25.4z M175.1,35.2
			c-1.3,0.5-2.3,1.3-3.1,2.4c1.1,0.8,2.3,1.4,3.7,1.5C175.8,37.8,175.6,36.4,175.1,35.2L175.1,35.2z M182.4,46.9c0,0-0.1,0.1,0,0.1
			l0.8,4.5c0,0.1-0.2,0.2-0.3,0.1l-3.2-3.2c0,0-0.1-0.1-0.1,0c-3.3,0.9-6.9-0.7-8.3-3.9c2.3-0.9,4-3,4.4-5.5
			c2.5,0.2,4.9-0.8,6.4-2.9C185.4,39,185.5,44,182.4,46.9L182.4,46.9z M180.9,44.8c0.5,0,0.7-0.3,0.7-0.8c0-0.5-0.3-0.8-0.7-0.8
			c-0.4,0-0.7,0.3-0.7,0.8C180.2,44.4,180.5,44.8,180.9,44.8L180.9,44.8z M178.8,44.8c0.5,0,0.7-0.3,0.7-0.8c0-0.5-0.3-0.8-0.7-0.8
			c-0.4,0-0.7,0.3-0.7,0.8C178.1,44.5,178.4,44.8,178.8,44.8L178.8,44.8z M176.7,44.8c0.5,0,0.7-0.3,0.7-0.8c0-0.5-0.3-0.8-0.7-0.8
			c-0.4,0-0.7,0.3-0.7,0.8C176,44.5,176.3,44.8,176.7,44.8L176.7,44.8z M161.8,39.5c0.9,4.2,5.4,6.6,9.4,5c-1-2.3-0.7-5,0.7-7
			c-2-1.6-2.9-4.1-2.6-6.6c-3.4-0.3-6.6,1.9-7.5,5.2c0,0.1-0.1,0.1-0.1,0.1l-4.4,1.2c-0.1,0-0.2,0.2,0,0.3l4.3,1.6
			C161.7,39.5,161.8,39.5,161.8,39.5L161.8,39.5z M167.2,39.2h-1.1c-0.1-1.6,1.1-2,1.1-2.9c0-0.8-1.1-0.7-1.6-0.4l-0.3-0.9
			c1.1-0.6,3.1-0.5,3.1,1.1C168.5,37.5,167.2,37.5,167.2,39.2L167.2,39.2z M166.7,41.3c-0.5,0-0.7-0.3-0.7-0.8
			c0-0.5,0.3-0.8,0.7-0.8c0.4,0,0.7,0.3,0.7,0.8C167.4,41,167.1,41.3,166.7,41.3L166.7,41.3z M175.8,26.7l0.2,4.4h1l0.2-4.4H175.8
			L175.8,26.7z M176.5,33.3c0.5,0,0.7-0.3,0.7-0.8c0-0.5-0.3-0.8-0.7-0.8c-0.4,0-0.7,0.3-0.7,0.8C175.7,33,176,33.3,176.5,33.3z"/>
	</g>
</g>
</svg>
