<?xml version="1.0" encoding="utf-8"?>
<!-- Generator: Adobe Illustrator 22.1.0, SVG Export Plug-In . SVG Version: 6.00 Build 0)  -->
<svg version="1.1" id="_x3C_Слой_x3E_" xmlns="http://www.w3.org/2000/svg" xmlns:xlink="http://www.w3.org/1999/xlink" x="0px"
	 y="0px" viewBox="0 0 186.1 64.3" style="enable-background:new 0 0 186.1 64.3;" xml:space="preserve">
<style type="text/css">
	.st0{fill:#8AA95A;}
	.st1{display:none;}
	.st2{display:inline;}
	.st3{display:inline;fill-rule:evenodd;clip-rule:evenodd;fill:#8AA95A;}
</style>
<g>
	<path class="st0" d="M32.2,64.3C14.4,64.3,0,49.9,0,32.2C0,14.4,14.4,0,32.2,0s32.2,14.4,32.2,32.2C64.3,49.9,49.9,64.3,32.2,64.3z
		 M32.2,3C16.1,3,3,16.1,3,32.2c0,16.1,13.1,29.2,29.2,29.2s29.2-13.1,29.2-29.2C61.3,16.1,48.2,3,32.2,3z"/>
	<g class="st1">
		<g class="st2">
			<path class="st0" d="M96.6,33.2c0,1.6-0.2,3.1-0.7,4.5c-0.5,1.4-1.1,2.6-2,3.6c-0.8,1-1.8,1.8-3,2.3c-1.1,0.6-2.4,0.8-3.7,0.8
				s-2.6-0.3-3.7-0.8c-1.1-0.6-2.1-1.3-3-2.3c-0.8-1-1.5-2.2-2-3.6c-0.5-1.4-0.7-2.9-0.7-4.5c0-1.6,0.2-3.1,0.7-4.5
				c0.5-1.4,1.1-2.6,2-3.6c0.8-1,1.8-1.8,3-2.4c1.1-0.6,2.4-0.9,3.7-0.9s2.6,0.3,3.7,0.9c1.1,0.6,2.1,1.4,3,2.4c0.8,1,1.5,2.2,2,3.6
				C96.3,30.1,96.6,31.6,96.6,33.2z M94,33.2c0-1.3-0.2-2.6-0.5-3.6c-0.3-1.1-0.8-2-1.4-2.8C91.5,26,90.8,25.4,90,25
				c-0.8-0.4-1.7-0.7-2.7-0.7c-1,0-1.9,0.2-2.8,0.7c-0.8,0.4-1.5,1-2.1,1.8c-0.6,0.8-1.1,1.7-1.4,2.8c-0.3,1.1-0.5,2.3-0.5,3.6
				c0,1.3,0.2,2.6,0.5,3.6c0.3,1.1,0.8,2,1.4,2.8c0.6,0.8,1.3,1.4,2.1,1.8c0.8,0.4,1.8,0.6,2.8,0.6c1,0,1.9-0.2,2.7-0.6
				c0.8-0.4,1.5-1,2.1-1.8c0.6-0.8,1.1-1.7,1.4-2.8C93.8,35.8,94,34.6,94,33.2z"/>
			<path class="st0" d="M99.1,44.1c0-0.8,0.1-1.7,0.2-2.5c0.1-0.9,0.4-1.7,0.9-2.5c0.4-0.8,1.1-1.7,1.9-2.4c0.8-0.8,1.9-1.5,3.2-2.2
				c0.7-0.4,1.5-0.7,2.2-1.1c0.8-0.4,1.5-0.8,2.2-1.2c0.7-0.4,1.2-0.9,1.6-1.5c0.4-0.6,0.6-1.2,0.6-2c0-0.5-0.1-0.9-0.3-1.4
				c-0.2-0.5-0.5-0.9-0.9-1.2c-0.4-0.4-0.9-0.7-1.5-0.9c-0.6-0.2-1.3-0.3-2.1-0.3c-0.8,0-1.5,0.1-2.2,0.4c-0.6,0.2-1.2,0.5-1.7,0.8
				s-0.9,0.7-1.2,1c-0.3,0.4-0.6,0.7-0.8,0.9l-1.7-1.8c0.1-0.1,0.4-0.4,0.9-0.8c0.4-0.4,1-0.8,1.7-1.2c0.7-0.4,1.5-0.8,2.4-1.1
				c0.9-0.3,1.9-0.5,3.1-0.5c1.1,0,2.2,0.2,3,0.5c0.9,0.3,1.6,0.7,2.3,1.3c0.6,0.5,1.1,1.2,1.4,1.9c0.3,0.7,0.5,1.4,0.5,2.2
				c0,1-0.2,1.9-0.7,2.6c-0.4,0.7-1,1.4-1.7,1.9c-0.7,0.5-1.4,1-2.1,1.4c-0.7,0.4-1.4,0.7-2,1c-0.8,0.3-1.6,0.7-2.3,1.2
				c-0.8,0.4-1.4,0.9-2,1.4c-0.6,0.5-1.1,1.1-1.5,1.7c-0.4,0.6-0.6,1.4-0.6,2.2H115v2.3H99.1z"/>
		</g>
		<path class="st3" d="M179.9,22.6c0.1,0,0.1,0,0.1,0l3.5-3c0.1-0.1,0.3,0,0.2,0.2l-1.1,4.4c0,0.1,0,0.1,0,0.1
			c2.5,2.4,2.8,6.3,0.8,9.1c-2-1.6-4.6-2-7-1.1c-1-2.3-3.2-3.9-5.7-4.1C171.5,24,175.9,21.3,179.9,22.6L179.9,22.6z M176.6,32.4
			c-1.3,0.5-2.3,1.3-3.1,2.4c1.1,0.8,2.3,1.4,3.7,1.5C177.3,35,177.1,33.6,176.6,32.4L176.6,32.4z M183.9,44.2c0,0-0.1,0.1,0,0.1
			l0.8,4.5c0,0.1-0.2,0.2-0.3,0.1l-3.2-3.2c0,0-0.1-0.1-0.1,0c-3.3,0.9-6.9-0.7-8.3-3.9c2.3-0.9,4-3,4.4-5.5
			c2.5,0.2,4.9-0.8,6.4-2.9C186.9,36.2,187,41.3,183.9,44.2L183.9,44.2z M182.4,42c0.5,0,0.7-0.3,0.7-0.8c0-0.5-0.3-0.8-0.7-0.8
			c-0.4,0-0.7,0.3-0.7,0.8C181.7,41.7,182,42,182.4,42L182.4,42z M180.3,42.1c0.5,0,0.7-0.3,0.7-0.8c0-0.5-0.3-0.8-0.7-0.8
			c-0.4,0-0.7,0.3-0.7,0.8C179.6,41.7,179.9,42.1,180.3,42.1L180.3,42.1z M178.2,42.1c0.5,0,0.7-0.3,0.7-0.8c0-0.5-0.3-0.8-0.7-0.8
			c-0.4,0-0.7,0.3-0.7,0.8C177.5,41.7,177.8,42.1,178.2,42.1L178.2,42.1z M163.3,36.8c0.9,4.2,5.4,6.6,9.4,5c-1-2.3-0.7-5,0.7-7
			c-2-1.6-2.9-4.1-2.6-6.6c-3.4-0.3-6.6,1.9-7.5,5.2c0,0.1-0.1,0.1-0.1,0.1l-4.4,1.2c-0.1,0-0.2,0.2,0,0.3l4.3,1.6
			C163.2,36.7,163.3,36.7,163.3,36.8L163.3,36.8z M168.7,36.5h-1.1c-0.1-1.6,1.1-2,1.1-2.9c0-0.8-1.1-0.7-1.6-0.4l-0.3-0.9
			c1.1-0.6,3.1-0.5,3.1,1.1C170,34.7,168.7,34.8,168.7,36.5L168.7,36.5z M168.2,38.6c-0.5,0-0.7-0.3-0.7-0.8c0-0.5,0.3-0.8,0.7-0.8
			c0.4,0,0.7,0.3,0.7,0.8C168.9,38.2,168.6,38.6,168.2,38.6L168.2,38.6z M177.3,24l0.2,4.4h1l0.2-4.4H177.3L177.3,24z M178,30.6
			c0.5,0,0.7-0.3,0.7-0.8c0-0.5-0.3-0.8-0.7-0.8c-0.4,0-0.7,0.3-0.7,0.8C177.2,30.2,177.5,30.6,178,30.6z"/>
	</g>
</g>
</svg>
