<?xml version="1.0" encoding="utf-8"?>
<!-- Generator: Adobe Illustrator 22.1.0, SVG Export Plug-In . SVG Version: 6.00 Build 0)  -->
<svg version="1.1" id="Слой_1" xmlns="http://www.w3.org/2000/svg" xmlns:xlink="http://www.w3.org/1999/xlink" x="0px" y="0px"
	 viewBox="0 0 664.1 397.6" style="enable-background:new 0 0 664.1 397.6;" xml:space="preserve">
<style type="text/css">
	.st0{fill:#CB0000;}
	.st1{fill:#FE9800;}
	.st2{fill:#FDFDFD;}
	.st3{fill:#040266;}
</style>
<path class="st0" d="M332,346.3c-4.1,3.4-8.1,6.9-12.3,10.2c-20.6,15.8-43.4,27.2-68.4,34c-23,6.3-46.4,8.4-70.1,6.3
	c-36.9-3.3-70.3-15.9-100.1-37.9C47.5,334,23.8,301.6,10.3,262c-7.5-22.1-11-44.8-10.2-68.1c2-57,24.2-104.9,66.3-143.3
	c23-20.9,49.7-35.3,79.7-43.5c20.4-5.6,41.1-7.9,62.2-6.8C255,2.8,295.9,19.6,331,50.5c0.4,0.3,0.7,0.8,1.2,0.9
	c0.3,0.9-0.5,1.2-0.9,1.6c-5.2,4.6-10.2,9.4-14.8,14.6c-1.2,1.3-2.6,2.6-3.6,4.4c0.9,0,1.5,0,2.1,0c11.7,0,23.4,0,35.1,0
	c1,0,1.8,0.2,2.4,1.1c4.8,5.9,9.3,12,13.4,18.5c0.3,0.4,0.9,0.9,0.6,1.5c-0.3,0.5-1,0.2-1.6,0.2c-0.4,0-0.9,0-1.3,0
	c-21.6,0-43.3,0-64.9,0c-1.3,0-2,0.4-2.7,1.5c-3.5,5.7-6.7,11.6-9.6,17.7c-0.9,1.9-0.9,1.9,1.2,1.9c29.7,0,59.4,0,89.1,0
	c1.5,0,2.1,0.5,2.7,1.8c2.5,5.7,4.9,11.4,6.9,17.3c0.8,2.2,0.8,2.2-1.5,2.2c-35.1,0-70.3,0-105.4,0c-0.4,0-0.8,0-1.2,0
	c-0.9-0.1-1.3,0.3-1.6,1.1c-1.8,5.9-3.5,11.8-4.8,17.8c-0.4,2-0.4,2,1.6,2c39,0,78,0,117.1,0c0.4,0,0.9,0,1.3,0
	c0.8-0.1,1.1,0.3,1.3,1c0.7,3.5,1.5,7,1.9,10.6c-4.1-0.5-7.9-0.1-11.3,2.3c-3,2.2-5.4,4.9-7.5,7.8c-0.3,0.4-0.4,1.2-1.3,1.1
	c0.5-3.1,0.9-6.2,1.5-9.3c0.2-0.9,0-1.2-0.9-1.2c-5.9,0-11.7,0-17.6,0c-0.7,0-1.1,0.2-1.2,1c-0.3,1.8-0.6,3.6-1,5.4
	c-0.7,0-1.3,0-2,0c-2.4,0-2.4,0-2.7,2.3c-2.1,12.9-4.2,25.7-6.2,38.6c-2.1,13.3-4.3,26.6-6.4,39.9c-0.1,0.8,0,1.2,1,1.2
	c6.5,0,13,0,19.5,0c0.9,0,1.2-0.4,1.4-1.3c0.2-1.7,0.5-3.4,0.8-5.1c0.8,0,1.7-0.2,2.5-0.1c1.7,0.3,2.1-0.6,2.4-2
	c1.7-10.5,3.3-21,5.1-31.5c0.9-5,1.8-10,3.6-14.8c2.8-2.5,6-3.5,9.8-2.7c1.2,0.2,1.5,0.7,1.3,1.8c-0.6,4.2-0.7,8.5-0.7,12.7
	c-0.1,10.5,2,20.4,7.7,29.3c-1.5,5.4-2.8,10.8-4.5,16.2c-0.6,1.8-1.3,2.4-3.2,2.4c-35.2-0.1-70.3,0-105.5,0c-2.1,0-2,0-1.4,1.9
	c2,5.8,4.3,11.4,6.7,17c0.6,1.4,1.4,2,3,2c29.7-0.1,59.4,0,89.2,0c0.6,0,1.3-0.1,2,0.2c-3.2,6.8-6.7,13.2-10.5,19.5
	c-0.7,1.1-1.4,1.6-2.8,1.6c-22,0-44.1,0-66.1,0c-0.6,0-1.3,0-2.2,0c0.3,0.6,0.5,0.9,0.6,1.1c3.9,6.2,8.2,12,12.7,17.7
	c1,1.2,2,1.7,3.5,1.7c12.2-0.1,24.3,0,36.5,0c0.6,0,1.2-0.2,1.8,0.3c-2.5,2.8-4.9,5.6-7.3,8.3C341.1,337.7,336.5,342,332,346.3z
	 M285.6,183.2L285.6,183.2c-0.3,0.1-0.7,0.2-0.3,0.7c0,0,0,0,0,0c-0.8-0.2-1,0.6-1.3,1c-3.3,3.8-5.8,8.1-7.8,12.7
	c-4.6,10.9-5.8,22.2-4,33.8c-2.6,0.6-5.3,0.9-8,0.3c-3.3-0.7-4.8-2.6-4.5-6c0.1-1.6,0.4-3.1,0.7-4.6c1.4-8.6,2.8-17.1,4.2-25.7
	c2.2,0,4.5,0,6.7,0c1,0,1.5-0.2,1.6-1.4c0.1-1.8,0.4-3.6,0.6-5.5c0.5,0,1-0.2,1.5-0.1c1.6,0.3,2-0.5,2.2-2
	c0.7-5.6,1.5-11.2,2.3-16.8c0.1-0.9-0.1-1.2-1-1.2c-2.6,0-5.3-0.1-7.9,0c-1.4,0.1-1.5-0.5-1.3-1.7c0.7-3.5,1.3-7,1.9-10.6
	c-0.2-0.1-0.4-0.1-0.5-0.1c-6.6,0-13.1,0-19.7,0c-1,0-1.1,0.5-1.2,1.2c-0.4,1.7-0.7,3.5-1.1,5.2c-0.7,0-1.5,0.1-2.2,0
	c-1.7-0.3-2.2,0.5-2.5,2c-2.6,14.5-5.1,28.9-7.5,43.4c-0.6,4-1.3,7.9-2,11.9c-0.1-0.5-0.3-1.1-0.4-1.6c-1-5.1-3.4-9.4-7.6-12.6
	c-2.6-1.9-5.4-3.3-8.3-4.7c-2.2-1-4.4-1.9-6.3-3.4c-1.4-1.2-2.5-2.6-2.3-4.6c1.5-0.2,3-0.4,4.5-0.4c5-0.1,9.9,0.5,14.9,0.8
	c0.9,0,1.2-0.1,1.3-1c0.2-1.9,0.6-3.7,0.8-5.6c0.9,0,1.9,0,2.8,0.1c1.4,0.2,1.8-0.2,2-1.6c0.6-5.2,1.4-10.3,2.2-15.5
	c0.2-1.3-0.2-1.6-1.4-1.8c-7.9-1.1-15.8-1.8-23.8-1c-9.4,1-17.5,4.3-22.6,12.8c-0.1,0.1-0.2,0.2-0.3,0.3l0,0
	c-0.9,0.4-1.4,1.2-2.1,1.9c-2.4,2.4-3.7,5.5-5.1,8.5c-0.1-0.8-0.2-1.7-0.3-2.5c-0.8-7.2-3.7-13.2-10-17.2c-3.5-2.2-7.4-3.4-11.5-3.9
	c-9.5-1.2-18.7,0.1-27.9,2.4c-3.7,0.9-6,2.4-5.8,6.5c0,0,0,0.1-0.1,0.2c-1.2,0.4-2.4,0.8-3.7,1.2c-0.6,0.2-1,0.4-1.1,1.1
	c-0.9,5.5-1.8,10.9-2.8,16.4c-0.1,0.7,0,1.1,0.9,0.8c5.2-1.8,10.5-2.7,15.9-3.1c4.9-0.3,9.7-0.7,14.5,0.5c2.6,0.6,4.6,2,5,5
	c-4-0.1-8-0.2-11.9,0.4c-10,1.4-18.8,4.9-25,13.4c-3.4,2.4-5.9,5.7-7.5,9.5c-2.8,6.4-3.4,13.1-2.3,19.9c1.5,9.4,7.3,15.6,16.2,16.9
	c9,1.3,17-1,23.5-7.6c0.4-0.4,0.6-1.1,1.2-1.1c0,2,0.1,4,0,5.9c-0.1,1.2,0.3,1.5,1.5,1.5c5-0.1,10-0.1,15,0c1.6,0,2.5-0.2,2.5-2.1
	c0-1.4,0.3-2.9,0.5-4.3c1.4,0,2.8,0,4.3,0c-0.1,0.7-0.2,1.3-0.3,2c-0.4,3.1-0.4,3.1,2.7,3.8c9,1.9,18.1,2,27.2,1.5
	c5.8-0.3,11.4-1.9,16.1-5.6c2.1-1.6,4.2-3.2,5.1-5.8l0,0c0.3,0,0.3-0.2,0.3-0.5c2.8-2.2,5-4.9,6.7-8c0,1.8-0.1,3.7,0.1,5.5
	c0.5,8.2,5.3,13.6,13.3,14.8c4.9,0.8,9.8-0.1,14.6-1.2c4.8-1.2,4.8-1.2,5.3-6.3c1.1-0.3,2.1-0.8,3.2-1c1.4-0.2,1.7-1,1.9-2.2
	c0.6-4.7,1.4-9.4,2.1-14.1c0.1,0.3,0.2,0.5,0.3,0.8c3.2,12.4,11.1,20,23.5,22.9c10.2,2.4,20.4,1.6,30.4-0.9c6-1.5,4.5-0.1,5.7-6.5
	c0.4-0.1,0.7-0.3,1.1-0.4c1.7-0.3,2.5-1.2,2.7-3c0.4-3.4,1.2-6.7,1.8-10.1c0.5-2.7,0.9-5.3,1.4-8.2c-5.3,2.1-10.5,3.8-15.8,4.6
	c-5.5,0.9-11.1,1-16.4-0.9c-4.4-1.5-7.6-4.3-8.6-9c0.3,0,0.7,0,1,0c11.7,0,23.4,0,35.2,0.1c1.3,0,2-0.2,2.1-1.7
	c0.1-1.6,0.6-3.2,0.9-4.8c3.6-0.2,3.7-0.2,4.3-3.4c1.2-6.9,2.8-13.7,1.9-20.8c-0.8-6.4-2.9-12.2-7.2-17.2
	c-8.1-9.4-24.1-10.8-33.9-6.7c-7.1,3-12.4,8.1-16.7,14.4C285.9,182.9,285.7,182.9,285.6,183.2z M65.3,250.5c0.3,0,0.6-0.1,0.8,0
	c2,0.4,2.7-0.5,3.4-2.3c4.6-13,9.2-26,13.9-39c1.2-3.3,2.2-6.7,3.7-9.8c0.1,3-0.7,5.9-1.1,8.8c-2.5,15.8-5,31.6-7.5,47.3
	c-0.2,1,0,1.5,1.2,1.5c6.3-0.1,12.7-0.1,19,0c1,0,1.4-0.3,1.5-1.2c0.2-1.7,0.5-3.4,0.8-5.1c1.1,0,2.1-0.1,3.2,0
	c1.1,0.1,1.4-0.3,1.6-1.4c1.2-7.6,2.5-15.2,3.7-22.9c4.2-25.1,8.3-50.2,12.5-75.3c0.2-1,0-1.3-1-1.3c-10.4,0-20.8,0-31.3,0
	c-0.8,0-1.2,0.2-1.4,1c-0.6,1.8-1.2,3.5-1.8,5.2c-0.8,0-1.6,0.1-2.3,0c-1.5-0.2-2.1,0.4-2.6,1.8c-2.4,7.6-5,15.2-7.5,22.8
	c-2.1,6.3-4.2,12.6-6.4,18.9c-0.1-5.1-0.3-10.3-0.4-15.4c-0.2-10.9-0.4-21.8-0.6-32.7c0-0.7,0.2-1.5-1-1.5c-9.6,0-19.3,0-28.9,0
	c-0.8,0-1.1,0.2-1.2,1c-0.3,1.8-0.7,3.6-1,5.4c-1.1,0-2.3,0.1-3.4,0c-1.3-0.1-1.8,0.4-2,1.6c-0.5,3.7-1.2,7.3-1.8,10.9
	c-4.9,29-9.7,57.9-14.6,86.9c-0.2,1-0.1,1.4,1.1,1.4c6.2-0.1,12.4,0,18.7,0c0.9,0,1.2-0.3,1.4-1.2c0.2-1.7,0.5-3.4,0.8-5.1
	c0.9,0,1.9-0.2,2.8,0c1.4,0.2,1.8-0.5,2-1.7c1.7-10.2,3.4-20.5,5.2-30.7c0.7-4.3,1.6-8.7,2.3-13c0.5,6.9,0.4,13.9,0.7,20.8
	c0.3,9.9,0.5,19.7,0.7,29.6c0,1.1,0.4,1.4,1.4,1.4c4-0.1,8.1,0,12.1,0c0.8,0,1.2-0.2,1.5-1C64.1,254.1,64.7,252.3,65.3,250.5z"/>
<path class="st1" d="M332,346.3c4.5-4.3,9-8.5,13.2-13.2c2.4-2.7,4.8-5.5,7.3-8.3c-0.7-0.5-1.3-0.3-1.8-0.3c-12.2,0-24.3,0-36.5,0
	c-1.6,0-2.5-0.4-3.5-1.7c-4.5-5.7-8.9-11.6-12.7-17.7c-0.2-0.3-0.3-0.6-0.6-1.1c0.9,0,1.5,0,2.2,0c22,0,44.1,0,66.1,0
	c1.4,0,2.1-0.4,2.8-1.6c3.8-6.3,7.3-12.7,10.5-19.5c-0.7-0.3-1.4-0.2-2-0.2c-29.7,0-59.4,0-89.2,0c-1.6,0-2.4-0.5-3-2
	c-2.4-5.6-4.7-11.3-6.7-17c-0.7-1.9-0.7-1.9,1.4-1.9c35.2,0,70.3,0,105.5,0c1.9,0,2.7-0.5,3.2-2.4c1.7-5.3,3-10.8,4.5-16.2
	c0.1,0.1,0.2,0.2,0.3,0.4c6.2,8.6,14.7,13.2,25.1,14.5c7,0.9,13.7-0.2,20.5-1.6c4-0.8,4-0.9,4.7-5.1c0.1-0.4,0.1-0.8,0.2-1.2
	c3.2-0.3,5.6-1.5,5.4-5.3c3.2,8.2,9.2,12.6,17.9,13.1c7.9,0.4,14.9-1.8,20.6-7.5c0.5-0.5,1.1-0.6,1.7-0.8c0,1.8-0.1,3.7-0.2,5.5
	c-0.1,1,0.2,1.4,1.3,1.4c5.4-0.1,10.8,0,16.2,0c0.8,0,1.2-0.1,1.3-1c0.2-1.8,0.5-3.5,0.7-5.3c2.7,0,5.5,0,8.2,0
	c-0.3,1.8-0.6,3.5-0.9,5.3c-0.2,0.9,0,1.3,1.1,1.3c6.4,0,12.9,0,19.3,0c0.9,0,1.3-0.3,1.4-1.2c0.2-1.7,0.5-3.4,0.7-5.2
	c0.9,0,1.9-0.2,2.8-0.1c1.5,0.2,2-0.4,2.2-1.8c1.4-9.3,2.9-18.6,4.4-27.8c0.9-5.2,1.8-10.5,3.4-15.6c1.2-1.3,2.2-2.7,3.7-3.7
	c1.8-1.3,3.7-2.2,6.1-2c-2.3,6.8-3.3,13.7-3.6,20.7c-0.4,8,0.7,15.8,4.2,23c6.7,13.9,21.4,18.6,34.9,11.2c2.4-1.3,4.5-3.1,6.7-5.2
	c-0.3,2.3-0.4,4.2-0.7,6c-0.1,0.9-0.1,1.3,1,1.3c6.1,0,12.2,0,18.3,0c0.8,0,1.2-0.2,1.3-1.1c0.2-1.8,0.5-3.5,0.8-5.3c1,0,2-0.1,3,0
	c1.2,0.1,1.6-0.3,1.8-1.5c1.8-11.6,3.7-23.2,5.6-34.8c2.2-13.5,4.3-27.1,6.5-40.6c1.2-7.3,2.3-14.6,3.6-21.9c0.2-1.4,0-1.8-1.5-1.8
	c-6,0.1-12,0.1-18,0c-1.1,0-1.6,0.3-1.7,1.5c-0.1,1.6-0.5,3.2-0.8,4.8c-1,0-1.9,0-2.9,0c-2.4,0-2.4,0-2.7,2.4
	c-0.7,5.1-1.4,10.2-2.1,15.3c-0.4-0.3-0.7-0.5-1.1-0.8c-7.6-6-16-7.5-25-3.8c-5.2,2.2-9.4,5.8-13.1,10c-0.7-0.1-1,0.4-1.4,0.7
	c-3.3,2.5-5.8,5.7-8.2,9c-0.2-0.5,0-1,0.1-1.5c1.4-6.2,3.2-12.3,6.1-18c0.8-1.5,0.4-1.6-1.1-1.8c-5.7-0.6-9.9,2-13.6,5.9
	c-1.8,1.9-3.3,4-4.9,6.1c0.4-3.3,0.8-6.6,1.4-9.8c0.2-1-0.1-1.2-1-1.2c-5.8,0-11.5,0-17.3,0c-0.9,0-1.3,0.2-1.4,1.2
	c-0.2,1.8-0.6,3.5-0.9,5.3c-0.9,0-1.8,0.1-2.7,0c-1.4-0.2-1.9,0.3-2.1,1.7c-0.7,5.2-1.7,10.3-2.5,15.5c0-4.4-0.6-8.7-2.5-12.7
	c-3.9-8-10.9-11.4-19.3-12.5c-9.9-1.3-19.5,0-29,2.8c-3.8,1.2-3.8,1.2-4.6,5c-2.7,0.6-5.4,1.4-8.1,2.3c-1.1,0.3-1.5,1-1.6,2
	c-0.3,2.4-0.8,4.8-1.2,7.3c-0.5,3.1-1,6.1-1.6,9.4c5.6-1.9,11.1-3,16.7-3.4c4.9-0.3,9.8-0.7,14.7,0.5c2.5,0.6,4.5,1.9,5,4.8
	c-0.7,0.1-1.3,0.2-2,0.2c-9.8,0.4-18.8,2.7-26.4,9.2c-0.1,0.1-0.2,0.2-0.3,0.3l0,0c-5.6,1.6-10,4.9-13.3,9.6
	c-2.2,3.2-3.9,6.6-4.2,10.6l0,0c-0.3-0.1-0.2,0.1-0.3,0.3c-2.7,1.2-5.5,2.2-8.4,2.9c-13,3.1-23.1-3.2-25.8-16.2
	c-1.1-5-0.8-10.1-0.1-15.2c0.9-6.9,2.8-13.4,6.9-19.2c0.3,0.1,0.5,0,0.8-0.2c7.2-5.3,15.1-5.5,23.3-3c3.4,1,6.5,2.6,9.7,4.4
	c0.5-3,0.9-5.8,1.4-8.6c1.1,0.6,2.2,1.1,3.3,1.7c0.7,0.4,1,0.2,1.1-0.5c1-6.7,2-13.4,3.1-20.1c0.2-1.1-0.2-1.5-1.2-1.8
	c-2.9-1-5.8-1.9-8.8-2.7c-7.1-1.8-14.3-2.6-21.6-1.2c-7.1,1.4-13.4,4.5-19.2,8.8c-0.2,0-0.5-0.1-0.4,0.3l0,0
	c-0.6-0.3-0.9,0.2-1.3,0.4c-4.2,2.3-8,5.1-11.1,8.8c-1.3,1.6-2.5,2.8-4.7,1.5c-0.1-0.1-0.1-0.1,0-0.2c-0.4-3.6-1.2-7.1-1.9-10.6
	c-0.1-0.7-0.5-1.1-1.3-1c-0.4,0-0.9,0-1.3,0c-39,0-78,0-117.1,0c-2,0-2,0-1.6-2c1.3-6,3-11.9,4.8-17.8c0.3-0.8,0.7-1.2,1.6-1.1
	c0.4,0,0.8,0,1.2,0c35.1,0,70.3,0,105.4,0c2.3,0,2.3,0,1.5-2.2c-2.1-5.9-4.4-11.6-6.9-17.3c-0.6-1.3-1.2-1.8-2.7-1.8
	c-29.7,0-59.4,0-89.1,0c-2.1,0-2.1,0-1.2-1.9c2.9-6.1,6.1-12,9.6-17.7c0.7-1.1,1.4-1.5,2.7-1.5c21.6,0,43.3,0,64.9,0
	c0.4,0,0.9,0,1.3,0c0.5,0,1.3,0.3,1.6-0.2c0.3-0.5-0.3-1-0.6-1.5c-4.1-6.4-8.6-12.6-13.4-18.5c-0.7-0.8-1.4-1.1-2.4-1.1
	c-11.7,0-23.4,0-35.1,0c-0.6,0-1.2,0-2.1,0c1.1-1.8,2.4-3,3.6-4.4c4.6-5.2,9.6-10,14.8-14.6c0.5-0.4,1.3-0.7,0.9-1.6
	c5.4-5.3,11.4-9.9,17.6-14.3c22.4-16,47-26.9,74-32.7c17.9-3.8,36-5,54.3-3.9c26.9,1.7,52.5,8.3,76.4,20.7
	c53.9,28.1,88.7,71.6,103.9,130.5c4.4,17.1,6.2,34.5,5.6,52.1c-1.4,45-16.1,85.2-44.4,120.2c-19.3,23.8-42.9,42.2-70.7,55.1
	c-17.3,8.1-35.3,13.4-54.1,16.3c-16.8,2.5-33.6,2.9-50.5,1.1c-33.3-3.6-63.7-14.8-91.4-33.7C345.7,357.8,338.7,352.2,332,346.3z
	 M650.5,244.4c0-3.5-2.8-6.4-6.4-6.4c-3.6,0-6.4,2.8-6.5,6.3c-0.1,3.6,2.9,6.5,6.5,6.5C647.6,250.8,650.5,248,650.5,244.4z"/>
<path class="st1" d="M644.1,315.4c-3.5,0-6.3-2.8-6.3-6.3c0-3.6,2.9-6.4,6.4-6.4c3.4,0,6.3,2.9,6.3,6.3
	C650.6,312.6,647.7,315.4,644.1,315.4z M644.2,314.5c3.1,0,5.4-2.3,5.4-5.4c0-3-2.5-5.5-5.5-5.4c-2.9,0.1-5.3,2.4-5.3,5.4
	C638.8,312.1,641.1,314.5,644.2,314.5z"/>
<path class="st2" d="M87.1,199.3c-1.5,3.2-2.5,6.5-3.7,9.8c-4.7,13-9.4,26-13.9,39c-0.6,1.8-1.4,2.7-3.4,2.3c-0.3-0.1-0.6,0-0.8,0
	c-3.2,0-6.4-0.1-9.6,0c-1.4,0.1-1.7-0.4-1.7-1.8c-0.5-20.6-1-41.1-1.5-61.7c-0.1-3.7,0-7.5,0-11.2c-0.2,0-0.4,0-0.5,0
	c-0.7,3.9-1.3,7.8-2,11.7c-1,5.8-1.9,11.7-2.9,17.6c-0.8,4.3-1.6,8.7-2.3,13c-1.7,10.2-3.5,20.5-5.2,30.7c-0.2,1.2-0.5,1.9-2,1.7
	c-0.9-0.1-1.9,0-2.8,0c-5.3,0-10.6,0-15.9,0c1.9-11.5,3.8-22.7,5.7-33.9c2.5-15,5.1-30,7.6-45c0.9-5.1,1.7-10.3,2.5-15.4
	c0.3-1.8,0.7-3.6,1-5.4c0.1-0.8,0.4-1,1.2-1c9.6,0,19.3,0,28.9,0c1.2,0,1,0.8,1,1.5c0.2,10.9,0.4,21.8,0.6,32.7
	c0.1,5.1,0.2,10.3,0.4,15.4c0,3.8,0,7.5,0,11.5c0.7-0.7,0.8-1.3,1-1.9c3.4-10.1,6.8-20.1,10.2-30.2c2.6-7.6,5.1-15.3,7.6-22.9
	c0.6-1.7,1.3-3.5,1.8-5.2c0.2-0.8,0.6-1,1.4-1c10.4,0,20.8,0,31.3,0c1,0,1.1,0.3,1,1.3c-4.2,25.1-8.3,50.2-12.5,75.3
	c-1.3,7.6-2.5,15.2-3.7,22.9c-0.2,1-0.5,1.5-1.6,1.4c-1.1-0.1-2.1,0-3.2,0c-5.7,0-11.4,0-17.2,0c3.9-24.6,7.8-49,11.7-73.7
	c-0.4,0.2-0.5,0.3-0.6,0.4c-2.5,7-5,14-7.4,21C87.1,198.5,87,198.9,87.1,199.3L87.1,199.3z"/>
<path class="st2" d="M127.3,176.1c0-0.1,0.1-0.1,0.1-0.2c-0.2-4.1,2.2-5.6,5.8-6.5c9.2-2.4,18.5-3.6,27.9-2.4
	c4.1,0.5,8,1.7,11.5,3.9c6.3,4,9.2,10,10,17.2c0.1,0.8,0.2,1.7,0.3,2.5c-0.4,3.7-0.9,7.5-1.3,11.2c-0.1,0.3-0.2,0.5-0.2,0.8
	c-0.9,6.3-1.8,12.5-2.7,18.8c-0.7,5.2-1.4,10.4-2.1,15.6c-0.4,2.9-0.8,5.8-1.4,8.7c-0.3,1.6,0,3.3-1,4.8c-1.4,0-2.8,0-4.3,0
	c-4,0-7.9-0.2-11.9,0c-1.8,0.1-2.1-0.6-1.9-2.2c0.2-1.9,0.7-3.8,0.2-5.8c0.1,0.1,0.1,0.4,0.3,0.1c-0.1,0-0.2-0.1-0.3-0.1
	c-6.1,7.1-14,9.9-23.2,9.3c-9.1-0.6-15.8-6.3-17.7-15.2c-1.9-8.7-0.9-17.1,3.9-24.9c6.1-8.6,15-12,25-13.4c4-0.6,7.9-0.5,11.9-0.4
	c1.3,0.1,2.7,0.2,4,0.4c0.5,0,1,0.1,1.2-0.6c1.2-5.9,0.8-10.5-6.1-11.5c-7-1-14.1-0.5-21,0.8c-3,0.5-5.9,1.4-9,2.3
	C125.9,184.8,126.6,180.5,127.3,176.1z M135.8,222.2c-0.2,0.5-0.4,0.9-0.5,1.4c-1,4.8,1,9,5.1,10.2c3.1,0.9,6.1,0.5,8.9-1.1
	c0.4-0.2,0.8-0.4,1.2-0.6c5.6-4.4,7.4-10.5,7.9-17.2c0.1-0.9-0.5-1-1.2-1.1c-5.2-0.6-10.3-0.2-15.1,1.8
	C139.1,216.8,136.7,218.9,135.8,222.2z"/>
<path class="st2" d="M286.1,182.8c4.3-6.3,9.6-11.3,16.7-14.4c9.7-4.1,25.8-2.7,33.9,6.7c4.3,5,6.4,10.8,7.2,17.2
	c0.9,7.1-0.7,13.9-1.9,20.8c-0.5,3.2-0.6,3.2-4.3,3.4c-12.8,0-25.6,0-38.3-0.1c-0.9,0-1.2,0.4-1.2,1.2c-0.1,1.8-0.1,3.6,0.5,5.3
	c1.1,4.7,4.3,7.5,8.6,9c5.4,1.9,10.9,1.8,16.4,0.9c5.4-0.8,10.5-2.5,15.8-4.6c-0.5,2.8-1,5.5-1.4,8.2c-0.6,3.4-1.4,6.7-1.8,10.1
	c-0.2,1.8-1,2.7-2.7,3c-0.4,0.1-0.7,0.3-1.1,0.4c-9.6,2.3-19.4,3.1-29.1,1.2c-12.8-2.5-21.4-9.9-24.8-22.8
	c-2.7-10.3-2-20.5,0.8-30.7c1.3-4.9,3.6-9.4,5.9-13.8c0,0,0,0,0,0c0.3-0.1,0.5-0.3,0.4-0.7c0,0,0,0,0,0
	C286,183.3,286,183,286.1,182.8z M318.1,199.6c1.6,0,3.1,0,4.7,0.1c0.8,0,1.1-0.3,1.1-1.1c0.1-2.3,0.1-4.6-0.6-6.8
	c-1.2-4.1-4-6.4-8.3-6.6c-5.8-0.3-10.2,2.4-12.8,7.9c-0.9,1.7-1.4,3.5-1.8,5.4c-0.1,0.8-0.1,1.2,0.9,1.2
	C307,199.6,312.5,199.7,318.1,199.6z"/>
<path class="st2" d="M190.4,179.9c5.1-8.5,13.2-11.9,22.6-12.8c8-0.8,15.9-0.1,23.8,1c1.1,0.2,1.6,0.5,1.4,1.8
	c-0.8,5.1-1.6,10.3-2.2,15.5c-0.2,1.4-0.6,1.8-2,1.6c-0.9-0.2-1.9-0.1-2.8-0.1c-2.5-0.2-4.9-0.4-7.4-0.6c-3.2-0.2-6.5-0.3-9.7,0.7
	c-3.1,1-4.5,2.9-4.4,6.1c-0.2,2,0.8,3.4,2.3,4.6c1.9,1.5,4.1,2.4,6.3,3.4c2.9,1.3,5.8,2.7,8.3,4.7c4.2,3.2,6.6,7.5,7.6,12.6
	c0.1,0.5,0.2,1.1,0.4,1.6c0.5,6.2,0.1,12.2-2.4,18c-1.7,3.1-3.9,5.8-6.7,8c-0.2,0.1-0.5,0.1-0.3,0.5c0,0,0,0,0,0
	c-0.6-0.1-1,0.4-1.4,0.7c-2.8,1.6-5.7,2.7-8.9,3.4c-6.5,1.5-13.1,1.1-19.7,0.9c-4.9-0.2-9.8-0.6-14.6-1.9c-1.1-0.3-1.5-0.7-1.2-1.9
	c0.6-3.1,1-6.3,1.4-9.4c0.3-2.1,0.8-4.2,1-6.3c0.1-1.3,0.6-1.3,1.6-0.9c2.7,0.8,5.5,1.5,8.3,2c5.6,0.9,11.2,1.4,16.8,0
	c2.8-0.7,4.9-2.3,5.4-5.3c0.5-3.1-1.1-5.1-3.4-6.7c-2.1-1.4-4.4-2.5-6.6-3.6c-3.6-1.9-7.2-3.8-10.2-6.7c-6-6-6.8-13.4-5.9-21.3
	c0.4-3.1,1.5-6,2.6-9c0,0,0,0,0,0C190.4,180.3,190.4,180.1,190.4,179.9z"/>
<path class="st2" d="M272.6,233.5c-0.7,4.7-1.5,9.4-2.1,14.1c-0.2,1.3-0.5,2-1.9,2.2c-1.1,0.2-2.1,0.6-3.2,1c-4,0.7-8,1.4-12.2,1.3
	c-8.1-0.2-13.5-4.6-15.2-12.5c-0.8-3.5-0.6-7-0.1-10.5c2.3-17.3,5.2-34.5,8.2-51.7c0.8-4.9,1.7-9.8,2.5-14.7
	c0.4-1.7,0.7-3.5,1.1-5.2c0.1-0.7,0.3-1.2,1.2-1.2c6.6,0.1,13.1,0,19.7,0c0.2,0,0.3,0.1,0.5,0.1c-0.6,3.5-1.2,7.1-1.9,10.6
	c-0.2,1.2-0.1,1.7,1.3,1.7c2.6-0.1,5.3,0,7.9,0c0.9,0,1.1,0.2,1,1.2c-0.8,5.6-1.6,11.2-2.3,16.8c-0.2,1.5-0.6,2.3-2.2,2
	c-0.5-0.1-1,0-1.5,0.1c-2.3,0-4.6,0-6.9-0.1c-0.7,0-1,0.2-1.1,0.9c-0.3,2-0.6,4-0.9,6c-1.4,8.6-2.8,17.1-4.2,25.7
	c-0.3,1.5-0.6,3.1-0.7,4.6c-0.3,3.3,1.2,5.2,4.5,6c2.7,0.6,5.3,0.3,8-0.3C273.7,231.8,272.3,232.8,272.6,233.5z"/>
<path class="st2" d="M395,167.8c0,0.1,0,0.1,0,0.2c-3.7,7.3-6,15-7.5,23.1c-0.2,0.9-0.3,1.3-1.5,1c-3.2-0.9-5.9,0.1-7.9,2.7
	c-1.8,2.2-3,4.8-3.8,7.6c-1.9,4.8-2.8,9.8-3.6,14.8c-1.8,10.5-3.5,21-5.1,31.5c-0.2,1.5-0.6,2.4-2.4,2c-0.8-0.1-1.7,0-2.5,0.1
	c-5.1,0-10.3-0.1-15.4-0.1c-1.6,0-1.8-0.4-1.6-1.9c1-5.5,1.8-11,2.7-16.6c2.3-14.3,4.6-28.6,6.9-42.9c0.8-4.7,1.5-9.5,2.2-14.3
	c0.3-1.8,0.7-3.6,1-5.4c0.1-0.8,0.4-1,1.2-1c5.9,0,11.7,0,17.6,0c0.9,0,1.1,0.3,0.9,1.2c-0.6,3.1-1,6.2-1.5,9.3
	c0.9,0.1,1-0.7,1.3-1.1c2.1-3,4.5-5.7,7.5-7.8C387.1,167.6,391,167.2,395,167.8z"/>
<path class="st3" d="M374.4,202.3c0.7-2.8,2-5.3,3.8-7.6c2.1-2.6,4.8-3.5,7.9-2.7c1.2,0.3,1.3-0.1,1.5-1c1.5-8,3.8-15.8,7.5-23.1
	c2.2,1.3,3.4,0.1,4.7-1.5c3.1-3.6,6.9-6.5,11.1-8.8c0.4-0.2,0.8-0.7,1.3-0.4c-0.1,0.2-0.2,0.4-0.4,0.5c-7.2,6.1-12.2,13.7-15.5,22.5
	c-4.5,12.2-5.6,24.7-4.2,37.5c0.8,7,2.9,13.7,6.9,19.6c6.8,10,16.6,14.2,28.3,14.8c5.5,0.3,10.8-0.8,16.2-1.7
	c-0.1,0.4-0.1,0.8-0.2,1.2c-0.7,4.2-0.7,4.2-4.7,5.1c-6.8,1.4-13.5,2.5-20.5,1.6c-10.4-1.4-18.9-5.9-25.1-14.5
	c-0.1-0.1-0.2-0.2-0.3-0.4c-5.8-8.9-7.8-18.8-7.7-29.3c0-4.3,0.1-8.5,0.7-12.7c0.2-1.1-0.1-1.6-1.3-1.8
	C380.5,198.8,377.3,199.8,374.4,202.3z"/>
<path class="st3" d="M272.6,233.5c-0.4-0.7,1-1.7-0.4-2.2c-1.8-11.6-0.6-22.9,4-33.8c1.9-4.6,4.5-8.9,7.8-12.7
	c0.3-0.4,0.5-1.2,1.3-1c-2.4,4.4-4.6,8.9-5.9,13.8c-2.8,10.2-3.5,20.4-0.8,30.7c3.4,12.9,12,20.2,24.8,22.8
	c9.8,1.9,19.5,1.1,29.1-1.2c-1.1,6.3,0.3,5-5.7,6.5c-10,2.5-20.2,3.2-30.4,0.9c-12.4-2.9-20.3-10.5-23.5-22.9
	C272.8,234.1,272.7,233.8,272.6,233.5z"/>
<path class="st3" d="M34.6,156.2c-0.8,5.1-1.6,10.3-2.5,15.4c-2.5,15-5,30-7.6,45c-1.9,11.2-3.8,22.4-5.7,33.9c5.4,0,10.6,0,15.9,0
	c-0.3,1.7-0.6,3.4-0.8,5.1c-0.1,0.9-0.4,1.2-1.4,1.2c-6.2,0-12.4,0-18.7,0c-1.2,0-1.3-0.4-1.1-1.4c4.9-29,9.8-57.9,14.6-86.9
	c0.6-3.6,1.2-7.3,1.8-10.9c0.2-1.2,0.7-1.7,2-1.6C32.4,156.3,33.5,156.2,34.6,156.2z"/>
<path class="st3" d="M248.6,162.7c-0.8,4.9-1.7,9.8-2.5,14.7c-2.9,17.2-5.9,34.4-8.2,51.7c-0.5,3.5-0.7,7,0.1,10.5
	c1.8,7.9,7.1,12.3,15.2,12.5c4.1,0.1,8.1-0.6,12.2-1.3c-0.5,5-0.5,5.1-5.3,6.3c-4.8,1.2-9.7,2-14.6,1.2c-8.1-1.3-12.8-6.6-13.3-14.8
	c-0.1-1.8,0-3.7-0.1-5.5c2.5-5.8,2.9-11.8,2.4-18c0.7-4,1.3-7.9,2-11.9c2.4-14.5,4.8-29,7.5-43.4c0.3-1.5,0.8-2.3,2.5-2
	C247.1,162.8,247.9,162.7,248.6,162.7z"/>
<path class="st3" d="M156.3,242.5c0.5,1.9,0,3.9-0.2,5.8c-0.2,1.6,0.1,2.2,1.9,2.2c4-0.1,7.9,0,11.9,0c-0.2,1.4-0.5,2.9-0.5,4.3
	c0,1.9-0.9,2.1-2.5,2.1c-5-0.1-10-0.1-15,0c-1.2,0-1.6-0.3-1.5-1.5c0.1-2,0-3.9,0-5.9c-0.6,0-0.8,0.7-1.2,1.1
	c-6.6,6.6-14.6,8.9-23.5,7.6c-8.9-1.3-14.8-7.5-16.2-16.9c-1.1-6.8-0.5-13.5,2.3-19.9c1.7-3.8,4.1-7.1,7.5-9.5
	c-4.8,7.8-5.8,16.1-3.9,24.9c1.9,8.9,8.6,14.6,17.7,15.2C142.3,252.5,150.2,249.6,156.3,242.5L156.3,242.5z"/>
<path class="st3" d="M355.6,175.1c-0.7,4.8-1.4,9.5-2.2,14.3c-2.3,14.3-4.6,28.6-6.9,42.9c-0.9,5.5-1.7,11-2.7,16.6
	c-0.2,1.4-0.1,1.9,1.6,1.9c5.1-0.1,10.3,0,15.4,0.1c-0.3,1.7-0.6,3.4-0.8,5.1c-0.1,0.9-0.4,1.3-1.4,1.3c-6.5,0-13,0-19.5,0
	c-1,0-1.1-0.4-1-1.2c2.2-13.3,4.3-26.6,6.4-39.9c2.1-12.9,4.2-25.7,6.2-38.6c0.4-2.3,0.3-2.3,2.7-2.3
	C354.3,175.1,355,175.1,355.6,175.1z"/>
<path class="st3" d="M47.1,205.1c1-5.9,1.9-11.7,2.9-17.6c0.6-3.9,1.3-7.8,2-11.7c0.2,0,0.4,0,0.5,0c0,3.7-0.1,7.5,0,11.2
	c0.5,20.6,1,41.1,1.5,61.7c0,1.3,0.3,1.8,1.7,1.8c3.2-0.1,6.4,0,9.6,0c-0.6,1.8-1.3,3.6-1.8,5.4c-0.3,0.8-0.7,1-1.5,1
	c-4,0-8.1,0-12.1,0c-1.1,0-1.4-0.3-1.4-1.4c-0.2-9.9-0.4-19.7-0.7-29.6C47.5,219,47.6,212,47.1,205.1z"/>
<path class="st3" d="M87.5,198.2c2.5-7,4.9-14,7.4-21c0-0.1,0.2-0.1,0.6-0.4c-3.9,24.6-7.8,49-11.7,73.7c5.8,0,11.5,0,17.2,0
	c-0.3,1.7-0.6,3.4-0.8,5.1c-0.1,1-0.6,1.2-1.5,1.2c-6.3,0-12.7-0.1-19,0c-1.2,0-1.4-0.5-1.2-1.5c2.5-15.8,5.1-31.6,7.5-47.3
	c0.5-2.9,1.3-5.8,1.1-8.8c0,0,0,0,0,0C87.7,199.1,87.4,198.6,87.5,198.2z"/>
<path class="st3" d="M190.1,180.2c-1.1,2.9-2.2,5.8-2.6,9c-0.9,7.9-0.1,15.3,5.9,21.3c2.9,2.9,6.5,4.9,10.2,6.7
	c2.2,1.1,4.5,2.2,6.6,3.6c2.4,1.6,4,3.7,3.4,6.7c-0.5,3-2.5,4.6-5.4,5.3c-0.2-2.9-1.9-4.7-4.3-6c-3.3-1.9-6.7-3.6-10-5.4
	c-7.7-4.3-11.9-10.7-12.3-19.6c0.4-3.7,0.9-7.5,1.3-11.2c1.3-3,2.7-6.1,5.1-8.5C188.7,181.4,189.3,180.6,190.1,180.2z"/>
<path class="st3" d="M180.6,238.1c-0.5,3.2-0.8,6.3-1.4,9.4c-0.2,1.3,0.1,1.7,1.2,1.9c4.8,1.3,9.7,1.8,14.6,1.9
	c6.6,0.2,13.2,0.6,19.7-0.9c3.1-0.7,6.1-1.8,8.9-3.4c0.4-0.3,0.8-0.8,1.4-0.7c-0.9,2.6-3,4.2-5.1,5.8c-4.7,3.6-10.3,5.2-16.1,5.6
	c-9.1,0.5-18.2,0.5-27.2-1.5c-3.1-0.7-3.1-0.7-2.7-3.8c0.1-0.7,0.2-1.3,0.3-2c1-1.4,0.7-3.2,1-4.8c0.6-2.9,0.9-5.8,1.4-8.7
	C177.9,237.4,179.3,237.7,180.6,238.1z"/>
<path class="st3" d="M127.3,176.1c-0.7,4.3-1.4,8.7-2.1,13.2c3.1-0.9,6-1.8,9-2.3c7-1.3,14-1.8,21-0.8c6.9,1,7.3,5.6,6.1,11.5
	c-0.1,0.7-0.7,0.6-1.2,0.6c-1.3-0.1-2.7-0.2-4-0.4c-0.4-2.9-2.4-4.3-5-5c-4.8-1.2-9.7-0.9-14.5-0.5c-5.4,0.4-10.8,1.3-15.9,3.1
	c-0.8,0.3-1-0.1-0.9-0.8c0.9-5.5,1.8-10.9,2.8-16.4c0.1-0.7,0.6-0.9,1.1-1.1C124.9,176.9,126.1,176.5,127.3,176.1z"/>
<path class="st3" d="M298.6,222.9c-0.6-1.7-0.6-3.5-0.5-5.3c0.1-0.8,0.3-1.2,1.2-1.2c12.8,0.1,25.6,0.1,38.3,0.1
	c-0.3,1.6-0.7,3.2-0.9,4.8c-0.1,1.4-0.8,1.7-2.1,1.7c-11.7-0.1-23.4-0.1-35.2-0.1C299.3,222.9,299,222.9,298.6,222.9z"/>
<path class="st3" d="M86.4,155.9c-2.5,7.6-5.1,15.3-7.6,22.9C75.4,188.9,72,199,68.6,209c-0.2,0.6-0.2,1.2-1,1.9c0-4,0-7.8,0-11.5
	c2.1-6.3,4.3-12.6,6.4-18.9c2.5-7.6,5.1-15.2,7.5-22.8c0.5-1.4,1.1-2.1,2.6-1.8C84.9,156,85.6,155.9,86.4,155.9z"/>
<path class="st3" d="M209.6,193c-0.1-3.2,1.3-5.1,4.4-6.1c3.2-1,6.4-0.9,9.7-0.7c2.5,0.1,4.9,0.4,7.4,0.6c-0.3,1.9-0.6,3.7-0.8,5.6
	c-0.1,0.9-0.4,1-1.3,1c-5-0.3-9.9-0.9-14.9-0.8C212.6,192.6,211.1,192.8,209.6,193z"/>
<path class="st3" d="M264.6,195.4c0.3-2,0.6-4,0.9-6c0.1-0.7,0.4-0.9,1.1-0.9c2.3,0.1,4.6,0.1,6.9,0.1c-0.2,1.8-0.5,3.6-0.6,5.5
	c-0.1,1.1-0.5,1.4-1.6,1.4C269.1,195.4,266.9,195.4,264.6,195.4z"/>
<path class="st3" d="M285.7,183.2c0.1,0.3,0,0.6-0.4,0.7C285,183.4,285.4,183.3,285.7,183.2z"/>
<path class="st3" d="M190.4,179.9c0,0.2,0,0.4-0.3,0.3C190.2,180.1,190.3,180,190.4,179.9z"/>
<path class="st3" d="M286.1,182.8c-0.1,0.2-0.2,0.5-0.5,0.4C285.7,182.9,285.9,182.9,286.1,182.8z"/>
<path class="st3" d="M225,246.4c-0.2-0.4,0.2-0.4,0.3-0.5C225.4,246.2,225.4,246.4,225,246.4z"/>
<path class="st2" d="M575.5,179.2c3.7-4.2,7.8-7.9,13.1-10c9.1-3.7,17.4-2.2,25,3.8c0.3,0.3,0.7,0.5,1.1,0.8
	c1.4,1.2,2.9,2.5,4.3,3.7c1.1-6.8,2.2-14.1,3.4-21.3c0.3-1.6,0.6-3.2,0.8-4.8c0.1-1.2,0.6-1.5,1.7-1.5c6,0,12,0.1,18,0
	c1.5,0,1.8,0.4,1.5,1.8c-1.2,7.3-2.4,14.6-3.6,21.9c-2.2,13.5-4.3,27.1-6.5,40.6c-1.9,11.6-3.8,23.2-5.6,34.8
	c-0.2,1.2-0.5,1.7-1.8,1.5c-1-0.1-2,0-3,0c-4.9,0-9.7-0.1-14.6,0c-1.2,0-1.5-0.3-1.3-1.4c0.3-1.9,0.5-3.8,0.7-5.7
	c-0.3,0.1-0.3,0-0.4,0.1c-0.2,0.2-0.5,0.5-0.7,0.7c-6.2,5.9-13.6,8.5-22.1,7.4c-8.9-1.2-14.7-6.6-18.5-14.5c-5-10.4-5-21.4-2.9-32.5
	C565.8,195.1,569.6,186.7,575.5,179.2z M604.3,228.3L604.3,228.3c0.8-0.3,1.4-1.1,2-1.7c2.6-2.8,4.2-6.1,5.3-9.6
	c2.3-7.4,2.8-15,0.4-22.5c-1.5-4.7-4.8-6.9-9.8-6.9c-6,0-9.8,3.4-12.5,8.4c-1.9,2.8-2.8,6-3.4,9.2c-1.2,6-1.6,12.1,0.2,18.1
	c2.4,7.9,10.9,10.5,17.4,5.3C604.1,228.5,604.2,228.4,604.3,228.3z"/>
<path class="st2" d="M470.6,174.9c0.7-3.8,0.7-3.8,4.6-5c9.5-2.9,19.2-4.1,29-2.8c8.3,1.1,15.4,4.5,19.3,12.5
	c1.9,4,2.5,8.3,2.5,12.7c-0.9,6.3-1.9,12.6-2.8,18.9c-1.8,12.7-3.6,25.4-5.4,38.2c-0.1,0.8-0.4,1.1-1.1,1.1c-2.7,0-5.5,0-8.2,0
	c-2.7,0-5.5-0.1-8.2-0.1c-1.1,0-1.3-0.3-1.2-1.4c0.3-2.1,0.4-4.2,0.6-6.9c-3.1,3.7-6.6,6.1-10.6,7.8c-0.6,0.2-1.3,0.3-1.7,0.8
	c-2.7,0.3-5.2,1.1-7.9,1.2c-10.7,0.5-19.2-5.5-21.1-15.7c-2.1-10.8-0.3-20.7,7.7-28.9l0,0c0.1-0.1,0.2-0.2,0.3-0.3
	c7.6-6.5,16.7-8.9,26.4-9.2c0.7,0,1.3-0.1,2-0.2c1.8,0.1,3.7,0.2,5.5,0.3c4.6,0.2,4.6,0.2,4.7-4.4c0.1-3.9-1.5-6.1-5.3-7.1
	c-5.1-1.2-10.2-0.9-15.4-0.5c-5.4,0.4-10.6,1.5-16,3.3C469,184.4,469.8,179.6,470.6,174.9z M479.6,220.5c-0.5,0.7-0.8,1.6-1,2.5
	c-1.7,6.7,2.1,11.7,8.5,11.2c3.5-0.1,6.4-1.5,8.7-4.1c3.8-4.3,5.3-9.5,5.7-15.1c0.1-1-0.4-1.2-1.3-1.3c-5-0.5-9.9-0.2-14.7,1.7
	C483,216.4,480.8,218,479.6,220.5z"/>
<path class="st2" d="M443.4,250.5c-5.4,0.9-10.7,2-16.2,1.7c-11.7-0.6-21.5-4.8-28.3-14.8c-4-5.9-6.1-12.6-6.9-19.6
	c-1.5-12.8-0.4-25.4,4.2-37.5c3.3-8.8,8.3-16.5,15.5-22.5c0.2-0.1,0.3-0.3,0.4-0.5c0,0,0,0,0,0c0.1-0.1,0.3-0.2,0.4-0.3
	c5.8-4.3,12.1-7.4,19.2-8.8c7.3-1.4,14.5-0.6,21.6,1.2c3,0.8,5.9,1.7,8.8,2.7c0.9,0.3,1.3,0.7,1.2,1.8c-1.1,6.7-2.1,13.4-3.1,20.1
	c-0.1,0.8-0.3,1-1.1,0.5c-1.1-0.6-2.2-1.1-3.3-1.7c-2-1.2-4.3-1.9-6.5-2.6c-11.6-3.4-22.2,0.3-28.6,9.9c-4.1,5.8-6,12.3-6.9,19.2
	c-0.7,5.1-0.9,10.2,0.1,15.2c2.8,13,12.9,19.3,25.8,16.2c2.9-0.7,5.7-1.6,8.4-2.9c0.2,0,0.3,0,0.3-0.3c0,0,0,0,0,0
	c1.1,0,2-1,3.3-1.1c-0.3,1.6-0.5,3.2-0.8,4.8c-0.7,4.6-1.4,9.3-2.2,13.9C449,249.1,446.6,250.2,443.4,250.5z"/>
<path class="st2" d="M551.1,205.4c-1.6,5.1-2.5,10.3-3.4,15.6c-1.6,9.3-3,18.6-4.4,27.8c-0.2,1.4-0.8,2-2.2,1.8
	c-0.9-0.1-1.9,0.1-2.8,0.1c-5,0-10.1-0.2-15.1-0.1c-1.7,0-1.9-0.5-1.6-2c0.9-5.5,1.8-10.9,2.7-16.4c2.3-14.3,4.6-28.5,6.9-42.8
	c0.8-4.8,1.5-9.6,2.2-14.4c0.3-1.8,0.7-3.5,0.9-5.3c0.1-1,0.5-1.2,1.4-1.2c5.8,0,11.5,0,17.3,0c1,0,1.2,0.2,1,1.2
	c-0.6,3.2-1,6.5-1.4,9.8c1.6-2.1,3.1-4.2,4.9-6.1c3.7-3.9,7.9-6.5,13.6-5.9c1.4,0.2,1.8,0.3,1.1,1.8c-2.9,5.7-4.7,11.8-6.1,18
	c-0.1,0.5-0.3,1-0.1,1.5c0,0,0,0,0,0c-0.3,0-0.3,0.3-0.3,0.5c-0.1,0.7-0.3,1.3-0.4,2c-0.1,0.7-0.3,1-1.2,0.8c-3.7-1-6.6,0.3-8.7,3.4
	C553.2,198.5,552,201.8,551.1,205.4z"/>
<path class="st3" d="M551.1,205.4c0.8-3.5,2.1-6.9,4.2-9.9c2.1-3,5-4.4,8.7-3.4c0.9,0.2,1.1,0,1.2-0.8c0.1-0.7,0.3-1.3,0.4-2
	c0.1-0.2,0.2-0.3,0.3-0.5c0,0,0,0,0,0c2.4-3.3,4.9-6.5,8.2-9c0.4-0.3,0.8-0.9,1.4-0.7c-5.9,7.5-9.7,15.9-11.4,25.3
	c-2.1,11.1-2.1,22.1,2.9,32.5c3.7,7.8,9.6,13.2,18.5,14.5c8.5,1.2,15.9-1.4,22.1-7.4c0.2-0.2,0.5-0.5,0.7-0.7c0,0,0.1,0,0.4-0.1
	c-0.2,2-0.4,3.9-0.7,5.7c-0.2,1.1,0.1,1.4,1.3,1.4c4.9,0,9.7,0,14.6,0c-0.3,1.8-0.6,3.5-0.8,5.3c-0.1,0.9-0.5,1.1-1.3,1.1
	c-6.1,0-12.2,0-18.3,0c-1.1,0-1.1-0.4-1-1.3c0.3-1.9,0.5-3.7,0.7-6c-2.3,2.1-4.3,3.9-6.7,5.2c-13.5,7.4-28.2,2.7-34.9-11.2
	c-3.5-7.3-4.5-15-4.2-23c0.3-7,1.4-13.9,3.6-20.7c-2.4-0.2-4.4,0.7-6.1,2C553.4,202.7,552.3,204.1,551.1,205.4z"/>
<path class="st3" d="M448.8,245.3c0.7-4.6,1.4-9.3,2.2-13.9c0.2-1.6,0.5-3.2,0.8-4.8c-1.3,0.1-2.1,1.1-3.3,1.1c0.3-4,2-7.4,4.2-10.6
	c3.3-4.7,7.7-8,13.3-9.6c-8,8.2-9.7,18.1-7.7,28.9c1.9,10.1,10.4,16.2,21.1,15.7c2.7-0.1,5.3-0.9,7.9-1.2c-5.7,5.8-12.7,8-20.6,7.5
	C458,257.9,452,253.5,448.8,245.3z"/>
<path class="st3" d="M533.3,175.1c-0.7,4.8-1.4,9.6-2.2,14.4c-2.3,14.3-4.6,28.5-6.9,42.8c-0.9,5.5-1.7,10.9-2.7,16.4
	c-0.2,1.4-0.1,2,1.6,2c5-0.1,10.1,0,15.1,0.1c-0.2,1.7-0.5,3.4-0.7,5.2c-0.1,0.9-0.4,1.2-1.4,1.2c-6.4,0-12.9,0-19.3,0
	c-1,0-1.2-0.4-1.1-1.3c0.3-1.8,0.6-3.5,0.9-5.3c0.7,0,1-0.4,1.1-1.1c1.8-12.7,3.6-25.4,5.4-38.2c0.9-6.3,1.8-12.6,2.8-18.9
	c0.9-5.2,1.8-10.3,2.5-15.5c0.2-1.5,0.7-1.9,2.1-1.7C531.5,175.1,532.4,175.1,533.3,175.1z"/>
<path class="st3" d="M470.6,174.9c-0.8,4.8-1.6,9.6-2.4,14.5c5.4-1.8,10.6-2.9,16-3.3c5.1-0.4,10.3-0.8,15.4,0.5
	c3.8,0.9,5.4,3.1,5.3,7.1c-0.1,4.7-0.1,4.7-4.7,4.4c-1.8-0.1-3.7-0.2-5.5-0.3c-0.5-2.8-2.5-4.1-5-4.8c-4.8-1.2-9.8-0.9-14.7-0.5
	c-5.6,0.4-11.2,1.5-16.7,3.4c0.5-3.3,1-6.4,1.6-9.4c0.4-2.4,0.9-4.8,1.2-7.3c0.1-1.1,0.5-1.7,1.6-2
	C465.2,176.3,467.9,175.5,470.6,174.9z"/>
<path class="st3" d="M420.8,180.2c6.4-9.6,17-13.3,28.6-9.9c2.2,0.7,4.5,1.4,6.5,2.6c-0.5,2.8-0.9,5.6-1.4,8.6
	c-3.2-1.8-6.3-3.4-9.7-4.4c-8.2-2.5-16.1-2.3-23.3,3C421.3,180.1,421.1,180.3,420.8,180.2z"/>
<path class="st3" d="M489.1,250c3.9-1.7,7.4-4.1,10.6-7.8c-0.2,2.6-0.3,4.8-0.6,6.9c-0.1,1,0.1,1.4,1.2,1.4c2.7-0.1,5.5,0,8.2,0.1
	c-0.2,1.8-0.6,3.5-0.7,5.3c-0.1,0.9-0.5,1-1.3,1c-5.4,0-10.8,0-16.2,0c-1.1,0-1.3-0.4-1.3-1.4C489.1,253.7,489.1,251.8,489.1,250z"
	/>
<path class="st3" d="M622.3,156.1c-1.1,7.2-2.3,14.5-3.4,21.3c-1.4-1.2-2.8-2.4-4.3-3.7c0.7-5.1,1.4-10.2,2.1-15.3
	c0.3-2.4,0.3-2.4,2.7-2.4C620.4,156,621.3,156,622.3,156.1z"/>
<path class="st2" d="M650.5,244.4c0,3.6-2.9,6.4-6.4,6.4c-3.6,0-6.5-3-6.5-6.5c0.1-3.5,2.9-6.3,6.5-6.3
	C647.7,238,650.5,240.9,650.5,244.4z M649.4,244.4c0-3-2.4-5.3-5.4-5.3c-3,0-5.3,2.4-5.3,5.4c0,3,2.4,5.3,5.4,5.3
	C647.1,249.7,649.4,247.4,649.4,244.4z"/>
<path class="st3" d="M466.2,207.2c-0.1,0.1-0.2,0.2-0.3,0.3C466.1,207.3,466.1,207.3,466.2,207.2z"/>
<path class="st3" d="M412.6,157c-0.1,0.1-0.3,0.2-0.4,0.3C412,156.9,412.4,157,412.6,157z"/>
<path class="st3" d="M448.5,227.6c0,0.2-0.1,0.2-0.3,0.3C448.3,227.7,448.3,227.5,448.5,227.6z"/>
<path class="st0" d="M87.5,198.2c-0.1,0.4,0.2,0.9-0.3,1.1C87,198.9,87.1,198.5,87.5,198.2z"/>
<path class="st0" d="M180.6,238.1c-1.3-0.4-2.6-0.7-4-1.1c0.7-5.2,1.4-10.4,2.1-15.6c0.9-6.3,1.8-12.5,2.7-18.8
	c0-0.3,0.2-0.5,0.2-0.8c0.4,8.9,4.6,15.4,12.3,19.6c3.3,1.8,6.7,3.6,10,5.4c2.3,1.3,4.1,3.1,4.3,6c-5.6,1.4-11.2,0.9-16.8,0
	c-2.8-0.4-5.6-1.1-8.3-2c-1-0.3-1.5-0.4-1.6,0.9C181.4,233.9,180.9,236,180.6,238.1z"/>
<path class="st0" d="M149.3,232.7c-2.8,1.7-5.8,2-8.9,1.1c-4.1-1.1-6.1-5.4-5.1-10.2c0.1-0.5,0.3-0.9,0.5-1.4
	c4.3-1.9,8.8-2.4,13.4-2.3c2.3,0,2.5,0.3,2.4,2.7C151.4,226.1,150.6,229.5,149.3,232.7z"/>
<path class="st3" d="M149.3,232.7c1.3-3.2,2-6.6,2.3-10.1c0.2-2.4,0-2.6-2.4-2.7c-4.6-0.1-9.1,0.4-13.4,2.3c0.9-3.4,3.3-5.4,6.3-6.7
	c4.8-2,9.9-2.4,15.1-1.8c0.7,0.1,1.2,0.2,1.2,1.1c-0.6,6.7-2.3,12.9-7.9,17.2C150.2,232.4,149.7,232.5,149.3,232.7z"/>
<path class="st3" d="M156.3,242.5c0.1,0,0.2,0.1,0.3,0.1C156.4,242.9,156.4,242.6,156.3,242.5C156.3,242.5,156.3,242.5,156.3,242.5z
	"/>
<path class="st3" d="M302.2,193.2c2.6-5.5,7-8.3,12.8-7.9c4.3,0.2,7.1,2.5,8.3,6.6c0.6,2.2,0.7,4.5,0.6,6.8c0,0.8-0.3,1.1-1.1,1.1
	c-1.6-0.1-3.1-0.1-4.7-0.1c-0.9-5.1-3.9-7.8-8.8-8C306.8,191.5,304.5,192.1,302.2,193.2z"/>
<path class="st0" d="M302.2,193.2c2.2-1.1,4.6-1.7,7.1-1.5c4.9,0.2,7.8,2.9,8.8,8c-5.6,0-11.1,0-16.7,0.1c-1,0-1.1-0.4-0.9-1.2
	C300.8,196.7,301.3,194.9,302.2,193.2z"/>
<path class="st1" d="M603.9,228.6c-6.5,5.1-15,2.6-17.4-5.3c-1.8-6-1.4-12.1-0.2-18.1c0.6-3.2,1.6-6.4,3.4-9.2
	c0.2-0.1,0.4-0.2,0.6-0.3c7.6-4.1,14.8-1.1,16.8,7.3c1.4,6,1.1,12-0.3,17.9c-0.6,2.5-1.8,4.9-2.5,7.4c0,0,0,0,0,0
	C604,228.2,604,228.4,603.9,228.6z"/>
<path class="st3" d="M604.3,228.3c0.7-2.5,1.9-4.8,2.5-7.4c1.4-6,1.8-12,0.3-17.9c-2-8.4-9.2-11.5-16.8-7.3
	c-0.2,0.1-0.4,0.2-0.6,0.3c2.7-5,6.5-8.4,12.5-8.4c4.9,0,8.2,2.3,9.8,6.9c2.4,7.5,1.9,15-0.4,22.5c-1.1,3.6-2.8,6.8-5.3,9.6
	C605.7,227.2,605.1,227.9,604.3,228.3z"/>
<path class="st3" d="M603.9,228.6c0.1-0.2,0.1-0.4,0.4-0.3C604.2,228.4,604.1,228.5,603.9,228.6z"/>
<path class="st3" d="M479.6,220.5c1.3-2.5,3.4-4.1,5.9-5.1c4.7-1.8,9.6-2.2,14.7-1.7c0.9,0.1,1.3,0.3,1.3,1.3
	c-0.4,5.6-1.9,10.8-5.7,15.1c-2.3,2.6-5.2,4-8.7,4.1c1.9-3.6,2.8-7.4,3-11.4c0.2-2.6,0.1-2.8-2.5-2.8
	C484.9,219.9,482.2,220.2,479.6,220.5z"/>
<path class="st1" d="M479.6,220.5c2.7-0.3,5.3-0.6,8-0.6c2.6,0.1,2.7,0.2,2.5,2.8c-0.3,4-1.2,7.8-3,11.4c-6.4,0.4-10.2-4.6-8.5-11.2
	C478.8,222.1,479,221.3,479.6,220.5z"/>
<path class="st1" d="M565.9,188.9c-0.1,0.2-0.2,0.3-0.3,0.5C565.6,189.2,565.6,188.9,565.9,188.9z"/>
<path class="st1" d="M649.4,244.4c0,3-2.3,5.4-5.3,5.4c-3,0-5.3-2.3-5.4-5.3c0-3,2.3-5.4,5.3-5.4C647,239,649.4,241.4,649.4,244.4z
	 M645,244.9c1.7-1.1,2-2.2,1-3.2c-0.5-0.5-3.9-1-4.5-0.6c-0.1,0.1-0.3,0.4-0.3,0.5c0,1.9,0,3.8,0,5.7c0,0.3,0.1,0.5,0.5,0.5
	c0.3,0,0.5-0.1,0.6-0.5c0-0.3,0-0.7,0-1c0.1-0.5-0.3-1.1,0.4-1.3c0.6-0.2,1.2,0,1.6,0.6c0.4,0.6,0.8,1.2,1.2,1.8
	c0.3,0.4,0.7,0.5,1,0.2c0.4-0.3,0-0.6-0.1-0.8C646,246.3,645.6,245.7,645,244.9z"/>
<path class="st1" d="M646.9,312.4c-0.8,0.4-1.1,0.1-1.4-0.5c-0.3-0.5-0.6-1-0.9-1.4c-0.4-0.6-1-1-1.7-0.8c-0.8,0.2-0.4,0.9-0.5,1.4
	c0,0.3,0,0.6,0,0.8c0,0.4-0.2,0.7-0.6,0.6c-0.3,0-0.4-0.3-0.4-0.6c0-1.8,0-3.7,0-5.5c0-0.2,0.1-0.5,0.2-0.6c0.7-0.6,4.2,0.1,4.7,0.9
	c0.5,0.8,0.4,1.7-0.4,2.2c-0.9,0.6-0.7,1-0.2,1.6C646.2,311.2,646.5,311.8,646.9,312.4z M643.6,308.8c0.9,0,1.9,0,1.9-1.1
	c0-1.1-0.9-1.1-1.7-1.1c-0.7,0-1.3,0-1.3,1C642.4,308.6,642.8,308.9,643.6,308.8z"/>
<path class="st2" d="M645,244.9c0.5,0.8,1,1.4,1.4,2c0.2,0.3,0.5,0.6,0.1,0.8c-0.4,0.2-0.8,0.1-1-0.2c-0.4-0.6-0.8-1.2-1.2-1.8
	c-0.4-0.6-1-0.8-1.6-0.6c-0.7,0.2-0.3,0.8-0.4,1.3c0,0.3,0,0.7,0,1c0,0.3-0.2,0.5-0.6,0.5c-0.3,0-0.5-0.2-0.5-0.5c0-1.9,0-3.8,0-5.7
	c0-0.2,0.1-0.4,0.3-0.5c0.6-0.4,4,0.1,4.5,0.6C647.1,242.7,646.7,243.8,645,244.9z M643.5,244.1c0.7-0.1,1.7,0.1,1.8-1
	c0.1-1.2-0.9-1-1.7-1.1c-0.7-0.1-1.3-0.1-1.3,0.9C642.3,243.8,642.6,244.2,643.5,244.1z"/>
<path class="st1" d="M643.5,244.1c-0.9,0.1-1.2-0.2-1.2-1.1c0-1.1,0.6-1,1.3-0.9c0.7,0.1,1.7-0.1,1.7,1.1
	C645.2,244.2,644.2,244,643.5,244.1z"/>
</svg>
