<?xml version="1.0" encoding="utf-8"?>
<!-- Generator: Adobe Illustrator 22.1.0, SVG Export Plug-In . SVG Version: 6.00 Build 0)  -->
<svg version="1.1" id="Слой_1" xmlns="http://www.w3.org/2000/svg" xmlns:xlink="http://www.w3.org/1999/xlink" x="0px" y="0px"
	 viewBox="0 0 1280 583" style="enable-background:new 0 0 1280 583;" xml:space="preserve">
<style type="text/css">
	.st0{fill:#FE8C01;}
	.st1{fill:#2F3742;}
</style>
<path class="st0" d="M505.3,255c-0.4,50.2-11.6,92.5-34,131.8c-0.8,1.3-1,3.6-3.2,3.3c-2.3-0.3-1.6-2.7-1.9-4.1
	c-3.8-22.2-11.1-42.8-25.2-60.6c-18.6-23.4-43.6-35.9-72.2-42.1c-2.5-0.6-7.1,0.1-6.9-3.1c0.2-3.2,4.7-2,7.3-2.3
	c15-1.2,30-1.3,44.9,0.7c5,0.7,5.1-1.5,5.3-4.9c2.8-39.8-6.1-76.7-29.4-109.2c-35.5-49.6-84.3-73.9-145.2-72
	C166.6,95,99.1,155.9,87.4,233.4C73.8,323,130.9,405.1,219.8,423.8c12.1,2.5,24.4,3.3,36.7,3.4c2.8,0,3.7-0.5,3.2-3.6
	c-2.1-12.5-2.9-25.1-2.9-37.8c0-2.7,0.3-5.3,0.5-8c0.1-1.6-0.1-3.8,1.8-4.3c2.2-0.6,2.9,1.8,3.9,3.2c1.6,2.4,2.9,4.8,4.4,7.3
	c16.2,26.8,36.9,49.2,64.4,64.8c20.4,11.6,42.6,17.7,65.2,22.6c39.4,8.6,76,23.2,107.2,49.6c15.7,13.3,29.8,28.1,42.6,44.2
	c2.3,2.9,4.3,6,0.9,9.2c-3.3,3-6.5,1.4-9.3-1.1c-15.8-13.9-32.5-26.5-50.7-37.1c-35.6-20.7-73.7-31.6-115.2-30.4
	c-30.3,0.9-60.6,3.2-90.7,6.2C145.6,525.2,34.3,437.1,5.8,318c-23.5-98.1,15.9-204.1,97.9-262.8C152.9,20,207.9,3.2,268.1,7.7
	c88.4,6.5,156.1,48.7,202.1,124.4C494.5,172.1,505.3,215.4,505.3,255z"/>
<path class="st0" d="M1052.9,171.5c-3.5,10.3-6.9,20.3-10.2,30.3c-8.1,24.3-16.4,48.5-24.3,72.9c-1.7,5.3-4.5,7.4-10.1,7.2
	c-9.2-0.3-18.3-0.2-27.5,0c-4.3,0.1-6.7-1.6-8.1-5.7c-20.2-60.6-40.6-121.1-60.9-181.6c-2.1-6.2-0.1-8.9,6.4-8.9
	c12.3-0.1,24.7,0.1,37-0.1c4.7-0.1,7.2,1.7,8.6,6.4c10.1,33.6,20.4,67.1,30.6,100.7c0.5,1.6,1,3.2,1.5,4.9c2.1-1,2-3,2.6-4.6
	c11.1-32.9,22.1-65.9,33.1-98.9c2.6-7.9,2.7-7.9,10.9-7.9c7.5,0,15,0.3,22.5-0.1c4.8-0.2,7.2,1.6,8.7,6.2
	c11.2,33.9,22.6,67.8,33.9,101.7c0.4,1.3,0.9,2.5,1.3,3.8c1.7-0.5,1.5-2,1.8-3.1c10.3-33.7,20.6-67.4,30.8-101.2
	c2.3-7.4,2.8-7.9,10.4-7.9c11.7,0,23.3,0,35,0c8.4,0,10.3,2.5,7.6,10.4c-20,59.7-40.2,119.5-60.1,179.3c-1.7,5-4.5,6.8-9.5,6.6
	c-9-0.3-18-0.3-27,0c-5.2,0.2-7.7-1.9-9.3-6.8c-10.8-32.8-21.9-65.6-33-98.4C1055.1,175.1,1055,173.1,1052.9,171.5z"/>
<path class="st0" d="M797.4,281.3c-5.7,0-11.4-0.4-17,0.1c-6.3,0.5-11-1.2-14.2-6.8c-2.3-4.2-4.8-4.6-9.4-2
	c-63.9,36.3-143.6-4.3-152.2-77.4c-7.1-59.7,39.8-113.2,99.9-114.1c59.1-0.9,107.1,47.7,104.6,106c-0.7,17.3-5.2,33.5-14,48.4
	c-1.6,2.8-1.6,4.4,0.5,6.8c9,10.2,17.8,20.7,26.7,31.1c1.4,1.7,3,3.3,2,5.7c-1.1,2.6-3.4,2.3-5.6,2.3
	C811.7,281.3,804.6,281.3,797.4,281.3z M735,202.6c6.3,0,12.7-0.1,19,0.1c2.7,0.1,3.8-0.9,4.5-3.4c2.5-9.2,2.7-18.4,1-27.7
	c-5.9-31.3-35.9-51-65.7-43.4c-30.3,7.8-48,40.8-38.8,72.1c9.5,32.3,43.6,48.7,73.2,35.5c3.1-1.4,3.6-2.3,1.3-5.1
	c-5.6-6.4-10.8-13.1-16.2-19.6c-1.5-1.8-3.3-3.5-1.9-6.2c1.4-2.6,3.8-2.3,6.1-2.3C723.4,202.6,729.2,202.6,735,202.6z"/>
<path class="st0" d="M846,183.3c0-29.5,0-59,0-88.5c0-8.2,1-9.2,9.2-9.2c10.3,0,20.7,0,31,0c6.6,0,8.1,1.5,8.1,7.8
	c0,60.1,0,120.3,0,180.4c0,6.5-1.4,7.9-8,7.9c-10.8,0.1-21.7,0.1-32.5,0c-6.5,0-7.8-1.4-7.8-8.1C846,243.6,846,213.4,846,183.3z"/>
<path class="st0" d="M1210.7,183.5c0-29.8,0-59.6,0-89.4c0-7.1,1.4-8.4,8.5-8.5c10.7,0,21.3,0,32,0c6.1,0,7.8,1.7,7.8,7.7
	c0,60.5,0,120.9,0,181.4c0,5.6-1.5,7-7.3,7.1c-11.2,0.1-22.3,0.1-33.5,0c-6.1,0-7.5-1.6-7.5-7.9
	C1210.7,243.8,1210.7,213.6,1210.7,183.5z"/>
<path class="st1" d="M859,439.2c-15.8,0-31.6-0.1-47.5,0.1c-3.3,0-4.6-0.6-4.6-4.3c0.2-23.5,0.1-47,0-70.5c0-3.1,0.5-4.6,4.1-4.3
	c4.5,0.4,10.3-1.4,13.1,0.8c3,2.4,0.9,8.4,1,12.9c0.1,14.7,0.2,29.3,0,44c-0.1,3.6,1,4.5,4.5,4.4c5.1-0.3,10.3-0.3,15.5,0
	c3.7,0.2,4.8-0.7,4.7-4.6c-0.2-17.5,0-35-0.2-52.5c0-3.8,0.7-5.5,4.9-5c4.6,0.6,10.7-2,13.3,1.1c2.3,2.6,0.7,8.6,0.7,13
	c0,14.7,0.1,29.3-0.1,44c0,2.9,0.5,4.1,3.8,4c5.1-0.3,10.3-0.4,15.5,0c4.2,0.3,5.7-0.7,5.6-5.3c-0.3-17.3,0-34.6-0.2-52
	c0-3.5,0.6-5.3,4.6-4.7c4.6,0.6,10.7-2,13.4,1.1c2.3,2.6,0.8,8.6,0.8,13c0,20.2-0.1,40.3,0.1,60.5c0,3.5-0.8,4.5-4.4,4.5
	C891.3,439.1,875.1,439.2,859,439.2z"/>
<path class="st1" d="M701.2,329.5c-3.9,6.7-7.3,12.5-10.8,18.3c-6,10.2-11.9,20.4-18.1,30.4c-1.8,2.8-1.6,4.8,0,7.6
	c9.4,16.1,18.6,32.2,27.9,48.4c0.8,1.4,1.5,2.9,2.6,5c-7.2,0-13.8-0.1-20.3,0c-2.5,0-2.9-1.9-3.8-3.4c-7.5-13.4-15-26.7-22.1-40.2
	c-1.8-3.4-3.9-4.6-7.7-4.5c-9.2,0.3-9.2,0.1-9.2,9.5c0,11.3-0.1,22.7,0.1,34c0.1,3.3-0.5,5-4.2,4.5c-5.1-0.6-11.7,2.1-14.9-1.1
	c-2.9-3-0.8-9.5-0.8-14.5c-0.1-29.6,0-59.3-0.1-88.9c0-3.9,0.6-5.9,5-5.4c4.7,0.6,11.1-2,13.8,1.1c2.4,2.7,0.8,8.9,0.8,13.5
	c0.1,8.8,0.1,17.7,0,26.5c0,2.8,0.7,3.4,3.6,3.8c7.7,1,12.4-1.3,16-8.7c5.4-11.2,12.4-21.6,18.5-32.5c1.5-2.7,3.1-3.8,6.2-3.6
	C689.1,329.6,694.6,329.5,701.2,329.5z"/>
<path class="st1" d="M790.8,400.1c-0.2,23.5-18.7,41.1-43.1,40.9c-24.7-0.2-43-18.1-42.9-41.8c0.1-23.3,18.5-40.8,42.8-40.7
	C772.1,358.6,790.9,376.7,790.8,400.1z M724.4,399.3c0,14.3,9.7,24.8,23,24.8c13.3,0,23.4-10.5,23.5-24.5
	c0.1-13.9-9.9-24.6-23.2-24.7C734.3,374.7,724.5,385,724.4,399.3z"/>
<path class="st1" d="M974.4,403.4c-7.8,0-15.7,0.1-23.5-0.1c-2.9-0.1-3.6,0.6-2.9,3.7c2.9,12.4,15.2,19.7,28.6,16.8
	c5.1-1.1,9.9-3,14.1-6.1c2.3-1.7,3.3-1.3,4.4,1.1c0.6,1.5,1.6,2.9,2.4,4.4c4.1,7.3,4.1,7.4-3.2,11.4c-13.4,7.3-27.4,9-41.8,3.6
	c-20.5-7.7-30.4-31.2-22.8-53.5c6.8-20.1,28.5-30.8,49.3-24.4c15.9,4.9,26.9,24.6,22.9,40.8c-0.6,2.3-1.7,2.4-3.5,2.3
	C990.4,403.4,982.4,403.4,974.4,403.4z M965,389.9c4.7,0,9.3-0.2,14,0.1c3.5,0.2,3.8-1.3,3.1-4.2c-1.8-7.9-8-12.7-16.3-12.5
	c-8.3,0.2-16.3,6.9-17.7,14.3c-0.5,2.7,1,2.3,2.4,2.3C955.3,390,960.2,389.9,965,389.9z"/>
<path class="st1" d="M1148.4,403.4c-7.7,0-15.3,0.1-23-0.1c-3.3-0.1-4.3,0.5-3.4,4.1c3.2,12.1,15.3,19.2,28.5,16.4
	c5.3-1.1,10.2-3.2,14.5-6.3c1.8-1.3,2.8-1.2,3.7,0.9c0.8,1.8,1.9,3.5,2.9,5.3c3.8,6.9,3.8,6.9-2.9,10.7
	c-18.5,10.8-41.8,8.8-55.6-4.7c-13.3-13.1-15.9-35.9-6-52.6c8.9-15,27.8-22,45.2-16.9c16.3,4.8,27.2,24,23.4,40.8
	c-0.5,2.3-1.7,2.4-3.4,2.4C1164.4,403.4,1156.4,403.4,1148.4,403.4z M1121.7,389.9c9.2,0,18,0.1,26.8-0.1c2.5,0,6.3,1.4,7.4-0.9
	c1.4-3-0.6-6.4-2.5-9.2c-1.8-2.7-4.3-4.5-7.5-5.6C1135.1,370.6,1124.5,377.2,1121.7,389.9z"/>
<path class="st1" d="M1085.5,399.9c0,11.8-0.1,23.7,0.1,35.5c0,3.1-0.8,4.1-3.9,3.9c-3.8-0.3-7.7-0.3-11.5,0
	c-3.6,0.3-4.4-1.1-4.4-4.5c0.2-18,0-36,0.2-54c0-3.8-1-4.9-4.7-4.6c-4.6,0.4-10.7-1.4-13.5,0.9c-3,2.4-0.9,8.7-1,13.3
	c-0.3,10.2-1.4,20.3-5.4,29.8c-5,11.8-13.9,18.3-26.7,19.4c-2.5,0.2-3.4-0.3-3.1-2.8c0.2-1.7,0-3.3,0-5c-0.1-5-0.9-9.4,6-11.9
	c6.3-2.3,7.8-9.6,8.9-15.9c2.4-12.7,1.6-25.6,1.5-38.4c0-4.4,1-5.6,5.4-5.5c16,0.3,32,0.2,48,0c3.2,0,4.2,0.8,4.2,4.1
	C1085.3,376.2,1085.5,388.1,1085.5,399.9z"/>
<path class="st1" d="M1262.3,360.3c-7.7,11.6-14.7,22.5-22.1,33c-2.5,3.6-2.5,5.9,0.1,9.5c7.5,10.4,14.6,21.1,21.8,31.6
	c0.9,1.3,1.7,2.7,2.9,4.7c-7.3,0-13.9-0.1-20.5,0c-2.4,0-3-1.7-4-3.2c-5.7-8.8-11.3-17.6-17-26.4c-1.3-2-9.6-3.6-11.3-2.2
	c-1,0.9-0.6,2.2-0.6,3.3c0,8.2-0.2,16.3,0.1,24.5c0.1,3.4-1.1,4.3-4.2,4c-3.6-0.3-7.3-0.3-11,0c-3.5,0.3-4.5-0.9-4.5-4.4
	c0.2-20.3,0-40.6,0.1-61c0-4.4-2-10.4,1-12.9c2.5-2.2,8.3-0.3,12.6-0.8c4.8-0.5,6.8,0.7,6.3,6.1c-0.6,5.9-0.3,12,0,18
	c0.1,2.1-1.6,5.5,1.5,5.9c3.6,0.5,7.7,1.8,10.4-3.1c4.4-8,9.8-15.4,14.5-23.3c1.5-2.6,3.2-3.7,6.3-3.6
	C1250.1,360.5,1255.6,360.3,1262.3,360.3z"/>
<path class="st0" d="M410.8,434.4c0,9.1-7.8,15.7-18.3,15.5c-13.7-0.4-25.3-11.1-26.8-24.8c-1.3-11.8,6.7-19.5,18.4-17.9
	C397,408.9,410.8,423,410.8,434.4z"/>
<path class="st0" d="M451.2,395.3c-0.2,1-0.3,2.7-0.7,4.3c-1.4,5.7-5.4,7.5-9.9,3.7c-8.9-7.4-14.4-16.9-15.8-28.5
	c-0.4-3.5,0.4-7.1,3.8-9.2c3.6-2.3,7.1-1.2,10.4,0.8c3.9,2.3,6.2,6,8,9.9C449.7,382.1,450.9,388.3,451.2,395.3z"/>
</svg>
