<?xml version="1.0" encoding="utf-8"?>
<!-- Generator: Adobe Illustrator 22.1.0, SVG Export Plug-In . SVG Version: 6.00 Build 0)  -->
<svg version="1.1"
	 id="svg3052" inkscape:version="0.48.5 r10040" sodipodi:docname="NoVictor_(Visa).png" xmlns:cc="http://creativecommons.org/ns#" xmlns:dc="http://purl.org/dc/elements/1.1/" xmlns:inkscape="http://www.inkscape.org/namespaces/inkscape" xmlns:rdf="http://www.w3.org/1999/02/22-rdf-syntax-ns#" xmlns:sodipodi="http://sodipodi.sourceforge.net/DTD/sodipodi-0.dtd" xmlns:svg="http://www.w3.org/2000/svg"
	 xmlns="http://www.w3.org/2000/svg" xmlns:xlink="http://www.w3.org/1999/xlink" x="0px" y="0px" viewBox="0 0 3072 1919"
	 style="enable-background:new 0 0 3072 1919;" xml:space="preserve">
<style type="text/css">
	.st0{fill:#FFFFFF;stroke:#0061B2;stroke-width:32;}
	.st1{fill:#0061B2;}
	.st2{fill:#FDB827;}
</style>
<sodipodi:namedview  bordercolor="#666666" borderopacity="1" gridtolerance="10" guidetolerance="10" id="namedview3054" inkscape:current-layer="svg3052" inkscape:cx="2929.9452" inkscape:cy="708.7338" inkscape:pageopacity="0" inkscape:pageshadow="2" inkscape:window-height="706" inkscape:window-maximized="1" inkscape:window-width="1366" inkscape:window-x="-8" inkscape:window-y="-8" inkscape:zoom="0.14039817" objecttolerance="10" pagecolor="#ffffff" showgrid="false">
	</sodipodi:namedview>
<g id="g3177">
	<path id="rect3062" inkscape:connector-curvature="0" class="st0" d="M18,14.6h3037.6v1890.7H18L18,14.6z"/>
	<path id="path3065" inkscape:connector-curvature="0" class="st1" d="M120.6,132.9h2813.6v397.7H120.6L120.6,132.9z"/>
	<path id="path3069" inkscape:connector-curvature="0" class="st2" d="M120.6,1389.7h2813.6v397.7H120.6L120.6,1389.7z"/>
	<path id="path3071" inkscape:connector-curvature="0" sodipodi:nodetypes="ccccccccccccc" class="st1" d="M588.3,631.8l0,0.2H472.7
		v19.6v0.1c90.3,2.9,117.2,45.3,127.2,94.8l53.2,527.8h175.1l374.2-642.4h-175.1l-224.9,386.1l-38.9-386.1L588.3,631.8z"/>
	<path id="rect3086" inkscape:connector-curvature="0" sodipodi:nodetypes="ccccc" class="st1" d="M1295.6,631.4h170l-208.5,643
		h-170L1295.6,631.4z"/>
	<path id="path3089" inkscape:connector-curvature="0" sodipodi:nodetypes="ccccccccccccc" class="st1" d="M2232.1,644.2
		l-328.7,630.2h184.4l48-96.2h214.1l7.3,96.2h170L2479,644.2C2396.7,644.2,2314.4,644.2,2232.1,644.2z M2321.4,805.9l20.3,266.4
		h-153.2L2321.4,805.9z"/>
	<path id="path3105" inkscape:connector-curvature="0" sodipodi:nodetypes="ssccssssccsss" class="st1" d="M1507.3,795
		c25.5-102,109.2-171.6,251.7-171.6c133.5,0,232.5,83.4,232.5,83.4l-101,105.8c0,0-74.7-57.7-118.7-57.7
		c-58.2,0-84.4,21.2-89.8,56.1c-10.7,69.6,237.1,112.1,229.3,274.2c-5.2,108.2-117.3,213.3-245.3,213.3c-192.1,0-287-77-287-77
		l86.6-123.5c0,0,86.8,69.5,168.4,65.7c55-2.6,97.5-23.6,94.6-60.9C1722.1,1018.3,1461.1,979.5,1507.3,795L1507.3,795z"/>
	<path id="path3151" inkscape:connector-curvature="0" class="st1" d="M2547.2,644.2c-5.9,0-11.7,1.5-17.4,4.6
		c-5.7,3-10,7.4-13.2,13.1c-3.2,5.7-4.8,11.6-4.8,17.7c0,6.1,1.6,11.9,4.7,17.6c3.1,5.6,7.5,10,13.1,13.1s11.5,4.7,17.6,4.7
		c6.1,0,12-1.6,17.6-4.7s9.9-7.5,13.1-13.1c3.1-5.6,4.7-11.5,4.7-17.6c0-6.2-1.6-12.1-4.7-17.7c-3.2-5.7-7.6-10.1-13.2-13.1
		C2558.9,645.7,2553.1,644.2,2547.2,644.2L2547.2,644.2z M2547.2,650.1c4.9,0,9.7,1.3,14.4,3.8c4.7,2.5,8.4,6.2,11,10.9
		c2.6,4.7,4,9.7,4,14.8c0,5.1-1.3,10-3.9,14.6c-2.6,4.7-6.2,8.3-10.9,10.9c-4.7,2.6-9.5,3.9-14.6,3.9c-5.1,0-10-1.3-14.7-3.9
		c-4.7-2.6-8.3-6.3-10.9-10.9c-2.6-4.7-3.9-9.5-3.9-14.6c0-5.1,1.3-10.1,4-14.8c2.7-4.7,6.3-8.4,11-10.9
		C2537.4,651.3,2542.2,650.1,2547.2,650.1z"/>
	<path id="path3147" inkscape:connector-curvature="0" class="st1" d="M2532.6,660.1v41.7h6.2v-17.7h3.6c2.2,0,3.8,0.5,4.9,1.4
		c1.6,1.3,3.8,4.6,6.5,9.7l3.4,6.5h7.5l-4.6-8.2c-2.2-3.9-4.1-6.6-5.6-8.3c-0.8-0.9-1.9-1.6-3.2-2.2c3.3-0.3,5.9-1.6,7.9-3.8
		c2-2.3,3-4.9,3-7.9c0-2.2-0.6-4.2-1.8-6.1c-1.2-1.9-2.8-3.3-4.8-4.1c-2-0.8-5.3-1.2-9.7-1.2H2532.6L2532.6,660.1z M2538.7,665.8h7
		c3,0,5.1,0.2,6.2,0.7c1.1,0.5,2,1.2,2.6,2.2c0.6,1,0.9,2.1,0.9,3.3c0,1.9-0.6,3.5-1.9,4.6c-1.3,1.2-3.7,1.8-7.3,1.8h-7.5
		L2538.7,665.8L2538.7,665.8z"/>
	<path id="path3159" inkscape:connector-curvature="0" class="st1" d="M2873.1,1692.4c-5.9,0-11.7,1.5-17.4,4.6
		c-5.7,3-10,7.4-13.2,13.1s-4.8,11.6-4.8,17.7c0,6.1,1.6,11.9,4.7,17.6s7.5,10,13.1,13.1c5.6,3.1,11.5,4.7,17.6,4.7
		c6.1,0,12-1.6,17.6-4.7s9.9-7.5,13.1-13.1c3.1-5.6,4.7-11.5,4.7-17.6c0-6.2-1.6-12.1-4.7-17.7c-3.2-5.7-7.6-10.1-13.2-13.1
		C2884.8,1693.9,2879.1,1692.4,2873.1,1692.4L2873.1,1692.4z M2873.1,1698.3c4.9,0,9.7,1.3,14.4,3.8c4.7,2.5,8.4,6.2,11,10.9
		c2.6,4.7,4,9.7,4,14.8c0,5.1-1.3,10-3.9,14.6s-6.2,8.3-10.9,10.9c-4.7,2.6-9.5,3.9-14.6,3.9c-5.1,0-10-1.3-14.7-3.9
		s-8.3-6.3-10.9-10.9c-2.6-4.7-3.9-9.5-3.9-14.6c0-5.1,1.3-10.1,4-14.8c2.7-4.7,6.3-8.4,11-10.9
		C2863.3,1699.5,2868.2,1698.3,2873.1,1698.3z"/>
	<path id="path3161" inkscape:connector-curvature="0" class="st1" d="M2858.5,1708.3v41.7h6.2v-17.7h3.6c2.2,0,3.8,0.5,4.9,1.4
		c1.6,1.3,3.8,4.6,6.5,9.7l3.4,6.5h7.5l-4.6-8.2c-2.2-3.9-4.1-6.6-5.6-8.3c-0.8-0.9-1.9-1.6-3.2-2.2c3.3-0.3,5.9-1.6,7.9-3.8
		c2-2.3,3-4.9,3-7.9c0-2.2-0.6-4.2-1.8-6.1c-1.2-1.9-2.8-3.3-4.8-4.1c-2-0.8-5.3-1.2-9.7-1.2H2858.5L2858.5,1708.3z M2864.7,1714h7
		c3,0,5.1,0.2,6.2,0.7c1.1,0.5,2,1.2,2.6,2.2c0.6,1,0.9,2.1,0.9,3.3c0,1.9-0.6,3.5-1.9,4.6c-1.3,1.2-3.7,1.8-7.3,1.8h-7.5
		L2864.7,1714L2864.7,1714z"/>
</g>
</svg>
