<?xml version="1.0" encoding="utf-8"?>
<!-- Generator: Adobe Illustrator 22.1.0, SVG Export Plug-In . SVG Version: 6.00 Build 0)  -->
<svg version="1.1" id="Слой_1" xmlns="http://www.w3.org/2000/svg" xmlns:xlink="http://www.w3.org/1999/xlink" x="0px" y="0px"
	 viewBox="0 0 78 23" style="enable-background:new 0 0 78 23;" xml:space="preserve">
<style type="text/css">
	.st0{fill:#4C71A3;}
</style>
<path class="st0" d="M10.8,0.5c1.6,0,3.2,0.4,4.7,1.1C15.8,1.7,16,1.8,16.2,2l-1,0.9l-1.5-1.5l-2.5,2.2L9.7,1.9L5,6.1l3,3.3l-1.2,1
	l3,3.3l-1.2,1l4.2,4.6l2.5-2.3l2.2,2.4c-0.4,0.3-0.9,0.7-1.4,0.9c-1.6,0.9-3.4,1.4-5.3,1.4C4.9,21.8,0.1,17,0.1,11.2
	C0.1,5.3,4.9,0.5,10.8,0.5z M8.8,10.5l2.6-2.3l2.3,2.5L11.1,13L8.8,10.5z M10.7,14.9l2.5-2.3l2.3,2.5L13,17.4L10.7,14.9z M7,6.2
	l2.6-2.3l2.3,2.5L9.3,8.7L7,6.2z M11.7,4.9l1.9-1.7l1.7,1.9l-1.9,1.7L11.7,4.9L11.7,4.9z M15.1,12.8l1.9-1.7l1.7,1.9l-1.9,1.7
	C16.8,14.7,15.1,12.8,15.1,12.8z M16.8,16.6l1.9-1.7l1.7,1.9l-1.9,1.7L16.8,16.6z M17.6,7.8l1.3-1.1L20,7.9l-1.3,1.1L17.6,7.8
	L17.6,7.8z M15.9,4.1l1.3-1.2l1.2,1.3l-1.3,1.1C17.1,5.3,15.9,4.1,15.9,4.1z M19.2,11.6l1.3-1.1l1.2,1.3l-1.3,1.1L19.2,11.6z
	 M13.5,8.8l1.9-1.7L17.1,9l-1.9,1.7C15.2,10.6,13.5,8.8,13.5,8.8z"/>
<path class="st0" d="M26.8,5.9h1l1.6,6.1h0.1l1.2-6.1H32l-1.9,8.3h-1.3l-1.6-5.8h-0.1l-1.5,5.8h-1.2l-1.9-8.3h1.3l1.3,6.1h0.1
	L26.8,5.9z"/>
<path class="st0" d="M33.6,10.7h2.7c-0.1-1.2-0.7-1.7-1.3-1.7C34.3,8.9,33.8,9.5,33.6,10.7 M37.2,12.9v0.9c-0.5,0.3-1.2,0.5-2,0.5
	c-1.9,0-2.7-1.2-2.7-3c0-1.8,0.9-3,2.6-3c1.5,0,2.3,0.9,2.3,2.8v0.4h-3.8c0,1.4,0.6,2,1.8,2C36,13.4,36.6,13.2,37.2,12.9 M40.1,13.3
	c0.4,0.2,0.8,0.2,1.1,0.2c0.9,0,1.5-0.5,1.5-2.4c0-1.5-0.5-2-1.3-2c-0.5,0-0.8,0.1-1.3,0.4V13.3z M40.1,8.7c0.3-0.2,0.9-0.4,1.6-0.4
	c1.4,0,2.2,1,2.2,2.9c0,2.2-1,3.2-2.7,3.2c-0.6,0-1.6-0.2-2.3-0.6V5.7l1.2-0.3V8.7L40.1,8.7z M49.3,14.2h-0.7l-2.4-5.8h-0.1v5.8h-1
	V5.9h1.4l2.6,6.5h0.1l2.5-6.5h1.4v8.3h-1.3v-6h-0.1L49.3,14.2z M58.2,11.2c0-1.6-0.6-2.2-1.4-2.2c-0.8,0-1.4,0.7-1.4,2.2
	c0,1.6,0.6,2.2,1.4,2.2S58.2,12.8,58.2,11.2 M54.1,11.2c0-2,1.1-3,2.6-3s2.6,1,2.6,3c0,2-1.1,3-2.6,3C55.1,14.3,54.1,13.2,54.1,11.2
	 M60.3,9c0.5-0.3,1.6-0.9,3-0.9c1.4,0,1.9,0.5,1.9,1.7v4.2H64v-3.9c0-0.9-0.5-1.1-1-1.1c-0.5,0-1.1,0.2-1.4,0.4v4.6h-1.2L60.3,9
	L60.3,9z M67.7,10.7h2.7c-0.1-1.2-0.7-1.7-1.3-1.7C68.4,8.9,67.8,9.5,67.7,10.7 M71.3,12.9v0.9c-0.5,0.3-1.2,0.5-2,0.5
	c-1.9,0-2.7-1.2-2.7-3c0-1.8,0.9-3,2.6-3c1.5,0,2.3,0.9,2.3,2.8v0.4h-3.8c0,1.4,0.6,2,1.8,2C70.1,13.4,70.6,13.2,71.3,12.9
	 M76.3,8.2h1.2L75.4,14c-0.6,1.6-1.3,2.4-2.6,2.4v-1c0.8,0,1.3-0.6,1.5-1.5l-2.2-5.8h1.3l1.5,4.3h0.1L76.3,8.2L76.3,8.2z"/>
</svg>
