<?xml version="1.0" encoding="utf-8"?>
<!-- Generator: Adobe Illustrator 22.0.1, SVG Export Plug-In . SVG Version: 6.00 Build 0)  -->
<svg version="1.1" id="Слой_1" xmlns="http://www.w3.org/2000/svg" xmlns:xlink="http://www.w3.org/1999/xlink" x="0px" y="0px"
	 viewBox="0 0 365.6 432" style="enable-background:new 0 0 365.6 432;" xml:space="preserve">
<style type="text/css">
	.st0{fill:#FF8D2E;}
</style>
<path class="st0" d="M359.9,14.3c-3.7-5.3-8.7-9.2-15-11.7c-4-1.7-8.2-2.6-12.6-2.6l0,0H33.2c-4.4,0-8.6,0.9-12.6,2.6
	C14.3,5.1,9.3,9,5.6,14.3S0,25.5,0,32v368c0,6.5,1.9,12.4,5.6,17.7c3.7,5.3,8.7,9.2,15,11.7c4,1.7,8.2,2.6,12.6,2.6
	c8.9,0,16.8-3.1,23.7-9.4l125.9-121.1l125.9,121.1c6.7,6.1,14.6,9.1,23.7,9.1c4.8,0,8.9-0.8,12.6-2.3c6.3-2.5,11.3-6.4,15-11.7
	c3.7-5.3,5.6-11.2,5.6-17.7V32C365.5,25.5,363.7,19.6,359.9,14.3z"/>
</svg>
