<?xml version="1.0" encoding="utf-8"?>
<!-- Generator: Adobe Illustrator 22.0.1, SVG Export Plug-In . SVG Version: 6.00 Build 0)  -->
<svg version="1.1" id="Capa_1" xmlns="http://www.w3.org/2000/svg" xmlns:xlink="http://www.w3.org/1999/xlink" x="0px" y="0px"
	 viewBox="0 0 24.9 24.9" style="enable-background:new 0 0 24.9 24.9;" xml:space="preserve">
<style type="text/css">
	.st0{fill:#FF8D2E;}
</style>
<path class="st0" d="M15.4,12.4l8.8-8.8c0.4-0.4,0.6-0.9,0.6-1.5c0-0.6-0.2-1.1-0.6-1.5c-0.8-0.8-2.2-0.8-3,0l-8.8,8.8L3.6,0.6
	c-0.8-0.8-2.1-0.8-3,0c-0.8,0.8-0.8,2.2,0,3l8.8,8.8l-8.8,8.8c-0.8,0.8-0.8,2.2,0,3c0.4,0.4,0.9,0.6,1.5,0.6c0.5,0,1.1-0.2,1.5-0.6
	l8.8-8.8l8.8,8.8c0.8,0.8,2.2,0.8,3,0c0.4-0.4,0.6-0.9,0.6-1.5c0-0.6-0.2-1.1-0.6-1.5L15.4,12.4z"/>
</svg>
