<?xml version="1.0" encoding="utf-8"?>
<!-- Generator: Adobe Illustrator 22.0.1, SVG Export Plug-In . SVG Version: 6.00 Build 0)  -->
<svg version="1.1" id="Capa_1" xmlns="http://www.w3.org/2000/svg" xmlns:xlink="http://www.w3.org/1999/xlink" x="0px" y="0px"
	 viewBox="29.5 206.2 355 385.1" style="enable-background:new 29.5 206.2 355 385.1;" xml:space="preserve">
<style type="text/css">
	.st0{fill:#F9F9F9;stroke:#FFB600;stroke-width:7;stroke-miterlimit:10;}
	.st1{fill:#FF8D2E;}
	.st2{fill:#D1C9A6;}
	.st3{display:none;fill:#FF8D2E;}
	.st4{fill:#402810;}
</style>
<g>
	<path class="st0" d="M326.2,239.4H87.8c-30,0-54.8,24.8-54.8,54.8V533c0,30,24.8,54.8,54.8,54.8h238.4c30,0,54.8-24.8,54.8-54.8
		V294.6C381,264.2,356.6,239.4,326.2,239.4z"/>
	<path class="st1" d="M326.2,239.4H87.8c-30,0-54.8,24.8-54.8,54.8V337h348.4v-42.4C381,264.2,356.6,239.4,326.2,239.4z"/>
	<g>
		<circle class="st2" cx="102.6" cy="392.2" r="17.2"/>
		<circle class="st2" cx="172.2" cy="392.2" r="17.2"/>
		<circle class="st2" cx="241.8" cy="392.2" r="17.2"/>
		<circle class="st2" cx="311.4" cy="392.2" r="17.2"/>
		<circle class="st2" cx="102.6" cy="461.8" r="17.2"/>
		<circle class="st2" cx="172.2" cy="461.8" r="17.2"/>
		<circle class="st2" cx="241.8" cy="461.8" r="17.2"/>
		<circle class="st2" cx="311.4" cy="461.8" r="17.2"/>
		<circle class="st2" cx="102.6" cy="530.6" r="17.2"/>
		<circle class="st2" cx="172.2" cy="530.6" r="17.2"/>
		<circle class="st2" cx="241.8" cy="530.6" r="17.2"/>
	</g>
	<circle class="st3" cx="311.4" cy="530.6" r="33.6"/>
	<g>
		<path class="st4" d="M121.8,206.2c-4.4,0-8,3.6-8,8V265c0,4.4,3.6,8,8,8s8-3.6,8-8v-50.8C129.8,209.8,126.2,206.2,121.8,206.2z"/>
		<path class="st4" d="M292.2,206.2c-4.4,0-8,3.6-8,8V265c0,4.4,3.6,8,8,8s8-3.6,8-8v-50.8C300.2,209.8,296.6,206.2,292.2,206.2z"/>
	</g>
</g>
</svg>
