<?xml version="1.0" encoding="utf-8"?>
<!-- Generator: Adobe Illustrator 22.1.0, SVG Export Plug-In . SVG Version: 6.00 Build 0)  -->
<svg version="1.1" id="LOGO_BLECK_bg__x28_the_text_below_x29_"
	 xmlns="http://www.w3.org/2000/svg" xmlns:xlink="http://www.w3.org/1999/xlink" x="0px" y="0px" viewBox="0 0 835.3 843.6"
	 style="enable-background:new 0 0 835.3 843.6;" xml:space="preserve">
<style type="text/css">
	.st0{display:none;fill:#282828;}
	.st1{fill:#0C68CC;}
	.st2{fill:#FFFFFF;}
	.st3{fill:#6CC0F4;}
	.st4{fill:#8CAF30;}
	.st5{fill:#CCE74A;}
	.st6{fill:#EE6F03;}
	.st7{fill:none;}
	.st8{fill:#F89854;}
</style>
<rect x="-334.6" y="-250.1" class="st0" width="1505" height="1416"/>
<path id="_контур_синий" class="st1" d="M533.6,627.9c-25.3,7.3-55.5,12-92.9,12c-25.2,0-43.9-2.4-57.9-5.1h-0.1
	c-2.6-0.4-5-1-7.3-1.6c-0.1,0-0.2,0-0.3-0.1c-6.7-1.6-12-3.1-16.3-4.3c-24.1-7-53.8-19.6-82.9-37.7c-0.1,0-0.1-0.1-0.2-0.1l-4.7,2.4
	l-0.4,0.2c15.2,9.8,31.1,18.2,47.9,25.3c38.9,16.5,80.3,24.8,122.9,24.8c1.2,0,2.3,0,3.5,0c0.5,0,1,0,1.5,0c0.9,0,1.8,0,2.7-0.1
	c0.2,0,0.4,0,0.7,0c1.2,0,2.4-0.1,3.6-0.1h0.1c1.3,0,2.5-0.1,3.8-0.2c0.1,0,0.2,0,0.3,0c1.2-0.1,2.4-0.1,3.7-0.2c0.1,0,0.2,0,0.3,0
	c1-0.1,2-0.1,3-0.2c0.7,0,1.3-0.1,2-0.2c3.2-0.2,6.5-0.5,9.7-0.9c1-0.1,2-0.2,2.9-0.3c1-0.1,1.9-0.2,2.9-0.3c0.4,0,0.7-0.1,1.1-0.1
	c0.8-0.1,1.5-0.2,2.3-0.3c2.1-0.3,4.1-0.6,6.2-0.9c1-0.2,2-0.3,3.1-0.5c1-0.2,2-0.3,3.1-0.5c0,0,0,0,0.1,0c1.9-0.3,3.9-0.7,5.8-1.1
	c0.1,0,0.3-0.1,0.4-0.1c0.8-0.2,1.6-0.3,2.4-0.5c0.3,0,0.5-0.1,0.8-0.2c0.7-0.1,1.3-0.3,2-0.4c0.5-0.1,1.1-0.2,1.6-0.4
	c0.7-0.2,1.5-0.3,2.2-0.5c2-0.5,4-1,6.1-1.5c1-0.3,2-0.5,3-0.8s2-0.5,3-0.8c1.3-0.3,2.6-0.7,3.9-1.1s2.6-0.7,3.9-1.1
	c0.7-0.2,1.3-0.4,2-0.6c0.8-0.2,1.6-0.5,2.5-0.8c0.8-0.3,1.6-0.5,2.5-0.8c0.1,0,0.2-0.1,0.3-0.1
	C537.6,628.3,535.5,628.2,533.6,627.9z M595,60c-0.2,0-0.4,0.1-0.6,0.1c-0.4,0-0.8,0.1-1.2,0.1l0.1,0.1c0.6-0.1,1.2-0.2,1.8-0.2
	C595.1,60.1,595,60,595,60z M564.3,37C525.4,20.5,484,12.2,441.4,12.2c-1.5,0-2.9,0-4.4,0c-0.1,0-0.2,0-0.3,0c-1.3,0-2.5,0-3.8,0.1
	c-0.6,0-1.1,0-1.7,0.1c-0.7,0-1.4,0-2.1,0.1c-1.1,0-2.1,0.1-3.2,0.1c-0.2,0-0.4,0-0.7,0c-1,0-2,0.1-2.9,0.2c-0.6,0-1.3,0.1-1.9,0.1
	c-0.5,0-1,0.1-1.6,0.1c-0.9,0.1-1.9,0.1-2.8,0.2c-0.5,0-1,0.1-1.5,0.1c-1.3,0.1-2.5,0.2-3.8,0.3c-1.5,0.1-2.9,0.3-4.3,0.4
	c-2.9,0.3-5.8,0.7-8.7,1.1c-1.4,0.2-2.7,0.4-4.1,0.6c-0.3,0-0.6,0.1-0.9,0.1c-1.2,0.2-2.4,0.4-3.7,0.6s-2.7,0.5-4,0.7
	c-0.2,0-0.5,0.1-0.7,0.1c-1.1,0.2-2.2,0.4-3.3,0.6c-0.4,0.1-0.9,0.2-1.3,0.3c-0.8,0.2-1.7,0.3-2.5,0.5c-0.6,0.1-1.1,0.2-1.7,0.3
	c-1,0.2-2.1,0.4-3.1,0.7c-0.2,0-0.3,0.1-0.4,0.1c7.9-0.6,20.7-0.6,19.4,7c3.9-0.8,8-1.4,12.2-1.9c0.2,0,0.4-0.1,0.6-0.1
	c17-2.2,33.8-2.6,53.2-1.9c17.2,0.7,35.5,2.6,54.9,6.3c27.9,5.3,56,15.9,82.7,30.9c4.5-0.5,8.7-1.1,12-1
	C593.4,50.6,579.2,43.3,564.3,37z M172.2,483.1c-8.2-13.2-19.4-36.5-28-68.5c0-0.1-0.1-0.2-0.1-0.3c-0.1-0.2-0.1-0.4-0.2-0.5
	c0-0.1-0.1-0.3-0.1-0.4c0-0.1-0.1-0.2-0.1-0.3c-1.1-4.2-2.2-8.5-3.2-12.9c-0.5-2-0.9-4.2-1.3-6.5c0-0.1,0-0.1,0-0.2
	c-2.6-12.8-5.1-25.1-6.1-36.3c-1.5-18.1,0.1-37.4,2.3-57.9c-2.8-0.2-5.1-0.2-7.1,0.1c-0.1,0-0.2,0-0.3,0.1c-0.4,0.1-0.8,0.1-1.2,0.2
	c-0.1,0.7-0.1,1.3-0.2,2c0,0.5-0.1,1-0.1,1.5c-0.1,0.7-0.1,1.3-0.1,2c-0.1,0.8-0.1,1.6-0.2,2.4c0,0.5-0.1,1-0.1,1.5
	c0,0.6-0.1,1.2-0.1,1.8c-0.1,0.8-0.1,1.6-0.1,2.4c0,0.4,0,0.9-0.1,1.3c0,0.7-0.1,1.5-0.1,2.2s-0.1,1.5-0.1,2.2c0,0.6,0,1.2-0.1,1.8
	c0,0.2,0,0.4,0,0.6c-0.1,5-0.1,10.2,0.1,15.6c0,0.1,0,0.2,0,0.2c0,1.2,0.1,2.4,0.1,3.6c0,0.1,0,0.3,0,0.4c0.1,2.4,0.2,4.7,0.4,7
	c0.1,1.8,0.2,3.7,0.4,5.5c0.1,1.8,0.3,3.7,0.5,5.5c0.1,1.2,0.2,2.4,0.4,3.6c0.1,1.2,0.3,2.4,0.4,3.5v0.1c0.1,1.1,0.3,2.2,0.4,3.3
	c0,0.1,0,0.3,0.1,0.4c0.1,1.2,0.3,2.3,0.5,3.5c0.1,1,0.3,2.1,0.5,3.1c0,0.3,0.1,0.6,0.1,0.9c0.2,1.1,0.3,2.1,0.5,3.2
	c0.2,1.2,0.4,2.4,0.6,3.6c0.2,1.1,0.4,2.3,0.6,3.4c0,0.2,0.1,0.5,0.1,0.7c0.2,1,0.4,1.9,0.6,2.9c1.2,6,2.6,12,4.2,17.9
	c0.2,0.7,0.4,1.4,0.6,2.2c0.2,0.6,0.3,1.2,0.5,1.9c0.3,1,0.6,2,0.9,3c0.3,0.9,0.5,1.9,0.8,2.8c0.5,1.6,1,3.2,1.5,4.8
	c0.2,0.6,0.4,1.2,0.6,1.8c0.3,0.9,0.6,1.8,0.9,2.6c0.1,0.2,0.2,0.5,0.2,0.7c0.2,0.7,0.5,1.4,0.7,2.2c0.2,0.6,0.4,1.1,0.6,1.6
	c0.4,1.1,0.8,2.1,1.1,3.2c0.4,1.1,0.8,2.1,1.2,3.2c0.3,0.8,0.6,1.7,1,2.5c0.3,0.7,0.6,1.4,0.8,2.2c0.9,2.3,1.8,4.6,2.8,6.9
	c5.2,12.2,11,24,17.6,35.3l0.7-0.2l4.1-2C172.6,483.8,172.4,483.4,172.2,483.1z"/>
<path class="st2" d="M171.4,569.9c-2.2,0-4.3-1.2-5.3-3.3c-1.4-2.9-0.2-6.5,2.7-7.9l163.1-79c2.9-1.4,6.5-0.2,7.9,2.7
	s0.2,6.5-2.7,7.9l-163.1,79C173.2,569.7,172.3,569.9,171.4,569.9z"/>
<g id="Вода">
	<path class="st3" d="M607.1,455.3c-0.2-3.9-2.8-9.9-5.5-15.2V440c-1.3-2-2.5-3.8-3.7-5.3l-0.9,0.4l-146,70.8c0,0-3.9,1.6-7.1,1.6
		s-5.5-0.8-5.5-0.8l-0.4-0.2l-0.2-0.1l-24.4,11.7c0.3,0.6,0.4,1.2,0.5,1.8c0,0.1,0,0.2,0,0.3s0,0.1,0,0.2c0,0.4,0,0.8-0.1,1.2
		c0,0.1,0,0.1,0,0.2c0,0,0,0,0,0.1s-0.1,0.3-0.1,0.4v0.1c0,0.1-0.1,0.3-0.2,0.4c-0.1,0.1-0.1,0.3-0.2,0.4c0,0.1-0.1,0.2-0.2,0.3
		c-0.1,0.1-0.1,0.2-0.2,0.3c0,0,0,0.1-0.1,0.1c-0.2,0.3-0.5,0.6-0.7,0.9c-0.1,0.1-0.1,0.1-0.2,0.2c-0.4,0.4-0.9,0.8-1.5,1l-14.1,6.8
		l-18.2,8.8l0,0c-1.3,1.6-2.5,3.2-3.7,4.6c-4.8,6.2-16.1,16.9-20.3,38c-3.8,19.1,10.2,27.1,1.7,32.1c0,0-0.1,0-0.1,0.1
		c-5.3,2.8-42.1-6.4-60.8-27.1c-1.6-1.8-3.2-3.5-4.9-5.1l-13.7,6.6l-0.4,0.2c29.1,18.1,58.8,30.8,82.9,37.7
		c4.3,1.2,9.6,2.8,16.3,4.3c0.1,0,0.2,0,0.3,0.1c2.3,0.5,4.7,1.1,7.3,1.6h0.1c13.9,2.7,32.6,5.1,57.9,5.1c37.4,0,67.6-4.7,92.9-12
		c-0.1,0-0.2,0-0.3,0c-0.6-0.1-1.1-0.3-1.5-0.6l0,0c-2.9-2.1-2.3-8.5-2.3-8.5s0,0,0.1,0.1c0.2-0.9,0.7-1.9,1.5-3.1l0,0
		c0.6-0.8,1.4-1.7,2.4-2.7c1.1-1.2,2.2-2.3,3.4-3.5c3.5-3.4,7.7-6.8,12-10.2l0,0l0,0l0,0l0,0l3.8-3c0.4-0.3,0.8-0.7,1.3-1l0,0
		c2-1.9,4.1-3.8,6.3-5.9c13.7-12.6,36.4-49.9,24.5-80.3c-6.6-17,4.8-30,15.2-40.6C603.4,465.2,607.2,459.6,607.1,455.3z
		 M662.9,281.7c-13.6-10.7-12.6-30.1-27.4-37.1c-6.6-3.1-12.1-3.9-16.6-3.9c-4.8,0-8.4,1-10.9,1.1c-0.2,0-0.4,0-0.7,0
		c-6.2-0.3-16.3-8.7-9.7-22.9c4.1-8.8,14.9-17.9,21.2-38c3.1-9.7-1.7-16.2-2.3-22c0-0.2,0-1.5-0.8-3c-0.6-1.2-1.5-2.3-3-3
		s-3.7-0.8-3.8-0.8s-0.2,0-0.4,0c-1.3,0.1-3,0.1-5,0.1c-4.9,0-11.4-0.3-17.3-1.6c-11.7-2.6-24.2-3.3-30.4-8.4
		c-14.8-12.2-22.3-39.3-11.9-57.8c1.2-2.1,2.6-4.2,4.3-6c9-10,29.1-15.9,45.1-18c0.6-0.1,1.2-0.2,1.8-0.2c0,0-0.1,0-0.1-0.1
		c-26.7-15-54.8-25.6-82.7-30.9c-19.3-3.6-37.7-5.6-54.9-6.3c-19.4-0.7-36.2-0.4-53.2,1.9c-0.2,0-0.4,0.1-0.6,0.1
		c-4,0.5-8.1,1.2-12.2,2l-4.7,8.5l0,0l-0.3,0.5l0,0c0,0-0.1,0.1-0.2,0.2l-0.1,0.1l-0.1,0.1c-0.1,0.2-0.3,0.4-0.5,0.6
		c-0.6,0.7-1.3,1.5-1.8,1.9c-0.1,0.1-0.1,0.1-0.2,0.2l-0.1,0.1c-2.2,1.7-5.4,3.6-9.1,5.3c-0.3,0.1-0.5,0.2-0.8,0.3
		c-0.3,0.1-0.6,0.2-0.8,0.4c-0.6,0.3-1.3,0.5-2,0.8c-0.1,0-0.1,0-0.1,0c-4.7,1.9-10.1,3.4-15.3,4.1c-4.6,0.6-41.1,11.7-18,32.5
		c8.7,7.8,36.9,20.4,57.3,20.4c20.3,0,38.7-8.4,53.2-4.5c20.9,5.6,14.2,45.6,9.4,58.3c-0.9,2.5-3.3,6.3-9.2,10.3l150.1,72.8
		c1.8,0.8,3,2.6,3.1,4.6V329c1,0.4,1.8,0.8,2.4,0.9c1.6,0.5,3.7-0.2,4.7-1.4c4.8-5.2,15.1-21.6,23.5-14.5c1.9,1.6,3.7,3.3,5.4,4.9
		C635,306.5,642.7,286.3,662.9,281.7z M578.1,209l-24.6-11.9l-3.1-1.5c0.2,0.5,0.3,1,0.5,1.5c2.7,7,6.6,14.1,14.7,16
		c5.1,1.2,9.7-0.7,13.6-3.5L578.1,209z M566,150.8c-4-2.8-8-0.9-10.6,2.5l-2.5,2.3l1.1-0.1l11.7-0.7l4.5-0.3
		C568.4,152.7,566.8,151.4,566,150.8z M222.4,338.5c-2.8-3-6.8-7.7-8.1-9.7c-7.2-11.4-10.7-20.4-13.1-33.6c-0.5-0.3-1.1-0.6-1.6-0.9
		c-8.2-5-19.7-0.8-29.9,2.9c-8.1,2.9-11.2,6.1-21.2,4c-5.3-1.1-9.5-1.8-13.1-2c-2.2,20.5-3.9,39.8-2.3,57.9
		c1.1,11.3,3.5,23.6,6.1,36.3c0,0.1,0,0.1,0,0.2c0.5,2.2,0.9,4.4,1.4,6.6c1,4.4,2,8.7,3.1,12.8c0,0.1,0,0.2,0.1,0.3
		c0,0.1,0.1,0.3,0.1,0.4c0,0.2,0.1,0.4,0.2,0.5c0,0.1,0.1,0.2,0.1,0.3c8.6,32,19.8,55.3,28,68.5c0.2,0.3,0.4,0.6,0.5,0.9l0,0
		l0.1,0.1l37.2-17.8c-5.7-12.2-12.6-18.6-13-29.1c-0.5-14.1,21.2-19.7,18.9-35.7c-2.9-20.7-35.3-26.7-34-43.1
		c1.1-13.8,25.9-9.5,36.8-12.8C220.8,344.6,223.7,342.5,222.4,338.5z M366.8,187.7c-10.2,1.6-33.6,15.3-43.1,26.2
		c-17.8,20.3-29.8-4.5-41.4-8.5c-12.8-4.4-26.6-1.9-37.4,3.7c-0.5,0.6-1.1,1.2-1.8,1.7c-12,9.4-14.4,21.6-13.7,31.4
		c6.4,1.9,12.6,4.1,17.9,6.8c1.2,0.6,2.4,1.3,3.5,1.9c4.3-3.1,14.6-3.7,18.5,1.5c2.1,2.8,3.8,7.7,3.9,12.1c0,0,0,0,0,0.1
		c0.5,4.4-0.3,9.1-2.9,11.8c-1.3,1.4-3,2.6-5,3.5c-1.7,6.7-7.7,15-18,20c-6.6,3.1-13.3,4.1-19.6,3.8c0.2,1.6,0.5,3.1,1,4.5
		c2.7,6.9,12.8,12.1,21.8,14.2c1.8-0.8,3.8-1.8,5.9-2.8c0.6-0.3,1.2-0.6,1.9-0.9c3-1.5,6.2-3.1,9.8-4.6c1.1-0.5,2.3-1,3.4-1.4
		c1.4-0.6,2.9-1.1,4.4-1.6c0.2-0.1,0.5-0.2,0.7-0.2c1.3-0.4,2.6-0.8,3.9-1.2c0.5-0.1,0.9-0.2,1.4-0.4c1.3-0.3,2.7-0.7,4.1-0.9v-62.9
		l0,0c0-0.5,0-1.2,0.3-1.9c0.1-0.2,0.1-0.4,0.2-0.5c0-0.1,0.1-0.2,0.1-0.2c0-0.1,0.1-0.2,0.1-0.2c0.7-1.4,4-2.9,4-2.9l108.7-52.7
		C388.4,186,377.3,186,366.8,187.7z"/>
</g>
<g id="Земля">
	<path class="st4" d="M728.1,460.5c-0.5,1.1-1,2.2-1.6,3.3c-0.3,0.5-0.5,1.1-0.8,1.6c-0.9,1.9-1.8,3.8-2.8,5.7
		c-0.2,0.5-0.5,1-0.7,1.5c0,0.1-0.1,0.1-0.1,0.2c-0.7,1.3-1.3,2.6-2,3.8c-3.1,5.9-6.5,11.6-9.9,17.3c-0.3,0.6-0.7,1.1-1.1,1.7
		c-1.9,3-3.8,6-5.8,8.9c-0.7,1-1.3,2-2,3s-1.4,2.1-2.2,3.1c-0.7,1-1.5,2.1-2.2,3.1c-1.5,2-3,4.1-4.5,6.1c-0.8,1-1.5,2-2.3,3
		c-0.3,0.4-0.7,0.9-1,1.3c0,0,0,0,0,0.1c0,0,0,0.1-0.1,0.1l-0.1,0.1c-0.2,0.2-0.4,0.5-0.6,0.7c-0.1,0.1-0.2,0.2-0.2,0.3
		c0,0,0,0.1-0.1,0.1c-0.1,0.1-0.1,0.1-0.2,0.2c-0.2,0.2-0.4,0.5-0.6,0.7c-0.2,0.2-0.4,0.5-0.6,0.7c-0.2,0.3-0.5,0.6-0.7,0.9
		c-1,1.2-2,2.4-3,3.6c-0.7,0.9-1.5,1.7-2.2,2.6c-0.7,0.9-1.5,1.7-2.2,2.5c0,0,0,0,0,0.1l0,0c-0.3,0.3-0.6,0.7-0.9,1
		c-0.7,0.8-1.5,1.6-2.2,2.4c-1.7,1.9-3.4,3.8-5.2,5.6c-0.4,0.4-0.8,0.9-1.3,1.3c-0.4,0.4-0.8,0.9-1.3,1.3c-0.1,0.1-0.2,0.2-0.2,0.3
		c-0.4,0.4-0.9,0.9-1.3,1.3c-0.4,0.4-0.9,0.9-1.3,1.3c-0.9,0.9-1.9,1.9-2.8,2.8c-0.9,0.9-1.9,1.8-2.8,2.7c-0.4,0.4-0.8,0.7-1.2,1.1
		c-0.8,0.8-1.7,1.6-2.6,2.4c-1.1,1-2.1,1.9-3.2,2.9c-1.7,1.6-3.5,3.1-5.2,4.6c-0.7,0.6-1.5,1.2-2.2,1.9c-1.7,1.4-3.4,2.8-5,4.2
		c-0.8,0.7-1.7,1.4-2.5,2c-0.6,0.5-1.2,1-1.8,1.4c-0.1,0.1-0.2,0.2-0.3,0.2c-0.6,0.4-1.1,0.9-1.7,1.3c-0.1,0.1-0.3,0.2-0.4,0.3
		c-0.4,0.3-0.9,0.7-1.3,1c-0.5,0.4-1,0.7-1.5,1.1c-0.4,0.3-0.9,0.7-1.3,1c-0.8,0.6-1.7,1.2-2.5,1.8c-0.6,0.4-1.2,0.8-1.7,1.3
		c-2.4,1.7-4.9,3.4-7.3,5.1c-0.6,0.4-1.2,0.8-1.8,1.2c-1.4,0.9-2.7,1.8-4.1,2.7c-0.4,0.2-0.8,0.5-1.1,0.7c-0.4,0.2-0.8,0.5-1.1,0.7
		c-0.9,0.6-1.8,1.1-2.7,1.7c-6.9,4.3-14,8.2-21.3,11.9c-0.8,0.4-1.5,0.8-2.3,1.1c-2.3,1.1-4.6,2.3-7,3.4c-0.7,0.3-1.5,0.7-2.2,1
		c-3.1,1.4-6.1,2.8-9.3,4.1c-0.9,0.4-1.8,0.8-2.8,1.2c-0.6,0.3-1.3,0.5-1.9,0.8c-0.7,0.3-1.5,0.6-2.2,0.9c-0.3,0.1-0.6,0.2-0.9,0.4
		c-1,0.4-1.9,0.7-2.9,1.1c-0.5,0.2-1,0.4-1.6,0.6c-0.4,0.2-0.9,0.3-1.3,0.5c-0.1,0.1-0.2,0.1-0.4,0.1c-0.8,0.3-1.6,0.6-2.5,0.9
		c-0.1,0.1-0.3,0.1-0.4,0.2c-0.8,0.3-1.6,0.6-2.4,0.9c-1.8,0.6-3.6,1.2-5.3,1.8l0,0l0,0c-2.1,0.1-4.2,0.1-6.1-0.2
		c-0.1,0-0.2,0-0.3,0c-0.6-0.1-1.1-0.3-1.5-0.6l0,0c-2.9-2.1-2.3-8.5-2.3-8.5s0,0,0.1,0.1l0,0c0.2,0.2,0.6,0.7,1.5,1.1
		c2.7,1.2,9.9,1.9,27.9-5.8c26.5-11.3,64.7-30.9,83.2-46c18.9-15.3,33-25.6,74.9-89.4C721.1,472.8,724.7,466.8,728.1,460.5z"/>
	<path class="st4" d="M608.7,458.7c-3.4,11.8-24,20.6-17.3,46.4c9.7,37.3-10.6,68.6-29.2,83.8c-2.5,2.1-5.3,4.2-8.1,6.4
		c2-1.9,4.1-3.8,6.3-5.9c13.7-12.6,36.4-49.9,24.5-80.3c-6.6-17,4.8-30,15.2-40.6c3.2-3.2,7.1-8.8,6.9-13.1
		c-0.2-3.9-2.8-9.9-5.5-15.2v-0.1c-1.3-2-2.5-3.8-3.7-5.3l0.1-0.1l0.2-0.1c0.1,0,0.1-0.1,0.2-0.1c0,0,0.1,0,0.1-0.1
		c0.2,0.2,0.6,0.6,1.2,1.1c0.3,0.5,0.7,1,1.1,1.6c0,0,0,0,0,0.1C605.5,444.3,610.2,453.4,608.7,458.7z"/>
	<path class="st4" d="M228.6,308.1c-0.5-1.4-0.8-2.9-1-4.5c-0.8,0-1.6-0.1-2.4-0.2c1.2,12,9.5,20.1,18.2,20.8c1.7,0.1,4-0.6,7-1.9
		C241.4,320.2,231.3,315,228.6,308.1z M227,225.2c-3.2,6.3-4.1,11.4-3.6,15.4c2,0.5,3.9,1.1,5.9,1.6c-0.7-9.8,1.7-21.9,13.7-31.4
		c0.7-0.5,1.3-1.1,1.8-1.7C236.5,213.4,229.9,219.3,227,225.2z M372,19.8c-0.1,0-0.2,0-0.3,0.1c-0.5,0.1-1,0.2-1.5,0.3
		c-1,0.2-2.1,0.5-3.1,0.7H367c-1,0.2-1.9,0.5-2.9,0.7c-0.6,0.2-1.2,0.3-1.8,0.5c-1.8,0.5-3.6,1-5.5,1.5c-0.1,0-0.1,0-0.2,0
		c-0.9,0.2-1.7,0.5-2.6,0.7c-0.1,0-0.1,0-0.2,0c-1.6,0.5-3.1,0.9-4.7,1.4c-1.2,0.3-2.3,0.7-3.5,1.1c-0.8,0.3-1.6,0.5-2.5,0.8
		c-2.2,0.7-4.4,1.5-6.6,2.2c-1.1,0.4-2.3,0.8-3.4,1.2c-1.2,0.4-2.5,0.9-3.7,1.4c-0.1,0-0.2,0.1-0.2,0.1c-1.1,0.4-2.1,0.8-3.2,1.2
		c-0.9,0.4-1.9,0.7-2.8,1.1c-0.6,0.2-1.2,0.5-1.8,0.7c-1,0.4-1.9,0.8-2.9,1.2c-37.6,15.9-71.4,38.7-100.4,67.7
		c-0.7,0.7-1.4,1.4-2.1,2.1c-0.4,0.4-0.9,0.9-1.3,1.3c-0.7,0.7-1.3,1.4-2,2.1s-1.3,1.4-2,2.1c-1.1,1.2-2.2,2.3-3.3,3.5
		c-0.7,0.7-1.3,1.5-2,2.2c-0.3,0.4-0.7,0.8-1,1.2c-0.7,0.8-1.4,1.6-2,2.3c-0.7,0.8-1.4,1.6-2.1,2.5c-1.1,1.2-2.1,2.5-3.1,3.8
		c-0.7,0.8-1.4,1.7-2.1,2.5c-1,1.2-2,2.5-3,3.8c-0.6,0.7-1.1,1.5-1.7,2.2c-0.8,1-1.5,2-2.3,3s-1.5,2-2.3,3.1c-0.7,1-1.4,1.9-2.1,2.9
		c-0.1,0.2-0.2,0.3-0.3,0.5c-0.7,0.9-1.3,1.9-2,2.8c-0.7,1-1.4,2.1-2.1,3.1c-0.5,0.8-1.1,1.6-1.6,2.4c-0.4,0.6-0.8,1.2-1.2,1.8
		c-0.5,0.8-1,1.5-1.5,2.3c-0.4,0.7-0.9,1.4-1.3,2c-1,1.6-2,3.2-3,4.8c-0.4,0.7-0.8,1.4-1.3,2.1c-1.3,2.2-2.6,4.4-3.9,6.7
		c-0.5,0.8-0.9,1.6-1.4,2.5c-0.5,0.8-0.9,1.7-1.4,2.5c1.1,0.8,4.6,3.4,7.7,4.9c0.2,0.1,0.5,0.2,0.7,0.3c6.6,2.8,15.9,5.6,21.8,2.6
		c14.7-7.6,14.7-9.2,43.3-11.1c29-1.9,30.3-22.1,43.1-36.4c23.8-26.8,15.9-41.4,6.5-45.9c-0.4-0.2-0.9-0.4-1.3-0.6
		c-0.6-0.3-1.1-0.6-1.7-0.9c-0.2-0.1-0.4-0.2-0.6-0.3c-0.4-0.2-0.7-0.4-1.1-0.7c-0.2-0.1-0.3-0.2-0.5-0.3c-0.2-0.1-0.3-0.2-0.4-0.3
		c-0.1-0.1-0.3-0.2-0.4-0.3c-8.5-6.4-6.8-13.8-1.1-20.9c0.2-0.2,0.4-0.5,0.6-0.7c0.1-0.1,0.2-0.2,0.3-0.4c0.1-0.1,0.2-0.2,0.3-0.4
		c3.2-3.4,8-6.7,14.8-10.6c22.2-12.7,45.2-21.3,64.1-23.5c12.1-1.5,14.4-1.5,25.5,0.6c0.1,0,0.3,0.1,0.4,0.1h0.1h0.1
		c0.9,0.3,1.5,0.7,1.3,1.3l4.7-8.5l0,0C392.7,19.2,379.9,19.1,372,19.8z M367.8,546.6L367.8,546.6c-8.4,11.1-16,24.9-17.9,36.9
		c-2.5,15.2,9.9,30.5,5.9,33c8.5-5.1-5.5-13-1.7-32.1c4.2-21.1,15.5-31.8,20.3-38c1.1-1.5,2.4-3,3.7-4.6l0,0l0,0L367.8,546.6z
		 M240.6,398.6c5.6-14,7.2-10.8,13.5-18.8c7.3-9.1,4.8-28.7-12.7-31.9c-5.8-1.1-12.9-3.5-17.3-7.7c-0.5-0.5-1.1-1-1.7-1.7
		c1.3,4-1.6,6.1-3.7,7c-10.9,3.3-35.7-1-36.8,12.8c-1.3,16.4,31.1,22.4,34,43.1c2.2,16-19.4,21.7-18.9,35.7
		c0.3,10.5,7.2,16.9,13,29.1l47.8-22.9c1.7-0.8,3.6-0.8,5.2,0C248.5,433.3,231.2,422,240.6,398.6z M264.5,444.4
		c0.1,0.1,0.2,0.2,0.3,0.4c0.4,0.4,0.7,0.8,0.9,1.4c0.1,0.1,0.1,0.2,0.2,0.4l0.5-0.3l0.4-0.2C266.1,445.5,265.3,444.9,264.5,444.4z"
		/>
	<path class="st4" d="M614.6,154.8L614.6,154.8C614.6,154.8,614.6,154.7,614.6,154.8c-0.5-0.8-1.3-1.3-2-1.7l0,0
		c-1.2-0.6-2.4-0.8-3.2-0.8c0.9,0.2,2.1,0.5,3.4,1.4c1.8,1.2,2.6,3.6,2.9,4.7C615.6,157.4,615.4,156.1,614.6,154.8z M749.9,260
		c-0.2-0.9-0.4-1.8-0.6-2.7c-0.2-0.9-0.4-1.8-0.6-2.7c0-0.1,0-0.2-0.1-0.3c0-0.1-0.1-0.3-0.1-0.4c-0.2-0.9-0.4-1.8-0.7-2.7
		c-0.2-0.7-0.3-1.4-0.5-2.1c-0.2-0.6-0.3-1.2-0.5-1.7c-0.2-0.9-0.5-1.8-0.7-2.7c-0.3-1-0.6-2-0.8-3c-0.3-1-0.6-2.1-0.9-3.1
		c-0.3-1-0.6-2.1-0.9-3.1c-0.3-0.9-0.6-1.8-0.8-2.7c-0.1-0.2-0.1-0.4-0.2-0.6c-0.3-0.9-0.6-1.9-0.9-2.8c-0.2-0.6-0.4-1.2-0.6-1.8
		c-0.3-0.9-0.6-1.8-0.9-2.7c0-0.1-0.1-0.3-0.1-0.4c-0.1-0.4-0.3-0.8-0.4-1.2c-0.3-0.9-0.6-1.8-1-2.7c0-0.1-0.1-0.2-0.1-0.3
		c-0.2-0.5-0.4-1-0.5-1.5c0-0.1-0.1-0.2-0.1-0.3c-0.2-0.6-0.5-1.3-0.7-1.9c-0.1-0.3-0.3-0.7-0.4-1v-0.1l0,0l0,0
		c-0.2-0.5-0.3-0.9-0.5-1.4c-0.4-1-0.8-2-1.2-3c-0.3-0.7-0.5-1.3-0.8-2c-0.5-1.3-1.1-2.7-1.7-4c-15.9-37.6-38.7-71.4-67.7-100.4
		c-1-1-2-2-3.1-3c-0.3-0.3-0.7-0.7-1-1c-0.7-0.7-1.4-1.4-2.1-2c-0.2-0.2-0.4-0.4-0.6-0.6c-0.8-0.8-1.6-1.5-2.5-2.3
		c-0.5-0.4-0.9-0.9-1.4-1.3c-0.9-0.8-1.8-1.6-2.7-2.4c-0.8-0.7-1.6-1.4-2.4-2.1c-1.6-1.4-3.1-2.7-4.7-4c-1-0.8-2-1.7-3-2.5
		c-0.1-0.1-0.3-0.2-0.4-0.3c-0.8-0.7-1.7-1.4-2.5-2c-0.5-0.4-0.9-0.7-1.4-1.1c-0.6-0.4-1.1-0.9-1.7-1.3c-0.7-0.6-1.4-1.1-2.1-1.7
		c-1-0.8-2-1.5-3-2.3c-2.1-1.6-4.2-3.1-6.4-4.6c-0.8-0.6-1.6-1.1-2.4-1.7c-0.2-0.1-0.4-0.3-0.6-0.4c-0.8-0.6-1.7-1.2-2.5-1.7
		c-0.9-0.6-1.8-1.2-2.7-1.8c-0.9-0.6-1.8-1.2-2.8-1.8c-1.5-1-2.9-1.9-4.4-2.8c-0.4-0.2-0.8-0.5-1.2-0.7c-3.4-0.1-7.5,0.5-12,1
		c-0.2,0-0.4,0.1-0.6,0.1c-0.4,0-0.8,0.1-1.2,0.1l0.1,0.1c-16,2.1-36,7.9-45.1,18c-1.7,1.9-3.1,3.9-4.3,6
		c-10.4,18.5-2.9,45.6,11.9,57.8c6.2,5.2,18.7,5.9,30.4,8.4c5.9,1.3,12.5,1.6,17.3,1.6c1.9,0,3.4-0.1,4.6-0.1c0,0,0.2,0,0.4,0
		c0.1,0,0.3,0,0.4,0c0.1,0,2.3,0,3.8,0.8s2.4,1.9,3,3c0.8,1.5,0.7,2.9,0.8,3c0.6,5.8,5.4,12.3,2.3,22c-6.4,20.1-17.1,29.2-21.2,38
		c-6.6,14.2,3.5,22.6,9.7,22.9c2.6-0.1,6.5-1.2,11.6-1.1c4.5,0,10,0.8,16.6,3.9c14.8,7,13.8,26.4,27.4,37.1l0,0c2.5-0.6,5.2-0.9,8-1
		c8.1-0.2,15.1-1.6,21.3-3.5l0,0c7.7-2.5,14.3-5.9,20.3-9.1c9.7-5.1,18-9.4,27.4-7.3c4.3,1,7.6,1.6,10.5,1.9
		C750.3,261.8,750.1,260.9,749.9,260z"/>
	<path class="st5" d="M349.8,583.5c2-12,9.6-25.8,17.9-36.9l-77.8,37.7c1.7,1.6,3.3,3.3,4.9,5.1c18.7,20.7,55.5,29.9,60.8,27.1
		c0,0,0.1,0,0.1-0.1C359.7,613.9,347.3,598.7,349.8,583.5z M288.9,434.4c-1.8-0.9-3.1-2.8-3.1-4.8V308.2c-1.4,0.3-2.7,0.6-4.1,0.9
		c-0.5,0.1-0.9,0.2-1.4,0.4c-1.3,0.4-2.7,0.8-3.9,1.2c-0.2,0.1-0.5,0.2-0.7,0.2c-1.5,0.5-2.9,1-4.4,1.6c-1.2,0.5-2.3,0.9-3.4,1.4
		c-3.5,1.5-6.8,3.1-9.8,4.6c-0.6,0.3-1.3,0.6-1.9,0.9c-2.2,1.1-4.2,2-5.9,2.8c-2.9,1.3-5.3,2.1-7,1.9c-8.7-0.7-17-8.8-18.2-20.8
		c-8.5-0.9-16.2-4-21.9-7.1c-0.7-0.4-1.5-0.8-2.1-1.2c2.4,13.2,5.9,22.2,13.1,33.6c1.3,2.1,5.3,6.7,8.1,9.7c0.6,0.7,1.2,1.2,1.7,1.7
		c4.3,4.2,11.5,6.6,17.3,7.7c17.5,3.2,20,22.8,12.7,31.9c-6.4,8-8,4.8-13.5,18.8c-9.4,23.5,7.9,34.8,22.5,44.8c0.5,0.3,1,0.7,1.4,1
		l0,0c0.8,0.5,1.6,1.1,2.3,1.6l0,0l23.1-11.2L288.9,434.4z M447.9,98.7c-14.5-3.9-32.9,4.5-53.2,4.5c-20.4,0-48.7-12.6-57.3-20.4
		c-23.1-20.9,13.4-32,18-32.5c5.2-0.7,10.6-2.2,15.3-4.1h0.1c0.7-0.3,1.3-0.5,2-0.8c0.3-0.1,0.6-0.2,0.8-0.4
		c0.3-0.1,0.5-0.2,0.8-0.3c3.8-1.7,7-3.6,9.1-5.3l0.1-0.1l0.2-0.1l0.1-0.1l0.7-0.6l1-1.3c0.2-0.2,0.4-0.4,0.5-0.6l0.1-0.1l0.1-0.1
		c0.1-0.1,0.2-0.2,0.2-0.2l0,0c0.2-0.2,0.3-0.4,0.3-0.6l0,0c0.1-0.6-0.4-1-1.3-1.3h-0.1h-0.1c-0.1,0-0.3-0.1-0.4-0.1
		c-11.1-2.1-13.4-2-25.5-0.6c-18.9,2.3-41.9,10.8-64.1,23.5c-6.8,3.9-11.6,7.2-14.8,10.6c-0.1,0.1-0.2,0.2-0.3,0.4
		c-0.1,0.1-0.2,0.2-0.3,0.4c-0.2,0.2-0.4,0.5-0.6,0.7c-5.7,7-7.4,14.5,1.1,20.9c0.1,0.1,0.3,0.2,0.4,0.3c0.1,0.1,0.3,0.2,0.4,0.3
		c0.2,0.1,0.3,0.2,0.5,0.3c0.3,0.2,0.7,0.4,1.1,0.7c0.2,0.1,0.4,0.2,0.6,0.3c0.5,0.3,1.1,0.6,1.7,0.9c0.4,0.2,0.8,0.4,1.3,0.6
		c9.5,4.5,17.3,19.1-6.5,45.9c-12.8,14.3-14,34.6-43.1,36.4c-28.6,1.8-28.6,3.4-43.3,11.1c-5.9,3-15.2,0.2-21.8-2.6
		c-0.2-0.1-0.5-0.2-0.7-0.3c-3.2-1.5-6.6-4.1-7.7-4.9c-0.1,0.1-0.1,0.3-0.2,0.4c-0.4,0.7-0.7,1.4-1.1,2.1c-0.5,1-1.1,2-1.6,3
		c-0.6,1.1-1.1,2.3-1.7,3.4c-0.4,0.8-0.8,1.6-1.2,2.5c0,0,0.1,0,0.1,0.1c0.3,0.2,0.5,0.4,0.8,0.6c0,0,0,0,0.1,0
		c0.1,0.1,0.1,0.1,0.2,0.2c2.5,2.1,4.5,4.5,6.1,7c2.7,4.2,4.3,8.8,5.8,13c2.2,6.3,4.3,12.3,9.6,16.5c1.6,1.3,4,2.4,7,3.5
		c5.9,2.2,14,4,22,5.9c4.8,1.1,9.7,2.3,14.7,3.6c-0.4-4,0.5-9.1,3.6-15.4c2.9-5.8,9.4-11.8,17.7-16.1c10.8-5.5,24.6-8.1,37.4-3.7
		c11.6,4,23.7,28.8,41.4,8.5c9.6-11,33-24.6,43.1-26.2c10.5-1.7,21.6-1.7,32.5-0.9l42.2-20.5c0.7-0.3,1.5-0.5,2.4-0.5
		c0.8,0,1.6,0.2,2.4,0.5l1.9,0.9c5.9-4,8.3-7.8,9.2-10.3C462,144.3,468.8,104.2,447.9,98.7z"/>
	<path class="st5" d="M757.1,332.5c0,1.4,0,2.7-0.1,4.1c0,0.2,0,0.4,0,0.6c0,1.3-0.1,2.5-0.1,3.8c0,0.3,0,0.7,0,1
		c0,0.8-0.1,1.6-0.1,2.4c0,1-0.1,2-0.2,2.9c0,0.4,0,0.8-0.1,1.2c0,0.8-0.1,1.6-0.2,2.3c-0.1,0.8-0.1,1.7-0.2,2.5
		c0,0.5-0.1,1-0.1,1.5c-0.1,1.2-0.2,2.4-0.3,3.5c0,0.1,0,0.3,0,0.4c-0.1,0.9-0.2,1.9-0.3,2.8c-0.1,0.6-0.1,1.3-0.2,1.9
		c-0.6,5-1.2,10-2,14.9c-0.2,1.1-0.4,2.2-0.6,3.3c-0.1,0.8-0.3,1.6-0.4,2.4c-0.1,0.6-0.2,1.3-0.3,1.9c-0.1,0.8-0.3,1.6-0.5,2.4
		c0,0.2-0.1,0.4-0.1,0.6c-0.2,0.9-0.3,1.7-0.5,2.6c-0.1,0.5-0.2,1-0.3,1.5c-0.2,0.8-0.3,1.6-0.5,2.4c0,0.2-0.1,0.4-0.1,0.6
		c-0.2,1.1-0.5,2.1-0.7,3.2c-0.3,1.2-0.5,2.3-0.8,3.5c-0.3,1.2-0.6,2.3-0.9,3.5c-0.7,2.6-1.4,5.1-2.1,7.7c-0.3,1.1-0.6,2.2-0.9,3.3
		v0.1c-0.4,1.2-0.7,2.5-1.1,3.7c-0.3,1-0.6,2-1,3.1c-0.2,0.5-0.3,1.1-0.5,1.6c-0.3,0.9-0.6,1.8-0.9,2.8c0,0.1,0,0.1-0.1,0.2
		c-0.3,0.9-0.6,1.9-1,2.8c-0.2,0.5-0.4,1-0.5,1.5c-0.3,0.8-0.6,1.6-0.9,2.5c-0.1,0.3-0.2,0.6-0.3,0.8c-0.3,0.8-0.6,1.7-0.9,2.5
		c-0.6,1.6-1.2,3.1-1.8,4.7c-0.3,0.7-0.6,1.4-0.9,2.1c-0.2,0.6-0.5,1.1-0.7,1.7c-0.5,1.1-0.9,2.2-1.4,3.4s-1,2.3-1.5,3.5
		s-1,2.3-1.5,3.5c-0.4,0.9-0.8,1.8-1.2,2.7c-3.4,6.3-7,12.3-11,18.3c-41.9,63.8-56,74.1-74.9,89.4c-18.5,15-56.7,34.6-83.2,46
		c-18.1,7.7-25.2,7-27.9,5.8l-1.5-1.1l0,0c0.2-0.9,0.7-1.9,1.5-3.1l0,0c0.6-0.8,1.4-1.7,2.4-2.7c1.1-1.2,2.2-2.3,3.4-3.5
		c3.5-3.4,7.7-6.8,12-10.2l0,0l0,0l0,0l0,0l3.8-3c0.4-0.3,0.8-0.7,1.3-1l0,0c2.8-2.2,5.6-4.3,8.1-6.4c18.6-15.2,38.9-46.5,29.2-83.8
		c-6.7-25.8,13.9-34.6,17.3-46.4c1.5-5.2-3.2-14.3-7.9-21.5v-0.1c-0.4-0.5-0.7-1.1-1.1-1.6c-0.3-0.4-0.6-0.9-0.9-1.3
		c1.5-1,2.4-2.6,2.4-4.4v-29.3c0,0.1,0.1,0.1,0.1,0.2l0,0v1.8c5.7,9.7,15.3,20.4,25,29.5c14.4,13.6-24.2,52-17.4,71.9
		c6,17.5,27.7,27.7,39.3,22.7c37.7-16.4,34.7-68.9,64.6-88.1c31.5-20.2,0.6-88.7-29-82.8c-32.4,6.5-52.2-1.5-54.3-22.9
		c-0.8-8.1-4.4-11.4-2.9-12.9c1-1,3.2,0.4,4.6,1.6c4.4,3.7,8.5,7.6,13.3,10.9l0.1,0.1c5.5,4.8,12.8,6.2,19.8,7.5
		c6.6,1.2,13.5,2.4,19.3,6.3c9.6,6.5,19.3,10,28.7,10.4c4.7,0.2,9.4-0.3,13.9-1.7c2.2-0.6,4.3-1.4,6.3-2.4c6.9-3.2,11.7-8.1,16-12.4
		C751.4,337.2,754.1,334.5,757.1,332.5z"/>
	<path class="st5" d="M712.6,268.1c-6.1,3.2-12.6,6.6-20.3,9.1c-8-4.7-16.6-10.8-18.5-21.8c-2-11.8-5.2-25.9-18.6-33
		c-4.3-2.3-28.1-5.3-17.2-22.6c8.3-13.1,13-34.9,5.2-50.4c-10.4-20.6-20.5-6-35.3-30.2c-7.9-13-9.3-30.4-7.2-40.9
		c1.6-7.8,0.9-13.8,9-9.3c1.3,0.7,2.6,1.4,3.8,2.2c0,0,0,0,0.1,0c37.8,22,91.2,76.4,123.1,144.3l0,0l0,0v0.1c0.1,0.3,0.3,0.7,0.4,1
		c0.2,0.6,0.5,1.2,0.7,1.9c0,0.1,0.1,0.2,0.1,0.3c0.2,0.5,0.4,1,0.5,1.5c0,0.1,0.1,0.2,0.1,0.3c0.3,0.9,0.6,1.8,1,2.7
		c0.1,0.4,0.3,0.8,0.4,1.2c0,0.1,0.1,0.3,0.1,0.4c0.3,0.9,0.6,1.8,0.9,2.7c0.2,0.6,0.4,1.2,0.6,1.8c0.3,0.9,0.6,1.9,0.9,2.8
		c0.1,0.2,0.1,0.4,0.2,0.6c0.3,0.9,0.6,1.8,0.8,2.7c0.3,1,0.6,2.1,0.9,3.1s0.6,2.1,0.9,3.1c0.3,1,0.6,2,0.8,3
		c0.2,0.9,0.5,1.8,0.7,2.7c0.2,0.6,0.3,1.2,0.5,1.7c0.2,0.7,0.4,1.4,0.5,2.1c0.2,0.9,0.5,1.8,0.7,2.7c0,0.1,0.1,0.3,0.1,0.4
		s0,0.2,0.1,0.3c0.2,0.9,0.4,1.8,0.6,2.7c0.2,0.9,0.4,1.8,0.6,2.7c0.2,0.9,0.4,1.8,0.6,2.6c-2.9-0.3-6.2-0.9-10.5-1.9
		C730.6,258.7,722.2,263,712.6,268.1z"/>
	<path class="st4" d="M273,264.5c0.1,2.7-0.4,5.3-1.8,7.1c-1.2,1.6-3.1,2.9-5.4,3.8c0,0.3,0,0.6-0.1,0.9c0,0.3-0.1,0.5-0.1,0.8
		s-0.1,0.5-0.1,0.8c-0.1,0.6-0.2,1.3-0.4,1.9c1.9-0.9,3.6-2.1,5-3.5C272.7,273.6,273.5,269,273,264.5z"/>
	<path class="st5" d="M263.4,263.6c0,0.1,0.1,0.1,0.1,0.2l1.1,2.6l0.6,2.2v0.1c0,0.1,0,0.2,0.1,0.3c0,0.1,0.1,0.3,0.1,0.4
		c0,0.1,0.1,0.3,0.1,0.4c0,0.1,0,0.2,0.1,0.4c0.1,0.3,0.1,0.6,0.1,1c0,0.2,0,0.3,0.1,0.5c0,0.2,0,0.4,0,0.6v0.6c0,0.2,0,0.4,0,0.6
		c0,0.7,0,1.4,0,2.2c2.2-0.9,4.1-2.2,5.4-3.8c1.4-1.8,1.9-4.3,1.8-7.1c0,0,0,0,0-0.1c-0.1-4.4-1.8-9.2-3.9-12.1
		c-3.9-5.2-14.2-4.6-18.5-1.5c0.1,0,0.1,0.1,0.2,0.1c4.4,2.3,7.3,5.5,7.9,6.1l0.1,0.1l2.1,2.5c0.1,0.1,0.2,0.3,0.3,0.4l0.1,0.1
		l0.1,0.1L263.4,263.6z"/>
	<path class="st4" d="M712.8,438.4c-29.9,19.2-26.9,71.8-64.6,88.1c-11.7,5.1-33.3-5.2-39.3-22.7c-6.8-19.9,31.8-58.2,17.4-71.9
		c-9.7-9.2-19.3-19.9-25-29.5v-1.8l0,0l-0.1-15.9v-55.5c1,0.4,1.8,0.8,2.4,0.9c1.6,0.5,3.7-0.2,4.7-1.4c4.8-5.2,15.1-21.6,23.5-14.5
		c1.9,1.6,3.7,3.3,5.4,4.9c0.2,1.1,0.5,2.2,0.8,3.2c1.6,4.4,3.8,7.5,6.5,9.9c-4.8-3.2-8.9-7.2-13.3-10.9c-1.4-1.2-3.5-2.6-4.6-1.6
		c-1.6,1.5,2.1,4.8,2.9,12.9c2.1,21.4,21.9,29.4,54.3,22.9C713.4,349.7,744.3,418.1,712.8,438.4z"/>
	<path class="st4" d="M563.8,153.3c-2.9-2-5.9-1.6-8.4,0c-0.9,0.6-1.8,1.4-2.5,2.3l1.1-0.1l11.7-0.7
		C565.1,154.2,564.5,153.7,563.8,153.3z M578.1,209l-24.6-11.9l-3.1-1.5c0.2,0.5,0.3,1,0.5,1.5c2.7,7,6.6,14.1,14.7,16
		c5.1,1.2,9.7-0.7,13.6-3.5L578.1,209z"/>
	<path class="st5" d="M566,150.8c-4-2.8-8-0.9-10.6,2.5c-0.5,0.7-1,1.4-1.4,2.2l11.7-0.7l4.5-0.3C568.4,152.7,566.8,151.4,566,150.8
		z M553.5,197.1c0.5,1.4,1.1,2.8,1.9,4.2c3.2,6.4,10.4,9.6,14.3,9.6c3,0,5.8-0.7,8.4-1.9L553.5,197.1z"/>
</g>
<path id="контур" class="st2" d="M764.6,329.1c-0.4,0.1-0.9,0.3-1.3,0.4c-0.8,0.3-1.7,0.6-2.4,0.9c-0.1,0-0.1,0-0.2,0.1
	c-0.4,0.2-0.8,0.4-1.2,0.6c-0.7,0.3-1.3,0.7-1.9,1.1c-0.1,0.1-0.3,0.2-0.4,0.3c0,1.4,0,2.7-0.1,4.1c0,0.2,0,0.4,0,0.6
	c0,1.3-0.1,2.5-0.1,3.8c0,0.3,0,0.7,0,1c0,0.8-0.1,1.6-0.1,2.4c0,1-0.1,2-0.2,2.9c0,0.4,0,0.8-0.1,1.2c0,0.8-0.1,1.6-0.2,2.3
	c-0.1,0.8-0.1,1.7-0.2,2.5c0,0.5-0.1,1-0.1,1.5c-0.1,1.2-0.2,2.4-0.3,3.5c0,0.1,0,0.3,0,0.4c-0.1,0.9-0.2,1.9-0.3,2.8
	c-0.1,0.6-0.1,1.3-0.2,1.9c-0.6,5-1.2,10-2,14.9c-0.2,1.1-0.4,2.2-0.6,3.3c-0.1,0.8-0.3,1.6-0.4,2.4c-0.1,0.6-0.2,1.3-0.3,1.9
	c-0.1,0.8-0.3,1.6-0.5,2.4c0,0.2-0.1,0.4-0.1,0.6c-0.2,0.9-0.3,1.7-0.5,2.6c-0.1,0.5-0.2,1-0.3,1.5c-0.2,0.8-0.3,1.6-0.5,2.4
	c0,0.2-0.1,0.4-0.1,0.6c-0.2,1.1-0.5,2.1-0.7,3.2c-0.3,1.2-0.5,2.3-0.8,3.5s-0.6,2.3-0.9,3.5c-0.7,2.6-1.4,5.1-2.1,7.7
	c-0.3,1.1-0.6,2.2-0.9,3.3v0.1c-0.4,1.2-0.7,2.5-1.1,3.7c-0.3,1-0.6,2-1,3.1c-0.2,0.5-0.3,1.1-0.5,1.6c-0.3,0.9-0.6,1.8-0.9,2.8
	c0,0.1,0,0.1-0.1,0.2c-0.3,0.9-0.6,1.9-1,2.8c-0.2,0.5-0.4,1-0.5,1.5c-0.3,0.8-0.6,1.6-0.9,2.5c-0.1,0.3-0.2,0.6-0.3,0.8
	c-0.3,0.8-0.6,1.7-0.9,2.5c-0.6,1.6-1.2,3.1-1.8,4.7c-0.3,0.7-0.6,1.4-0.9,2.1c-0.2,0.6-0.5,1.1-0.7,1.7c-0.5,1.1-0.9,2.2-1.4,3.4
	s-1,2.3-1.5,3.5s-1,2.3-1.5,3.5c-0.4,0.9-0.8,1.8-1.2,2.7c-0.5,1.1-1,2.2-1.6,3.3c-0.3,0.5-0.5,1.1-0.8,1.6
	c-0.9,1.9-1.8,3.8-2.8,5.7c-0.2,0.5-0.5,1-0.7,1.5c0,0.1-0.1,0.1-0.1,0.2c-0.7,1.3-1.3,2.6-2,3.8c-3.1,5.9-6.5,11.6-9.9,17.3
	c-0.3,0.6-0.7,1.1-1.1,1.7c-1.9,3-3.8,6-5.8,8.9c-0.7,1-1.3,2-2,3s-1.4,2.1-2.2,3.1c-0.7,1-1.5,2.1-2.2,3.1c-1.5,2-3,4.1-4.5,6.1
	c-0.8,1-1.5,2-2.3,3c-0.3,0.4-0.7,0.9-1,1.3c0,0,0,0,0,0.1l0,0l0,0l-0.1,0.1l0,0l0,0l0,0l0,0l0,0c-0.1,0.1-0.1,0.2-0.2,0.2
	c-0.1,0.2-0.2,0.3-0.4,0.5c-0.1,0.1-0.2,0.2-0.2,0.3c0,0,0,0.1-0.1,0.1c-0.1,0.2-0.2,0.3-0.4,0.4l-0.1,0.1c-0.1,0.1-0.2,0.2-0.3,0.3
	c-0.2,0.2-0.4,0.5-0.6,0.7c-0.2,0.3-0.5,0.6-0.7,0.9c-1,1.2-2,2.4-3,3.6c-0.7,0.9-1.5,1.7-2.2,2.6c-0.7,0.9-1.5,1.7-2.2,2.5
	c0,0,0,0,0,0.1l0,0c-0.3,0.3-0.6,0.7-0.9,1c-0.7,0.8-1.5,1.6-2.2,2.4c-1.7,1.9-3.4,3.8-5.2,5.6c-0.4,0.4-0.8,0.9-1.3,1.3
	c-0.4,0.4-0.8,0.9-1.3,1.3c-0.1,0.1-0.2,0.2-0.2,0.3c-0.4,0.4-0.9,0.9-1.3,1.3c-0.4,0.4-0.9,0.9-1.3,1.3c-0.9,0.9-1.9,1.9-2.8,2.8
	c-0.9,0.9-1.9,1.8-2.8,2.7c-0.4,0.4-0.8,0.7-1.2,1.1c-0.8,0.8-1.7,1.6-2.6,2.4c-1.1,1-2.1,1.9-3.2,2.9c-1.7,1.6-3.5,3.1-5.2,4.6
	c-0.7,0.6-1.4,1.2-2.2,1.9c-1.7,1.4-3.4,2.8-5,4.2c-0.8,0.7-1.7,1.4-2.5,2c-0.6,0.5-1.2,1-1.8,1.4c-0.1,0.1-0.2,0.2-0.3,0.2
	c-0.6,0.4-1.1,0.9-1.7,1.3c-0.1,0.1-0.3,0.2-0.4,0.3c-0.4,0.3-0.9,0.7-1.3,1c-0.5,0.4-1,0.7-1.5,1.1c-0.4,0.3-0.9,0.7-1.3,1
	c-0.8,0.6-1.7,1.2-2.5,1.8c-0.6,0.4-1.2,0.8-1.7,1.3c-2.4,1.7-4.9,3.4-7.3,5.1c-0.6,0.4-1.2,0.8-1.8,1.2c-1.4,0.9-2.7,1.8-4.1,2.7
	c-0.4,0.2-0.8,0.5-1.1,0.7c-0.4,0.2-0.8,0.5-1.1,0.7c-0.9,0.6-1.8,1.1-2.7,1.7c-6.9,4.3-14,8.2-21.3,11.9c-0.8,0.4-1.5,0.8-2.3,1.1
	c-2.3,1.1-4.6,2.3-7,3.4c-0.7,0.3-1.5,0.7-2.2,1c-3.1,1.4-6.1,2.8-9.3,4.1c-0.9,0.4-1.8,0.8-2.8,1.2c-0.6,0.3-1.3,0.5-1.9,0.8
	c-0.7,0.3-1.5,0.6-2.2,0.9c-0.3,0.1-0.6,0.2-0.9,0.4c-1,0.4-1.9,0.7-2.9,1.1c-0.5,0.2-1,0.4-1.6,0.6c-0.4,0.2-0.9,0.3-1.3,0.5
	c-0.1,0.1-0.2,0.1-0.4,0.1c-0.8,0.3-1.6,0.6-2.5,0.9c-0.1,0.1-0.3,0.1-0.4,0.2c-0.8,0.3-1.6,0.6-2.4,0.9c-1.8,0.6-3.6,1.2-5.3,1.8
	l0,0l0,0c-0.1,0-0.2,0.1-0.3,0.1c-0.8,0.3-1.6,0.5-2.5,0.8c-0.8,0.3-1.6,0.5-2.5,0.8c-0.7,0.2-1.3,0.4-2,0.6
	c-1.3,0.4-2.6,0.8-3.9,1.1s-2.6,0.7-3.9,1.1c-1,0.3-2,0.5-3,0.8s-2,0.5-3,0.8c-2,0.5-4,1-6.1,1.5c-0.7,0.2-1.5,0.3-2.2,0.5
	c-0.5,0.1-1.1,0.2-1.6,0.4c-0.7,0.2-1.3,0.3-2,0.4c-0.3,0.1-0.5,0.1-0.8,0.2c-0.8,0.2-1.6,0.3-2.4,0.5c-0.1,0-0.3,0.1-0.4,0.1
	c-1.9,0.4-3.8,0.7-5.8,1.1c0,0,0,0-0.1,0c-1,0.2-2,0.4-3.1,0.5c-1,0.2-2,0.3-3.1,0.5c-2,0.3-4.1,0.6-6.2,0.9
	c-0.8,0.1-1.5,0.2-2.3,0.3c-0.3,0.1-0.7,0.1-1.1,0.1c-1,0.1-1.9,0.2-2.9,0.3s-1.9,0.2-2.9,0.3c-3.2,0.4-6.4,0.7-9.7,0.9
	c-0.7,0.1-1.3,0.1-2,0.2c-1,0.1-2,0.1-3,0.2c-0.1,0-0.2,0-0.3,0c-1.2,0.1-2.4,0.1-3.7,0.2c-0.1,0-0.2,0-0.3,0
	c-1.3,0.1-2.5,0.1-3.8,0.2h-0.1c-1.2,0-2.4,0.1-3.6,0.1c-0.2,0-0.4,0-0.7,0c-0.9,0-1.8,0-2.7,0.1c-0.5,0-1,0-1.5,0
	c-1.2,0-2.3,0-3.5,0c-42.6,0-84-8.4-122.9-24.8c-16.7-7.1-32.7-15.5-47.9-25.3l0.4-0.2l4.8-2.3l0.4-0.2l13.7-6.6l77.8-37.7l0,0
	l10.2-4.9l0,0l18.2-8.8l14.2-6.9c0.5-0.2,1-0.6,1.4-0.9c0.1-0.1,0.1-0.1,0.2-0.2c0.3-0.3,0.5-0.6,0.7-0.9c0,0,0-0.1,0.1-0.1
	c0.1-0.1,0.1-0.2,0.2-0.3c0.1-0.1,0.1-0.2,0.2-0.3c0.1-0.1,0.1-0.3,0.2-0.4c0.1-0.1,0.1-0.3,0.2-0.4v-0.1c0-0.1,0.1-0.3,0.1-0.4
	c0,0,0,0,0-0.1s0-0.1,0-0.2c0.1-0.4,0.1-0.8,0.1-1.2c0-0.1,0-0.1,0-0.2c0-0.1,0-0.2,0-0.3c-0.1-0.6-0.2-1.2-0.5-1.8V518
	c-1.4-2.9-5-4.2-7.9-2.7l-140.7,68.1c0,0-8.1,3.7-9,8.2c-0.8,3.8,0.8,6.8,3.8,9.1c4,3,6.5,4.5,10.8,7.1
	c13.9,8.5,28.4,15.9,43.5,22.3c40.5,17.1,83.4,25.8,127.7,25.8s87.2-8.7,127.6-25.8c39-16.5,74.1-40.2,104.2-70.3
	c30.1-30.1,53.8-65.2,70.3-104.2c17.1-40.4,25.8-83.4,25.8-127.6v-0.4C767.8,328.1,766.2,328.6,764.6,329.1z M743.5,200.3
	c-16.5-39-40.2-74.1-70.3-104.2C643.1,66,608,42.3,569,25.8C528.6,8.7,485.6,0,441.4,0c-44.3,0-87.2,8.7-127.6,25.8
	c-39,16.5-74.1,40.2-104.2,70.3c-26.1,26.1-47.4,56-63.3,88.9c0.6,0.1,1.1,0.3,1.6,0.4c1.4,0.4,2.8,0.9,4.1,1.6
	c1.9,0.9,3.7,2,5.2,3.2c0.4-0.8,0.8-1.7,1.2-2.5c0.6-1.1,1.1-2.3,1.7-3.4c0.5-1,1-2,1.6-3c0.4-0.7,0.7-1.4,1.1-2.1
	c0.1-0.1,0.1-0.3,0.2-0.4c0.4-0.8,0.9-1.7,1.4-2.5c0.4-0.8,0.9-1.6,1.4-2.5c1.3-2.3,2.5-4.5,3.9-6.7c0.4-0.7,0.8-1.4,1.3-2.1
	c1-1.6,2-3.2,3-4.8c0.4-0.7,0.8-1.4,1.3-2c0.5-0.8,1-1.5,1.5-2.3c0.4-0.6,0.8-1.2,1.2-1.8c0.5-0.8,1.1-1.6,1.6-2.4
	c0.7-1,1.4-2.1,2.1-3.1c0.7-0.9,1.3-1.9,2-2.8c0.1-0.2,0.2-0.3,0.3-0.5c0.7-1,1.4-1.9,2.1-2.9c0.7-1,1.5-2,2.3-3.1
	c0.8-1,1.5-2,2.3-3c0.6-0.7,1.1-1.5,1.7-2.2c1-1.3,2-2.5,3-3.8c0.7-0.9,1.4-1.7,2.1-2.5c1-1.3,2.1-2.5,3.1-3.8
	c0.7-0.8,1.4-1.6,2.1-2.5c0.7-0.8,1.4-1.6,2-2.3c0.3-0.4,0.7-0.8,1-1.2c0.7-0.7,1.3-1.5,2-2.2c1.1-1.2,2.2-2.4,3.3-3.5
	c0.7-0.7,1.3-1.4,2-2.1s1.3-1.4,2-2.1c0.4-0.4,0.8-0.9,1.3-1.3c0.7-0.7,1.4-1.4,2.1-2.1c29-29,62.8-51.8,100.4-67.7
	c1-0.4,1.9-0.8,2.9-1.2c0.6-0.3,1.2-0.5,1.8-0.7c0.9-0.4,1.9-0.8,2.8-1.1c1.1-0.4,2.1-0.8,3.2-1.2c0.1,0,0.2-0.1,0.2-0.1
	c1.2-0.5,2.5-0.9,3.7-1.4c1.1-0.4,2.3-0.8,3.4-1.2c2.2-0.8,4.4-1.5,6.6-2.2c0.8-0.3,1.6-0.5,2.5-0.8c1.2-0.4,2.3-0.7,3.5-1.1
	c1.6-0.5,3.1-1,4.7-1.4c0.1,0,0.1,0,0.2,0c0.9-0.3,1.7-0.5,2.6-0.7c0.1,0,0.1,0,0.2,0c1.8-0.5,3.6-1,5.5-1.5
	c0.6-0.2,1.2-0.3,1.8-0.5c1-0.2,1.9-0.5,2.9-0.7h0.1c1-0.2,2.1-0.5,3.1-0.7c0.5-0.1,1-0.2,1.5-0.3c0.1,0,0.2,0,0.3-0.1
	c0.1,0,0.3-0.1,0.4-0.1c1-0.2,2.1-0.5,3.1-0.7c0.6-0.1,1.1-0.2,1.7-0.3c0.8-0.2,1.7-0.4,2.5-0.5c0.4-0.1,0.9-0.2,1.3-0.3
	c1.1-0.2,2.2-0.4,3.3-0.6c0.2,0,0.4-0.1,0.7-0.1c1.3-0.2,2.7-0.5,4-0.7c1.2-0.2,2.4-0.4,3.7-0.6c0.3-0.1,0.6-0.1,0.9-0.1
	c1.4-0.2,2.7-0.4,4.1-0.6c2.9-0.4,5.8-0.8,8.7-1.1c1.4-0.2,2.9-0.3,4.3-0.4c1.2-0.1,2.5-0.2,3.8-0.3c0.5,0,1-0.1,1.5-0.1
	c0.9-0.1,1.9-0.2,2.8-0.2c0.5,0,1-0.1,1.6-0.1s1.3-0.1,1.9-0.1c1-0.1,1.9-0.1,2.9-0.2c0.2,0,0.4,0,0.7,0c1.1-0.1,2.1-0.1,3.2-0.1
	c0.7,0,1.4-0.1,2.1-0.1c0.6,0,1.1,0,1.7-0.1c1.3,0,2.5-0.1,3.8-0.1c0.1,0,0.2,0,0.3,0c1.5,0,2.9,0,4.4,0c42.6,0,84,8.4,122.9,24.8
	c14.9,6.3,29.1,13.6,42.7,22c0.4,0.2,0.8,0.5,1.2,0.7c1.5,0.9,3,1.9,4.4,2.8c0.9,0.6,1.8,1.2,2.8,1.8c0.9,0.6,1.8,1.2,2.7,1.8
	c0.9,0.6,1.7,1.1,2.5,1.7c0.2,0.1,0.4,0.3,0.6,0.4c0.8,0.6,1.6,1.1,2.4,1.7c2.1,1.5,4.3,3.1,6.4,4.6c1,0.8,2,1.5,3,2.3
	c0.7,0.5,1.4,1.1,2.1,1.7c0.6,0.4,1.1,0.9,1.7,1.3c0.5,0.4,0.9,0.7,1.4,1.1c0.8,0.7,1.7,1.3,2.5,2c0.1,0.1,0.3,0.2,0.4,0.3
	c1,0.8,2,1.6,3,2.5c1.6,1.3,3.1,2.7,4.7,4c0.8,0.7,1.6,1.4,2.4,2.1c0.9,0.8,1.8,1.6,2.7,2.4c0.5,0.4,0.9,0.9,1.4,1.3
	c0.8,0.8,1.6,1.5,2.5,2.3c0.2,0.2,0.4,0.4,0.6,0.6c0.7,0.7,1.4,1.4,2.1,2c0.3,0.3,0.7,0.7,1,1c1,1,2,2,3.1,3
	c29,29,51.8,62.8,67.7,100.4c0.6,1.3,1.1,2.7,1.7,4c0.3,0.7,0.6,1.3,0.8,2c0.4,1,0.8,2,1.2,3c0.2,0.5,0.4,0.9,0.5,1.4l0,0l0,0v0.1
	c0.1,0.3,0.3,0.7,0.4,1c0.2,0.6,0.5,1.2,0.7,1.9c0,0.1,0.1,0.2,0.1,0.3c0.2,0.5,0.4,1,0.5,1.5c0,0.1,0.1,0.2,0.1,0.3
	c0.3,0.9,0.6,1.8,1,2.7c0.1,0.4,0.3,0.8,0.4,1.2c0,0.1,0.1,0.3,0.1,0.4c0.3,0.9,0.6,1.8,0.9,2.7c0.2,0.6,0.4,1.2,0.6,1.8
	c0.3,0.9,0.6,1.9,0.9,2.8c0.1,0.2,0.1,0.4,0.2,0.6c0.3,0.9,0.6,1.8,0.8,2.7c0.3,1,0.6,2.1,0.9,3.1c0.3,1,0.6,2.1,0.9,3.1
	s0.6,2,0.8,3c0.2,0.9,0.5,1.8,0.7,2.7c0.2,0.6,0.3,1.2,0.5,1.7c0.2,0.7,0.4,1.4,0.5,2.1c0.2,0.9,0.5,1.8,0.7,2.7
	c0,0.1,0.1,0.3,0.1,0.4s0,0.2,0.1,0.3c0.2,0.9,0.4,1.8,0.6,2.7c0.2,0.9,0.4,1.8,0.6,2.7c0.2,0.9,0.4,1.8,0.6,2.6
	c0.7,0.1,1.4,0.1,2.1,0.2c0.1,0,0.2,0,0.3,0c0.1,0,0.2,0,0.4,0c0.3,0,0.6,0.1,0.9,0.1l0,0c0.4,0,0.7,0,1.1,0c0.1,0,0.2,0,0.4,0l0,0
	c2.3,0.1,4.6,0,7.2-0.2C758.5,241.5,752.1,220.6,743.5,200.3z M265.9,446.5c-0.1-0.1-0.1-0.2-0.2-0.4c-0.2-0.5-0.6-1-0.9-1.4
	c-0.1-0.1-0.2-0.2-0.3-0.4l0,0c-0.3-0.3-0.7-0.6-1.1-0.8c-0.1-0.1-0.2-0.1-0.3-0.2c-1.6-0.8-3.5-0.8-5.2,0l-47.8,22.9L172.9,484
	h-0.1l-4.1,2l-0.6,0.3c0,0,0-0.1-0.1-0.1c-6.6-11.3-12.5-23.1-17.6-35.3c-1-2.3-1.9-4.6-2.8-6.9c-0.3-0.7-0.6-1.4-0.8-2.2
	c-0.3-0.8-0.7-1.7-1-2.5c-0.4-1.1-0.8-2.1-1.2-3.2c-0.4-1.1-0.8-2.1-1.1-3.2c-0.2-0.6-0.4-1.1-0.6-1.6c-0.3-0.7-0.5-1.4-0.7-2.2
	c-0.1-0.2-0.2-0.5-0.2-0.7c-0.3-0.9-0.6-1.7-0.9-2.6c-0.2-0.6-0.4-1.2-0.6-1.8c-0.5-1.6-1-3.2-1.5-4.8c-0.3-0.9-0.6-1.9-0.8-2.8
	c-0.3-1-0.6-2-0.9-3c-0.2-0.6-0.3-1.2-0.5-1.9s-0.4-1.4-0.6-2.2c-1.6-5.9-3-11.9-4.2-17.9c-0.2-1-0.4-1.9-0.6-2.9
	c0-0.2-0.1-0.4-0.1-0.7c-0.2-1.1-0.4-2.3-0.6-3.4c-0.2-1.2-0.4-2.4-0.6-3.6c-0.2-1.1-0.4-2.1-0.5-3.2c-0.1-0.3-0.1-0.6-0.1-0.9
	c-0.2-1-0.3-2.1-0.5-3.1c-0.2-1.2-0.3-2.3-0.5-3.5c0-0.1,0-0.2-0.1-0.4c-0.2-1.1-0.3-2.2-0.4-3.3v-0.1c-0.1-1.2-0.3-2.4-0.4-3.5
	c-0.1-1.2-0.3-2.4-0.4-3.6c-0.2-1.8-0.3-3.7-0.5-5.5s-0.3-3.7-0.4-5.5c-0.2-2.3-0.3-4.7-0.4-7c0-0.1,0-0.3,0-0.4
	c-0.1-1.2-0.1-2.4-0.1-3.6c0-0.1,0-0.2,0-0.2c-0.1-3-0.1-5.9-0.1-8.9c0-2.2,0-4.5,0.1-6.7c0-0.2,0-0.4,0-0.6c0-0.6,0-1.2,0.1-1.8
	c0-0.7,0-1.5,0.1-2.2c0-0.7,0.1-1.5,0.1-2.2c0-0.4,0-0.9,0.1-1.3c0-0.8,0.1-1.6,0.1-2.4c0-0.6,0.1-1.2,0.1-1.8c0-0.5,0.1-1,0.1-1.5
	c0-0.8,0.1-1.6,0.2-2.4c0-0.7,0.1-1.3,0.1-2c0-0.5,0.1-1,0.1-1.5c0.1-0.7,0.1-1.3,0.2-2c-0.5,0.1-1,0.2-1.4,0.3
	c-2.4,0.6-4.4,1.7-6.3,3c-0.9,0.6-2.1,1.2-3.5,1.7c-0.5,0.2-0.9,0.3-1.4,0.5c-0.5,7.6-0.8,15.3-0.8,23c0,44.3,8.7,87.2,25.8,127.6
	c4.4,10.4,9.3,20.5,14.7,30.3c2.9,5.3,5.6,12.1,10.2,13.4c5.3,1.5,18.2-6.2,18.2-6.2l80.6-39C265.8,452.7,267.1,449.3,265.9,446.5z"
	/>
<g id="Стрела">
	<g>
		<polygon class="st6" points="591.7,203.8 518.1,168.2 603.5,163.2 		"/>
		<g>
			<path class="st2" d="M614.6,154.8L614.6,154.8C614.6,154.8,614.6,154.7,614.6,154.8c-0.5-0.8-1.3-1.3-2-1.7l0,0
				c-1.2-0.6-2.4-0.8-3.2-0.8l0,0c-0.4,0-0.7,0-0.7,0l-21.7,1.3h-0.1l-16.6,1l-4.5,0.3l-11.7,0.7l-1.1,0.1l-56.4,3.4
				c-2.5,0-4.5,1.5-5,3.6c-0.4,1.9,0.3,4.5,3.8,6.2l55.1,26.7l3.1,1.5l24.6,11.9l1.1,0.5l10.9,5.3c0.7,0.4,4.2,1.7,6.8,0.8
				c2.5-0.8,3.4-2.5,4.2-5.1l14-49.3l0.4-1.4c0,0,0.2-0.6,0.2-1.5l0,0C615.6,157.4,615.4,156.1,614.6,154.8z M591.7,203.8l-4-1.9
				l-0.3-0.1l-36.9-17.9l-1.4-0.7l-29.9-14.5l31-2l1.1-0.1l23.5-1.5l5.7-0.4l23.1-1.5l0,0L591.7,203.8z"/>
		</g>
	</g>
	<path class="st7" d="M614.6,154.8L614.6,154.8C614.6,154.8,614.6,154.7,614.6,154.8c-0.5-0.8-1.3-1.3-2-1.7l0,0
		c-1.2-0.6-2.4-0.8-3.2-0.8l0,0c-0.4,0-0.7,0-0.7,0l-21.7,1.3h-0.1l-16.6,1l-4.5,0.3l-11.7,0.7l-1.1,0.1l-56.4,3.4
		c-2.5,0-4.5,1.5-5,3.6c-0.4,1.9,0.3,4.5,3.8,6.2l55.1,26.7l3.1,1.5l24.6,11.9l1.1,0.5l10.9,5.3c0.7,0.4,4.2,1.7,6.8,0.8
		c2.5-0.8,3.4-2.5,4.2-5.1l14-49.3l0.4-1.4c0,0,0.2-0.6,0.2-1.5l0,0C615.6,157.4,615.4,156.1,614.6,154.8z M552.9,155.5l2.5-2.3
		C554.5,153.9,553.6,154.6,552.9,155.5z M285.9,308.2v-62.3c0-0.2,0-0.4,0-0.6"/>
</g>
<g id="ОБЛАКА_3_">
	<path class="st2" d="M255.6,276.1c0,0.1,0,0.3-0.1,0.4c-0.1,1-0.6,2.2-1.3,3.6c-1.8,3.4-5.5,7.7-11.4,10.5
		c-3.8,1.8-8.8,3.2-15.2,2.8c-0.5,0-1.1-0.1-1.6-0.1c-6-0.6-13-2.9-21.1-7.8c-1.3-0.8-2.6-1.4-3.9-1.9c-0.5-0.2-1.1-0.4-1.6-0.6
		c-11-3.4-23.1,0.9-33.1,4.5c-6,2.2-9.1,5.5-15.4,3.7c-5.4-1.6-10.1-2.3-14.1-2.5c-2.5-0.2-4.8-0.1-6.9,0.1c-0.2,0-0.5,0-0.7,0.1
		c-0.9,0.1-1.7,0.2-2.5,0.4c-3.9,0.8-7.1,2.1-9.9,3.3c-0.6,0.3-1.3,0.6-1.9,0.9c-13.8,6.5-41.6,2.7-52.1-5.6
		c-6.9-5.5-10.5-12.3-10.9-21.8c0-0.8-0.1-1.5-0.3-2.3l0,0l0,0v-0.1l0,0l0,0l0,0l0,0v-0.2c0-0.7-0.3-1.9-0.8-3.2l0,0v-0.1v-0.1
		c-4.5-14.5-21-28.6-19.2-41.9c2.5-18.4,16.7-19,16.9-19c5.6,0,11,3.2,16.7,6.6c10.2,6,22.8,13.5,38.7,2.5c11.5-8,28-15.6,39.4-13.3
		c1.5,0.3,2.8,0.7,4.1,1.3c2.1,1,3.9,2.3,5.4,3.7c0.3,0.3,0.6,0.6,0.9,0.9c0.1,0.1,0.2,0.2,0.3,0.4c2.2,2.5,3.6,5.6,4.9,8.8
		c0.6,1.4,1.1,2.9,1.6,4.5c1.2,3.5,2.6,7.3,4.5,10.9s4.5,7.1,8.3,10.2c3.8,3.1,9.7,5.3,16.8,7.3c0.5,0.1,1,0.3,1.5,0.4
		c4.5,1.2,9.5,2.4,14.7,3.6c8.6,2,16.6,4,23.5,6.2c0.5,0.2,1,0.3,1.5,0.5c6.2,2.1,11.6,4.3,15.7,7c0.3,0.2,0.6,0.4,0.9,0.6
		C253.5,265.1,256.3,269.9,255.6,276.1z"/>
	<path class="st2" d="M797.3,292.8c-6,11.6-14.8,18-26.2,22.7c-0.7,0.3-1.3,0.5-2,0.8c-1.6,0.6-3.2,1.2-4.9,1.8c-1,0.3-2,0.7-3.1,1
		c-0.1,0.1-0.2,0.1-0.4,0.1c-0.2,0.1-0.4,0.1-0.5,0.2c-0.3,0.1-0.5,0.2-0.8,0.3c-0.8,0.3-1.5,0.5-2.2,0.9c-3.2,1.3-5.9,3.1-8.3,5
		c-1,0.8-1.9,1.6-2.8,2.4c-1.7,1.6-3.3,3.2-4.9,4.8c-3.9,4-7.7,7.8-12.9,10.2c-1.5,0.7-3,1.3-4.5,1.7c-10.7,3.3-22.1,0.9-34.1-7.2
		c-5.8-3.9-12.1-5.8-18-7c-1.8-0.4-3.6-0.7-5.4-1c-0.8-0.2-1.7-0.3-2.4-0.4c-8.9-1.7-13.7-3.3-15.8-9.9c-1.3-4-0.2-11.5,4.4-17.9
		c3.1-4.4,9-9.7,18.8-10c2.9-0.1,5.6-0.3,8.2-0.6h0.1c9.4-1.1,17.2-3.6,24.1-6.5l0,0c5.1-2.1,9.7-4.5,13.8-6.7
		c7.5-3.9,13.1-6.8,18.1-6.6c0.3,0,4.3,0.6,9.5,1.2c0,0,0.1,0,0.2,0c0.1,0,0.2,0,0.2,0c0.1,0,0.1,0,0.2,0c1.6,0.2,3.7,0.5,6.4,0.7
		c0.1,0,0.1,0,0.2,0l0,0h0.1l0,0c0,0,0,0,0.1,0c0.2,0,0.4,0,0.5,0h0.1l0,0h0.2c0.1,0,0.2,0,0.3,0c0.4,0,0.7,0.1,1.1,0.1
		c0.2,0,0.4,0,0.6,0.1c0.1,0,0.3,0,0.4,0c0.2,0,0.5,0,0.7,0c0.5,0,1,0.1,1.4,0.1c0.1,0,0.2,0,0.2,0l0,0c2.6,0.2,5,0.2,6.8,0.2
		c0.1,0,0.2,0,0.3,0c0.5,0,1,0,1.6-0.1c4.3-0.2,9.6-0.4,17-0.3C793.6,273,801.3,285,797.3,292.8z"/>
</g>
<g id="Коробка">
	<path class="st2" d="M598.1,240L448,167.2l-1.9-0.9c-0.7-0.3-1.5-0.5-2.4-0.5c-0.8,0-1.6,0.2-2.4,0.5l-42.2,20.5l-108.7,52.7
		c0,0-3.3,1.5-4,2.9c0,0.1-0.1,0.2-0.1,0.2c0,0.1-0.1,0.2-0.1,0.2c-0.1,0.2-0.1,0.3-0.2,0.5c-0.1,0.5-0.3,1.1-0.3,1.9l0,0
		c0,0.2,0,0.4,0,0.6v183.7c0,2,1.2,3.9,3.1,4.8l1,0.5h0.1l0.2,0.1l0,0h0.1l147.4,71.3l0.2,0.1l0.4,0.2c0,0,2.3,0.8,5.5,0.8
		s7.1-1.6,7.1-1.6L596.7,435l0.9-0.4l0.1-0.1l0.2-0.1c0.1,0,0.1-0.1,0.2-0.1c0,0,0.1,0,0.1-0.1l0,0c0.1-0.1,0.2-0.1,0.3-0.2
		c1.5-1,2.4-2.6,2.4-4.4v-185C601.1,242.6,599.9,240.8,598.1,240z M422.1,187.7l21.8-10.6l56.5,27.5l-0.2,0.1l-11.6,5.7l-127.9,62
		L304,244.9L422.1,187.7z M438.5,494.8l-20.6-10l-1.3-0.6l-119.8-58.1V253.3l61,29.7l-0.1,53.8c0,3,2.4,5.4,5.4,5.4s5.4-2.4,5.4-5.4
		v-48.7l66,32l4,1.9L438.5,494.8L438.5,494.8z M443.9,312.7l-71-34.4l139.8-67.8l70.9,34.4L443.9,312.7z M590.5,426.3l-141.2,68.5
		V322.1l141-68.4l0.3-0.1L590.5,426.3L590.5,426.3z"/>
	<polygon class="st6" points="590.5,253.6 590.5,426.3 449.2,494.8 449.2,322.1 590.2,253.7 	"/>
	<polygon class="st8" points="488.5,210.3 360.6,272.3 304,244.9 422.1,187.7 443.9,177.1 500.4,204.6 500.1,204.7 	"/>
	<polygon class="st8" points="583.7,244.9 443.9,312.7 372.9,278.3 512.7,210.5 	"/>
</g>
<g id="Название">
	<path class="st2" d="M72.9,804.8c2.7,3.7,4.1,8.2,4.1,13.6c0,7.6-2.9,13.5-8.6,17.6s-14,6.1-25,6.1H0v-86.9h41
		c10.2,0,18.1,2,23.6,6.1s8.2,9.6,8.2,16.5c0,4.2-1,8-2.9,11.3c-2,3.3-4.7,5.9-8.2,7.8C66.4,798.5,70.2,801.1,72.9,804.8z
		 M19.3,770.4v20.5h19.3c4.8,0,8.4-0.9,10.9-2.6s3.7-4.3,3.7-7.7c0-3.4-1.2-5.9-3.7-7.6c-2.5-1.7-6.1-2.5-10.9-2.5H19.3V770.4z
		 M53.6,824.4c2.6-1.7,3.9-4.4,3.9-8.1c0-7.2-5.2-10.8-15.5-10.8H19.3V827H42C47.1,827,51,826.1,53.6,824.4z"/>
	<path class="st2" d="M101,833.3c-6.7-6.9-10-16.7-10-29.4v-48.7h19.4v47.9c0,15.6,6.2,23.4,18.7,23.4c6.1,0,10.7-1.9,13.9-5.7
		c3.2-3.8,4.8-9.7,4.8-17.7v-47.9H167v48.7c0,12.8-3.3,22.6-10,29.4c-6.7,6.9-16,10.3-28,10.3C117,843.6,107.7,840.2,101,833.3z"/>
	<path class="st2" d="M263.2,755.2v86.9h-15.9l-41.8-52.8v52.8h-19.2v-86.9h16.1l41.7,52.8v-52.8H263.2z"/>
	<path class="st2" d="M283.1,755.2h38.1c9.1,0,17.2,1.8,24.2,5.4c7,3.6,12.4,8.7,16.3,15.2c3.9,6.5,5.8,14.2,5.8,22.9
		c0,8.7-1.9,16.3-5.8,22.9c-3.9,6.5-9.3,11.6-16.3,15.2s-15,5.4-24.2,5.4h-38.1V755.2z M320.3,825.6c8.4,0,15.1-2.4,20.1-7.3
		c5-4.8,7.5-11.4,7.5-19.7c0-8.3-2.5-14.8-7.5-19.7c-5-4.8-11.7-7.3-20.1-7.3h-17.7v53.9L320.3,825.6L320.3,825.6z"/>
	<path class="st2" d="M382.1,755.2h19.4v70.6h42.1v16.4h-61.5V755.2z"/>
	<path class="st2" d="M519.5,826v16.1h-65v-86.9h63.4v16.1h-44.1v18.9h39v15.7h-39V826L519.5,826L519.5,826z"/>
	<path class="st6" d="M643,804.8c2.7,3.7,4.1,8.2,4.1,13.6c0,7.6-2.9,13.5-8.6,17.6c-5.7,4.1-14,6.1-25,6.1h-43.4v-86.9h41
		c10.2,0,18.1,2,23.6,6.1s8.2,9.6,8.2,16.5c0,4.2-1,8-2.9,11.3c-2,3.3-4.7,5.9-8.2,7.8C636.5,798.5,640.3,801.1,643,804.8z
		 M589.4,770.3v20.5h19.3c4.8,0,8.4-0.9,10.9-2.6s3.7-4.3,3.7-7.7c0-3.4-1.2-5.9-3.7-7.6c-2.5-1.7-6.1-2.5-10.9-2.5h-19.3V770.3z
		 M623.6,824.4c2.6-1.7,3.9-4.4,3.9-8.1c0-7.2-5.2-10.8-15.5-10.8h-22.6V827h22.7C617.2,827,621,826.1,623.6,824.4z"/>
	<path class="st6" d="M678.9,837.8c-7-3.9-12.5-9.3-16.4-16.1c-4-6.8-5.9-14.5-5.9-23s2-16.2,5.9-23c4-6.8,9.4-12.2,16.4-16.1
		c7-3.9,14.8-5.8,23.6-5.8c8.7,0,16.5,1.9,23.5,5.8c7,3.9,12.4,9.3,16.4,16.1c4,6.8,6,14.5,6,23s-2,16.2-6,23s-9.5,12.2-16.4,16.1
		c-7,3.9-14.8,5.8-23.5,5.8C693.7,843.6,685.9,841.7,678.9,837.8z M715.9,822.9c4-2.4,7.1-5.7,9.4-9.9c2.3-4.2,3.4-9,3.4-14.4
		s-1.1-10.2-3.4-14.4c-2.3-4.2-5.4-7.5-9.4-9.9s-8.5-3.5-13.4-3.5c-5,0-9.4,1.2-13.4,3.5c-4,2.4-7.1,5.7-9.4,9.9
		c-2.3,4.2-3.4,9-3.4,14.4s1.1,10.2,3.4,14.4c2.3,4.2,5.4,7.5,9.4,9.9s8.5,3.5,13.4,3.5C707.4,826.5,711.9,825.3,715.9,822.9z"/>
	<path class="st6" d="M812.9,842.1l-20.3-30.2l-19.9,30.2h-22.3l31.1-44.2L752,755.2h22.1l19.3,28.2l18.9-28.2h21l-29.3,42l31.3,45
		h-22.4V842.1z"/>
</g>
</svg>
